<?xml version="1.0" encoding="iso-8859-1"?>
<!-- Generator: Adobe Illustrator 19.0.0, SVG Export Plug-In . SVG Version: 6.00 Build 0)  -->
<svg version="1.1" id="Capa_1" xmlns="http://www.w3.org/2000/svg" xmlns:xlink="http://www.w3.org/1999/xlink" x="0px" y="0px"
	 viewBox="0 0 512 512" style="enable-background:new 0 0 512 512;" xml:space="preserve">
<circle style="fill:#2BB381;" cx="250.5" cy="267" r="245"/>
<path style="fill:#60D882;" d="M282.781,410l202.477-213.259C455.053,95.676,361.388,22,250.5,22S45.947,95.676,15.742,196.741
	L218.219,410H282.781z"/>
<path style="fill:#D9ED69;" d="M282.781,410l202.477-213.259C455.053,95.676,361.388,22,250.5,22S45.947,95.676,15.742,196.741
	L218.219,410H282.781z"/>
<g>
	<path style="fill:#9CE2D8;" d="M475.395,132H390.98c0.667,5.574,1.02,11.246,1.02,17c0,13.01-1.765,25.605-5.052,37.571h43.476
		c5.558,0,10.105-4.093,10.105-9.096c0-5.002-4.547-9.095-10.105-9.095h-12.632c-5.558,0-10.105-4.093-10.105-9.095
		c0-5.003,4.547-9.095,10.105-9.095h57.603c5.558,0,10.105-4.093,10.105-9.095C485.5,136.093,480.952,132,475.395,132z"/>
	<path style="fill:#9CE2D8;" d="M506.5,177.476c0,5.002-4.547,9.096-10.105,9.096h-39.413c-5.558,0-10.105-4.093-10.105-9.096
		c0-5.002,4.547-9.095,10.105-9.095h39.413C501.953,168.381,506.5,172.474,506.5,177.476z"/>
</g>
<path style="fill:#C3DDF4;" d="M341.571,437v-18c0-5.5-4.5-10-10-10H169.429c-5.5,0-10,4.5-10,10v18H341.571z"/>
<path style="fill:#94C2ED;" d="M191.5,437v-18c0-5.5,4.5-10,10-10h-32.071c-5.5,0-10,4.5-10,10v18H191.5z"/>
<path style="fill:#1A2B63;" d="M362.83,441c0-2.75-2.25-5-5-5H143.17c-2.75,0-5,2.25-5,5v13h224.66V441z"/>
<path style="fill:#2E4C89;" d="M369.5,453h-238c-2.75,0-5,2.25-5,5v20.329c36.376,21.39,78.751,33.671,124,33.671
	s87.625-12.281,124-33.671V458C374.5,455.25,372.25,453,369.5,453z"/>
<path style="fill:#293D7C;" d="M156.5,458c0-2.75,2.25-5,5-5h-30c-2.75,0-5,2.25-5,5v20.329c9.6,5.645,19.622,10.649,30,14.967V458z
	"/>
<g>
	<circle style="fill:#0F9390;" cx="220" cy="478" r="7.5"/>
	<circle style="fill:#0F9390;" cx="250.5" cy="478" r="7.5"/>
	<circle style="fill:#0F9390;" cx="281" cy="478" r="7.5"/>
</g>
<g>
	<path style="fill:#9CE2D8;" d="M450.5,33H331.539c17.785,12.448,32.575,28.877,43.074,48h36.332c4.889,0,8.889-3.6,8.889-8
		s-4-8-8.889-8h-11.111c-4.889,0-8.889-3.6-8.889-8s4-8,8.889-8H450.5c4.889,0,8.889-3.6,8.889-8S455.389,33,450.5,33z"/>
	<path style="fill:#9CE2D8;" d="M487.389,73c0,4.4-4,8-8.889,8h-34.667c-4.889,0-8.889-3.6-8.889-8s4-8,8.889-8H478.5
		C483.389,65,487.389,68.6,487.389,73z"/>
	<path style="fill:#9CE2D8;" d="M124.272,85H65.5c-4.889,0-8.889,3.6-8.889,8s4,8,8.889,8h11.111c4.889,0,8.889,3.6,8.889,8
		s-4,8-8.889,8H25.944c-4.889,0-8.889,3.6-8.889,8c0,4.4,4,8,8.889,8h83.962C111.831,115.891,116.802,99.705,124.272,85z"/>
</g>
<circle style="fill:#69CDFF;" cx="250.5" cy="149" r="141.5"/>
<path style="fill:#3EB7FF;" d="M139.5,149c0-72.995,55.274-133.073,126.25-140.68c-5.011-0.537-10.097-0.82-15.25-0.82
	C172.352,7.5,109,70.852,109,149s63.352,141.5,141.5,141.5c5.153,0,10.239-0.283,15.25-0.82
	C194.774,282.073,139.5,221.995,139.5,149z"/>
<path style="fill:#1E99D6;" d="M250.5,0c-82.159,0-149,66.841-149,149s66.841,149,149,149s149-66.841,149-149S332.659,0,250.5,0z
	 M359.463,226.906c-11.66-6.259-25.276-11.391-40.225-15.247c3.859-16.836,6.191-35.437,6.664-55.159h58.384
	C382.836,182.66,373.849,206.842,359.463,226.906z M116.714,156.5h58.384c0.473,19.722,2.805,38.322,6.664,55.159
	c-14.948,3.856-28.564,8.988-40.225,15.247C127.151,206.842,118.164,182.66,116.714,156.5z M141.537,71.094
	c11.66,6.259,25.276,11.391,40.225,15.247c-3.859,16.836-6.191,35.437-6.664,55.159h-58.384
	C118.164,115.34,127.151,91.158,141.537,71.094z M349.869,59.198c-10.086,5.139-21.723,9.396-34.451,12.672
	c-6.336-21.05-15.233-38.588-25.906-51.071C313.007,27.962,333.785,41.417,349.869,59.198z M258,281.861v-63.395
	c14.848,0.379,29.22,1.882,42.674,4.401c-2.525,8.201-5.475,15.903-8.856,22.94C282.367,265.476,270.353,278.155,258,281.861z
	 M258,203.465V156.5h52.892c-0.465,18.251-2.627,35.804-6.324,51.867C289.858,205.537,274.167,203.861,258,203.465z M258,141.5
	V94.535c16.167-0.396,31.858-2.072,46.567-4.902c3.697,16.063,5.859,33.616,6.324,51.867H258z M258,79.534V16.139
	c12.353,3.706,24.367,16.386,33.818,36.054c3.381,7.037,6.331,14.74,8.856,22.94C287.22,77.652,272.848,79.155,258,79.534z
	 M196.433,208.367c-3.697-16.064-5.859-33.616-6.324-51.867H243v46.965C226.833,203.861,211.142,205.537,196.433,208.367z
	 M243,218.466v63.395c-12.352-3.707-24.367-16.386-33.818-36.054c-3.381-7.037-6.331-14.74-8.856-22.94
	C213.78,220.348,228.152,218.845,243,218.466z M190.108,141.5c0.465-18.251,2.627-35.804,6.324-51.867
	c14.709,2.831,30.4,4.506,46.567,4.902V141.5H190.108z M200.326,75.133c2.525-8.201,5.475-15.903,8.856-22.94
	c9.451-19.669,21.466-32.348,33.818-36.054v63.396C228.152,79.155,213.78,77.652,200.326,75.133z M211.488,20.799
	c-10.673,12.483-19.57,30.022-25.906,51.071c-12.728-3.276-24.365-7.533-34.451-12.672
	C167.215,41.417,187.993,27.962,211.488,20.799z M151.131,238.802c10.086-5.139,21.723-9.396,34.451-12.672
	c6.335,21.05,15.233,38.588,25.906,51.071C187.993,270.038,167.215,256.583,151.131,238.802z M289.512,277.201
	c10.673-12.483,19.57-30.021,25.906-51.071c12.728,3.276,24.365,7.533,34.451,12.672
	C333.785,256.583,313.007,270.038,289.512,277.201z M325.902,141.5c-0.473-19.722-2.805-38.322-6.664-55.159
	c14.948-3.856,28.564-8.988,40.225-15.247c14.386,20.064,23.373,44.246,24.823,70.406H325.902z"/>
<g>
	<path style="fill:#FFFFFF;" d="M213.7,365c-0.809,0-1.538-0.487-1.848-1.235c-4.123-9.955-7.163-12.995-17.118-17.118
		c-0.748-0.31-1.235-1.039-1.235-1.848s0.487-1.538,1.235-1.848c9.955-4.123,12.995-7.163,17.118-17.118
		c0.31-0.748,1.039-1.235,1.848-1.235s1.538,0.487,1.848,1.235c4.123,9.955,7.163,12.995,17.118,17.118
		c0.748,0.31,1.235,1.039,1.235,1.848s-0.487,1.538-1.235,1.848c-9.955,4.123-12.995,7.163-17.118,17.118
		C215.238,364.513,214.509,365,213.7,365z"/>
	<path style="fill:#FFFFFF;" d="M250.5,396.4c-0.569,0-1.081-0.343-1.299-0.868c-2.898-6.997-5.036-9.135-12.033-12.033
		c-0.525-0.218-0.868-0.73-0.868-1.299s0.343-1.081,0.868-1.299c6.997-2.898,9.135-5.035,12.033-12.033
		c0.218-0.525,0.73-0.868,1.299-0.868s1.081,0.343,1.299,0.868c2.898,6.998,5.036,9.135,12.033,12.033
		c0.525,0.218,0.868,0.73,0.868,1.299s-0.343,1.081-0.868,1.299c-6.997,2.898-9.135,5.036-12.033,12.033
		C251.581,396.058,251.069,396.4,250.5,396.4z"/>
	<path style="fill:#FFFFFF;" d="M282.7,340.4c-0.569,0-1.081-0.343-1.299-0.868c-2.898-6.997-5.036-9.135-12.033-12.033
		c-0.525-0.218-0.868-0.73-0.868-1.299s0.343-1.081,0.868-1.299c6.997-2.898,9.135-5.035,12.033-12.033
		c0.218-0.525,0.73-0.868,1.299-0.868s1.081,0.343,1.299,0.868c2.898,6.998,5.036,9.135,12.033,12.033
		c0.525,0.218,0.868,0.73,0.868,1.299s-0.343,1.081-0.868,1.299c-6.997,2.898-9.135,5.036-12.033,12.033
		C283.781,340.058,283.269,340.4,282.7,340.4z"/>
	<path style="fill:#FFFFFF;" d="M70.602,197.468c-0.569,0-1.081-0.343-1.299-0.868c-2.898-6.997-5.036-9.135-12.033-12.033
		c-0.525-0.218-0.868-0.73-0.868-1.299s0.343-1.081,0.868-1.299c6.998-2.898,9.135-5.035,12.033-12.033
		c0.218-0.525,0.73-0.868,1.299-0.868s1.081,0.343,1.299,0.868c2.898,6.998,5.036,9.135,12.033,12.033
		c0.525,0.218,0.868,0.73,0.868,1.299s-0.343,1.081-0.868,1.299c-6.998,2.898-9.135,5.036-12.033,12.033
		C71.683,197.125,71.17,197.468,70.602,197.468z"/>
	<path style="fill:#FFFFFF;" d="M395.3,266.4c-0.569,0-1.081-0.343-1.299-0.868c-2.898-6.997-5.036-9.135-12.033-12.033
		c-0.525-0.218-0.868-0.73-0.868-1.299s0.343-1.081,0.868-1.299c6.997-2.898,9.135-5.035,12.033-12.033
		c0.218-0.525,0.73-0.868,1.299-0.868s1.081,0.343,1.299,0.868c2.898,6.998,5.036,9.135,12.033,12.033
		c0.525,0.218,0.868,0.73,0.868,1.299s-0.343,1.081-0.868,1.299c-6.997,2.898-9.135,5.036-12.033,12.033
		C396.381,266.058,395.869,266.4,395.3,266.4z"/>
</g>
<g>
</g>
<g>
</g>
<g>
</g>
<g>
</g>
<g>
</g>
<g>
</g>
<g>
</g>
<g>
</g>
<g>
</g>
<g>
</g>
<g>
</g>
<g>
</g>
<g>
</g>
<g>
</g>
<g>
</g>
</svg>
