<?xml version="1.0" encoding="iso-8859-1"?>
<!-- Generator: Adobe Illustrator 19.0.0, SVG Export Plug-In . SVG Version: 6.00 Build 0)  -->
<svg version="1.1" id="Capa_1" xmlns="http://www.w3.org/2000/svg" xmlns:xlink="http://www.w3.org/1999/xlink" x="0px" y="0px"
	 viewBox="0 0 512 512" style="enable-background:new 0 0 512 512;" xml:space="preserve">
<circle style="fill:#9CE2D8;" cx="256" cy="267" r="245"/>
<g>
	<path style="fill:#B7092B;" d="M365,141v-24c0-1.65-1.35-3-3-3h-18c-1.65,0-3,1.35-3,3v24H365z"/>
	<path style="fill:#B7092B;" d="M290,141v-19c0-1.65-1.35-3-3-3h-2c-1.65,0-3,1.35-3,3v19H290z"/>
	<path style="fill:#B7092B;" d="M304,141v-19c0-1.65-1.35-3-3-3h-2c-1.65,0-3,1.35-3,3v19H304z"/>
</g>
<path style="fill:#FFCA51;" d="M297.908,153.674c1.3,0,3.038,0.972,3.718,2.08l2.174,3.54c1.044,1.701,3.426,3.033,5.422,3.033H373
	V143c0-1.65-1.35-3-3-3h-98c-1.65,0-3,1.35-3,3v10.674H297.908z"/>
<path style="fill:#EF8318;" d="M292,140h-20c-1.65,0-3,1.35-3,3v10.674h20V143C289,141.35,290.35,140,292,140z"/>
<path style="fill:#FFFFFF;" d="M382.031,161.326h-72.809c-1.65,0-3.707-1.15-4.57-2.557l-2.174-3.539
	c-0.863-1.406-2.92-2.557-4.57-2.557H254c-1.65,0-2.294,1.15-1.43,2.557L268.396,181h107.609l7.774-16.947
	C384.468,162.553,383.681,161.326,382.031,161.326z"/>
<path style="fill:#D9EAFC;" d="M264.814,152.674H254c-1.65,0-2.294,1.15-1.43,2.557L268.396,181h10.814l-15.826-25.77
	C262.52,153.824,263.164,152.674,264.814,152.674z"/>
<g>
	<path style="fill:#52BBEF;" d="M430.255,0H229.328c-5.532,0-10.059,4.074-10.059,9.053s4.527,9.052,10.059,9.052h50.041
		c5.533,0,10.059,4.074,10.059,9.054s-4.526,9.053-10.059,9.053H159.666c-5.532,0-10.059,4.074-10.059,9.053
		c0,4.98,4.527,9.054,10.059,9.054h225.826c5.532,0,10.059-4.074,10.059-9.054c0-4.979-4.526-9.053-10.059-9.053h-12.573
		c-5.533,0-10.06-4.073-10.06-9.053s4.526-9.054,10.06-9.054h57.336c5.532,0,10.059-4.073,10.059-9.052S435.787,0,430.255,0z"/>
	<path style="fill:#52BBEF;" d="M472,45.265c0,4.979-4.527,9.054-10.059,9.054H422.71c-5.532,0-10.059-4.075-10.059-9.054
		s4.526-9.053,10.059-9.053h39.231C467.473,36.212,472,40.286,472,45.265z"/>
	<path style="fill:#52BBEF;" d="M201.11,88.899c0,4.979-4.527,9.054-10.059,9.054H151.82c-5.532,0-10.058-4.075-10.058-9.054
		s4.526-9.053,10.058-9.053h39.231C196.583,79.846,201.11,83.92,201.11,88.899z"/>
	<path style="fill:#52BBEF;" d="M150.31,133.349c0,4.979-4.527,9.053-10.059,9.053H101.02c-5.532,0-10.058-4.074-10.058-9.053
		c0-4.979,4.526-9.053,10.058-9.053h39.231C145.784,124.296,150.31,128.37,150.31,133.349z"/>
</g>
<path style="fill:#1E99D6;" d="M11,267c0,135.31,109.69,245,245,245s245-109.69,245-245c0-28.389-4.845-55.643-13.726-81H24.726
	C15.845,211.357,11,238.611,11,267z"/>
<path style="fill:#445EA0;" d="M152.085,241h-47c-2.75,0-5,2.25-5,5v64H101c2.206,0,4,1.794,4,4v123h41.329V286c0-2.206,1.794-4,4-4
	h6.756v-36C157.085,243.25,154.835,241,152.085,241z"/>
<g>
	<path style="fill:#DB722C;" d="M147.585,262c0,1.1-0.9,2-2,2h-34c-1.1,0-2-0.9-2-2v-6c0-1.1,0.9-2,2-2h34c1.1,0,2,0.9,2,2V262z"/>
	<path style="fill:#DB722C;" d="M147.585,278c0,1.1-0.9,2-2,2h-34c-1.1,0-2-0.9-2-2v-6c0-1.1,0.9-2,2-2h34c1.1,0,2,0.9,2,2V278z"/>
	<path style="fill:#DB722C;" d="M146.329,286.147c-0.23-0.093-0.48-0.147-0.744-0.147h-34c-1.1,0-2,0.9-2,2v6c0,1.1,0.9,2,2,2h34
		c0.263,0,0.513-0.054,0.744-0.147V286.147z"/>
	<path style="fill:#DB722C;" d="M146.329,302.147c-0.23-0.093-0.48-0.147-0.744-0.147h-34c-1.1,0-2,0.9-2,2v6c0,1.1,0.9,2,2,2h34
		c0.263,0,0.513-0.054,0.744-0.147V302.147z"/>
	<path style="fill:#DB722C;" d="M146.329,318.147c-0.23-0.093-0.48-0.147-0.744-0.147h-34c-1.1,0-2,0.9-2,2v6c0,1.1,0.9,2,2,2h34
		c0.263,0,0.513-0.054,0.744-0.147V318.147z"/>
	<path style="fill:#DB722C;" d="M146.329,334.147c-0.23-0.093-0.48-0.147-0.744-0.147h-34c-1.1,0-2,0.9-2,2v6c0,1.1,0.9,2,2,2h34
		c0.263,0,0.513-0.054,0.744-0.147V334.147z"/>
	<path style="fill:#DB722C;" d="M146.329,350.147c-0.23-0.093-0.48-0.147-0.744-0.147h-34c-1.1,0-2,0.9-2,2v6c0,1.1,0.9,2,2,2h34
		c0.263,0,0.513-0.054,0.744-0.147V350.147z"/>
	<path style="fill:#DB722C;" d="M146.329,366.147c-0.23-0.093-0.48-0.147-0.744-0.147h-34c-1.1,0-2,0.9-2,2v6c0,1.1,0.9,2,2,2h34
		c0.263,0,0.513-0.054,0.744-0.147V366.147z"/>
	<path style="fill:#DB722C;" d="M146.329,382.147c-0.23-0.093-0.48-0.147-0.744-0.147h-34c-1.1,0-2,0.9-2,2v6c0,1.1,0.9,2,2,2h34
		c0.263,0,0.513-0.054,0.744-0.147V382.147z"/>
	<path style="fill:#DB722C;" d="M146.329,398.147c-0.23-0.093-0.48-0.147-0.744-0.147h-34c-1.1,0-2,0.9-2,2v6c0,1.1,0.9,2,2,2h34
		c0.263,0,0.513-0.054,0.744-0.147V398.147z"/>
	<path style="fill:#DB722C;" d="M146.329,414.147c-0.23-0.093-0.48-0.147-0.744-0.147h-34c-1.1,0-2,0.9-2,2v6c0,1.1,0.9,2,2,2h34
		c0.263,0,0.513-0.054,0.744-0.147V414.147z"/>
</g>
<g>
	<path style="fill:#2E4C89;" d="M487.626,347H359v29.888c4.495,0.262,8.85,1.073,13,2.366V371c0-5.522,4.477-10,10-10
		s10,4.478,10,10v19.554c6.641,5.889,11.848,13.369,15,21.87V371c0-5.522,4.477-10,10-10s10,4.478,10,10v65h6.329
		c2.967-3.114,5.869-6.292,8.671-9.558V371c0-5.522,4.477-10,10-10s10,4.478,10,10v28.64
		C472.529,383.321,481.178,365.675,487.626,347z"/>
	<path style="fill:#2E4C89;" d="M421.299,447.819c-1.92,1.757-3.869,3.485-5.845,5.181
		C417.43,451.304,419.378,449.576,421.299,447.819z"/>
</g>
<path style="fill:#445EA0;" d="M275.32,264.013L271.51,328h18.981l-3.81-63.987c6.065-2.297,10.385-8.143,10.385-15.013
	c0-7.54-5.202-13.849-12.207-15.58l-1.353-22.727c-0.079-1.326-1.178-2.361-2.506-2.361s-2.427,1.035-2.505,2.361l-1.353,22.726
	c-7.006,1.73-12.208,8.04-12.208,15.58C264.934,255.87,269.254,261.717,275.32,264.013z"/>
<path style="fill:#2E4C89;" d="M106,437V314c0-2.75-2.25-5-5-5H54c-2.75,0-5,2.25-5,5v84.095
	C57.882,412.09,68.145,425.12,79.594,437H106z"/>
<g>
	<path style="fill:#445EA0;" d="M62,322h-3c-1.65,0-3,1.35-3,3v83.537c2.878,4.059,5.886,8.018,9,11.889V325
		C65,323.35,63.65,322,62,322z"/>
	<path style="fill:#445EA0;" d="M82,437V325c0-1.65-1.35-3-3-3h-3c-1.65,0-3,1.35-3,3v104.877c2.157,2.422,4.375,4.787,6.624,7.123
		H82z"/>
	<path style="fill:#445EA0;" d="M99,437V325c0-1.65-1.35-3-3-3h-3c-1.65,0-3,1.35-3,3v112H99z"/>
</g>
<path style="fill:#2E4C89;" d="M150.329,281c-2.75,0-5,2.25-5,5v151H201V281H150.329z"/>
<path style="fill:#445EA0;" d="M246.5,330c0-1.103,0.897-2,2-2h7.835v-61c0-2.75-2.25-5-5-5h-47c-2.75,0-5,2.25-5,5v170H246.5V330z"
	/>
<g>
	<path style="fill:#1A2B63;" d="M246.835,281c0,1.1-0.9,2-2,2h-34c-1.1,0-2-0.9-2-2v-6c0-1.1,0.9-2,2-2h34c1.1,0,2,0.9,2,2V281z"/>
	<path style="fill:#1A2B63;" d="M246.835,297c0,1.1-0.9,2-2,2h-34c-1.1,0-2-0.9-2-2v-6c0-1.1,0.9-2,2-2h34c1.1,0,2,0.9,2,2V297z"/>
	<path style="fill:#1A2B63;" d="M246.835,313c0,1.1-0.9,2-2,2h-34c-1.1,0-2-0.9-2-2v-6c0-1.1,0.9-2,2-2h34c1.1,0,2,0.9,2,2V313z"/>
	<path style="fill:#1A2B63;" d="M246.835,329c0,1.1-0.9,2-2,2h-34c-1.1,0-2-0.9-2-2v-6c0-1.1,0.9-2,2-2h34c1.1,0,2,0.9,2,2V329z"/>
	<path style="fill:#1A2B63;" d="M246.5,337.897c-0.359-0.54-0.972-0.897-1.665-0.897h-34c-1.1,0-2,0.9-2,2v6c0,1.1,0.9,2,2,2h34
		c0.693,0,1.305-0.358,1.665-0.897V337.897z"/>
	<path style="fill:#1A2B63;" d="M246.5,353.897c-0.359-0.54-0.972-0.897-1.665-0.897h-34c-1.1,0-2,0.9-2,2v6c0,1.1,0.9,2,2,2h34
		c0.693,0,1.305-0.358,1.665-0.897V353.897z"/>
	<path style="fill:#1A2B63;" d="M246.5,369.897c-0.359-0.54-0.972-0.897-1.665-0.897h-34c-1.1,0-2,0.9-2,2v6c0,1.1,0.9,2,2,2h34
		c0.693,0,1.305-0.358,1.665-0.897V369.897z"/>
	<path style="fill:#1A2B63;" d="M246.5,385.897c-0.359-0.54-0.972-0.897-1.665-0.897h-34c-1.1,0-2,0.9-2,2v6c0,1.1,0.9,2,2,2h34
		c0.693,0,1.305-0.358,1.665-0.897V385.897z"/>
	<path style="fill:#1A2B63;" d="M246.5,401.897c-0.359-0.54-0.972-0.897-1.665-0.897h-34c-1.1,0-2,0.9-2,2v6c0,1.1,0.9,2,2,2h34
		c0.693,0,1.305-0.358,1.665-0.897V401.897z"/>
	<path style="fill:#1A2B63;" d="M246.5,417.897c-0.359-0.54-0.972-0.897-1.665-0.897h-34c-1.1,0-2,0.9-2,2v6c0,1.1,0.9,2,2,2h34
		c0.693,0,1.305-0.358,1.665-0.897V417.897z"/>
</g>
<path style="fill:#445EA0;" d="M317.5,328c1.103,0,2,0.897,2,2v60.57l1.636-1.347c9.74-8.021,22.052-12.438,34.667-12.438
	c1.515,0,3.013,0.075,4.498,0.197V243c0-1.65-1.35-3-3-3h-51c-1.65,0-3,1.35-3,3v85H317.5z"/>
<g>
	<path style="fill:#FFCA51;" d="M327.987,273.713c0,1.65-1.35,3-3,3h-8.028c-1.65,0-3-1.35-3-3V258c0-1.65,1.35-3,3-3h8.028
		c1.65,0,3,1.35,3,3V273.713z"/>
	<path style="fill:#FFCA51;" d="M349.642,273.713c0,1.65-1.35,3-3,3h-8.028c-1.65,0-3-1.35-3-3V258c0-1.65,1.35-3,3-3h8.028
		c1.65,0,3,1.35,3,3L349.642,273.713L349.642,273.713z"/>
	<path style="fill:#FFCA51;" d="M327.987,302.035c0,1.65-1.35,3-3,3h-8.028c-1.65,0-3-1.35-3-3v-15.713c0-1.65,1.35-3,3-3h8.028
		c1.65,0,3,1.35,3,3V302.035z"/>
	<path style="fill:#FFCA51;" d="M349.642,302.035c0,1.65-1.35,3-3,3h-8.028c-1.65,0-3-1.35-3-3v-15.713c0-1.65,1.35-3,3-3h8.028
		c1.65,0,3,1.35,3,3L349.642,302.035L349.642,302.035z"/>
	<path style="fill:#FFCA51;" d="M317.5,328c1.103,0,2,0.897,2,2v3.356h5.487c1.65,0,3-1.35,3-3v-15.713c0-1.65-1.35-3-3-3h-8.028
		c-1.65,0-3,1.35-3,3V328H317.5z"/>
	<path style="fill:#FFCA51;" d="M349.642,330.356c0,1.65-1.35,3-3,3h-8.028c-1.65,0-3-1.35-3-3v-15.713c0-1.65,1.35-3,3-3h8.028
		c1.65,0,3,1.35,3,3L349.642,330.356L349.642,330.356z"/>
	<path style="fill:#FFCA51;" d="M319.5,361.678h5.487c1.65,0,3-1.35,3-3v-15.713c0-1.65-1.35-3-3-3H319.5V361.678z"/>
	<path style="fill:#FFCA51;" d="M349.642,358.678c0,1.65-1.35,3-3,3h-8.028c-1.65,0-3-1.35-3-3v-15.713c0-1.65,1.35-3,3-3h8.028
		c1.65,0,3,1.35,3,3L349.642,358.678L349.642,358.678z"/>
	<path style="fill:#FFCA51;" d="M319.5,390h0.692l0.943-0.777c2.163-1.782,4.46-3.375,6.852-4.792v-13.145c0-1.65-1.35-3-3-3H319.5
		V390z"/>
	<path style="fill:#FFCA51;" d="M349.642,377.148v-5.862c0-1.65-1.35-3-3-3h-8.028c-1.65,0-3,1.35-3,3v9.39
		C340.102,378.889,344.821,377.7,349.642,377.148z"/>
	<path style="fill:#FFCA51;" d="M170.016,312.713c0,1.65-1.35,3-3,3h-8.027c-1.65,0-3-1.35-3-3V297c0-1.65,1.35-3,3-3h8.027
		c1.65,0,3,1.35,3,3L170.016,312.713L170.016,312.713z"/>
	<path style="fill:#FFCA51;" d="M191.671,312.713c0,1.65-1.35,3-3,3h-8.028c-1.65,0-3-1.35-3-3V297c0-1.65,1.35-3,3-3h8.028
		c1.65,0,3,1.35,3,3V312.713z"/>
	<path style="fill:#FFCA51;" d="M170.016,341.035c0,1.65-1.35,3-3,3h-8.027c-1.65,0-3-1.35-3-3v-15.713c0-1.65,1.35-3,3-3h8.027
		c1.65,0,3,1.35,3,3L170.016,341.035L170.016,341.035z"/>
	<path style="fill:#FFCA51;" d="M191.671,341.035c0,1.65-1.35,3-3,3h-8.028c-1.65,0-3-1.35-3-3v-15.713c0-1.65,1.35-3,3-3h8.028
		c1.65,0,3,1.35,3,3V341.035z"/>
	<path style="fill:#FFCA51;" d="M170.016,369.356c0,1.65-1.35,3-3,3h-8.027c-1.65,0-3-1.35-3-3v-15.713c0-1.65,1.35-3,3-3h8.027
		c1.65,0,3,1.35,3,3L170.016,369.356L170.016,369.356z"/>
	<path style="fill:#FFCA51;" d="M191.671,369.356c0,1.65-1.35,3-3,3h-8.028c-1.65,0-3-1.35-3-3v-15.713c0-1.65,1.35-3,3-3h8.028
		c1.65,0,3,1.35,3,3V369.356z"/>
	<path style="fill:#FFCA51;" d="M170.016,397.678c0,1.65-1.35,3-3,3h-8.027c-1.65,0-3-1.35-3-3v-15.713c0-1.65,1.35-3,3-3h8.027
		c1.65,0,3,1.35,3,3L170.016,397.678L170.016,397.678z"/>
	<path style="fill:#FFCA51;" d="M191.671,397.678c0,1.65-1.35,3-3,3h-8.028c-1.65,0-3-1.35-3-3v-15.713c0-1.65,1.35-3,3-3h8.028
		c1.65,0,3,1.35,3,3V397.678z"/>
	<path style="fill:#FFCA51;" d="M170.016,426c0,1.65-1.35,3-3,3h-8.027c-1.65,0-3-1.35-3-3v-15.713c0-1.65,1.35-3,3-3h8.027
		c1.65,0,3,1.35,3,3L170.016,426L170.016,426z"/>
	<path style="fill:#FFCA51;" d="M191.671,426c0,1.65-1.35,3-3,3h-8.028c-1.65,0-3-1.35-3-3v-15.713c0-1.65,1.35-3,3-3h8.028
		c1.65,0,3,1.35,3,3V426z"/>
</g>
<path style="fill:#2E4C89;" d="M293.803,427h6.591c1.213-15.505,8.787-29.217,20.106-38.544V330c0-1.65-1.35-3-3-3h-69
	c-1.65,0-3,1.35-3,3v107h45.303v-7C290.803,428.35,292.153,427,293.803,427z"/>
<g>
	<path style="fill:#445EA0;" d="M263.357,437v-98c0-1.65-1.35-3-3-3H258.5c-1.65,0-3,1.35-3,3v98H263.357z"/>
	<path style="fill:#445EA0;" d="M279.071,437v-98c0-1.65-1.35-3-3-3h-1.857c-1.65,0-3,1.35-3,3v98H279.071z"/>
	<path style="fill:#445EA0;" d="M293.803,427h0.983v-88c0-1.65-1.35-3-3-3h-1.857c-1.65,0-3,1.35-3,3v98h3.874v-7
		C290.803,428.35,292.153,427,293.803,427z"/>
	<path style="fill:#445EA0;" d="M310.5,400.932V339c0-1.65-1.35-3-3-3h-1.857c-1.65,0-3,1.35-3,3v79.93
		C304.169,412.394,306.867,406.319,310.5,400.932z"/>
</g>
<path style="fill:#60D882;" d="M411.295,428c-1.754-29.13-25.922-52.215-55.492-52.215S302.064,398.87,300.31,428H411.295z"/>
<path style="fill:#37C47A;" d="M366.155,376.757c-3.355-0.632-6.813-0.972-10.353-0.972c-29.57,0-53.739,23.085-55.493,52.215
	h20.705C322.559,402.356,341.477,381.406,366.155,376.757z"/>
<path style="fill:#FFFFFF;" d="M420.803,437v-7c0-1.65-1.35-3-3-3h-124c-1.65,0-3,1.35-3,3v7H420.803z"/>
<path style="fill:#D9EAFC;" d="M314,427h-20.197c-1.65,0-3,1.35-3,3v7H311v-7C311,428.35,312.35,427,314,427z"/>
<path style="fill:#293D7C;" d="M433.381,436H78.619c44.623,46.822,107.595,76,177.381,76S388.758,482.822,433.381,436z"/>
<path style="fill:#69CDFF;" d="M21.909,194.5h468.182c-1.57-5.074-3.312-10.072-5.197-15H27.106
	C25.221,184.428,23.479,189.426,21.909,194.5z"/>
<g>
	<circle style="fill:#52BBEF;" cx="431.83" cy="282.94" r="6.915"/>
	<circle style="fill:#52BBEF;" cx="443" cy="259" r="6.915"/>
	<circle style="fill:#52BBEF;" cx="431.83" cy="238.25" r="4.787"/>
	<circle style="fill:#52BBEF;" cx="384.92" cy="303.92" r="6.915"/>
	<circle style="fill:#52BBEF;" cx="396.08" cy="327.85" r="6.915"/>
	<circle style="fill:#52BBEF;" cx="384.92" cy="348.6" r="4.787"/>
	<circle style="fill:#52BBEF;" cx="72.17" cy="233.45" r="6.915"/>
	<circle style="fill:#52BBEF;" cx="61" cy="257.38" r="6.915"/>
	<circle style="fill:#52BBEF;" cx="72.17" cy="278.13" r="4.787"/>
</g>
<circle style="fill:#0F9390;" cx="275.5" cy="165.5" r="5.5"/>
<g>
</g>
<g>
</g>
<g>
</g>
<g>
</g>
<g>
</g>
<g>
</g>
<g>
</g>
<g>
</g>
<g>
</g>
<g>
</g>
<g>
</g>
<g>
</g>
<g>
</g>
<g>
</g>
<g>
</g>
</svg>
