<?xml version="1.0" encoding="iso-8859-1"?>
<!-- Generator: Adobe Illustrator 19.0.0, SVG Export Plug-In . SVG Version: 6.00 Build 0)  -->
<svg version="1.1" id="Capa_1" xmlns="http://www.w3.org/2000/svg" xmlns:xlink="http://www.w3.org/1999/xlink" x="0px" y="0px"
	 viewBox="0 0 512 512" style="enable-background:new 0 0 512 512;" xml:space="preserve">
<circle style="fill:#FFCA51;" cx="258" cy="267" r="245"/>
<path style="fill:#445EA0;" d="M118.76,207.134V65.952H102c-22,0-40,18-40,40v101.182H118.76z"/>
<path style="fill:#2E4C89;" d="M118.76,66.181v-0.229H102c-22,0-40,18-40,40v101.182h21V105.952
	C83,85.384,98.734,68.315,118.76,66.181z"/>
<path style="fill:#445EA0;" d="M431.166,65.952H413.24v390.577c23.27-19.086,42.969-42.368,57.926-68.698V105.952
	C471.166,83.952,453.166,65.952,431.166,65.952z"/>
<path style="fill:#94C2ED;" d="M350.857,65.952c0.004,0.085,0.022,0.175,0.022,0.259v19.934c0,2.515-1.354,6.278-2.956,8.217
	l-42.27,51.148c-0.685,0.83-1.61,1.286-2.602,1.286c-0.923,0-1.806-0.403-2.488-1.136l-30.342-32.587
	c-1.098-1.179-2.567-1.828-4.139-1.828c-1.571,0-3.041,0.649-4.139,1.828l-30.342,32.587c-0.682,0.732-1.565,1.136-2.487,1.136
	c-0.993,0-1.917-0.457-2.602-1.286l-42.271-51.148c-1.603-1.939-2.956-5.702-2.956-8.217V66.21c0-0.083,0.018-0.173,0.022-0.259
	h-65.346V207h226.533c4.963,0,9,4.038,9,9v192.881h64.707V65.952H350.857z"/>
<path style="fill:#293D7C;" d="M351.494,420v50.866c0,4.962-4.037,9-9,9H136.668C172.439,500.306,213.85,512,258,512
	c60.309,0,115.516-21.804,158.201-57.94V420H351.494z"/>
<path style="fill:#445EA0;" d="M347.613,58.603l-29.006-17.729c-1.438-0.879-3.559-1.656-5.619-2.129v25.449
	c0,2.433-1.667,5.692-3.639,7.117l-39.8,28.742c-0.896,0.647-2.16,1.018-3.468,1.018c-1.308,0-2.572-0.371-3.469-1.018l-39.8-28.742
	c-1.973-1.425-3.639-4.684-3.639-7.117V38.956c-1.772,0.469-3.513,1.132-4.752,1.872l-29.844,17.819
	c-2.361,1.409-4.293,4.813-4.293,7.563v19.934c0,2.75,1.434,6.734,3.185,8.854l42.271,51.147c1.752,2.12,4.718,2.208,6.592,0.195
	l30.341-32.587c1.874-2.013,4.94-2.013,6.815,0l30.342,32.587c1.874,2.013,4.841,1.925,6.593-0.195l42.27-51.147
	c1.752-2.12,3.186-6.104,3.186-8.854V66.21C351.879,63.46,349.959,60.037,347.613,58.603z"/>
<path style="fill:#2E4C89;" d="M204.185,94.998c-1.751-2.12-3.185-6.104-3.185-8.854V66.21c0-2.75,1.932-6.154,4.293-7.563
	l13.881-8.288V38.956c-1.772,0.469-3.513,1.132-4.752,1.872l-29.844,17.819c-2.361,1.409-4.293,4.813-4.293,7.563v19.934
	c0,2.75,1.434,6.734,3.185,8.854l42.271,51.147c1.752,2.12,4.718,2.208,6.592,0.195l7.567-8.127L204.185,94.998z"/>
<rect x="351" y="396.26" style="fill:#994334;" width="65.2" height="34.938"/>
<path style="fill:#FFC987;" d="M313.988,64.193c0,2.75-1.824,6.318-4.054,7.927l-39.799,28.742c-2.229,1.61-5.878,1.61-8.107,0
	l-39.8-28.742c-2.23-1.609-4.054-5.177-4.054-7.927V5c0-2.75,2.25-5,5-5h85.814c2.75,0,5,2.25,5,5V64.193z"/>
<path style="fill:#E5AD70;" d="M244.054,72.12c-2.229-1.609-4.054-5.177-4.054-7.927V5c0-2.75,2.25-5,5-5h-21.826
	c-2.75,0-5,2.25-5,5v59.193c0,2.75,1.824,6.318,4.054,7.927l39.8,28.742c2.229,1.61,5.878,1.61,8.107,0l6.859-4.954L244.054,72.12z"
	/>
<g>
	<circle style="fill:#FFFFFF;" cx="266.08" cy="144.62" r="9.477"/>
	<circle style="fill:#FFFFFF;" cx="266.08" cy="184.52" r="9.477"/>
</g>
<path style="fill:#2E4C89;" d="M38.51,240.86c0-2.943,2.408-5.351,5.351-5.351h273.773c2.942,0,5.351,2.407,5.351,5.351v205.145
	c0,2.942-2.408,5.35-5.351,5.35H43.86c-2.943,0-5.351-2.407-5.351-5.35L38.51,240.86L38.51,240.86z"/>
<g>
	<path style="fill:#EEF6FF;" d="M246.56,345.603h-74.906c-6.903,0-12.5-5.597-12.5-12.5s5.597-12.5,12.5-12.5h74.906
		c6.903,0,12.5,5.597,12.5,12.5C259.06,340.007,253.463,345.603,246.56,345.603z"/>
	<path style="fill:#EEF6FF;" d="M233.718,383.945h-46.014c-6.903,0-12.5-5.597-12.5-12.5c0-6.904,5.597-12.5,12.5-12.5h46.014
		c6.903,0,12.5,5.596,12.5,12.5C246.218,378.349,240.622,383.945,233.718,383.945z"/>
	<path style="fill:#EEF6FF;" d="M324,282.261h-23.558V268.92H324v-25h-23.558V234h-35v9.92h-78.808c-6.903,0-12.5,5.597-12.5,12.5
		c0,6.903,5.597,12.5,12.5,12.5h78.808v13.341h-93.789c-6.903,0-12.5,5.597-12.5,12.5s5.597,12.5,12.5,12.5h93.895
		c0.943,8.776,8.368,15.61,17.395,15.61s16.451-6.834,17.395-15.61H324V282.261z"/>
</g>
<g>
	<path style="fill:#D9EAFC;" d="M180.153,333.103c0-6.903,5.597-12.5,12.5-12.5h-21c-6.903,0-12.5,5.597-12.5,12.5
		s5.597,12.5,12.5,12.5h21C185.75,345.603,180.153,340.007,180.153,333.103z"/>
	<path style="fill:#D9EAFC;" d="M196.205,371.445c0-6.904,5.597-12.5,12.5-12.5h-21c-6.903,0-12.5,5.596-12.5,12.5
		c0,6.903,5.597,12.5,12.5,12.5h21C201.801,383.945,196.205,378.349,196.205,371.445z"/>
	<path style="fill:#D9EAFC;" d="M186.635,268.92h21c-6.903,0-12.5-5.597-12.5-12.5c0-6.903,5.597-12.5,12.5-12.5h-21
		c-6.903,0-12.5,5.597-12.5,12.5C174.135,263.323,179.731,268.92,186.635,268.92z"/>
	<path style="fill:#D9EAFC;" d="M180.153,294.761c0-6.903,5.597-12.5,12.5-12.5h-21c-6.903,0-12.5,5.597-12.5,12.5
		s5.597,12.5,12.5,12.5h21C185.75,307.261,180.153,301.664,180.153,294.761z"/>
</g>
<path style="fill:#EEF6FF;" d="M282.939,364.6c-4.609,0-9.12-1.86-12.37-5.12c-3.26-3.26-5.13-7.77-5.13-12.37
	c0-4.609,1.87-9.12,5.13-12.38c3.25-3.26,7.761-5.13,12.37-5.13c4.61,0,9.12,1.87,12.38,5.13c3.25,3.26,5.12,7.771,5.12,12.38
	c0,4.601-1.87,9.11-5.12,12.37C292.06,362.739,287.55,364.6,282.939,364.6z"/>
<path style="fill:#D9EAFC;" d="M281.13,359.479c-3.26-3.26-5.13-7.77-5.13-12.37c0-4.609,1.87-9.12,5.13-12.38
	c1.981-1.987,4.435-3.45,7.091-4.295c-1.701-0.542-3.482-0.835-5.281-0.835c-4.609,0-9.12,1.87-12.37,5.13
	c-3.26,3.26-5.13,7.771-5.13,12.38c0,4.601,1.87,9.11,5.13,12.37c3.25,3.26,7.761,5.12,12.37,5.12c1.799,0,3.58-0.292,5.281-0.831
	C285.564,362.926,283.111,361.467,281.13,359.479z"/>
<path style="fill:#EEF6FF;" d="M300.442,394.259v-4.507c0-9.665-7.835-17.5-17.5-17.5s-17.5,7.835-17.5,17.5v4.507h-68.107
	c-33.528,0-62.077,23.939-67.884,56.922l-0.207,1.173H171.1l0.266-0.589c4.504-9.992,14.488-16.448,25.435-16.448
	c10.948,0,20.932,6.456,25.436,16.448l0.266,0.589h95.132c3.502,0,6.351-2.849,6.351-6.35v-51.746h-23.544V394.259z"/>
<path style="fill:#D9EAFC;" d="M218.09,394.259h-20.755c-33.528,0-62.077,23.939-67.884,56.922l-0.207,1.173H150l0.206-1.173
	C156.013,418.198,184.562,394.259,218.09,394.259z"/>
<path style="fill:#EEF6FF;" d="M70.352,234v21.133c-8.17,5.59-13.533,14.981-13.533,25.627c0,9.767,4.517,18.476,11.57,24.164
	V431.02c-6.117,4.933-10.32,12.139-11.33,20.335h61.585c-1-8.119-5.131-15.269-11.155-20.197V304.786
	c6.955-5.691,11.395-14.34,11.395-24.026c0-10.646-5.363-20.037-13.533-25.627V234H70.352z M92.49,424.497
	c-1.34-0.2-2.709-0.309-4.1-0.332V311.778c1.391-0.023,2.76-0.132,4.1-0.333V424.497z"/>
<path style="fill:#D9EAFC;" d="M78.505,431.02V304.924c-7.054-5.688-11.57-14.397-11.57-24.164c0-10.646,5.363-20.037,13.533-25.627
	V234H70.352v21.133c-8.17,5.59-13.533,14.981-13.533,25.627c0,9.767,4.517,18.476,11.57,24.164V431.02
	c-6.117,4.933-10.32,12.139-11.33,20.335h10.115C68.185,443.158,72.388,435.952,78.505,431.02z"/>
<path style="fill:#C3DDF4;" d="M342.494,206H19c-5.5,0-10,4.5-10,10v254.866c0,5.5,4.5,10,10,10h323.494c5.5,0,10-4.5,10-10V216
	C352.494,210.5,347.994,206,342.494,206z M322.984,446.005c0,2.942-2.408,5.35-5.351,5.35H43.86c-2.943,0-5.351-2.407-5.351-5.35
	V240.86c0-2.943,2.408-5.351,5.351-5.351h273.773c2.942,0,5.351,2.407,5.351,5.351V446.005z"/>
<path style="fill:#94C2ED;" d="M30,470.866V216c0-5.5,4.5-10,10-10H19c-5.5,0-10,4.5-10,10v254.866c0,5.5,4.5,10,10,10h21
	C34.5,480.866,30,476.366,30,470.866z"/>
<path style="fill:#C3DDF4;" d="M343.984,240.86c0-2.943-2.408-5.351-5.351-5.351h-21c2.942,0,5.351,2.407,5.351,5.351v205.145
	c0,2.942-2.408,5.35-5.351,5.35h21c2.942,0,5.351-2.407,5.351-5.35V240.86z"/>
<path style="fill:#94C2ED;" d="M337,359.29c-4.143,0-7.5-3.358-7.5-7.5v-16.715c0-4.142,3.357-7.5,7.5-7.5s7.5,3.358,7.5,7.5v16.715
	C344.5,355.932,341.143,359.29,337,359.29z"/>
<g>
</g>
<g>
</g>
<g>
</g>
<g>
</g>
<g>
</g>
<g>
</g>
<g>
</g>
<g>
</g>
<g>
</g>
<g>
</g>
<g>
</g>
<g>
</g>
<g>
</g>
<g>
</g>
<g>
</g>
</svg>
