<?xml version="1.0" encoding="iso-8859-1"?>
<!-- Generator: Adobe Illustrator 19.0.0, SVG Export Plug-In . SVG Version: 6.00 Build 0)  -->
<svg version="1.1" id="Capa_1" xmlns="http://www.w3.org/2000/svg" xmlns:xlink="http://www.w3.org/1999/xlink" x="0px" y="0px"
	 viewBox="0 0 512 512" style="enable-background:new 0 0 512 512;" xml:space="preserve">
<path style="fill:#FF9518;" d="M256,17c-61.653,0-117.981,22.78-161.044,60.373c16.22,9.931,27.044,27.81,27.044,48.222
	c0,31.208-25.298,56.505-56.506,56.505c-13.774,0-26.393-4.934-36.197-13.124C17.514,197.662,11,229.068,11,262
	c0,135.31,109.69,245,245,245s245-109.69,245-245S391.31,17,256,17z"/>
<path style="fill:#2E4C89;" d="M164.42,138.354l-13.563-19.227c-2.374-3.366-6.738-5.627-10.857-5.627h-11.662
	c-5.672-29.527-31.687-51.91-62.844-51.91c-4.143,0-7.5,3.358-7.5,7.5c0,4.142,3.358,7.5,7.5,7.5
	c27.021,0,49.006,21.984,49.006,49.005S92.516,174.6,65.494,174.6c-27.021,0-49.005-21.984-49.005-49.005
	c0-13.609,5.73-26.719,15.722-35.97c3.04-2.814,3.223-7.559,0.409-10.599c-2.815-3.04-7.56-3.223-10.599-0.408
	C8.973,90.699,1.489,107.821,1.489,125.595c0,35.292,28.713,64.005,64.005,64.005c34.318,0,62.407-27.152,63.932-61.101h9.687
	l11.988,16.995C154.588,141.821,159.219,139.249,164.42,138.354z"/>
<g>
	<path style="fill:#445EA0;" d="M147,172.648c-1.597-3.211-2.5-6.825-2.5-10.648c0-3.842,0.912-7.473,2.524-10.696
		C140.689,153.056,136,158.876,136,165.75v23c0,7.865,6.138,14.352,13.857,14.942c-1.785-2.35-2.857-5.27-2.857-8.442V172.648z"/>
	<path style="fill:#445EA0;" d="M364.976,151.304c1.612,3.223,2.524,6.855,2.524,10.696c0,3.823-0.903,7.438-2.5,10.648v22.602
		c0,3.172-1.072,6.092-2.857,8.442c7.72-0.59,13.857-7.077,13.857-14.942v-23C376,158.876,371.311,153.056,364.976,151.304z"/>
</g>
<g>
	<path style="fill:#2E4C89;" d="M168.5,186c-10.299,0-19.102-6.522-22.5-15.652v24.902c0,8.25,6.75,15,15,15h12.68
		c-2.41-7.68-3.771-15.821-3.948-24.25H168.5z"/>
	<path style="fill:#2E4C89;" d="M343.5,186h-1.231c-0.177,8.429-1.538,16.57-3.948,24.25H351c8.25,0,15-6.75,15-15v-24.902
		C362.602,179.478,353.799,186,343.5,186z"/>
</g>
<path style="fill:#994334;" d="M170.308,138C178.07,99.419,213.469,77,256,77s77.93,22.419,85.692,61h1.611v-26.691
	C343.304,62.794,304.217,34,256,34s-87.304,28.794-87.304,77.309V138H170.308z"/>
<path style="fill:#772C22;" d="M189.964,101.415c4.566-39.189,36.317-63.413,76.384-66.958C262.954,34.157,259.502,34,256,34
	c-48.217,0-87.304,28.794-87.304,77.309V138h1.611C173.253,123.363,180.183,111.059,189.964,101.415z"/>
<path id="SVGCleanerId_0" style="fill:#445EA0;" d="M321.325,466c-2.206,0-4-1.794-4-4V298.119c0-3.925,3.194-7.119,7.12-7.119
	h44.786c-2.855-7.569-10.166-13-18.703-13H288.03v7.081c0,17.662-14.369,32.03-32.03,32.03s-32.03-14.369-32.03-32.03V278h-46.583
	v77.939c0,2.397-1.754,5.435-3.83,6.634l-32.085,18.524v97.523C175.652,496.728,214.624,507,256,507s80.348-10.272,114.528-28.381
	V466H321.325z"/>
<g>
	<path id="SVGCleanerId_0_1_" style="fill:#445EA0;" d="M321.325,466c-2.206,0-4-1.794-4-4V298.119c0-3.925,3.194-7.119,7.12-7.119
		h44.786c-2.855-7.569-10.166-13-18.703-13H288.03v7.081c0,17.662-14.369,32.03-32.03,32.03s-32.03-14.369-32.03-32.03V278h-46.583
		v77.939c0,2.397-1.754,5.435-3.83,6.634l-32.085,18.524v97.523C175.652,496.728,214.624,507,256,507s80.348-10.272,114.528-28.381
		V466H321.325z"/>
</g>
<path style="fill:#2E4C89;" d="M162,369.244l-20.528,11.852v97.523c6.666,3.532,13.516,6.761,20.528,9.678V369.244z"/>
<g>
	<path style="fill:#FFFFFF;" d="M350.528,278H288.03v7.081c0,3.833-0.679,7.509-1.919,10.918h10.34
		c7.154,0,14.135,0.739,20.874,2.138v-0.019c0-3.925,3.194-7.119,7.12-7.119h44.786C366.376,283.431,359.065,278,350.528,278z"/>
	<path style="fill:#FFFFFF;" d="M223.97,285.081V278h-46.583v25.37c11.791-4.75,24.67-7.37,38.162-7.37h10.34
		C224.648,292.59,223.97,288.914,223.97,285.081z"/>
</g>
<path style="fill:#FFC987;" d="M256,271c-11.51,0-22.688-2.269-33.03-6.579v20.66c0,18.242,14.787,33.03,33.03,33.03
	s33.03-14.788,33.03-33.03v-20.66C278.688,268.731,267.51,271,256,271z"/>
<path style="fill:#E5AD70;" d="M243.939,285.081v-14.937c-7.247-1.019-14.284-2.938-20.97-5.724v20.66
	c0,18.242,14.787,33.03,33.03,33.03c3.667,0,7.19-0.606,10.484-1.709C253.384,312.019,243.939,299.656,243.939,285.081z"/>
<path style="fill:#FFE2B8;" d="M341.993,138C334.826,98.542,299.055,75.582,256,75.582S177.174,98.542,170.007,138H341.993z"/>
<path style="fill:#FFC987;" d="M266.496,76.063c-3.442-0.309-6.941-0.481-10.496-0.481c-43.055,0-78.826,22.96-85.993,62.418H191
	C197.575,101.8,228.233,79.501,266.496,76.063z"/>
<path style="fill:#FFE2B8;" d="M168.72,186c0.976,47.663,39.677,86,87.28,86s86.305-38.337,87.28-86H168.72z"/>
<path style="fill:#FFC987;" d="M189.439,186h-20.72c0.976,47.663,39.677,86,87.28,86c3.508,0,6.96-0.232,10.359-0.637
	C223.625,266.275,190.343,230.15,189.439,186z"/>
<path style="fill:#EBAA48;" d="M267,201.5h-10.5V186h-15v18c0,6.893,5.607,12.5,12.5,12.5h13c4.143,0,7.5-3.358,7.5-7.5
	S271.143,201.5,267,201.5z"/>
<path id="SVGCleanerId_1" style="fill:#FFFFFF;" d="M368.5,162c0,13.808-11.193,25-25,25h-175c-13.807,0-25-11.192-25-25l0,0
	c0-13.808,11.193-25,25-25h175C357.307,137,368.5,148.192,368.5,162L368.5,162z"/>
<g>
	<path id="SVGCleanerId_1_1_" style="fill:#FFFFFF;" d="M368.5,162c0,13.808-11.193,25-25,25h-175c-13.807,0-25-11.192-25-25l0,0
		c0-13.808,11.193-25,25-25h175C357.307,137,368.5,148.192,368.5,162L368.5,162z"/>
</g>
<path style="fill:#EEF6FF;" d="M164,162c0-13.808,11.193-25,25-25h-20.5c-13.807,0-25,11.192-25,25s11.193,25,25,25H189
	C175.193,187,164,175.808,164,162z"/>
<path style="fill:#2E4C89;" d="M339,169.5H173c-4.143,0-7.5-3.358-7.5-7.5s3.357-7.5,7.5-7.5h166c4.143,0,7.5,3.358,7.5,7.5
	S343.143,169.5,339,169.5z"/>
<path style="fill:#EBAA48;" d="M277.714,242.5h-43.429c-4.143,0-7.5-3.358-7.5-7.5s3.357-7.5,7.5-7.5h43.429
	c4.143,0,7.5,3.358,7.5,7.5S281.856,242.5,277.714,242.5z"/>
<path style="fill:#28A5A5;" d="M501.451,146.712c0,2.75-2.25,5-5,5H384.06c-2.75,0-5-2.25-5-5V10c0-2.75,2.25-5,5-5h112.392
	c2.75,0,5,2.25,5,5v136.712H501.451z"/>
<g>
	<path style="fill:#C3DDF4;" d="M487.749,99.325c0,1.65-1.35,3-3,3h-88.986c-1.65,0-3-1.35-3-3V23c0-1.65,1.35-3,3-3h88.986
		c1.65,0,3,1.35,3,3V99.325z"/>
	<path style="fill:#C3DDF4;" d="M316.325,462c0,2.75,2.25,5,5,5H507c2.75,0,5-2.25,5-5V320H316.325V462z"/>
</g>
<path style="fill:#293D7C;" d="M503.881,290H324.445c-4.467,0-8.12,3.653-8.12,8.119V321H512v-22.881
	C512,293.653,508.347,290,503.881,290z"/>
<circle style="fill:#FE3745;" cx="336" cy="305.5" r="7.5"/>
<circle style="fill:#EF9614;" cx="356.5" cy="305.5" r="7.5"/>
<circle style="fill:#60D882;" cx="377" cy="305.5" r="7.5"/>
<path style="fill:#28A5A5;" d="M405.926,439c0,1.65-1.35,3-3,3h-60c-1.65,0-3-1.35-3-3V339c0-1.65,1.35-3,3-3h60c1.65,0,3,1.35,3,3
	V439z"/>
<path style="fill:#0F9390;" d="M360,439V339c0-1.65,1.35-3,3-3h-20.074c-1.65,0-3,1.35-3,3v100c0,1.65,1.35,3,3,3H363
	C361.35,442,360,440.65,360,439z"/>
<g>
	<path style="fill:#60D882;" d="M426.952,356h53.947c4.143,0,7.5-3.358,7.5-7.5s-3.357-7.5-7.5-7.5h-53.947
		c-4.142,0-7.5,3.358-7.5,7.5S422.81,356,426.952,356z"/>
	<path style="fill:#60D882;" d="M480.899,367h-53.947c-4.142,0-7.5,3.358-7.5,7.5s3.358,7.5,7.5,7.5h53.947
		c4.143,0,7.5-3.358,7.5-7.5S485.042,367,480.899,367z"/>
	<path style="fill:#60D882;" d="M480.899,393h-53.947c-4.142,0-7.5,3.358-7.5,7.5s3.358,7.5,7.5,7.5h53.947
		c4.143,0,7.5-3.358,7.5-7.5S485.042,393,480.899,393z"/>
	<path style="fill:#60D882;" d="M457.926,419h-30.974c-4.142,0-7.5,3.358-7.5,7.5s3.358,7.5,7.5,7.5h30.974
		c4.143,0,7.5-3.358,7.5-7.5S462.068,419,457.926,419z"/>
</g>
<path style="fill:#445EA0;" d="M464.629,48.975c-0.993-1.318-2.618-1.318-3.611,0l-25.713,34.128c-0.992,1.318-2.617,1.318-3.61,0
	l-13.588-18.036c-0.993-1.318-2.618-1.318-3.61,0l-21.733,28.846v5.412c0,1.65,1.35,3,3,3h88.986c1.65,0,3-1.35,3-3V79.662
	L464.629,48.975z"/>
<circle style="fill:#FFFFFF;" cx="411" cy="38" r="10"/>
<g>
	<path style="fill:#2E4C89;" d="M411.763,131.25c0,1.65-1.35,3-3,3h-13c-1.65,0-3-1.35-3-3v-13c0-1.65,1.35-3,3-3h13
		c1.65,0,3,1.35,3,3V131.25z"/>
	<path style="fill:#2E4C89;" d="M480.249,132.25h-55c-4.143,0-7.5-3.358-7.5-7.5s3.357-7.5,7.5-7.5h55c4.143,0,7.5,3.358,7.5,7.5
		S484.392,132.25,480.249,132.25z"/>
</g>
<path style="fill:#28A5A5;" d="M178.387,355.939c0,2.75-1.948,6.125-4.33,7.5l-80.533,46.495c-2.382,1.375-6.278,1.375-8.66,0
	L4.33,363.439c-2.382-1.375-4.33-4.75-4.33-7.5v-92.99c0-2.75,1.948-6.125,4.33-7.5l80.533-46.495c2.382-1.375,6.278-1.375,8.66,0
	l80.533,46.495c2.382,1.375,4.33,4.75,4.33,7.5L178.387,355.939L178.387,355.939z"/>
<g>
	<path style="fill:#293D7C;" d="M56.065,317c0,1.65-1.35,3-3,3H36.979c-1.65,0-3-1.35-3-3v-43.941c0-1.65,1.35-3,3-3h16.086
		c1.65,0,3,1.35,3,3C56.065,273.059,56.065,317,56.065,317z"/>
	<path style="fill:#293D7C;" d="M85.512,317c0,1.65-1.35,3-3,3H66.427c-1.65,0-3-1.35-3-3v-64.846c0-1.65,1.35-3,3-3h16.085
		c1.65,0,3,1.35,3,3V317z"/>
	<path style="fill:#293D7C;" d="M114.96,317c0,1.65-1.35,3-3,3H95.875c-1.65,0-3-1.35-3-3v-57.876c0-1.65,1.35-3,3-3h16.085
		c1.65,0,3,1.35,3,3V317z"/>
	<path style="fill:#293D7C;" d="M144.407,317c0,1.65-1.35,3-3,3h-16.086c-1.65,0-3-1.35-3-3v-28.842c0-1.65,1.35-3,3-3h16.086
		c1.65,0,3,1.35,3,3V317z"/>
</g>
<g>
	<path style="fill:#445EA0;" d="M120.392,357c-1.385-2.171-2.198-4.739-2.198-7.5c0-2.76,0.813-5.329,2.198-7.5h-19.396
		c1.385,2.171,2.198,4.74,2.198,7.5c0,2.761-0.813,5.329-2.198,7.5H120.392z"/>
	<path style="fill:#445EA0;" d="M77.392,357c-1.385-2.171-2.198-4.739-2.198-7.5c0-2.76,0.813-5.329,2.198-7.5H57.995
		c1.385,2.171,2.198,4.74,2.198,7.5c0,2.761-0.813,5.329-2.198,7.5H77.392z"/>
</g>
<g>
	<circle style="fill:#293D7C;" cx="46.19" cy="349.5" r="15"/>
	<circle style="fill:#293D7C;" cx="89.19" cy="349.5" r="15"/>
	<circle style="fill:#293D7C;" cx="132.19" cy="349.5" r="15"/>
</g>
<g>
	<path style="fill:#2E4C89;" d="M65.494,168.278c-23.535,0-42.683-19.147-42.683-42.683c0-12.028,4.863-23.155,13.695-31.33
		c3.039-2.814,7.785-2.631,10.599,0.409c2.813,3.04,2.631,7.785-0.409,10.599c-5.729,5.304-8.885,12.521-8.885,20.322
		c0,15.265,12.418,27.683,27.683,27.683s27.684-12.418,27.684-27.683c0-8.268-3.672-16.047-10.073-21.341
		c-3.192-2.64-3.641-7.367-1-10.56c2.639-3.191,7.367-3.64,10.559-1c9.86,8.153,15.515,20.145,15.515,32.9
		C108.178,149.131,89.03,168.278,65.494,168.278z"/>
	<path style="fill:#2E4C89;" d="M65.494,146.956c-11.778,0-21.36-9.583-21.36-21.361c0-4.142,3.357-7.5,7.5-7.5s7.5,3.358,7.5,7.5
		c0,3.507,2.854,6.361,6.36,6.361c3.508,0,6.361-2.854,6.361-6.361s-2.854-6.361-6.361-6.361c-4.143,0-7.5-3.358-7.5-7.5
		s3.358-7.5,7.5-7.5c11.778,0,21.361,9.583,21.361,21.361S77.272,146.956,65.494,146.956z"/>
</g>
<path style="fill:#60D882;" d="M309,137v4c0,2.762,2.238,5,5,5h10c2.762,0,5-2.238,5-5v-4H309z"/>
<path style="fill:#28A5A5;" d="M512,248.133c0,1.593-1.303,2.896-2.896,2.896h-85.898c-1.593,0-2.896-1.303-2.896-2.896v-73.675
	c0-1.593,1.303-2.896,2.896-2.896h85.898c1.593,0,2.896,1.303,2.896,2.896V248.133z"/>
<path style="fill:#0F9390;" d="M441.31,248.133v-73.675c0-1.593,1.303-2.896,2.896-2.896h-21c-1.593,0-2.896,1.303-2.896,2.896
	v73.675c0,1.593,1.303,2.896,2.896,2.896h21C442.613,251.029,441.31,249.726,441.31,248.133z"/>
<path style="fill:#2E4C89;" d="M491.705,228.45l-16.679-38.394c-1.741-4.01-5.058-6.404-8.871-6.404s-7.13,2.394-8.871,6.404
	l-16.679,38.394c-1.65,3.799,0.092,8.217,3.891,9.867c3.799,1.649,8.217-0.091,9.867-3.891l2.526-5.815h18.531l2.526,5.815
	c1.228,2.826,3.986,4.514,6.883,4.514c0.997,0,2.011-0.2,2.984-0.623C491.613,236.667,493.355,232.249,491.705,228.45z
	 M463.405,213.612l2.75-6.33l2.75,6.33H463.405z"/>
<g>
</g>
<g>
</g>
<g>
</g>
<g>
</g>
<g>
</g>
<g>
</g>
<g>
</g>
<g>
</g>
<g>
</g>
<g>
</g>
<g>
</g>
<g>
</g>
<g>
</g>
<g>
</g>
<g>
</g>
</svg>
