<?xml version="1.0" encoding="iso-8859-1"?>
<!-- Generator: Adobe Illustrator 19.0.0, SVG Export Plug-In . SVG Version: 6.00 Build 0)  -->
<svg version="1.1" id="Capa_1" xmlns="http://www.w3.org/2000/svg" xmlns:xlink="http://www.w3.org/1999/xlink" x="0px" y="0px"
	 viewBox="0 0 512 512" style="enable-background:new 0 0 512 512;" xml:space="preserve">
<circle style="fill:#C3DDF4;" cx="256" cy="267" r="245"/>
<path style="fill:#9CE2D8;" d="M113.104,466c40.225,28.937,89.563,46,142.896,46s102.672-17.063,142.897-46H113.104z"/>
<g>
	<path style="fill:#52BBEF;" d="M434.647,133.681H265.96c25.159,8.721,45.013,28.921,53.218,54.319h70.707
		c5.532,0,10.059-4.074,10.059-9.054c0-4.979-4.526-9.053-10.059-9.053h-12.573c-5.533,0-10.059-4.073-10.059-9.053
		s4.526-9.054,10.059-9.054h57.336c5.532,0,10.06-4.073,10.06-9.052C444.707,137.755,440.18,133.681,434.647,133.681z"/>
	<path style="fill:#52BBEF;" d="M468.353,178.946c0,4.979-4.527,9.054-10.059,9.054h-39.231c-5.532,0-10.059-4.075-10.059-9.054
		s4.526-9.053,10.059-9.053h39.231C463.825,169.893,468.353,173.967,468.353,178.946z"/>
	<path style="fill:#52BBEF;" d="M309,46.5c0-2.134,0.159-4.231,0.445-6.288h-36.387c-5.531,0-10.059,4.074-10.059,9.053
		c0,4.98,4.527,9.054,10.059,9.054h37.508C309.551,54.548,309,50.588,309,46.5z"/>
	<path style="fill:#52BBEF;" d="M349.349,110.627c0,4.979-4.527,9.054-10.059,9.054h-39.231c-5.532,0-10.059-4.075-10.059-9.054
		s4.526-9.053,10.059-9.053h39.231C344.821,101.574,349.349,105.648,349.349,110.627z"/>
	<path style="fill:#52BBEF;" d="M275.349,84.946c0,4.979-4.527,9.054-10.059,9.054h-39.231C220.526,94,216,89.925,216,84.946
		s4.526-9.053,10.059-9.053h39.231C270.821,75.894,275.349,79.967,275.349,84.946z"/>
</g>
<path style="fill:#999CAD;" d="M46.445,394c10.182,16.766,22.341,32.19,36.118,46h346.872c13.778-13.81,25.938-29.234,36.119-46
	H46.445z"/>
<path style="fill:#FFFFFF;" d="M151.97,214h172.303c-0.048-47.505-38.57-86-86.086-86h-19.13c-47.545,0-86.087,38.542-86.087,86.087
	v3.121C138.97,215.135,145.367,214,151.97,214z"/>
<path style="fill:#EEF6FF;" d="M238.186,128h-19.13c-17.372,0-33.529,5.163-47.057,14.013v19.085
	c15.273-13.854,35.535-22.305,57.784-22.305h19.13c21.15,0,40.508,7.641,55.494,20.296C288.618,140.096,264.816,128,238.186,128z"/>
<path style="fill:#999CAD;" d="M132.968,214.087v3.121c6-2.073,12.397-3.208,19-3.208H158v-60.579
	C142.534,168.983,132.968,190.414,132.968,214.087z"/>
<path style="fill:#B7092B;" d="M172,214v-71.988c-5.465,3.575-10.493,7.753-15,12.442V214H172z"/>
<path style="fill:#999CAD;" d="M124.422,300v12c0,1.65,1.35,3,3,3h65.092c1.65,0,3-1.35,3-3v-12H124.422z"/>
<path style="fill:#838696;" d="M145,312v-12h-20.578v12c0,1.65,1.35,3,3,3H148C146.35,315,145,313.65,145,312z"/>
<path style="fill:#445EA0;" d="M116.968,291v7c0,1.65,1.35,3,3,3h80c1.65,0,3-1.35,3-3v-7H116.968z"/>
<path style="fill:#999CAD;" d="M322.422,300v12c0,1.65,1.35,3,3,3h65.092c1.65,0,3-1.35,3-3v-12H322.422z"/>
<path style="fill:#838696;" d="M343,312v-12h-20.578v12c0,1.65,1.35,3,3,3H346C344.35,315,343,313.65,343,312z"/>
<path style="fill:#445EA0;" d="M314.968,291v7c0,1.65,1.351,3,3,3h80c1.649,0,3-1.35,3-3v-7H314.968z"/>
<g>
	<path style="fill:#2E4C89;" d="M137,298v-7h-20.032v7c0,1.65,1.35,3,3,3H140C138.35,301,137,299.65,137,298z"/>
	<path style="fill:#2E4C89;" d="M335,298v-7h-20.032v7c0,1.65,1.351,3,3,3H338C336.351,301,335,299.65,335,298z"/>
</g>
<path style="fill:#A53535;" d="M413,254c-7.18,0-13-5.82-13-13c0-6.731,5.116-12.268,11.673-12.933
	C401.086,218.7,387.183,213,371.968,213h-220c-26.072,0-48.304,16.722-56.56,40h71.56c6.279,0,11.438,4.851,11.949,11h252.374
	c-0.519-3.438-1.34-6.777-2.418-10H413z"/>
<path style="fill:#FE3745;" d="M413,254c-7.18,0-13-5.82-13-13c0-6.731,5.116-12.268,11.673-12.933
	C401.086,218.7,387.183,213,371.968,213H204.494c2.316,20.337,12.393,38.341,27.175,51h199.622c-0.519-3.438-1.34-6.777-2.418-10
	H413z"/>
<path style="fill:#B7092B;" d="M433.968,263H178.787c0.11,0.652,0.181,1.317,0.181,2c0,6.617-5.383,12-12,12h-84v10
	c0,2.75,2.25,5,5,5h346c2.75,0,5-2.25,5-5v-19C438.968,265.25,436.718,263,433.968,263z"/>
<path style="fill:#EA2A3D;" d="M166.968,252c7.168,0,13,5.832,13,13s-5.832,13-13,13H77.226c-2.316,0-4.193-1.878-4.193-4.193
	v-17.613c0-2.315,1.877-4.193,4.193-4.193h89.742V252z"/>
<path style="fill:#CC152F;" d="M94,273.807v-17.613c0-2.315,1.877-4.193,4.193-4.193H77.226c-2.316,0-4.193,1.878-4.193,4.193
	v17.613c0,2.315,1.877,4.193,4.193,4.193h20.968C95.877,278,94,276.122,94,273.807z"/>
<path style="fill:#A53535;" d="M324.272,228c0,6.075-4.925,11-11,11l0,0c-6.075,0-11-4.925-11-11v-20c0-6.075,4.925-11,11-11l0,0
	c6.075,0,11,4.925,11,11V228z"/>
<path style="fill:#B7092B;" d="M253.968,233c0,2.75-2.25,5-5,5h-22c-2.75,0-5-2.25-5-5v-4c0-2.75,2.25-5,5-5h22c2.75,0,5,2.25,5,5
	V233z"/>
<path style="fill:#445EA0;" d="M115.905,468h280.189c12.33-8.61,23.831-18.323,34.358-29H81.547
	C92.075,449.677,103.575,459.39,115.905,468z"/>
<g>
	<path style="fill:#EEF6FF;" d="M158,382.633c-4.143,0-7.5-3.358-7.5-7.5v-45.266c0-4.142,3.357-7.5,7.5-7.5s7.5,3.358,7.5,7.5
		v45.266C165.5,379.275,162.143,382.633,158,382.633z"/>
	<path style="fill:#EEF6FF;" d="M136,353.726c-4.143,0-7.5-3.358-7.5-7.5V328c0-4.142,3.357-7.5,7.5-7.5s7.5,3.358,7.5,7.5v18.226
		C143.5,350.368,140.143,353.726,136,353.726z"/>
	<path style="fill:#EEF6FF;" d="M179,362.5c-4.143,0-7.5-3.358-7.5-7.5v-18.226c0-4.142,3.357-7.5,7.5-7.5s7.5,3.358,7.5,7.5V355
		C186.5,359.142,183.143,362.5,179,362.5z"/>
	<path style="fill:#EEF6FF;" d="M179,388.5c-4.143,0-7.5-3.358-7.5-7.5v-5.061c0-4.142,3.357-7.5,7.5-7.5s7.5,3.358,7.5,7.5V381
		C186.5,385.142,183.143,388.5,179,388.5z"/>
	<path style="fill:#EEF6FF;" d="M136,389.144c-4.143,0-7.5-3.358-7.5-7.5V370c0-4.142,3.357-7.5,7.5-7.5s7.5,3.358,7.5,7.5v11.644
		C143.5,385.786,140.143,389.144,136,389.144z"/>
	<path style="fill:#EEF6FF;" d="M358,382.633c-4.143,0-7.5-3.358-7.5-7.5v-45.266c0-4.142,3.357-7.5,7.5-7.5s7.5,3.358,7.5,7.5
		v45.266C365.5,379.275,362.143,382.633,358,382.633z"/>
	<path style="fill:#EEF6FF;" d="M336,353.726c-4.143,0-7.5-3.358-7.5-7.5V328c0-4.142,3.357-7.5,7.5-7.5s7.5,3.358,7.5,7.5v18.226
		C343.5,350.368,340.143,353.726,336,353.726z"/>
	<path style="fill:#EEF6FF;" d="M379,362.5c-4.143,0-7.5-3.358-7.5-7.5v-18.226c0-4.142,3.357-7.5,7.5-7.5s7.5,3.358,7.5,7.5V355
		C386.5,359.142,383.143,362.5,379,362.5z"/>
	<path style="fill:#EEF6FF;" d="M379,388.5c-4.143,0-7.5-3.358-7.5-7.5v-5.061c0-4.142,3.357-7.5,7.5-7.5s7.5,3.358,7.5,7.5V381
		C386.5,385.142,383.143,388.5,379,388.5z"/>
	<path style="fill:#EEF6FF;" d="M336,389.144c-4.143,0-7.5-3.358-7.5-7.5V370c0-4.142,3.357-7.5,7.5-7.5s7.5,3.358,7.5,7.5v11.644
		C343.5,385.786,340.143,389.144,336,389.144z"/>
</g>
<g>
	<path style="fill:#52BBEF;" d="M147.349,111.053c0,4.979-4.527,9.054-10.059,9.054H98.059c-5.532,0-10.059-4.075-10.059-9.054
		c0-4.979,4.526-9.053,10.059-9.053h39.231C142.821,102,147.349,106.074,147.349,111.053z"/>
	<path style="fill:#52BBEF;" d="M191.328,84c5.307,0,9.648-3.906,9.648-8.682c0-4.775-4.342-8.683-9.648-8.683h13.023
		c5.307,0,9.648-3.906,9.648-8.683c0-4.775-4.342-8.682-9.648-8.682h-38.105c5.306,0,9.648-3.907,9.648-8.683
		c0-1.706-0.562-3.298-1.517-4.644C144.123,46.633,116.601,63.09,93.123,84H191.328z"/>
</g>
<circle style="fill:#FFAF10;" cx="354.5" cy="46.5" r="46.5"/>
<path style="fill:#EF9614;" d="M328,46.5c0-22.247,15.627-40.834,36.5-45.41c-3.223-0.706-6.565-1.09-10-1.09
	C328.818,0,308,20.819,308,46.5S328.818,93,354.5,93c3.435,0,6.777-0.383,10-1.09C343.627,87.334,328,68.747,328,46.5z"/>
<g>
	<path style="fill:#445EA0;" d="M124,422.5h-24c-4.143,0-7.5-3.358-7.5-7.5s3.357-7.5,7.5-7.5h24c4.143,0,7.5,3.358,7.5,7.5
		C131.5,419.143,128.143,422.5,124,422.5z"/>
	<path style="fill:#445EA0;" d="M210,422.5h-24c-4.143,0-7.5-3.358-7.5-7.5s3.357-7.5,7.5-7.5h24c4.143,0,7.5,3.358,7.5,7.5
		C217.5,419.143,214.143,422.5,210,422.5z"/>
	<path style="fill:#445EA0;" d="M296,422.5h-24c-4.143,0-7.5-3.358-7.5-7.5s3.357-7.5,7.5-7.5h24c4.143,0,7.5,3.358,7.5,7.5
		C303.5,419.143,300.143,422.5,296,422.5z"/>
	<path style="fill:#445EA0;" d="M382,422.5h-24c-4.143,0-7.5-3.358-7.5-7.5s3.357-7.5,7.5-7.5h24c4.143,0,7.5,3.358,7.5,7.5
		C389.5,419.143,386.143,422.5,382,422.5z"/>
	<path style="fill:#445EA0;" d="M444,407.5c-4.143,0-7.5,3.358-7.5,7.5s3.357,7.5,7.5,7.5h1.293c3.993-4.853,7.825-9.844,11.441-15
		H444z"/>
</g>
<path style="fill:#FFFFFF;" d="M389.968,241c0,7.18,5.82,13,13,13h25.898c-3.395-10.14-9.422-19.077-17.275-26h-8.623
	C395.788,228,389.968,233.82,389.968,241z"/>
<path style="fill:#EEF6FF;" d="M400,241c0-6.729,5.113-12.264,11.666-12.932c-0.025-0.022-0.05-0.045-0.075-0.068h-8.623
	c-7.18,0-13,5.82-13,13s5.82,13,13,13H413C405.82,254,400,248.18,400,241z"/>
<g>
</g>
<g>
</g>
<g>
</g>
<g>
</g>
<g>
</g>
<g>
</g>
<g>
</g>
<g>
</g>
<g>
</g>
<g>
</g>
<g>
</g>
<g>
</g>
<g>
</g>
<g>
</g>
<g>
</g>
</svg>
