<?xml version="1.0" encoding="iso-8859-1"?>
<!-- Generator: Adobe Illustrator 19.0.0, SVG Export Plug-In . SVG Version: 6.00 Build 0)  -->
<svg version="1.1" id="Capa_1" xmlns="http://www.w3.org/2000/svg" xmlns:xlink="http://www.w3.org/1999/xlink" x="0px" y="0px"
	 viewBox="0 0 512 512" style="enable-background:new 0 0 512 512;" xml:space="preserve">
<circle style="fill:#6DC3ED;" cx="255.999" cy="256" r="245"/>
<g>
	<path style="fill:#2E4C89;" d="M23.849,263.5h58.469c-1.313-2.125-2.602-4.268-3.841-6.448c-0.368-0.648-0.368-1.455,0-2.103
		c1.239-2.181,2.529-4.324,3.841-6.449H23.209l33.406-33.406c2.929-2.929,2.929-7.678,0-10.606c-2.929-2.929-7.678-2.929-10.606,0
		L3.655,246.842c-4.874,4.874-4.874,12.804,0,17.678l42.993,42.993c1.464,1.464,3.384,2.197,5.303,2.197
		c1.919,0,3.839-0.732,5.303-2.197c2.929-2.929,2.929-7.678,0-10.606L23.849,263.5z"/>
	<path style="fill:#2E4C89;" d="M508.345,247.481l-42.992-42.993c-2.928-2.93-7.677-2.929-10.606,0s-2.929,7.678,0,10.606
		l33.405,33.406h-58.469c1.313,2.125,2.603,4.269,3.842,6.449c0.368,0.648,0.368,1.454,0,2.103c-1.239,2.18-2.528,4.323-3.841,6.447
		h59.107l-33.405,33.406c-2.929,2.929-2.929,7.678,0,10.606c1.464,1.464,3.384,2.197,5.303,2.197s3.839-0.732,5.303-2.197
		l42.353-42.354C513.219,260.285,513.219,252.354,508.345,247.481z"/>
</g>
<g>
	<path style="fill:#EEF6FF;" d="M112.999,186.301c-4.142,0-7.5-3.358-7.5-7.5V113c0-4.142,3.358-7.5,7.5-7.5h64.898
		c4.142,0,7.5,3.358,7.5,7.5s-3.358,7.5-7.5,7.5h-57.398v58.301C120.499,182.943,117.141,186.301,112.999,186.301z"/>
	<path style="fill:#EEF6FF;" d="M399,186.301c-4.142,0-7.5-3.358-7.5-7.5V120.5h-57.397c-4.142,0-7.5-3.358-7.5-7.5
		s3.358-7.5,7.5-7.5H399c4.142,0,7.5,3.358,7.5,7.5v65.801C406.5,182.943,403.142,186.301,399,186.301z"/>
	<path style="fill:#EEF6FF;" d="M399,406.5h-64.897c-4.142,0-7.5-3.358-7.5-7.5s3.358-7.5,7.5-7.5H391.5v-56.495
		c0-4.142,3.358-7.5,7.5-7.5s7.5,3.358,7.5,7.5V399C406.5,403.143,403.142,406.5,399,406.5z"/>
	<path style="fill:#EEF6FF;" d="M177.897,406.5h-64.898c-4.142,0-7.5-3.358-7.5-7.5v-63.995c0-4.142,3.358-7.5,7.5-7.5
		s7.5,3.358,7.5,7.5V391.5h57.398c4.142,0,7.5,3.358,7.5,7.5C185.397,403.143,182.039,406.5,177.897,406.5z"/>
</g>
<g>
	<path style="fill:#FFFFFF;" d="M434.394,254.456c-29.822-52.478-81.064-88.67-139.072-100.061
		c40.7,15.805,69.63,55.388,69.63,101.606c0,46.22-28.932,85.804-69.635,101.608c58.011-11.39,109.254-47.583,139.077-100.062
		C434.938,256.587,434.938,255.414,434.394,254.456z"/>
	<path style="fill:#FFFFFF;" d="M147.048,256c0-46.217,28.93-85.801,69.629-101.605c-58.008,11.391-109.25,47.583-139.072,100.061
		c-0.544,0.958-0.544,2.132,0,3.091c29.823,52.478,81.067,88.672,139.077,100.061C175.98,341.804,147.048,302.22,147.048,256z"/>
</g>
<path style="fill:#D9EAFC;" d="M98.407,257.546c-0.544-0.959-0.544-2.133,0-3.091c21.005-36.963,52.646-65.83,89.783-83.658
	c8.548-6.816,18.134-12.382,28.487-16.402c-58.008,11.391-109.25,47.583-139.072,100.061c-0.544,0.958-0.544,2.132,0,3.091
	c29.823,52.478,81.067,88.672,139.077,100.061c-10.354-4.021-19.941-9.586-28.489-16.402
	C151.054,323.377,119.413,294.51,98.407,257.546z"/>
<circle style="fill:#C6C6C6;" cx="255.999" cy="256" r="103.95"/>
<circle style="fill:#28A5A5;" cx="255.999" cy="256" r="80"/>
<path style="fill:#0F9390;" d="M195.999,256c0-40.793,30.54-74.431,70-79.355c-3.278-0.409-6.611-0.645-10-0.645
	c-44.183,0-80,35.817-80,80s35.817,80,80,80c3.389,0,6.722-0.235,10-0.645C226.54,330.432,195.999,296.794,195.999,256z"/>
<path style="fill:#2E4C89;" d="M283.693,243.923c-12.004,0-21.77-9.765-21.77-21.769c0-3.48,0.825-6.77,2.284-9.691
	c-2.661-0.499-5.401-0.771-8.207-0.771c-24.471,0-44.308,19.837-44.308,44.308s19.838,44.308,44.308,44.308
	s44.308-19.837,44.308-44.308c0-5.901-1.163-11.527-3.257-16.676C293.359,242.203,288.725,243.923,283.693,243.923z"/>
<path style="fill:#1A2B63;" d="M232.384,256c0-19.935,13.167-36.793,31.278-42.357c0.17-0.399,0.351-0.793,0.543-1.179
	c-2.661-0.499-5.401-0.771-8.207-0.771c-24.471,0-44.308,19.837-44.308,44.308s19.839,44.307,44.309,44.307
	c3.565,0,7.025-0.433,10.346-1.227C246.868,294.419,232.384,276.907,232.384,256z"/>
<circle style="fill:#FFFFFF;" cx="283.69" cy="222.16" r="22.77"/>
<path style="fill:#C3DDF4;" d="M271,222.155c0-10.844,7.582-19.909,17.731-22.203c-1.622-0.366-3.306-0.566-5.039-0.566
	c-12.575,0-22.77,10.193-22.77,22.77c0,12.575,10.194,22.769,22.77,22.769c1.732,0,3.417-0.2,5.039-0.566
	C278.582,242.063,271,232.998,271,222.155z"/>
<g>
	<path style="fill:#2E4C89;" d="M307.512,46.01L265.158,3.656c-4.874-4.874-12.804-4.874-17.678,0l-42.993,42.993
		c-2.929,2.929-2.929,7.678,0,10.606c1.464,1.464,3.384,2.197,5.303,2.197s3.839-0.732,5.303-2.197l33.407-33.406v87.968
		c0,4.142,3.358,7.5,7.5,7.5c4.142,0,7.5-3.358,7.5-7.5V23.21l33.406,33.406c2.929,2.929,7.678,2.929,10.606,0
		C310.441,53.687,310.441,48.938,307.512,46.01z"/>
	<path style="fill:#2E4C89;" d="M307.512,454.747c-2.929-2.93-7.678-2.929-10.606,0L263.5,488.152v-87.968
		c0-4.142-3.358-7.5-7.5-7.5c-4.142,0-7.5,3.358-7.5,7.5v88.606l-33.406-33.405c-2.929-2.929-7.678-2.929-10.606,0
		c-2.929,2.929-2.929,7.678,0,10.606l42.354,42.353c2.437,2.438,5.638,3.655,8.839,3.655s6.402-1.219,8.839-3.655l42.993-42.992
		C310.441,462.425,310.441,457.676,307.512,454.747z"/>
	<path style="fill:#2E4C89;" d="M373.753,248.5h-6.56c-3.706-55.49-48.203-99.987-103.693-103.693v-6.559c0-4.142-3.358-7.5-7.5-7.5
		c-4.142,0-7.5,3.358-7.5,7.5v6.559c-55.49,3.706-99.987,48.203-103.693,103.693h-6.559c-4.142,0-7.5,3.358-7.5,7.5
		s3.358,7.5,7.5,7.5h6.559c3.706,55.49,48.203,99.987,103.693,103.693v6.559c0,4.142,3.358,7.5,7.5,7.5c4.142,0,7.5-3.358,7.5-7.5
		v-6.559c55.49-3.706,99.987-48.203,103.693-103.693h6.56c4.142,0,7.5-3.358,7.5-7.5S377.895,248.5,373.753,248.5z M263.5,352.161
		v-3.198c0-4.142-3.358-7.5-7.5-7.5c-4.142,0-7.5,3.358-7.5,7.5v3.198c-47.217-3.648-85.013-41.444-88.661-88.661h3.198
		c4.142,0,7.5-3.358,7.5-7.5s-3.358-7.5-7.5-7.5h-3.198c3.648-47.217,41.444-85.013,88.661-88.661v3.198c0,4.142,3.358,7.5,7.5,7.5
		c4.142,0,7.5-3.358,7.5-7.5v-3.198c47.217,3.648,85.013,41.444,88.661,88.661h-3.198c-4.142,0-7.5,3.358-7.5,7.5s3.358,7.5,7.5,7.5
		h3.198C348.513,310.717,310.717,348.513,263.5,352.161z"/>
</g>
<g>
</g>
<g>
</g>
<g>
</g>
<g>
</g>
<g>
</g>
<g>
</g>
<g>
</g>
<g>
</g>
<g>
</g>
<g>
</g>
<g>
</g>
<g>
</g>
<g>
</g>
<g>
</g>
<g>
</g>
</svg>
