<?xml version="1.0" encoding="iso-8859-1"?>
<!-- Generator: Adobe Illustrator 19.0.0, SVG Export Plug-In . SVG Version: 6.00 Build 0)  -->
<svg version="1.1" id="Capa_1" xmlns="http://www.w3.org/2000/svg" xmlns:xlink="http://www.w3.org/1999/xlink" x="0px" y="0px"
	 viewBox="0 0 512 512" style="enable-background:new 0 0 512 512;" xml:space="preserve">
<circle style="fill:#FF8DB9;" cx="256" cy="267" r="245"/>
<path style="fill:#C3DDF4;" d="M449.808,112V68.243c0-25.227-20.451-45.679-45.679-45.679S358.45,43.016,358.45,68.243V112H449.808z
	"/>
<path style="fill:#94C2ED;" d="M411.225,23.115c-2.313-0.361-4.682-0.551-7.096-0.551c-25.228,0-45.679,20.452-45.679,45.679V112
	h14.192V68.243C372.642,45.43,389.367,26.525,411.225,23.115z"/>
<path style="fill:#6DC3ED;" d="M459.174,131.787v-15.86c0-2.75-2.25-5-5-5H354.082c-2.75,0-5,2.25-5,5v15.86H459.174z"/>
<path style="fill:#52BBEF;" d="M375,110.927h-20.918c-2.75,0-5,2.25-5,5v15.86H370v-15.86C370,113.177,372.25,110.927,375,110.927z"
	/>
<path style="fill:#2E4C89;" d="M462.007,130.287H346.249c-9.649,0-17.5,7.851-17.5,17.5v29.756c0,4.142,3.358,7.5,7.5,7.5
	s7.5-3.358,7.5-7.5v-29.756c0-1.355,1.145-2.5,2.5-2.5h25.067V195c0,4.142,3.358,7.5,7.5,7.5s7.5-3.358,7.5-7.5v-47.213
	c0-1.355,1.145-2.5,2.5-2.5h30.625c1.355,0,2.5,1.145,2.5,2.5V195c0,4.142,3.358,7.5,7.5,7.5s7.5-3.358,7.5-7.5v-49.713h25.066
	c1.355,0,2.5,1.145,2.5,2.5v29.756c0,4.142,3.358,7.5,7.5,7.5s7.5-3.358,7.5-7.5v-29.756
	C479.507,138.138,471.657,130.287,462.007,130.287z"/>
<circle style="fill:#FFFFFF;" cx="404.13" cy="71.971" r="19.375"/>
<path style="fill:#2E4C89;" d="M404.128,98.845c-14.819,0-26.875-12.056-26.875-26.874c0-14.819,12.056-26.876,26.875-26.876
	s26.875,12.056,26.875,26.876C431.003,86.79,418.947,98.845,404.128,98.845z M404.128,60.095c-6.548,0-11.875,5.327-11.875,11.876
	c0,6.548,5.327,11.874,11.875,11.874s11.875-5.327,11.875-11.874C416.003,65.422,410.676,60.095,404.128,60.095z"/>
<path style="fill:#C3DDF4;" d="M216.651,72V36.633C216.651,16.402,200.25,0,180.018,0s-36.633,16.402-36.633,36.633V72H216.651z"/>
<path style="fill:#94C2ED;" d="M185.192,0.371C183.501,0.132,181.775,0,180.018,0c-20.232,0-36.633,16.402-36.633,36.633V72h10.349
	V36.633C153.734,18.159,167.412,2.886,185.192,0.371z"/>
<path style="fill:#6DC3ED;" d="M224.163,86V75.864c0-2.75-2.25-5-5-5h-78.29c-2.75,0-5,2.25-5,5V86H224.163z"/>
<path style="fill:#52BBEF;" d="M161.71,70.864h-20.837c-2.75,0-5,2.25-5,5V86h20.837V75.864
	C156.71,73.114,158.96,70.864,161.71,70.864z"/>
<path style="fill:#2E4C89;" d="M224.455,84.905h-88.873c-9.649,0-17.5,7.851-17.5,17.5v21.883c0,4.142,3.358,7.5,7.5,7.5
	s7.5-3.358,7.5-7.5v-21.883c0-1.355,1.145-2.5,2.5-2.5h16.637v38.383c0,4.142,3.358,7.5,7.5,7.5s7.5-3.358,7.5-7.5v-35.883
	c0-1.355,1.145-2.5,2.5-2.5h20.599c1.355,0,2.5,1.145,2.5,2.5v35.883c0,4.142,3.358,7.5,7.5,7.5s7.5-3.358,7.5-7.5V99.905h16.637
	c1.355,0,2.5,1.145,2.5,2.5v21.883c0,4.142,3.358,7.5,7.5,7.5s7.5-3.358,7.5-7.5v-21.883
	C241.955,92.756,234.104,84.905,224.455,84.905z"/>
<circle style="fill:#FFFFFF;" cx="180.02" cy="39.623" r="15.538"/>
<path style="fill:#2E4C89;" d="M180.018,62.66c-12.703,0-23.038-10.334-23.038-23.038s10.334-23.039,23.038-23.039
	c12.703,0,23.038,10.335,23.038,23.039S192.721,62.66,180.018,62.66z M180.018,31.584c-4.432,0-8.038,3.606-8.038,8.039
	c0,4.432,3.605,8.038,8.038,8.038c4.432,0,8.038-3.605,8.038-8.038S184.45,31.584,180.018,31.584z"/>
<path style="fill:#C3DDF4;" d="M304.662,325v-78.114c0-45.384-36.789-82.175-82.173-82.175s-82.175,36.791-82.175,82.175V325
	H304.662z"/>
<path style="fill:#94C2ED;" d="M232.831,165.382c-3.39-0.426-6.837-0.671-10.343-0.671c-45.384,0-82.175,36.791-82.175,82.175V325
	H161v-78.114C161,205.008,192.334,170.472,232.831,165.382z"/>
<path style="fill:#6DC3ED;" d="M326.373,357.57v-28.899c0-2.75-2.25-5-5-5H123.604c-2.75,0-5,2.25-5,5v28.899H326.373z"/>
<path style="fill:#52BBEF;" d="M144.232,323.671h-20.627c-2.75,0-5,2.25-5,5v28.899h20.627v-28.899
	C139.232,325.921,141.482,323.671,144.232,323.671z"/>
<rect x="167.75" y="323.67" style="fill:#2DA1DC;" width="109.48" height="33.899"/>
<circle style="fill:#FFFFFF;" cx="222.49" cy="253.59" r="34.854"/>
<path style="fill:#D9EAFC;" d="M208.291,253.59c0-15.654,10.319-28.896,24.526-33.298c-3.264-1.011-6.732-1.557-10.329-1.557
	c-19.25,0-34.854,15.605-34.854,34.855s15.604,34.854,34.854,34.854c3.596,0,7.064-0.545,10.329-1.557
	C218.61,282.487,208.291,269.245,208.291,253.59z"/>
<g>
	<path style="fill:#2E4C89;" d="M222.489,295.945c-23.354,0-42.354-19-42.354-42.354s19-42.355,42.354-42.355
		s42.355,19,42.355,42.355S245.843,295.945,222.489,295.945z M222.489,226.236c-15.083,0-27.354,12.271-27.354,27.355
		s12.271,27.354,27.354,27.354c15.084,0,27.355-12.271,27.355-27.354S237.572,226.236,222.489,226.236z"/>
	<path style="fill:#2E4C89;" d="M354.549,349.697c-5.723,0-10.835,2.608-14.216,6.701H104.644c-3.38-4.092-8.493-6.701-14.216-6.701
		c-10.178,0-18.429,8.251-18.429,18.429c0,7.504,4.493,13.949,10.929,16.823v81.874c0,4.142,3.358,7.5,7.5,7.5s7.5-3.358,7.5-7.5
		V384.95c5.478-2.446,9.532-7.479,10.622-13.552h49.85v38.642c-6.726,2.747-11.47,9.345-11.47,17.059s4.744,14.313,11.47,17.06
		V504.5c0,4.142,3.358,7.5,7.5,7.5s7.5-3.358,7.5-7.5v-60.838c6.143-2.989,10.388-9.272,10.388-16.563
		c0-7.29-4.245-13.574-10.388-16.563v-36.638c0-1.355,1.145-2.5,2.5-2.5h93.177c1.355,0,2.5,1.145,2.5,2.5v36.638
		c-6.143,2.989-10.388,9.272-10.388,16.563s4.245,13.574,10.388,16.563v37.495c0,4.142,3.358,7.5,7.5,7.5s7.5-3.358,7.5-7.5v-36.999
		c6.726-2.747,11.47-9.345,11.47-17.06c0-7.714-4.744-14.312-11.47-17.059v-38.642h49.85c1.09,6.072,5.145,11.106,10.622,13.552
		v86.378c0,4.142,3.358,7.5,7.5,7.5s7.5-3.358,7.5-7.5v-86.379c6.436-2.874,10.929-9.318,10.929-16.823
		C372.977,357.948,364.727,349.697,354.549,349.697z M158.537,371.398h0.064C158.578,371.555,158.556,371.53,158.537,371.398z
		 M286.377,371.398h0.044C286.407,371.491,286.393,371.503,286.377,371.398z"/>
</g>
<g>
	<path style="fill:#FFE2B8;" d="M342,248.042c0-1.65,1.169-3.675,2.598-4.5l15.66-9.042c1.429-0.825,3.767-0.825,5.196,0
		l15.66,9.042c1.429,0.825,2.598,2.85,2.598,4.5v18.083c0,1.65-1.169,3.675-2.598,4.5l-15.66,9.041
		c-1.429,0.825-3.767,0.825-5.196,0l-15.66-9.041c-1.429-0.825-2.598-2.85-2.598-4.5V248.042z"/>
	<path style="fill:#FFE2B8;" d="M82.928,183.876c0-1.65,1.169-3.675,2.598-4.5l8.732-5.042c1.429-0.825,3.767-0.825,5.196,0
		l8.732,5.042c1.429,0.825,2.598,2.85,2.598,4.5v10.083c0,1.65-1.169,3.675-2.598,4.5l-8.732,5.042
		c-1.429,0.825-3.767,0.825-5.196,0l-8.732-5.042c-1.429-0.825-2.598-2.85-2.598-4.5V183.876z"/>
</g>
<g>
	<path style="fill:#DB722C;" d="M309,71.876c0-1.65,1.169-3.675,2.598-4.5l8.732-5.042c1.429-0.825,3.767-0.825,5.196,0l8.732,5.042
		c1.429,0.825,2.598,2.85,2.598,4.5v10.083c0,1.65-1.169,3.675-2.598,4.5l-8.732,5.041c-1.429,0.825-3.767,0.825-5.196,0
		l-8.732-5.041c-1.429-0.825-2.598-2.85-2.598-4.5V71.876z"/>
	<path style="fill:#DB722C;" d="M377,294.542c0-1.65,1.169-3.675,2.598-4.5l23.454-13.542c1.429-0.825,3.767-0.825,5.196,0
		l23.455,13.542c1.429,0.825,2.598,2.85,2.598,4.5v27.083c0,1.65-1.169,3.675-2.598,4.5l-23.455,13.541
		c-1.429,0.825-3.767,0.825-5.196,0l-23.454-13.541c-1.429-0.825-2.598-2.85-2.598-4.5V294.542z"/>
</g>
<path style="fill:#FFE2B8;" d="M44.18,231.896c0-1.65,1.169-3.675,2.598-4.5l15.696-9.063c1.429-0.825,3.767-0.825,5.196,0
	l15.696,9.063c1.429,0.825,2.598,2.85,2.598,4.5v18.124c0,1.65-1.169,3.675-2.598,4.5l-15.696,9.063
	c-1.429,0.825-3.767,0.825-5.196,0l-15.696-9.063c-1.429-0.825-2.598-2.85-2.598-4.5V231.896z"/>
<g>
</g>
<g>
</g>
<g>
</g>
<g>
</g>
<g>
</g>
<g>
</g>
<g>
</g>
<g>
</g>
<g>
</g>
<g>
</g>
<g>
</g>
<g>
</g>
<g>
</g>
<g>
</g>
<g>
</g>
</svg>
