<?xml version="1.0" encoding="iso-8859-1"?>
<!-- Generator: Adobe Illustrator 19.0.0, SVG Export Plug-In . SVG Version: 6.00 Build 0)  -->
<svg version="1.1" id="Capa_1" xmlns="http://www.w3.org/2000/svg" xmlns:xlink="http://www.w3.org/1999/xlink" x="0px" y="0px"
	 viewBox="0 0 512.001 512.001" style="enable-background:new 0 0 512.001 512.001;" xml:space="preserve">
<circle style="fill:#2E4C89;" cx="250.501" cy="267.001" r="245"/>
<path style="fill:#02AF8E;" d="M386.021,272.002c-2.206,0-4-1.794-4-4v-13.944h-12.508c-2.206,0-4-1.794-4-4v-41.267
	c0-2.206,1.794-4,4-4h3.408v-11.692l-0.654-0.241c-23.37-8.623-42.097-25.653-53.279-46.874H149.622
	c-2.652,0-6.251,1.632-7.999,3.627l-63.915,72.956c-1.748,1.995-1.822,5.322-0.167,7.393l177.95,222.542
	c1.655,2.071,4.366,2.071,6.022,0l144.331-180.5L386.021,272.002L386.021,272.002z"/>
<path style="fill:#159E97;" d="M108.698,229.96c-1.655-2.071-1.581-5.398,0.167-7.393l63.914-72.956
	c1.748-1.995,5.347-3.627,7.999-3.627h-31.157c-2.652,0-6.251,1.632-7.999,3.627l-63.915,72.956
	c-1.748,1.995-1.822,5.322-0.167,7.393l177.95,222.542c1.655,2.071,4.366,2.071,6.022,0l12.567-15.717L108.698,229.96z"/>
<path style="fill:#9CE2D8;" d="M365.513,225.5c-3.573-0.013-6.477-2.923-6.477-6.499s2.904-6.486,6.477-6.499v-3.711
	c0-2.206,1.794-4,4-4h3.408v-11.692l-0.654-0.241c-23.37-8.623-42.097-25.653-53.279-46.874H149.622
	c-2.652,0-6.251,1.632-7.999,3.627l-63.915,72.956c-0.865,0.987-1.317,2.301-1.355,3.627h289.16L365.513,225.5L365.513,225.5z"/>
<path style="fill:#74D1C1;" d="M172.703,149.61c1.748-1.995,5.347-3.627,7.999-3.627h-31.08c-2.652,0-6.251,1.632-7.999,3.627
	l-63.915,72.956c-0.865,0.987-1.317,2.301-1.355,3.627h31.08c0.039-1.326,0.49-2.64,1.355-3.627L172.703,149.61z"/>
<path style="fill:#60D882;" d="M257.693,453.959c0.534,0.127,1.083,0.127,1.617,0l79.733-227.765l-30.766-80.21h-99.555
	l-30.764,80.21L257.693,453.959z"/>
<polygon style="fill:#02AF8E;" points="308.278,145.984 208.723,145.984 177.959,226.194 339.044,226.194 "/>
<path style="fill:#37C47A;" d="M280.116,417.228l63.97-182.737h18.018c0.991-0.619,2.157-0.984,3.408-0.988v-8.002
	c-3.408-0.012-6.201-2.662-6.453-6.01h-14.554l-25.317-66.007h4.16c-3.059-4.754-5.702-9.777-7.92-15H149.622
	c-4.84,0-10.45,2.543-13.641,6.184l-63.914,72.956c-4.17,4.759-4.336,12.075-0.384,17.02l177.949,222.54
	c2.22,2.778,5.453,4.372,8.87,4.372s6.649-1.594,8.868-4.37l148.076-185.184H396.24L280.116,417.228z M303.122,153.484
	l25.318,66.006H188.563l25.316-66.006H303.122z M147.241,154.578c0.439-0.442,1.792-1.056,2.381-1.094h48.192l-25.316,66.006H90.374
	L147.241,154.578z M90.767,234.49h82.151l63.972,182.739L90.767,234.49z M258.502,433.569L188.81,234.49h139.383L258.502,433.569z"
	/>
<path style="fill:#C3DDF4;" d="M381.021,254.001v14.001c0,2.75,2.25,5,5,5h41.012c2.75,0,5-2.25,5-5v-14.001H381.021z"/>
<path style="fill:#FFCA51;" d="M406.526,0.001c-55.214,0-99.975,44.76-99.975,99.974c0,43.049,27.211,79.741,65.369,93.82v11.206
	h69.211v-11.206c38.158-14.08,65.369-50.771,65.369-93.82C506.501,44.761,461.74,0.001,406.526,0.001z"/>
<path style="fill:#EAC00F;" d="M327.052,99.975c0-51.753,39.326-94.322,89.725-99.455c-3.37-0.343-6.789-0.52-10.25-0.52
	c-55.214,0-99.975,44.76-99.975,99.974c0,43.049,27.211,79.741,65.369,93.82v11.207h20.5v-11.206
	C354.263,179.716,327.052,143.024,327.052,99.975z"/>
<path style="fill:#94C2ED;" d="M448.541,250.058c0,2.75-2.25,5-5,5h-74.028c-2.75,0-5-2.25-5-5v-41.267c0-2.75,2.25-5,5-5h74.028
	c2.75,0,5,2.25,5,5L448.541,250.058L448.541,250.058z"/>
<path style="fill:#FFFFFF;" d="M400.897,169.001c-0.148,0-0.3-0.014-0.45-0.042c-1.164-0.216-2.009-1.232-2.009-2.416v-53.665
	h-18.454c-0.809,0-1.566-0.399-2.025-1.066c-0.459-0.668-0.559-1.518-0.267-2.274l28.555-74.204c0.37-0.962,1.292-1.575,2.292-1.575
	c0.148,0,0.3,0.014,0.45,0.042c1.164,0.216,2.009,1.232,2.009,2.417v53.663h18.453c0.81,0,1.567,0.399,2.026,1.066
	c0.458,0.668,0.559,1.519,0.268,2.274l-28.555,74.204C402.818,168.388,401.897,169.001,400.897,169.001z"/>
<g>
	<path style="fill:#C3DDF4;" d="M447.518,226.501h-81.982c-4.143,0-7.5-3.358-7.5-7.5s3.357-7.5,7.5-7.5h81.982
		c4.143,0,7.5,3.358,7.5,7.5S451.66,226.501,447.518,226.501z"/>
	<path style="fill:#C3DDF4;" d="M447.518,247.501h-81.982c-4.143,0-7.5-3.358-7.5-7.5s3.357-7.5,7.5-7.5h81.982
		c4.143,0,7.5,3.358,7.5,7.5S451.66,247.501,447.518,247.501z"/>
</g>
<path style="fill:#60D882;" d="M121.301,131.651c-0.809,0-1.538-0.487-1.848-1.235c-4.123-9.955-7.163-12.995-17.118-17.118
	c-0.748-0.31-1.235-1.039-1.235-1.848s0.487-1.538,1.235-1.848c9.955-4.123,12.995-7.163,17.118-17.118
	c0.31-0.748,1.039-1.235,1.848-1.235s1.538,0.487,1.848,1.235c4.123,9.955,7.163,12.995,17.118,17.118
	c0.748,0.31,1.235,1.039,1.235,1.848s-0.487,1.538-1.235,1.848c-9.955,4.123-12.995,7.163-17.118,17.118
	C122.839,131.164,122.11,131.651,121.301,131.651z"/>
<path style="fill:#FFFFFF;" d="M82.301,171.65c-0.569,0-1.081-0.342-1.299-0.868c-2.898-6.997-5.035-9.134-12.033-12.033
	c-0.526-0.218-0.868-0.73-0.868-1.299s0.342-1.081,0.868-1.299c6.997-2.898,9.134-5.035,12.033-12.033
	c0.218-0.526,0.73-0.868,1.299-0.868s1.081,0.342,1.299,0.868c2.898,6.998,5.035,9.134,12.033,12.033
	c0.526,0.218,0.868,0.73,0.868,1.299s-0.342,1.081-0.868,1.299c-6.998,2.898-9.134,5.035-12.033,12.033
	C83.382,171.308,82.87,171.65,82.301,171.65z"/>
<path style="fill:#02AF8E;" d="M87.701,98.651c-1.129,0-2.147-0.68-2.579-1.724c-5.756-13.898-10-18.141-23.897-23.898
	c-1.044-0.43-1.724-1.448-1.724-2.578c0-1.129,0.68-2.148,1.724-2.579c13.897-5.756,18.141-10,23.897-23.898
	c0.432-1.043,1.45-1.724,2.579-1.724s2.147,0.681,2.579,1.724c5.756,13.898,10,18.142,23.897,23.898
	c1.043,0.432,1.724,1.45,1.724,2.579c0,1.13-0.68,2.147-1.724,2.579c-13.897,5.756-18.141,10-23.897,23.898
	C89.849,97.971,88.831,98.651,87.701,98.651z"/>
<g>
</g>
<g>
</g>
<g>
</g>
<g>
</g>
<g>
</g>
<g>
</g>
<g>
</g>
<g>
</g>
<g>
</g>
<g>
</g>
<g>
</g>
<g>
</g>
<g>
</g>
<g>
</g>
<g>
</g>
</svg>
