<?xml version="1.0" encoding="iso-8859-1"?>
<!-- Generator: Adobe Illustrator 19.0.0, SVG Export Plug-In . SVG Version: 6.00 Build 0)  -->
<svg version="1.1" id="Capa_1" xmlns="http://www.w3.org/2000/svg" xmlns:xlink="http://www.w3.org/1999/xlink" x="0px" y="0px"
	 viewBox="0 0 512 512" style="enable-background:new 0 0 512 512;" xml:space="preserve">
<circle style="fill:#FFAF10;" cx="256" cy="267" r="245"/>
<path style="fill:#2E4C89;" d="M329,24.783V5c0-2.75-2.25-5-5-5H188c-2.75,0-5,2.25-5,5v19.783H329z"/>
<path style="fill:#1A2B63;" d="M218,0h-30c-2.75,0-5,2.25-5,5v19.783h30V5C213,2.25,215.25,0,218,0z"/>
<rect x="165.05" y="51.22" style="fill:#28A5A5;" width="181.9" height="351.78"/>
<rect x="165.05" y="51.22" style="fill:#0F9390;" width="20.948" height="351.78"/>
<g>
	<rect x="225.1" y="301.5" style="fill:#1A2B63;" width="24.451" height="94.34"/>
	<rect x="262.45" y="301.5" style="fill:#1A2B63;" width="24.452" height="94.34"/>
</g>
<path style="fill:#FFE2B8;" d="M223.18,164.97v-15.04h-5.619c-3.186,0-5.767,2.582-5.767,5.766v10.571
	c0,3.184,2.581,5.766,5.767,5.766h6.383C223.448,169.756,223.18,167.395,223.18,164.97z"/>
<path style="fill:#FFC987;" d="M294.44,149.93h-5.619v15.04c0,2.424-0.269,4.786-0.764,7.063h6.383c3.185,0,5.767-2.582,5.767-5.766
	v-10.571C300.206,152.512,297.625,149.93,294.44,149.93z"/>
<path style="fill:#37C47A;" d="M323,358.5c-4.143,0-7.5-3.358-7.5-7.5v-66c0-4.142,3.357-7.5,7.5-7.5s7.5,3.358,7.5,7.5v66
	C330.5,355.142,327.143,358.5,323,358.5z"/>
<g>
	<path style="fill:#60D882;" d="M330.5,203.345v-68.233c0-4.142-3.357-7.5-7.5-7.5s-7.5,3.358-7.5,7.5v68.233H330.5z"/>
	<path style="fill:#60D882;" d="M315.5,223.345v31.544c0,4.142,3.357,7.5,7.5,7.5s7.5-3.358,7.5-7.5v-31.544H315.5z"/>
</g>
<path style="fill:#FFD782;" d="M365.5,384.389c-4.143,0-7.5-3.358-7.5-7.5v-66c0-4.142,3.357-7.5,7.5-7.5s7.5,3.358,7.5,7.5v66
	C373,381.031,369.643,384.389,365.5,384.389z"/>
<g>
	<path style="fill:#FFCA51;" d="M365.5,142.954c-4.143,0-7.5-3.358-7.5-7.5V122c0-4.142,3.357-7.5,7.5-7.5s7.5,3.358,7.5,7.5v13.454
		C373,139.596,369.643,142.954,365.5,142.954z"/>
	<path style="fill:#FFCA51;" d="M358,223.345v57.433c0,4.142,3.357,7.5,7.5,7.5s7.5-3.358,7.5-7.5v-57.433L358,223.345L358,223.345z
		"/>
	<path style="fill:#FFCA51;" d="M373,203.345V161c0-4.142-3.357-7.5-7.5-7.5s-7.5,3.358-7.5,7.5v42.345H373z"/>
</g>
<g>
	<path style="fill:#FFFFFF;" d="M394,399.243c-4.143,0-7.5-3.358-7.5-7.5v-33.72c0-4.142,3.357-7.5,7.5-7.5s7.5,3.358,7.5,7.5v33.72
		C401.5,395.885,398.143,399.243,394,399.243z"/>
	<path style="fill:#FFFFFF;" d="M394,338.695c-4.143,0-7.5-3.358-7.5-7.5V270c0-4.142,3.357-7.5,7.5-7.5s7.5,3.358,7.5,7.5v61.195
		C401.5,335.337,398.143,338.695,394,338.695z"/>
	<path style="fill:#FFFFFF;" d="M116,394.5c-4.143,0-7.5-3.358-7.5-7.5v-33.72c0-4.142,3.357-7.5,7.5-7.5s7.5,3.358,7.5,7.5V387
		C123.5,391.142,120.143,394.5,116,394.5z"/>
	<path style="fill:#FFFFFF;" d="M116,333.953c-4.143,0-7.5-3.358-7.5-7.5v-61.195c0-4.142,3.357-7.5,7.5-7.5s7.5,3.358,7.5,7.5
		v61.195C123.5,330.595,120.143,333.953,116,333.953z"/>
</g>
<path style="fill:#FFD782;" d="M143.5,377.5c-4.143,0-7.5-3.358-7.5-7.5v-66c0-4.142,3.357-7.5,7.5-7.5s7.5,3.358,7.5,7.5v66
	C151,374.142,147.643,377.5,143.5,377.5z"/>
<g>
	<path style="fill:#FFCA51;" d="M151,203.345v-49.233c0-4.142-3.357-7.5-7.5-7.5s-7.5,3.358-7.5,7.5v49.233H151z"/>
	<path style="fill:#FFCA51;" d="M136,223.345v50.544c0,4.142,3.357,7.5,7.5,7.5s7.5-3.358,7.5-7.5v-50.544H136z"/>
</g>
<path style="fill:#02AF8E;" d="M187,182.769c-4.143,0-7.5-3.358-7.5-7.5v-66c0-4.142,3.357-7.5,7.5-7.5s7.5,3.358,7.5,7.5v66
	C194.5,179.411,191.143,182.769,187,182.769z"/>
<path style="fill:#37C47A;" d="M179.5,223.345v40.16c0,4.142,3.357,7.5,7.5,7.5s7.5-3.358,7.5-7.5v-40.16H179.5z"/>
<path style="fill:#02AF8E;" d="M187,318.769c-4.143,0-7.5-3.358-7.5-7.5v-18.842c0-4.142,3.357-7.5,7.5-7.5s7.5,3.358,7.5,7.5
	v18.842C194.5,315.411,191.143,318.769,187,318.769z"/>
<path style="fill:#37C47A;" d="M187,367.5c-4.143,0-7.5-3.358-7.5-7.5v-18.842c0-4.142,3.357-7.5,7.5-7.5s7.5,3.358,7.5,7.5V360
	C194.5,364.142,191.143,367.5,187,367.5z"/>
<g>
	<path style="fill:#FFE2B8;" d="M394,204.548h-11v-8c0-1.1-0.9-2-2-2h-4c-1.1,0-2,0.9-2,2v8h-2.122
		c0.071,0.255,0.122,0.519,0.122,0.796v15.204h21c1.1,0,2-0.9,2-2v-12C396,205.448,395.1,204.548,394,204.548z"/>
	<path style="fill:#FFE2B8;" d="M139,205.345c0-0.277,0.051-0.541,0.122-0.796H137v-8c0-1.1-0.9-2-2-2h-4c-1.1,0-2,0.9-2,2v8h-11
		c-1.1,0-2,0.9-2,2v12c0,1.1,0.9,2,2,2h21V205.345z"/>
</g>
<path style="fill:#445EA0;" d="M371,202.345H269.691v-8.169c-4.186,1.868-8.816,2.914-13.691,2.914s-9.505-1.046-13.691-2.914v8.169
	H141c-1.65,0-3,1.35-3,3v16c0,1.65,1.35,3,3,3h78.721v73.849c0,2.474,2.005,4.479,4.479,4.479h63.6c2.475,0,4.479-2.005,4.479-4.479
	v-73.849H371c1.65,0,3-1.35,3-3v-16C374,203.695,372.65,202.345,371,202.345z"/>
<path style="fill:#2E4C89;" d="M158,221.345v-16c0-1.65,1.35-3,3-3h-20c-1.65,0-3,1.35-3,3v16c0,1.65,1.35,3,3,3h20
	C159.35,224.345,158,222.995,158,221.345z"/>
<path style="fill:#994334;" d="M256,105.047c-18.679,0-33.82,11.154-33.82,29.948v15.878C222.18,132.079,237.321,124,256,124
	s33.82,8.079,33.82,26.873v-15.878C289.82,116.201,274.679,105.047,256,105.047z"/>
<path style="fill:#772C22;" d="M261.09,105.332c-1.66-0.188-3.359-0.285-5.09-0.285c-18.679,0-33.82,11.154-33.82,29.948v15.878
	c0-9.727,4.063-16.577,10.565-20.929C234.961,115.826,246.496,106.99,261.09,105.332z"/>
<path style="fill:#FFE2B8;" d="M289.82,164.97c0,18.794-15.142,34.03-33.82,34.03l0,0c-18.679,0-33.82-15.236-33.82-34.03v-15.186
	c0-18.794,15.142-26.873,33.82-26.873l0,0c18.679,0,33.82,8.079,33.82,26.873V164.97z"/>
<path style="fill:#FFC987;" d="M232.359,164.97v-15.186c0-17.053,12.467-25.284,28.73-26.662c-1.66-0.141-3.359-0.211-5.09-0.211
	c-18.679,0-33.82,8.079-33.82,26.873v15.186c0,18.794,15.142,34.03,33.82,34.03c1.73,0,3.43-0.132,5.09-0.384
	C244.826,196.145,232.359,182.023,232.359,164.97z"/>
<g>
	<path style="fill:#994334;" d="M253,403v-4.521c0-2.463-2.016-4.479-4.48-4.479h-22.394c-2.463,0-4.479,2.016-4.479,4.479V403H253z
		"/>
	<path style="fill:#994334;" d="M290.353,403v-4.521c0-2.463-2.016-4.479-4.48-4.479h-22.395c-2.463,0-4.478,2.016-4.478,4.479V403
		H290.353z"/>
</g>
<g>
	<path style="fill:#2E4C89;" d="M242.309,202.345h-13.63c-4.939,0-8.958,4.019-8.958,8.958v13.63L242.309,202.345z"/>
	<path style="fill:#2E4C89;" d="M269.691,202.345h13.63c4.939,0,8.958,4.019,8.958,8.958v13.63L269.691,202.345z"/>
</g>
<path style="fill:#9CE2D8;" d="M370.172,420v-8c0-5.5-4.5-10-10-10H151.828c-5.5,0-10,4.5-10,10v8H370.172z"/>
<path style="fill:#74D1C1;" d="M183,402h-31.172c-5.5,0-10,4.5-10,10v8H173v-8C173,406.5,177.5,402,183,402z"/>
<path style="fill:#0F9390;" d="M277.5,24.783v-6.566c0-2.75-2.25-5-5-5h-33c-2.75,0-5,2.25-5,5v6.566H277.5z"/>
<path style="fill:#9CE2D8;" d="M368,42.434c0,5.5-4.5,10-10,10H154c-5.5,0-10-4.5-10-10v-9.217c0-5.5,4.5-10,10-10h204
	c5.5,0,10,4.5,10,10V42.434z"/>
<path style="fill:#74D1C1;" d="M174,42.434v-9.217c0-5.5,4.5-10,10-10h-30c-5.5,0-10,4.5-10,10v9.217c0,5.5,4.5,10,10,10h30
	C178.5,52.434,174,47.934,174,42.434z"/>
<path style="fill:#2E4C89;" d="M394,419H118c-5.5,0-10,4.5-10,10v33.244C149.119,493.462,200.392,512,256,512
	s106.881-18.538,148-49.756V429C404,423.5,399.5,419,394,419z"/>
<path style="fill:#293D7C;" d="M138,429c0-5.5,4.5-10,10-10h-30c-5.5,0-10,4.5-10,10v33.244c9.482,7.199,19.51,13.713,30,19.492V429
	z"/>
<path style="fill:#FFFFFF;" d="M319.5,429v-10h-127v10c0,2.75,2.25,5,5,5h117C317.25,434,319.5,431.75,319.5,429z"/>
<path style="fill:#D9EAFC;" d="M213,429v-10h-20.5v10c0,2.75,2.25,5,5,5H218C215.25,434,213,431.75,213,429z"/>
<g>
	<circle style="fill:#0F9390;" cx="225.5" cy="458.5" r="7.5"/>
	<circle style="fill:#0F9390;" cx="256" cy="458.5" r="7.5"/>
	<circle style="fill:#0F9390;" cx="286.5" cy="458.5" r="7.5"/>
</g>
<g>
	<path style="fill:#EBAA48;" d="M241.361,169.5c-4.143,0-7.5-3.358-7.5-7.5v-6.265c0-4.142,3.357-7.5,7.5-7.5s7.5,3.358,7.5,7.5V162
		C248.861,166.142,245.504,169.5,241.361,169.5z"/>
	<path style="fill:#EBAA48;" d="M270.639,169.5c-4.143,0-7.5-3.358-7.5-7.5v-6.265c0-4.142,3.357-7.5,7.5-7.5s7.5,3.358,7.5,7.5V162
		C278.139,166.142,274.781,169.5,270.639,169.5z"/>
</g>
<g>
</g>
<g>
</g>
<g>
</g>
<g>
</g>
<g>
</g>
<g>
</g>
<g>
</g>
<g>
</g>
<g>
</g>
<g>
</g>
<g>
</g>
<g>
</g>
<g>
</g>
<g>
</g>
<g>
</g>
</svg>
