<?xml version="1.0" encoding="iso-8859-1"?>
<!-- Generator: Adobe Illustrator 19.0.0, SVG Export Plug-In . SVG Version: 6.00 Build 0)  -->
<svg version="1.1" id="Capa_1" xmlns="http://www.w3.org/2000/svg" xmlns:xlink="http://www.w3.org/1999/xlink" x="0px" y="0px"
	 viewBox="0 0 512 512" style="enable-background:new 0 0 512 512;" xml:space="preserve">
<circle style="fill:#D9ED69;" cx="256" cy="267" r="245"/>
<g>
	<path style="fill:#FFFFFF;" d="M220.25,320.609v-17.193h-15v17.193c-3.557,0.587-6.273,3.668-6.273,7.391
		c0,4.142,3.358,7.5,7.5,7.5h12.545c4.142,0,7.5-3.358,7.5-7.5C226.523,324.277,223.807,321.196,220.25,320.609z"/>
	<path style="fill:#FFFFFF;" d="M309.772,341.609v-38.193h-15v38.193c-3.558,0.587-6.272,3.668-6.272,7.391
		c0,4.142,3.357,7.5,7.5,7.5h12.545c4.143,0,7.5-3.358,7.5-7.5C316.045,345.277,313.33,342.196,309.772,341.609z"/>
	<path style="fill:#FFFFFF;" d="M423.318,228.184h-55.243c0,4.426,0,7.189,0,7.454c0,2.579-0.249,5.099-0.706,7.546h55.949
		c-0.853-2.342-1.318-4.868-1.318-7.5S422.466,230.526,423.318,228.184z"/>
</g>
<circle style="fill:#445EA0;" cx="444" cy="235.68" r="23"/>
<path style="fill:#FFFFFF;" d="M395.318,159.5h-27.243c0,4.623,0,9.71,0,15h27.243c-0.853-2.342-1.318-4.867-1.318-7.5
	S394.466,161.842,395.318,159.5z"/>
<circle style="fill:#445EA0;" cx="416" cy="167" r="23"/>
<path style="fill:#FFFFFF;" d="M390.478,275.5H326v15h61.978v72.887c2.275-1.092,4.813-1.722,7.5-1.722s5.225,0.63,7.5,1.722V288
	C402.978,281.107,397.371,275.5,390.478,275.5z"/>
<circle style="fill:#445EA0;" cx="395.48" cy="379.08" r="18.415"/>
<g>
	<path style="fill:#FFFFFF;" d="M185,178.5v-15h-64.318c0.853,2.342,1.318,4.867,1.318,7.5s-0.466,5.158-1.318,7.5H185z"/>
	<path style="fill:#FFFFFF;" d="M185,205.5h-80c-6.893,0-12.5,5.607-12.5,12.5v71.318c2.342-0.852,4.867-1.318,7.5-1.318
		s5.158,0.466,7.5,1.318V220.5H185V205.5z"/>
</g>
<g>
	<circle style="fill:#445EA0;" cx="100" cy="310" r="23"/>
	<rect x="254.36" y="303.42" style="fill:#445EA0;" width="23.823" height="87.08"/>
</g>
<rect x="254.36" y="316.87" style="fill:#2E4C89;" width="23.823" height="38.12"/>
<rect x="236.64" y="303.42" style="fill:#293D7C;" width="19.364" height="87.08"/>
<path style="fill:#37C47A;" d="M196.777,275.585V300c0,2.75,2.25,5,5,5h120.342c2.75,0,5-2.25,5-5v-24.415H196.777z"/>
<path style="fill:#2BB381;" d="M217.658,300v-24.415h-20.881V300c0,2.75,2.25,5,5,5h20.881C219.908,305,217.658,302.75,217.658,300z
	"/>
<g>
	<path style="fill:#37C47A;" d="M234.559,99.934c-4.054,0-7.735-1.588-10.486-4.159v45.899h20.974v-45.9
		C242.295,98.346,238.612,99.934,234.559,99.934z"/>
	<path style="fill:#37C47A;" d="M234.559,69.163c4.054,0,7.736,1.588,10.487,4.159V12.865c0-2.75-2.25-5-5-5h-10.974
		c-2.75,0-5,2.25-5,5v60.458C226.823,70.751,230.505,69.163,234.559,69.163z"/>
</g>
<circle style="fill:#159E97;" cx="234.56" cy="84.55" r="16.385"/>
<g>
	<path style="fill:#37C47A;" d="M275.194,61.298c4.054,0,7.736,1.588,10.487,4.16V5c0-2.75-2.25-5-5-5h-10.975c-2.75,0-5,2.25-5,5
		v60.457C267.458,62.886,271.141,61.298,275.194,61.298z"/>
	<path style="fill:#37C47A;" d="M275.194,92.069c-4.054,0-7.736-1.588-10.487-4.16v53.765h20.975V87.909
		C282.931,90.481,279.248,92.069,275.194,92.069z"/>
</g>
<circle style="fill:#159E97;" cx="275.19" cy="76.68" r="16.386"/>
<g>
	<path style="fill:#37C47A;" d="M314.52,102.771c-4.054,0-7.735-1.588-10.486-4.159v43.063h20.974V98.611
		C322.256,101.183,318.574,102.771,314.52,102.771z"/>
	<path style="fill:#37C47A;" d="M314.52,72c4.055,0,7.736,1.588,10.487,4.16V16.798c0-2.75-2.25-5-5-5h-10.974c-2.75,0-5,2.25-5,5
		v59.361C306.784,73.588,310.466,72,314.52,72z"/>
</g>
<circle style="fill:#159E97;" cx="314.52" cy="87.39" r="16.385"/>
<g>
	<path style="fill:#37C47A;" d="M193.385,83c4.321,0,8.227,1.797,11.023,4.677V32.528c0-2.75-2.25-5-5-5h-10.971c-2.75,0-5,2.25-5,5
		V86.67C186.122,84.386,189.593,83,193.385,83z"/>
	<path style="fill:#37C47A;" d="M193.385,113.771c-3.792,0-7.263-1.386-9.947-3.669v31.572h20.971v-32.579
		C201.611,111.974,197.706,113.771,193.385,113.771z"/>
</g>
<circle style="fill:#159E97;" cx="193.38" cy="98.39" r="16.385"/>
<g>
	<path style="fill:#0F9390;" d="M228.269,84.548c0-7.286,4.76-13.455,11.337-15.584c-1.591-0.515-3.284-0.801-5.047-0.801
		c-9.049,0-16.385,7.336-16.385,16.385c0,9.05,7.336,16.386,16.385,16.386c1.763,0,3.456-0.286,5.047-0.801
		C233.028,98.004,228.269,91.835,228.269,84.548z"/>
	<path style="fill:#0F9390;" d="M268.903,76.683c0-7.287,4.761-13.456,11.339-15.584c-1.592-0.515-3.285-0.801-5.048-0.801
		c-9.05,0-16.386,7.336-16.386,16.385c0,9.05,7.336,16.386,16.386,16.386c1.763,0,3.456-0.286,5.048-0.801
		C273.664,90.14,268.903,83.971,268.903,76.683z"/>
	<path style="fill:#0F9390;" d="M308.229,87.386c0-7.288,4.76-13.456,11.337-15.585c-1.59-0.515-3.285-0.801-5.046-0.801
		c-9.05,0-16.385,7.335-16.385,16.386c0,9.049,7.335,16.385,16.385,16.385c1.762,0,3.456-0.286,5.047-0.801
		C312.989,100.841,308.229,94.673,308.229,87.386z"/>
	<path style="fill:#0F9390;" d="M187.095,98.386c0-7.288,4.76-13.456,11.337-15.585c-1.59-0.515-3.284-0.801-5.047-0.801
		C184.335,82,177,89.335,177,98.386c0,9.048,7.335,16.385,16.385,16.385c1.763,0,3.457-0.286,5.047-0.801
		C191.855,111.841,187.095,105.672,187.095,98.386z"/>
</g>
<path style="fill:#159E97;" d="M322.406,275.585c-22.027,0-39.947-17.92-39.947-39.947s17.92-39.947,39.947-39.947h2.6v-55.433
	H183.438v123.218c0,7.209,5.898,13.108,13.106,13.108h128.463v-1L322.406,275.585L322.406,275.585z"/>
<path style="fill:#9CE2D8;" d="M282.459,235.638c0-11.672,5.033-22.189,13.041-29.499V174c0-2.75-2.25-5-5-5h-69c-2.75,0-5,2.25-5,5
	v64c0,2.75,2.25,5,5,5h61.65C282.703,240.612,282.459,238.153,282.459,235.638z"/>
<path style="fill:#74D1C1;" d="M227,238v-64c0-2.75,2.25-5,5-5h-10.5c-2.75,0-5,2.25-5,5v64c0,2.75,2.25,5,5,5H232
	C229.25,243,227,240.75,227,238z"/>
<path style="fill:#1A2B63;" d="M314.5,414v-20c0-2.75-2.25-5-5-5h-107c-2.75,0-5,2.25-5,5v20H314.5z"/>
<path style="fill:#2E4C89;" d="M322.5,413h-133c-2.75,0-5,2.25-5,5v83.389C207.121,508.28,231.125,512,256,512
	s48.879-3.72,71.5-10.611V418C327.5,415.25,325.25,413,322.5,413z"/>
<path style="fill:#293D7C;" d="M205,418c0-2.75,2.25-5,5-5h-20.5c-2.75,0-5,2.25-5,5v83.389c6.715,2.046,13.555,3.805,20.5,5.277
	V418z"/>
<g>
	<rect x="264.71" y="109" style="fill:#2BB381;" width="20.975" height="15"/>
	<rect x="304.03" y="115" style="fill:#2BB381;" width="20.975" height="15"/>
	<rect x="224.07" y="115" style="fill:#2BB381;" width="20.975" height="15"/>
	<rect x="183.44" y="120" style="fill:#2BB381;" width="20.975" height="15"/>
	<rect x="264.71" y="33" style="fill:#2BB381;" width="20.975" height="15"/>
	<rect x="304.03" y="42" style="fill:#2BB381;" width="20.975" height="15"/>
	<rect x="224.07" y="42" style="fill:#2BB381;" width="20.975" height="15"/>
	<rect x="183.44" y="58" style="fill:#2BB381;" width="20.975" height="15"/>
</g>
<g>
	<path style="fill:#28A5A5;" d="M230.5,195.5V244h15v-52c0-6.341-5.159-11.5-11.5-11.5h-18.5v15H230.5z"/>
	<polygon style="fill:#28A5A5;" points="271.5,244 271.5,198 296.5,198 296.5,183 271.5,183 271.5,168 256.5,168 256.5,244 	"/>
</g>
<path style="fill:#159E97;" d="M322.406,195.691h2.6v-55.433H183.438v123.218c0,7.209,5.898,13.108,13.106,13.108h128.463v-1h-2.6
	c-19.516,0-35.797-14.07-39.258-32.597c0.001,0.004,0.001,0.008,0.002,0.012H221.5c-2.75,0-5-2.25-5-5v-64c0-2.75,2.25-5,5-5h69
	c2.75,0,5,2.25,5,5v32.139C302.604,199.653,312.051,195.691,322.406,195.691z"/>
<g>
	<circle style="fill:#0F9390;" cx="274" cy="434.5" r="7.5"/>
	<circle style="fill:#0F9390;" cx="274" cy="460" r="7.5"/>
	<circle style="fill:#0F9390;" cx="274" cy="485.5" r="7.5"/>
</g>
<path style="fill:#9CE2D8;" d="M257.5,493c0,1.65-1.35,3-3,3h-21c-1.65,0-3-1.35-3-3v-65c0-1.65,1.35-3,3-3h21c1.65,0,3,1.35,3,3
	V493z"/>
<path style="fill:#FFAF10;" d="M230.5,473v20c0,1.65,1.35,3,3,3h21c1.65,0,3-1.35,3-3v-20H230.5z"/>
<circle style="fill:#445EA0;" cx="100" cy="171" r="23"/>
<g>
	<path style="fill:#2E4C89;" d="M431,235.684c0-10.985,7.702-20.165,18-22.449c-1.61-0.357-3.282-0.551-5-0.551
		c-12.703,0-23,10.297-23,23s10.297,23,23,23c1.718,0,3.39-0.194,5-0.551C438.702,255.849,431,246.669,431,235.684z"/>
	<path style="fill:#2E4C89;" d="M403,167c0-10.984,7.702-20.165,18-22.448c-1.61-0.357-3.282-0.552-5-0.552
		c-12.703,0-23,10.297-23,23s10.297,23,23,23c1.718,0,3.39-0.194,5-0.552C410.702,187.165,403,177.985,403,167z"/>
	<path style="fill:#2E4C89;" d="M387.064,379.08c0-8.436,5.678-15.529,13.415-17.71c-1.592-0.449-3.265-0.705-5-0.705
		c-10.171,0-18.415,8.245-18.415,18.415c0,10.169,8.244,18.415,18.415,18.415c1.735,0,3.408-0.257,5-0.705
		C392.741,394.608,387.064,387.514,387.064,379.08z"/>
	<path style="fill:#2E4C89;" d="M87,310c0-10.985,7.702-20.165,18-22.449c-1.61-0.357-3.282-0.551-5-0.551
		c-12.703,0-23,10.297-23,23c0,12.701,10.297,23,23,23c1.718,0,3.39-0.194,5-0.552C94.702,330.165,87,320.983,87,310z"/>
	<path style="fill:#2E4C89;" d="M87,171c0-10.985,7.704-20.165,18-22.448c-1.61-0.357-3.282-0.552-5-0.552
		c-12.701,0-23,10.297-23,23s10.299,23,23,23c1.718,0,3.39-0.194,5-0.552C94.704,191.165,87,181.984,87,171z"/>
</g>
<path style="fill:#0F9390;" d="M204.431,263.477V140.258h-20.993v123.218c0,7.209,5.898,13.108,13.106,13.108h20.993
	C210.329,276.585,204.431,270.686,204.431,263.477z"/>
<path style="fill:#28A5A5;" d="M369.534,137.52c0-2.56-2.075-4.636-4.636-4.636h-14.497c-0.192,0-0.386,0.012-0.576,0.036
	c-0.073,0.009-0.147,0.015-0.216,0.019c-10.057,0.525-17.932,8.815-17.932,18.874v41.368c0,0.555,0.035,1.101,0.082,1.645
	c-1.049-0.08-2.104-0.134-3.174-0.134h-6.18c-22.613,0-40.947,18.333-40.947,40.947c0,22.615,18.334,40.947,40.947,40.947h6.18
	c22.617,0,40.948-18.332,40.948-40.947C369.534,234.004,369.534,137.52,369.534,137.52z"/>
<path style="fill:#0F9390;" d="M369.534,165h-37.857v15h37.857C369.534,174.82,369.534,169.744,369.534,165z"/>
<circle style="fill:#159E97;" cx="325.5" cy="234.5" r="20.5"/>
<path style="fill:#0F9390;" d="M315,234.5c0-9.594,6.6-17.625,15.5-19.86c-1.603-0.402-3.272-0.64-5-0.64
	c-11.322,0-20.5,9.178-20.5,20.5s9.178,20.5,20.5,20.5c1.728,0,3.397-0.237,5-0.64C321.6,252.125,315,244.094,315,234.5z"/>
<g>
</g>
<g>
</g>
<g>
</g>
<g>
</g>
<g>
</g>
<g>
</g>
<g>
</g>
<g>
</g>
<g>
</g>
<g>
</g>
<g>
</g>
<g>
</g>
<g>
</g>
<g>
</g>
<g>
</g>
</svg>
