<?xml version="1.0" encoding="iso-8859-1"?>
<!-- Generator: Adobe Illustrator 19.0.0, SVG Export Plug-In . SVG Version: 6.00 Build 0)  -->
<svg version="1.1" id="Capa_1" xmlns="http://www.w3.org/2000/svg" xmlns:xlink="http://www.w3.org/1999/xlink" x="0px" y="0px"
	 viewBox="0 0 512 512" style="enable-background:new 0 0 512 512;" xml:space="preserve">
<circle style="fill:#FFAF10;" cx="256" cy="256" r="256"/>
<path style="fill:#2E4C89;" d="M103.824,461.845C146.364,493.35,198.999,512,256,512c57.004,0,109.643-18.648,152.185-50.155
	H103.824z"/>
<path style="fill:#FFFFFF;" d="M334.367,35.729H183.902c-15.845,0-28.735,12.891-28.735,28.735v184.222h15.673V64.464
	c0-7.201,5.859-13.061,13.061-13.061h150.465c7.202,0,13.061,5.86,13.061,13.061v63.014h15.673V64.464
	C363.102,48.62,350.212,35.729,334.367,35.729z"/>
<rect x="155.167" y="133.747" style="fill:#2E4C89;" width="15.673" height="114.939"/>
<path style="fill:#FFFFFF;" d="M298.841,72.301h-80.457c-15.845,0-28.735,12.891-28.735,28.735v147.65h15.673v-147.65
	c0-7.201,5.859-13.061,13.061-13.061h80.457c7.203,0,13.061,5.86,13.061,13.061v26.442h15.673v-26.442
	C327.576,85.192,314.686,72.301,298.841,72.301z"/>
<rect x="189.649" y="164.049" style="fill:#159E97;" width="15.673" height="84.637"/>
<path style="fill:#94C2ED;" d="M463.113,406.465H48.887c15.728,21.613,34.753,40.665,56.342,56.424h301.544
	C428.36,447.131,447.386,428.078,463.113,406.465z"/>
<g>
	<path style="fill:#FFFFFF;" d="M200.882,440.947v-34.482H52.506v4.854c8.994,11.767,18.984,22.729,29.846,32.763h115.394
		C199.471,444.082,200.882,442.671,200.882,440.947z"/>
	<path style="fill:#FFFFFF;" d="M459.494,411.319v-4.854H227.527v34.482c0,1.724,1.411,3.135,3.135,3.135h198.986
		C440.51,434.047,450.499,423.084,459.494,411.319z"/>
</g>
<g>
	<path style="fill:#94C2ED;" d="M151.249,425.273c0,2.873-2.351,5.225-5.224,5.225h-38.661c-2.873,0-5.224-2.351-5.224-5.225v-4.18
		c0-2.873,2.351-5.224,5.224-5.224h38.661c2.873,0,5.224,2.351,5.224,5.224V425.273z"/>
	<path style="fill:#94C2ED;" d="M368.065,425.273c0,2.873-2.351,5.225-5.224,5.225H324.18c-2.873,0-5.224-2.351-5.224-5.225v-4.18
		c0-2.873,2.351-5.224,5.224-5.224h38.661c2.873,0,5.224,2.351,5.224,5.224V425.273z"/>
</g>
<path style="fill:#159E97;" d="M444.082,150.465v-13.903c0-5.747-4.702-10.449-10.449-10.449H295.944
	c-5.747,0-10.449,4.702-10.449,10.449v13.903H444.082z"/>
<path style="fill:#0F9390;" d="M317.649,126.113h-21.705c-5.747,0-10.449,4.702-10.449,10.449v13.903H307.2v-13.903
	C307.2,130.815,311.902,126.113,317.649,126.113z"/>
<path style="fill:#FFFFFF;" d="M218.381,360.49V252.557c0-2.873-2.351-5.224-5.224-5.224H43.623c-2.873,0-5.224,2.351-5.224,5.224
	V360.49H218.381z"/>
<path style="fill:#D9EAFC;" d="M53.946,349.115c-1.724,0-3.135-1.411-3.135-3.135V262.88c0-1.724,1.411-3.135,3.135-3.135h148.888
	c1.724,0,3.135,1.411,3.135,3.135v83.101c0,1.724-1.411,3.135-3.135,3.135H53.946z"/>
<g>
	<path style="fill:#C3DDF4;" d="M66.873,345.98V262.88c0-1.724,1.411-3.135,3.135-3.135H53.946c-1.724,0-3.135,1.411-3.135,3.135
		v83.101c0,1.724,1.411,3.135,3.135,3.135h16.062C68.284,349.115,66.873,347.704,66.873,345.98z"/>
	<path style="fill:#C3DDF4;" d="M238.237,375.118V364.27c0-2.873-2.351-5.224-5.224-5.224H23.767c-2.873,0-5.224,2.351-5.224,5.224
		v10.848H238.237z"/>
</g>
<path style="fill:#2E4C89;" d="M480.653,375.118V154.321c0-2.873-2.351-5.224-5.224-5.224H254.147c-2.873,0-5.224,2.351-5.224,5.224
	v220.797H480.653z"/>
<path style="fill:#FFE2B8;" d="M454.284,339.025c0,1.724-1.411,3.135-3.135,3.135H299.886c-1.724,0-3.135-1.411-3.135-3.135V176.268
	c0-1.724,1.411-3.135,3.135-3.135h151.264c1.724,0,3.135,1.411,3.135,3.135V339.025z"/>
<path style="fill:#FFC987;" d="M307.447,339.025V176.268c0-1.724,1.411-3.135,3.135-3.135h-10.696c-1.724,0-3.135,1.411-3.135,3.135
	v162.757c0,1.724,1.411,3.135,3.135,3.135h10.696C308.857,342.16,307.447,340.75,307.447,339.025z"/>
<g>
	<rect x="296.751" y="184.424" style="fill:#999CAD;" width="12.539" height="15.673"/>
	<rect x="354.22" y="184.424" style="fill:#999CAD;" width="100.059" height="15.673"/>
</g>
<path style="fill:#94C2ED;" d="M28.64,373.744c6.172,11.893,13.25,23.239,21.142,33.949h412.436
	c7.892-10.711,14.97-22.056,21.142-33.949H28.64z"/>
<g>
	<circle style="fill:#0F9390;" cx="275.592" cy="185.469" r="7.837"/>
	<circle style="fill:#0F9390;" cx="275.592" cy="207.935" r="7.837"/>
	<circle style="fill:#0F9390;" cx="275.592" cy="233.535" r="7.837"/>
</g>
<path style="fill:#6DC3ED;" d="M131.461,320.091c0,1.023-0.725,2.278-1.61,2.789l-26.474,15.284c-0.886,0.511-2.334,0.511-3.22,0
	L73.684,322.88c-0.885-0.511-1.61-1.766-1.61-2.789v-30.567c0-1.023,0.725-2.278,1.61-2.789l26.472-15.284
	c0.886-0.511,2.334-0.511,3.22,0l26.474,15.284c0.885,0.511,1.61,1.766,1.61,2.789V320.091z"/>
<path style="fill:#2E4C89;" d="M101.768,302.834v35.713c0.584,0,1.168-0.128,1.61-0.383l26.474-15.284
	c0.886-0.511,1.61-1.766,1.61-2.789v-30.567c0-0.52-0.189-1.098-0.489-1.609L101.768,302.834z"/>
<path style="fill:#0F9390;" d="M72.563,287.914c-0.3,0.512-0.489,1.09-0.489,1.609v30.567c0,1.023,0.724,2.278,1.61,2.789
	l26.472,15.284c0.443,0.256,1.026,0.383,1.61,0.383v-35.713L72.563,287.914z"/>
<path style="fill:#6DC3ED;" d="M425.273,303.943c0,1.72-1.219,3.83-2.707,4.69l-44.51,25.696c-1.489,0.86-3.925,0.86-5.415,0
	l-44.509-25.696c-1.488-0.86-2.707-2.97-2.707-4.69v-51.394c0-1.72,1.218-3.831,2.707-4.689l44.509-25.696
	c1.489-0.86,3.925-0.86,5.415,0l44.51,25.696c1.488,0.86,2.707,2.97,2.707,4.689V303.943z"/>
<path style="fill:#2E4C89;" d="M375.349,274.929v60.045c0.981,0,1.963-0.214,2.707-0.645l44.51-25.697
	c1.489-0.86,2.707-2.969,2.707-4.688V252.55c0-0.875-0.318-1.846-0.821-2.706L375.349,274.929z"/>
<path style="fill:#159E97;" d="M326.246,249.843c-0.504,0.86-0.821,1.832-0.821,2.706v51.394c0,1.72,1.217,3.83,2.707,4.688
	l44.51,25.697c0.744,0.43,1.726,0.645,2.707,0.645v-60.045L326.246,249.843z"/>
<path style="fill:#0F9390;" d="M334.006,309.694v-55.886l-7.759-3.963c-0.504,0.86-0.821,1.832-0.821,2.706v51.394
	c0,1.72,1.217,3.83,2.707,4.688l6.678,3.856C334.316,311.589,334.006,310.594,334.006,309.694z"/>
<path style="fill:#D9EAFC;" d="M133.545,218.118c0,1.724-1.411,3.135-3.135,3.135H15.033c-1.724,0-3.135-1.411-3.135-3.135V61.649
	c0-1.724,1.411-3.135,3.135-3.135H130.41c1.724,0,3.135,1.411,3.135,3.135v156.469H133.545z"/>
<path style="fill:#C3DDF4;" d="M28.212,218.118V61.649c0-1.724,1.411-3.135,3.135-3.135H15.033c-1.724,0-3.135,1.411-3.135,3.135
	v156.469c0,1.724,1.411,3.135,3.135,3.135h16.314C29.623,221.253,28.212,219.842,28.212,218.118z"/>
<path style="fill:#6DC3ED;" d="M102.415,176.501c0,1.023-0.725,2.278-1.61,2.789l-26.472,15.284c-0.886,0.511-2.334,0.511-3.22,0
	L44.638,179.29c-0.885-0.511-1.61-1.766-1.61-2.789v-30.567c0-1.023,0.725-2.278,1.61-2.789l26.474-15.284
	c0.886-0.511,2.334-0.511,3.22,0l26.472,15.284c0.885,0.511,1.61,1.766,1.61,2.789V176.501z"/>
<path style="fill:#2E4C89;" d="M72.722,159.245v35.713c0.584,0,1.168-0.127,1.61-0.383l26.472-15.285
	c0.886-0.511,1.61-1.766,1.61-2.789v-30.567c0-0.52-0.189-1.098-0.489-1.609L72.722,159.245z"/>
<path style="fill:#0F9390;" d="M43.517,144.324c-0.3,0.512-0.489,1.09-0.489,1.609v30.567c0,1.023,0.724,2.278,1.61,2.789
	l26.474,15.285c0.443,0.256,1.026,0.383,1.61,0.383v-35.713L43.517,144.324z"/>
<g>
	<path style="fill:#2E4C89;" d="M101.979,118.596H43.465c-4.328,0-7.837-3.509-7.837-7.837s3.509-7.837,7.837-7.837h58.514
		c4.328,0,7.837,3.509,7.837,7.837S106.307,118.596,101.979,118.596z"/>
	<path style="fill:#2E4C89;" d="M85.261,97.698H60.183c-4.328,0-7.837-3.509-7.837-7.837s3.509-7.837,7.837-7.837h25.078
		c4.328,0,7.837,3.509,7.837,7.837S89.589,97.698,85.261,97.698z"/>
</g>
<path style="fill:#FFFFFF;" d="M286.551,331.197c0,6.055-4.908,10.963-10.963,10.963l0,0c-6.055,0-10.963-4.908-10.963-10.963
	V288.34c0-6.055,4.908-10.963,10.963-10.963l0,0c6.055,0,10.963,4.908,10.963,10.963V331.197z"/>
<path style="fill:#FFAF10;" d="M275.588,339.025c-4.316,0-7.828-3.512-7.828-7.828v-22.952h15.657v22.952
	C283.416,335.514,279.904,339.025,275.588,339.025z"/>
<path style="fill:#1A2B63;" d="M322.118,204.8l8.07,13.977c0.862,1.493,2.273,1.493,3.135,0l8.07-13.977H322.118z"/>
<path style="fill:#2E4C89;" d="M355.265,202.71c0,1.724-1.411,3.135-3.135,3.135H311.38c-1.724,0-3.135-1.411-3.135-3.135v-20.898
	c0-1.724,1.411-3.135,3.135-3.135h40.751c1.724,0,3.135,1.411,3.135,3.135V202.71z"/>
<path style="fill:#1A2B63;" d="M318.694,202.71v-20.898c0-1.724,1.411-3.135,3.135-3.135H311.38c-1.724,0-3.135,1.411-3.135,3.135
	v20.898c0,1.724,1.411,3.135,3.135,3.135h10.449C320.104,205.845,318.694,204.434,318.694,202.71z"/>
<g>
	<path style="fill:#2E4C89;" d="M179.526,291.443h-31.347c-4.328,0-7.837-3.509-7.837-7.837s3.509-7.837,7.837-7.837h31.347
		c4.328,0,7.837,3.509,7.837,7.837S183.854,291.443,179.526,291.443z"/>
	<path style="fill:#2E4C89;" d="M179.526,311.818h-31.347c-4.328,0-7.837-3.509-7.837-7.837s3.509-7.837,7.837-7.837h31.347
		c4.328,0,7.837,3.509,7.837,7.837S183.854,311.818,179.526,311.818z"/>
	<path style="fill:#2E4C89;" d="M166.987,332.194h-18.808c-4.328,0-7.837-3.509-7.837-7.837c0-4.328,3.509-7.837,7.837-7.837h18.808
		c4.328,0,7.837,3.509,7.837,7.837C174.824,328.686,171.315,332.194,166.987,332.194z"/>
</g>
<g>
</g>
<g>
</g>
<g>
</g>
<g>
</g>
<g>
</g>
<g>
</g>
<g>
</g>
<g>
</g>
<g>
</g>
<g>
</g>
<g>
</g>
<g>
</g>
<g>
</g>
<g>
</g>
<g>
</g>
</svg>
