<?xml version="1.0" encoding="iso-8859-1"?>
<!-- Generator: Adobe Illustrator 19.0.0, SVG Export Plug-In . SVG Version: 6.00 Build 0)  -->
<svg version="1.1" id="Capa_1" xmlns="http://www.w3.org/2000/svg" xmlns:xlink="http://www.w3.org/1999/xlink" x="0px" y="0px"
	 viewBox="0 0 512 512" style="enable-background:new 0 0 512 512;" xml:space="preserve">
<circle style="fill:#D9ED69;" cx="256" cy="267" r="245"/>
<path style="fill:#02AF8E;" d="M170,480c0,2.75-2.25,5-5,5H33.81c-2.75,0-5-2.25-5-5V378.439c0-2.75,2.25-5,5-5H165
	c2.75,0,5,2.25,5,5V480z"/>
<path style="fill:#0F9390;" d="M39,480V378.439c0-2.75,2.25-5,5-5H33.81c-2.75,0-5,2.25-5,5V480c0,2.75,2.25,5,5,5H44
	C41.25,485,39,482.75,39,480z"/>
<path style="fill:#02AF8E;" d="M153,32H17.81c-2.75,0-5,2.25-5,5v160c0,2.75,2.25,5,5,5h80.695v-13.871c0-2.206,1.794-4,4-4h28.622
	v-21.873c0-2.206,1.794-4,4-4H142c2.206,0,4,1.794,4,4V202h7c2.75,0,5-2.25,5-5V37C158,34.25,155.75,32,153,32z"/>
<path style="fill:#159E97;" d="M30.621,197V37c0-2.75,2.25-5,5-5H17.81c-2.75,0-5,2.25-5,5v160c0,2.75,2.25,5,5,5h17.811
	C32.871,202,30.621,199.75,30.621,197z"/>
<path style="fill:#FFFFFF;" d="M133,77c0,2.75-2.25,5-5,5H42.81c-2.75,0-5-2.25-5-5V61c0-2.75,2.25-5,5-5H128c2.75,0,5,2.25,5,5V77z
	"/>
<path style="fill:#FFAF10;" d="M493.835,49h-135.19c-2.75,0-5,2.25-5,5v123c0,2.75,2.25,5,5,5H366v-11c0-2.206,1.794-4,4-4h1.83
	c2.206,0,4,1.794,4,4v11h5.227v-18.302c0-2.206,1.794-4,4-4h1.83c2.206,0,4,1.794,4,4V182h5.227v-14c0-2.206,1.794-4,4-4h1.83
	c2.206,0,4,1.794,4,4v14h5.227v-5c0-2.206,1.794-4,4-4H417c2.206,0,4,1.794,4,4v5h72.835c2.75,0,5-2.25,5-5V54
	C498.835,51.25,496.585,49,493.835,49z"/>
<path style="fill:#FF9518;" d="M363.81,177V54c0-2.75,2.25-5,5-5h-10.165c-2.75,0-5,2.25-5,5v123c0,2.75,2.25,5,5,5H366v-0.873
	C364.682,180.224,363.81,178.71,363.81,177z"/>
<path style="fill:#C3DDF4;" d="M474.24,134h-20v18h20c4.962,0,9-4.038,9-9S479.203,134,474.24,134z"/>
<rect x="419.78" y="134" style="fill:#6DC3ED;" width="31.453" height="18"/>
<path style="fill:#159E97;" d="M416.788,134H378.24c-4.962,0-9,4.038-9,9s4.038,9,9,9h38.547v-18H416.788z"/>
<g>
	<path style="fill:#DB722C;" d="M461.74,119c0,1.65,1.35,3,3,3h11c1.65,0,3-1.35,3-3v-15.792c0-1.65-1.35-3-3-3h-11
		c-1.65,0-3,1.35-3,3V119z"/>
	<path style="fill:#DB722C;" d="M439.74,119c0,1.65,1.35,3,3,3h11c1.65,0,3-1.35,3-3V95.943c0-1.65-1.35-3-3-3h-11
		c-1.65,0-3,1.35-3,3V119z"/>
	<path style="fill:#DB722C;" d="M417.74,119c0,1.65,1.35,3,3,3h11c1.65,0,3-1.35,3-3V90c0-1.65-1.35-3-3-3h-11c-1.65,0-3,1.35-3,3
		V119z"/>
	<path style="fill:#DB722C;" d="M395.74,119c0,1.65,1.35,3,3,3h11c1.65,0,3-1.35,3-3V94.623c0-1.65-1.35-3-3-3h-11
		c-1.65,0-3,1.35-3,3V119z"/>
	<path style="fill:#DB722C;" d="M373.74,119c0,1.65,1.35,3,3,3h11c1.65,0,3-1.35,3-3v-5.227c0-1.65-1.35-3-3-3h-11
		c-1.65,0-3,1.35-3,3V119z"/>
</g>
<path style="fill:#EF8318;" d="M495.189,478c0,2.75-2.25,5-5,5H347c-2.75,0-5-2.25-5-5v-98c0-2.75,2.25-5,5-5h143.189
	c2.75,0,5,2.25,5,5V478z"/>
<path style="fill:#DB722C;" d="M363,478v-98c0-2.75,2.25-5,5-5h-21c-2.75,0-5,2.25-5,5v98c0,2.75,2.25,5,5,5h21
	C365.25,483,363,480.75,363,478z"/>
<path style="fill:#994334;" d="M186.796,110c-4.702-0.592-5.236,10.737,5.699,20.078c-11.911-1.904-22.768-3.601-26.555-4.078
	c-6.107-0.769-5.174,18.57,18.784,27.542C177.091,152.742,168,150,168,156c0,14,16.524,20,16.524,43.561v-1.064
	c0-37.69,30.365-41.497,67.824-41.497s67.824,16.201,67.824,53.891v-31.154C320.172,108,196.618,111.237,186.796,110z"/>
<path style="fill:#FFC987;" d="M323.436,207h-4.32c0.028,0.793,0.057,1.585,0.057,2.394v30.456c0,3.914-0.353,7.744-0.994,11.476
	h5.257c6.388,0,11.564-5.179,11.564-11.563v-21.199C335,212.178,329.824,207,323.436,207z"/>
<path style="fill:#445EA0;" d="M309.995,314.801h-27.333v-15.054c-9.105,4.685-19.403,7.347-30.313,7.347
	c-8.686,0-16.981-1.694-24.602-4.742v12.449h-27.333c-9.906,0-17.965,8.059-17.965,17.965v167.993
	C205.667,508.058,230.373,512,256,512c25.043,0,49.204-3.767,71.959-10.748V332.766C327.959,322.86,319.9,314.801,309.995,314.801z"
	/>
<path style="fill:#FFE2B8;" d="M320.172,239.85c0,37.69-30.365,68.244-67.824,68.244l0,0c-37.459,0-67.824-30.554-67.824-68.244V197
	c0-37.69,30.365-41.497,67.824-41.497l0,0c37.459,0,67.824,16.201,67.824,53.891V239.85z"/>
<path style="fill:#FFC987;" d="M195,239.85V197c0-35.349,26.71-40.893,60.931-41.446c-1.187-0.033-2.38-0.051-3.583-0.051
	c-37.459,0-67.824,3.807-67.824,41.497v42.85c0,37.69,30.365,68.244,67.824,68.244c1.765,0,3.507-0.089,5.238-0.223
	C222.578,305.178,195,275.764,195,239.85z"/>
<path style="fill:#2E4C89;" d="M373.94,237.302v83.216H323.1c-3.281-3.508-7.935-5.717-13.105-5.717h-27.333L327.959,363v-2.482
	h49.079C377.813,343.533,391.824,330,409,330c1.68,0,3.33,0.131,4.94,0.381v-93.079H373.94z"/>
<g>
	<path style="fill:#EBAA48;" d="M211,221.064c-4.142,0-7.5-3.358-7.5-7.5V201c0-4.142,3.358-7.5,7.5-7.5s7.5,3.358,7.5,7.5v12.564
		C218.5,217.706,215.142,221.064,211,221.064z"/>
	<path style="fill:#EBAA48;" d="M278.494,221.064c-4.142,0-7.5-3.358-7.5-7.5V201c0-4.142,3.358-7.5,7.5-7.5s7.5,3.358,7.5,7.5
		v12.564C285.994,217.706,282.636,221.064,278.494,221.064z"/>
	<path style="fill:#EBAA48;" d="M251.496,245.811h-6.249c-6.893,0-12.5-5.607-12.5-12.5v-18.622c0-4.142,3.358-7.5,7.5-7.5
		s7.5,3.358,7.5,7.5v16.122h3.749c4.142,0,7.5,3.358,7.5,7.5S255.638,245.811,251.496,245.811z"/>
</g>
<g>
	<path style="fill:#2E4C89;" d="M123.475,117.38h-75.46c-4.142,0-7.5-3.358-7.5-7.5s3.358-7.5,7.5-7.5h75.46
		c4.142,0,7.5,3.358,7.5,7.5S127.617,117.38,123.475,117.38z"/>
	<path style="fill:#2E4C89;" d="M123.475,144.94h-75.46c-4.142,0-7.5-3.358-7.5-7.5s3.358-7.5,7.5-7.5h75.46
		c4.142,0,7.5,3.358,7.5,7.5S127.617,144.94,123.475,144.94z"/>
	<path style="fill:#2E4C89;" d="M93.291,172.5H48.015c-4.142,0-7.5-3.358-7.5-7.5s3.358-7.5,7.5-7.5h45.276
		c4.142,0,7.5,3.358,7.5,7.5S97.433,172.5,93.291,172.5z"/>
</g>
<g>
	<path style="fill:#FFFFFF;" d="M149,409.027h-38.306c-4.142,0-7.5-3.358-7.5-7.5s3.358-7.5,7.5-7.5H149c4.142,0,7.5,3.358,7.5,7.5
		S153.142,409.027,149,409.027z"/>
	<path style="fill:#FFFFFF;" d="M149,432.263h-38.306c-4.142,0-7.5-3.358-7.5-7.5s3.358-7.5,7.5-7.5H149c4.142,0,7.5,3.358,7.5,7.5
		S153.142,432.263,149,432.263z"/>
	<path style="fill:#FFFFFF;" d="M133.678,455.5h-22.983c-4.142,0-7.5-3.358-7.5-7.5s3.358-7.5,7.5-7.5h22.983
		c4.142,0,7.5,3.358,7.5,7.5S137.82,455.5,133.678,455.5z"/>
</g>
<path style="fill:#EBAA48;" d="M248.13,284.469c-4.58,0-9.232-0.844-13.744-2.628c-3.852-1.523-5.74-5.88-4.217-9.732
	c1.523-3.852,5.882-5.738,9.732-4.217c11.537,4.561,24.635-1.113,29.197-12.65c1.524-3.853,5.881-5.739,9.732-4.217
	c3.852,1.523,5.74,5.881,4.217,9.732C277.229,275.475,263.073,284.469,248.13,284.469z"/>
<g>
	<path style="fill:#FFCA51;" d="M465.095,459c0,1.65,1.35,3,3,3h11c1.65,0,3-1.35,3-3v-60c0-1.65-1.35-3-3-3h-11c-1.65,0-3,1.35-3,3
		V459z"/>
	<path style="fill:#FFCA51;" d="M443.095,459c0,1.65,1.35,3,3,3h11c1.65,0,3-1.35,3-3v-27c0-1.65-1.35-3-3-3h-11c-1.65,0-3,1.35-3,3
		V459z"/>
	<path style="fill:#FFCA51;" d="M421.095,459c0,1.65,1.35,3,3,3h11c1.65,0,3-1.35,3-3v-38c0-1.65-1.35-3-3-3h-11c-1.65,0-3,1.35-3,3
		V459z"/>
	<path style="fill:#FFCA51;" d="M399.095,459c0,1.65,1.35,3,3,3h11c1.65,0,3-1.35,3-3v-47c0-1.65-1.35-3-3-3h-11c-1.65,0-3,1.35-3,3
		V459z"/>
	<path style="fill:#FFCA51;" d="M377.095,459c0,1.65,1.35,3,3,3h11c1.65,0,3-1.35,3-3v-40c0-1.65-1.35-3-3-3h-11c-1.65,0-3,1.35-3,3
		V459z"/>
	<path style="fill:#FFCA51;" d="M355.095,459c0,1.65,1.35,3,3,3h11c1.65,0,3-1.35,3-3v-11c0-1.65-1.35-3-3-3h-11c-1.65,0-3,1.35-3,3
		V459z"/>
</g>
<g>
	<circle style="fill:#FFFFFF;" cx="381.24" cy="69.5" r="7.5"/>
	<circle style="fill:#FFFFFF;" cx="403.29" cy="69.5" r="7.5"/>
	<circle style="fill:#FFFFFF;" cx="425.33" cy="69.5" r="7.5"/>
	<circle style="fill:#FFFFFF;" cx="471.24" cy="69.5" r="7.5"/>
</g>
<path style="fill:#FFCA51;" d="M211.102,397.154h19.923c0-11.004,8.92-19.925,19.924-19.925v-19.922
	C228.942,357.308,211.102,375.147,211.102,397.154z"/>
<path style="fill:#6DC3ED;" d="M261.052,347.204v19.923c11.004,0,19.923,8.918,19.923,19.922h19.924
	C300.898,365.042,283.058,347.204,261.052,347.204z"/>
<path style="fill:#DB722C;" d="M270.87,397.154c0,11.002-8.919,19.922-19.922,19.922c-11.004,0-19.924-8.921-19.924-19.922h-19.923
	c0,22.005,17.841,39.846,39.847,39.846s39.847-17.841,39.847-39.846H270.87z"/>
<path style="fill:#EA2A3D;" d="M328.595,85c0,2.75-2.25,5-5,5h-135.19c-2.75,0-5-2.25-5-5V5c0-2.75,2.25-5,5-5h135.189
	c2.75,0,5,2.25,5,5v80H328.595z"/>
<path style="fill:#B7092B;" d="M204,85V5c0-2.75,2.25-5,5-5h-20.595c-2.75,0-5,2.25-5,5v80c0,2.75,2.25,5,5,5H209
	C206.25,90,204,87.75,204,85z"/>
<path style="fill:#FFFFFF;" d="M231.977,23.836c0-5.12,3.628-7.215,8.063-4.655l36.657,21.163c4.434,2.561,4.434,6.75,0,9.311
	L240.04,70.818c-4.435,2.56-8.063,0.466-8.063-4.655L231.977,23.836L231.977,23.836z"/>
<path style="fill:#FFE2B8;" d="M417,172h-1.83c-2.75,0-5,2.25-5,5v27h-3.227v-36c0-2.75-2.25-5-5-5h-1.83c-2.75,0-5,2.25-5,5v36
	h-3.227v-40.302c0-2.75-2.25-5-5-5h-1.83c-2.75,0-5,2.25-5,5V204h-3.227v-33c0-2.75-2.25-5-5-5H370c-2.75,0-5,2.25-5,5v38v3.26
	l-4.908-4.908c-3.889-3.889-9.775-4.367-13.081-1.061s-2.829,9.192,1.061,13.081l15.557,15.557c0.657,0.657,4.576,4.071,6.372,4.071
	h47c2.75,0,5-2.25,5-5v-57C422,174.25,419.75,172,417,172z"/>
<g>
	<path style="fill:#FFFFFF;" d="M86.833,457.033H52.166c-4.142,0-7.5-3.358-7.5-7.5V403c0-4.142,3.358-7.5,7.5-7.5h34.667
		c4.142,0,7.5,3.358,7.5,7.5v46.533C94.333,453.675,90.976,457.033,86.833,457.033z M59.666,442.033h19.667V410.5H59.666V442.033z"
		/>
	<path style="fill:#FFFFFF;" d="M413.94,330.381c-1.61-0.25-3.26-0.381-4.94-0.381c-17.176,0-31.188,13.533-31.962,30.518h16.903
		c11.046,0,20-8.954,20-20L413.94,330.381L413.94,330.381z"/>
</g>
<path style="fill:#2E4C89;" d="M507,226h-44.986c-2.75,0-5,2.25-5,5v27.299h19.592c2.206,0,4,1.794,4,4v17.747H507
	c2.75,0,5-2.25,5-5V231C512,228.25,509.75,226,507,226z"/>
<path style="fill:#0F9390;" d="M481.606,306.345c0,2.75-2.25,5-5,5h-44.985c-2.75,0-5-2.25-5-5v-44.046c0-2.75,2.25-5,5-5h44.985
	c2.75,0,5,2.25,5,5L481.606,306.345L481.606,306.345z"/>
<path style="fill:#2E4C89;" d="M31.394,274.231c0-2.206,1.794-4,4-4h19.592v-27.299c0-2.75-2.25-5-5-5H5c-2.75,0-5,2.25-5,5v44.046
	c0,2.75,2.25,5,5,5h26.394V274.231z"/>
<path style="fill:#0F9390;" d="M30.394,318.276c0,2.75,2.25,5,5,5h44.985c2.75,0,5-2.25,5-5V274.23c0-2.75-2.25-5-5-5H35.394
	c-2.75,0-5,2.25-5,5C30.394,274.23,30.394,318.276,30.394,318.276z"/>
<path style="fill:#2E4C89;" d="M227.747,314.801h-27.333c-5.17,0-9.825,2.208-13.105,5.717h-44.841v-94.822
	c-0.156,0.015-0.307,0.047-0.467,0.047h-39.495c-0.013,0-0.025-0.004-0.038-0.004v102.497c1.798-0.313,3.645-0.486,5.533-0.486
	c17.673,0,32,14.327,32,32c0,0.257-0.013,0.512-0.02,0.768h42.468V363L227.747,314.801z"/>
<path style="fill:#FFFFFF;" d="M140,359.75c0-17.673-14.327-32-32-32c-1.888,0-3.734,0.173-5.533,0.486v12.281
	c0,11.046,8.954,20,20,20h17.513C139.987,360.262,140,360.007,140,359.75z"/>
<path style="fill:#FFE2B8;" d="M142,157.257h-6.873c-2.75,0-5,2.25-5,5v20.873h-27.622c-2.75,0-5,2.25-5,5V222c0,2.75,2.25,5,5,5
	H142c2.75,0,5-2.25,5-5v-59.743C147,159.507,144.75,157.257,142,157.257z"/>
<path style="fill:#FFC987;" d="M108,222v-33.871c0-2.75,2.25-5,5-5h-10.495c-2.75,0-5,2.25-5,5V222c0,2.75,2.25,5,5,5H113
	C110.25,227,108,224.75,108,222z"/>
<g>
</g>
<g>
</g>
<g>
</g>
<g>
</g>
<g>
</g>
<g>
</g>
<g>
</g>
<g>
</g>
<g>
</g>
<g>
</g>
<g>
</g>
<g>
</g>
<g>
</g>
<g>
</g>
<g>
</g>
</svg>
