<?xml version="1.0" encoding="iso-8859-1"?>
<!-- Generator: Adobe Illustrator 19.0.0, SVG Export Plug-In . SVG Version: 6.00 Build 0)  -->
<svg version="1.1" id="Capa_1" xmlns="http://www.w3.org/2000/svg" xmlns:xlink="http://www.w3.org/1999/xlink" x="0px" y="0px"
	 viewBox="0 0 512 512" style="enable-background:new 0 0 512 512;" xml:space="preserve">
<circle style="fill:#C3DDF4;" cx="256" cy="267" r="245"/>
<path style="fill:#0F9390;" d="M507,156.001H372.738v74.622c0,4.962-4.037,9-9,9H345.98v38.432h19.561c2.75,0,5,2.25,5,5V298
	c0,2.75,1.988,3.947,4.418,2.659l38.249-20.264c2.43-1.288,6.668-2.341,9.418-2.341H507c2.75,0,5-2.25,5-5V161.001
	C512,158.251,509.75,156.001,507,156.001z"/>
<g>
	<path style="fill:#FFFFFF;" d="M385.371,171.664h-12.633v15h12.633c4.143,0,7.5-3.358,7.5-7.5S389.514,171.664,385.371,171.664z"/>
	<path style="fill:#FFFFFF;" d="M419.038,186.664h-13.465c-4.143,0-7.5-3.358-7.5-7.5s3.357-7.5,7.5-7.5h13.465
		c4.143,0,7.5,3.358,7.5,7.5S423.181,186.664,419.038,186.664z"/>
	<path style="fill:#FFFFFF;" d="M479.642,186.664H439.24c-4.143,0-7.5-3.358-7.5-7.5s3.357-7.5,7.5-7.5h40.402
		c4.143,0,7.5,3.358,7.5,7.5S483.784,186.664,479.642,186.664z"/>
	<path style="fill:#FFFFFF;" d="M479.642,210.719h-13.467c-4.143,0-7.5-3.358-7.5-7.5s3.357-7.5,7.5-7.5h13.467
		c4.143,0,7.5,3.358,7.5,7.5S483.784,210.719,479.642,210.719z"/>
	<path style="fill:#FFFFFF;" d="M445.973,210.719h-13.467c-4.143,0-7.5-3.358-7.5-7.5s3.357-7.5,7.5-7.5h13.467
		c4.143,0,7.5,3.358,7.5,7.5S450.115,210.719,445.973,210.719z"/>
	<path style="fill:#FFFFFF;" d="M412.306,195.719h-39.567v15h39.567c4.143,0,7.5-3.358,7.5-7.5
		C419.806,199.077,416.448,195.719,412.306,195.719z"/>
	<path style="fill:#FFFFFF;" d="M385.371,219.773h-12.633v10.85c0,1.494-0.371,2.9-1.018,4.141c0.061,0.001,0.121,0.009,0.184,0.009
		h13.467c4.143,0,7.5-3.358,7.5-7.5S389.514,219.773,385.371,219.773z"/>
	<path style="fill:#FFFFFF;" d="M419.038,234.773h-13.465c-4.143,0-7.5-3.358-7.5-7.5s3.357-7.5,7.5-7.5h13.465
		c4.143,0,7.5,3.358,7.5,7.5S423.181,234.773,419.038,234.773z"/>
	<path style="fill:#FFFFFF;" d="M479.642,234.773H439.24c-4.143,0-7.5-3.358-7.5-7.5s3.357-7.5,7.5-7.5h40.402
		c4.143,0,7.5,3.358,7.5,7.5S483.784,234.773,479.642,234.773z"/>
	<path style="fill:#FFFFFF;" d="M385.371,258.828h-13.467c-4.143,0-7.5-3.358-7.5-7.5s3.357-7.5,7.5-7.5h13.467
		c4.143,0,7.5,3.358,7.5,7.5S389.514,258.828,385.371,258.828z"/>
	<path style="fill:#FFFFFF;" d="M444.29,258.828h-38.717c-4.143,0-7.5-3.358-7.5-7.5s3.357-7.5,7.5-7.5h38.717
		c4.143,0,7.5,3.358,7.5,7.5S448.433,258.828,444.29,258.828z"/>
	<path style="fill:#FFFFFF;" d="M479.642,258.828h-14.188c-4.143,0-7.5-3.358-7.5-7.5s3.357-7.5,7.5-7.5h14.188
		c4.143,0,7.5,3.358,7.5,7.5S483.784,258.828,479.642,258.828z"/>
</g>
<path style="fill:#FE3745;" d="M432,0H80c-2.75,0-5,2.25-5,5v121c0,2.75,2.25,5,5,5h86.02V94c0-7.72,6.28-14,14-14h151.96
	c7.72,0,14,6.28,14,14v37H432c2.75,0,5-2.25,5-5V5C437,2.25,434.75,0,432,0z"/>
<path style="fill:#EA2A3D;" d="M95,126V5c0-2.75,2.25-5,5-5H80c-2.75,0-5,2.25-5,5v121c0,2.75,2.25,5,5,5h20
	C97.25,131,95,128.75,95,126z"/>
<g>
	<path style="fill:#FFFFFF;" d="M133.59,32.884h-17.303c-4.142,0-7.5-3.358-7.5-7.5s3.358-7.5,7.5-7.5h17.303
		c4.142,0,7.5,3.358,7.5,7.5S137.732,32.884,133.59,32.884z"/>
	<path style="fill:#FFFFFF;" d="M176.848,32.884h-17.302c-4.142,0-7.5-3.358-7.5-7.5s3.358-7.5,7.5-7.5h17.302
		c4.142,0,7.5,3.358,7.5,7.5S180.99,32.884,176.848,32.884z"/>
	<path style="fill:#FFFFFF;" d="M211.454,56.423h-17.303c-4.142,0-7.5-3.358-7.5-7.5s3.358-7.5,7.5-7.5h17.303
		c4.142,0,7.5,3.358,7.5,7.5S215.596,56.423,211.454,56.423z"/>
	<path style="fill:#FFFFFF;" d="M168.197,56.423h-51.91c-4.142,0-7.5-3.358-7.5-7.5s3.358-7.5,7.5-7.5h51.91
		c4.142,0,7.5,3.358,7.5,7.5S172.339,56.423,168.197,56.423z"/>
	<path style="fill:#FFFFFF;" d="M133.59,79.961h-17.303c-4.142,0-7.5-3.358-7.5-7.5s3.358-7.5,7.5-7.5h17.303
		c4.142,0,7.5,3.358,7.5,7.5S137.732,79.961,133.59,79.961z"/>
	<path style="fill:#FFFFFF;" d="M176.848,79.961h-17.302c-4.142,0-7.5-3.358-7.5-7.5s3.358-7.5,7.5-7.5h17.302
		c4.142,0,7.5,3.358,7.5,7.5S180.99,79.961,176.848,79.961z"/>
	<path style="fill:#FFFFFF;" d="M133.59,103.5h-17.303c-4.142,0-7.5-3.358-7.5-7.5s3.358-7.5,7.5-7.5h17.303
		c4.142,0,7.5,3.358,7.5,7.5S137.732,103.5,133.59,103.5z"/>
	<path style="fill:#FFFFFF;" d="M166.02,94c0-1.952,0.404-3.81,1.129-5.5h-7.603c-4.142,0-7.5,3.358-7.5,7.5s3.358,7.5,7.5,7.5
		h6.474V94z"/>
	<path style="fill:#FFFFFF;" d="M274.59,17.884h-71.787c-4.142,0-7.5,3.358-7.5,7.5s3.358,7.5,7.5,7.5h71.787
		c4.143,0,7.5-3.358,7.5-7.5S278.732,17.884,274.59,17.884z"/>
	<path style="fill:#FFFFFF;" d="M317.848,32.884h-17.302c-4.143,0-7.5-3.358-7.5-7.5s3.357-7.5,7.5-7.5h17.302
		c4.143,0,7.5,3.358,7.5,7.5S321.99,32.884,317.848,32.884z"/>
	<path style="fill:#FFFFFF;" d="M395.713,32.884h-51.91c-4.143,0-7.5-3.358-7.5-7.5s3.357-7.5,7.5-7.5h51.91
		c4.143,0,7.5,3.358,7.5,7.5S399.855,32.884,395.713,32.884z"/>
	<path style="fill:#FFFFFF;" d="M395.713,56.423H378.41c-4.143,0-7.5-3.358-7.5-7.5s3.357-7.5,7.5-7.5h17.303
		c4.143,0,7.5,3.358,7.5,7.5S399.855,56.423,395.713,56.423z"/>
	<path style="fill:#FFFFFF;" d="M352.454,56.423h-17.303c-4.143,0-7.5-3.358-7.5-7.5s3.357-7.5,7.5-7.5h17.303
		c4.143,0,7.5,3.358,7.5,7.5S356.597,56.423,352.454,56.423z"/>
	<path style="fill:#FFFFFF;" d="M309.197,41.423H237.41c-4.142,0-7.5,3.358-7.5,7.5s3.358,7.5,7.5,7.5h71.787
		c4.143,0,7.5-3.358,7.5-7.5C316.697,44.781,313.34,41.423,309.197,41.423z"/>
	<path style="fill:#FFFFFF;" d="M202.803,79.961h71.787c4.143,0,7.5-3.358,7.5-7.5s-3.357-7.5-7.5-7.5h-71.787
		c-4.142,0-7.5,3.358-7.5,7.5S198.661,79.961,202.803,79.961z"/>
	<path style="fill:#FFFFFF;" d="M317.848,79.961h-17.302c-4.143,0-7.5-3.358-7.5-7.5s3.357-7.5,7.5-7.5h17.302
		c4.143,0,7.5,3.358,7.5,7.5S321.99,79.961,317.848,79.961z"/>
	<path style="fill:#FFFFFF;" d="M395.713,79.961h-51.91c-4.143,0-7.5-3.358-7.5-7.5s3.357-7.5,7.5-7.5h51.91
		c4.143,0,7.5,3.358,7.5,7.5S399.855,79.961,395.713,79.961z"/>
	<path style="fill:#FFFFFF;" d="M350.292,88.5h-5.44c0.725,1.69,1.129,3.548,1.129,5.5v9.5h4.311c4.143,0,7.5-3.358,7.5-7.5
		S354.435,88.5,350.292,88.5z"/>
	<path style="fill:#FFFFFF;" d="M395.713,103.5h-18.228c-4.143,0-7.5-3.358-7.5-7.5s3.357-7.5,7.5-7.5h18.228
		c4.143,0,7.5,3.358,7.5,7.5S399.855,103.5,395.713,103.5z"/>
</g>
<g>
	<path style="fill:#1A2B63;" d="M390.451,406.538h-5.939v69.071c8.154-5.034,15.995-10.526,23.478-16.453V454v-52.337
		C402.87,404.756,396.869,406.538,390.451,406.538z"/>
	<path style="fill:#1A2B63;" d="M104.01,401.664v57.493c7.482,5.926,15.323,11.419,23.477,16.452v-69.071h-5.938
		C115.131,406.538,109.13,404.756,104.01,401.664z"/>
</g>
<path style="fill:#445EA0;" d="M127.487,333.402h-5.938c-18.76,0-33.967,15.207-33.967,33.966v6.605
	c0,18.759,15.208,33.966,33.967,33.966h5.938V333.402z"/>
<g>
	<path style="fill:#2E4C89;" d="M390.451,333.402h-5.939v74.538h5.939c18.759,0,33.967-15.207,33.967-33.966v-6.605
		C424.418,348.609,409.21,333.402,390.451,333.402z"/>
	<rect x="213.86" y="293.14" style="fill:#2E4C89;" width="84.28" height="29.829"/>
</g>
<rect x="213.86" y="293.14" style="fill:#293D7C;" width="20.862" height="29.829"/>
<path style="fill:#2E4C89;" d="M363.738,138.94H345.98v101.683h17.758c5.5,0,10-4.5,10-10V148.94
	C373.738,143.44,369.238,138.94,363.738,138.94z"/>
<g>
	<path style="fill:#445EA0;" d="M166.02,138.94h-17.759c-5.5,0-10,4.5-10,10v81.683c0,5.5,4.5,10,10,10h17.759V138.94z"/>
	<path style="fill:#445EA0;" d="M346.98,279.141c0,8.25-6.75,15-15,15H180.02c-8.25,0-15-6.75-15-15V94c0-8.25,6.75-15,15-15h151.96
		c8.25,0,15,6.75,15,15V279.141z"/>
</g>
<g>
	<path style="fill:#2E4C89;" d="M186,279.141V94c0-8.25,6.75-15,15-15h-20.98c-8.25,0-15,6.75-15,15v185.141c0,8.25,6.75,15,15,15
		H201C192.75,294.141,186,287.391,186,279.141z"/>
	<path style="fill:#2E4C89;" d="M332.06,198.329c0,8.25-6.75,15-15,15H194.94c-8.25,0-15-6.75-15-15v-67.937c0-8.25,6.75-15,15-15
		h122.12c8.25,0,15,6.75,15,15V198.329z"/>
</g>
<path style="fill:#293D7C;" d="M332.06,197.274c0,8.831-7.225,16.055-16.055,16.055H195.996c-8.831,0-16.055-7.225-16.055-16.055
	v-65.827c0-8.831,7.225-16.055,16.055-16.055h120.009c8.83,0,16.055,7.225,16.055,16.055V197.274z"/>
<path style="fill:#1A2B63;" d="M213.19,115.392v1.873c0,8.831,7.225,16.055,16.055,16.055h53.509c8.83,0,16.055-7.225,16.055-16.055
	v-1.873C298.809,115.392,213.19,115.392,213.19,115.392z"/>
<path style="fill:#445EA0;" d="M374.809,321.97H137.191c-5.887,0-10.704,4.817-10.704,10.704v142.315
	C164.064,498.436,208.445,512,256,512c47.556,0,91.935-13.564,129.513-37.012V332.673
	C385.513,326.787,380.696,321.97,374.809,321.97z"/>
<path style="fill:#2E4C89;" d="M147,332.673c0-5.887,4.817-10.704,10.704-10.704h-20.513c-5.887,0-10.704,4.817-10.704,10.704
	v142.315c6.631,4.138,13.478,7.961,20.513,11.463V332.673z"/>
<g>
	<path style="fill:#159E97;" d="M232.655,182.106c0,2.75-2.25,5-5,5h-13.916c-2.75,0-5-2.25-5-5v-29.858c0-2.75,2.25-5,5-5h13.916
		c2.75,0,5,2.25,5,5V182.106z"/>
	<path style="fill:#159E97;" d="M303.26,182.106c0,2.75-2.25,5-5,5h-13.914c-2.75,0-5-2.25-5-5v-29.858c0-2.75,2.25-5,5-5h13.914
		c2.75,0,5,2.25,5,5V182.106z"/>
</g>
<path style="fill:#02AF8E;" d="M306.487,254.074c0,2.75-2.25,5-5,5h-90.974c-2.75,0-5-2.25-5-5v-12.732c0-2.75,2.25-5,5-5h90.974
	c2.75,0,5,2.25,5,5V254.074z"/>
<path style="fill:#0F9390;" d="M226.025,254.074v-12.732c0-2.75,2.25-5,5-5h-20.512c-2.75,0-5,2.25-5,5v12.732c0,2.75,2.25,5,5,5
	h20.512C228.275,259.074,226.025,256.824,226.025,254.074z"/>
<path style="fill:#9CE2D8;" d="M330.925,363.71h-149.85c-8.83,0-16.055,7.225-16.055,16.055v114.773
	C193.15,505.796,223.849,512,256,512s62.851-6.204,90.98-17.462V379.765C346.98,370.935,339.755,363.71,330.925,363.71z"/>
<path style="fill:#74D1C1;" d="M186,379.765c0-8.83,7.225-16.055,16.055-16.055h-20.98c-8.83,0-16.055,7.225-16.055,16.055v114.773
	c6.846,2.74,13.846,5.174,20.98,7.299L186,379.765L186,379.765z"/>
<path style="fill:#6DC3ED;" d="M193.653,414.921c0-17.612,14.328-31.941,31.94-31.941h64.561c17.612,0,31.941,14.329,31.941,31.941
	c0,17.613-14.329,31.941-31.941,31.941h-64.561C207.981,446.862,193.653,432.534,193.653,414.921z"/>
<path style="fill:#FFFFFF;" d="M225.593,436.159c-11.729,0-21.237-9.51-21.237-21.238l0,0c0-11.729,9.508-21.237,21.237-21.237
	h64.561c11.729,0,21.237,9.509,21.237,21.237l0,0c0,11.728-9.509,21.238-21.237,21.238H225.593z"/>
<path style="fill:#02AF8E;" d="M268.067,393.684h-42.474c-11.729,0-21.237,9.509-21.237,21.237s9.508,21.238,21.237,21.238h42.474
	V393.684z"/>
<path style="fill:#0F9390;" d="M225.289,414.921c0-11.729,9.508-21.237,21.237-21.237h-20.933c-11.729,0-21.237,9.509-21.237,21.237
	s9.508,21.238,21.237,21.238h20.933C234.797,436.159,225.289,426.649,225.289,414.921z"/>
<g>
	<circle style="fill:#445EA0;" cx="225.23" cy="470.21" r="8.03"/>
	<circle style="fill:#445EA0;" cx="257.87" cy="470.21" r="8.03"/>
	<circle style="fill:#445EA0;" cx="290.52" cy="470.21" r="8.03"/>
</g>
<path style="fill:#DB722C;" d="M138.709,257.846c2.36-1.412,2.36-3.721,0-5.133l-13.754-8.227c-2.36-1.412-4.291-4.816-4.291-7.566
	v-34.641c0-2.75-2.25-5-5-5H5c-2.75,0-5,2.25-5,5v106c0,2.75,2.25,5,5,5h110.664c2.75,0,5-2.25,5-5v-34.641
	c0-2.75,1.931-6.155,4.291-7.566L138.709,257.846z"/>
<path style="fill:#FFFFFF;" d="M56.5,272.5c-2.597,0-5.01-1.344-6.377-3.552L40.5,253.403l-6.123,9.891
	c-1.367,2.208-3.78,3.552-6.377,3.552H16c-4.142,0-7.5-3.358-7.5-7.5s3.358-7.5,7.5-7.5h7.822l10.301-16.64
	c1.367-2.208,3.78-3.552,6.377-3.552s5.01,1.344,6.377,3.552l9.623,15.545l13.123-21.199c1.408-2.274,3.937-3.615,6.594-3.549
	c2.674,0.078,5.104,1.573,6.378,3.925l11.873,21.919H103c4.142,0,7.5,3.358,7.5,7.5s-3.358,7.5-7.5,7.5H90
	c-2.752,0-5.284-1.508-6.595-3.928l-7.838-14.47l-12.69,20.5C61.51,271.156,59.097,272.5,56.5,272.5z"/>
<g>
</g>
<g>
</g>
<g>
</g>
<g>
</g>
<g>
</g>
<g>
</g>
<g>
</g>
<g>
</g>
<g>
</g>
<g>
</g>
<g>
</g>
<g>
</g>
<g>
</g>
<g>
</g>
<g>
</g>
</svg>
