<?xml version="1.0" encoding="iso-8859-1"?>
<!-- Generator: Adobe Illustrator 19.0.0, SVG Export Plug-In . SVG Version: 6.00 Build 0)  -->
<svg version="1.1" id="Capa_1" xmlns="http://www.w3.org/2000/svg" xmlns:xlink="http://www.w3.org/1999/xlink" x="0px" y="0px"
	 viewBox="0 0 512 512" style="enable-background:new 0 0 512 512;" xml:space="preserve">
<circle style="fill:#02AF8E;" cx="256.002" cy="261.48" r="250.52"/>
<g>
	<path style="fill:#FFFFFF;" d="M256.002,440.95c-98.963,0-179.475-80.512-179.475-179.475c0-7.055,0.423-14.011,1.219-20.855
		h-1.653c-2.206,0-4-1.794-4-4v-12.889h-6.876c-2.412,12.215-3.689,24.833-3.689,37.745
		C61.527,368.71,148.769,455.95,256.002,455.95c4.143,0,7.5-3.358,7.5-7.5S260.145,440.95,256.002,440.95z"/>
	<path style="fill:#FFFFFF;" d="M256.002,67.001c-26.778,0-52.31,5.441-75.547,15.275c0.127,1.921,0.198,3.858,0.198,5.811
		c0,3.649-0.235,7.264-0.678,10.837c23.099-10.846,48.865-16.923,76.027-16.923c98.963,0,179.475,80.512,179.475,179.475
		c0,4.142,3.357,7.5,7.5,7.5s7.5-3.358,7.5-7.5C450.477,154.242,363.235,67.001,256.002,67.001z"/>
	<path style="fill:#FFFFFF;" d="M256.002,412.645c-83.355,0-151.169-67.814-151.169-151.169c0-4.142,3.357-7.5,7.5-7.5
		s7.5,3.358,7.5,7.5c0,75.084,61.085,136.169,136.169,136.169s136.169-61.085,136.169-136.169s-61.085-136.17-136.169-136.17
		c-4.143,0-7.5-3.358-7.5-7.5s3.357-7.5,7.5-7.5c83.354,0,151.169,67.814,151.169,151.169S339.356,412.645,256.002,412.645z"/>
	<path style="fill:#FFFFFF;" d="M312.101,447.356c-3.186,0-6.143-2.047-7.151-5.248c-1.245-3.95,0.948-8.162,4.898-9.408
		c55.128-17.375,98.78-60.55,116.771-115.491c1.289-3.936,5.524-6.082,9.462-4.794c3.936,1.289,6.083,5.525,4.794,9.461
		c-19.493,59.526-66.789,106.304-126.517,125.13C313.607,447.244,312.848,447.356,312.101,447.356z"/>
</g>
<path style="fill:#2E4C89;" d="M339.502,280.976v-39c0-4.962,4.037-9,9-9h13.737c-12.556-46.92-55.358-81.475-106.237-81.475
	s-93.682,34.555-106.237,81.475h13.737c4.963,0,9,4.038,9,9v39c0,4.962-4.037,9-9,9h-13.737
	c12.555,46.919,55.358,81.474,106.237,81.474s93.682-34.555,106.237-81.475h-13.737
	C343.539,289.976,339.502,285.938,339.502,280.976z"/>
<g>
	<path style="fill:#293D7C;" d="M261.121,151.626c-1.697-0.078-3.402-0.125-5.119-0.125c-50.879,0-93.682,34.555-106.237,81.475
		h10.237C172.134,187.639,212.509,153.854,261.121,151.626z"/>
	<path style="fill:#293D7C;" d="M160.002,289.976h-10.237c12.555,46.919,55.358,81.474,106.237,81.474
		c1.717,0,3.422-0.046,5.119-0.125C212.509,369.098,172.134,335.313,160.002,289.976z"/>
</g>
<path style="fill:#60D882;" d="M173.502,280.976v-39c0-5.5-4.501-10-10-10h-13.467c-2.608,9.389-4.008,19.28-4.008,29.5
	s1.399,20.111,4.008,29.5h13.467C169.001,290.976,173.502,286.476,173.502,280.976z"/>
<path style="fill:#FFCA51;" d="M260.671,178.854c0.18,0,0.365,0.017,0.549,0.051c1.424,0.264,2.454,1.506,2.454,2.953v65.569h22.548
	c0.988,0,1.914,0.488,2.475,1.304c0.561,0.815,0.683,1.854,0.327,2.778l-34.889,90.665c-0.452,1.175-1.577,1.924-2.8,1.924
	c-0.182,0-0.367-0.017-0.551-0.05c-1.422-0.265-2.455-1.506-2.455-2.953v-65.569h-22.546c-0.989,0-1.915-0.487-2.476-1.303
	s-0.683-1.855-0.327-2.778l34.889-90.664C258.321,179.604,259.446,178.854,260.671,178.854z"/>
<g>
	<path style="fill:#EAC00F;" d="M233.529,274.222c-0.561-0.816-0.683-1.855-0.327-2.778l30.472-79.186v-10.4
		c0-1.447-1.03-2.689-2.454-2.953c-0.184-0.034-0.369-0.051-0.549-0.051c-1.225,0-2.35,0.75-2.802,1.925l-34.889,90.664
		c-0.355,0.923-0.233,1.962,0.327,2.778c0.561,0.816,1.486,1.303,2.476,1.303h10.222
		C235.016,275.525,234.09,275.038,233.529,274.222z"/>
	<path style="fill:#EAC00F;" d="M258.551,275.525h-10.222v65.569c0,1.447,1.033,2.688,2.455,2.953
		c0.184,0.034,0.369,0.05,0.551,0.05c1.223,0,2.348-0.749,2.8-1.924l4.416-11.476V275.525z"/>
</g>
<path style="fill:#9CE2D8;" d="M361.969,231.976h-13.467c-5.499,0-10,4.5-10,10v39c0,5.5,4.501,10,10,10h13.467
	c2.608-9.389,4.008-19.28,4.008-29.5S364.577,241.364,361.969,231.976z"/>
<path style="fill:#C3DDF4;" d="M71.093,223.172v13.448c0,2.75,2.25,5,5,5h34.946c2.75,0,5-2.25,5-5v-13.448H71.093z"/>
<path style="fill:#94C2ED;" d="M89.056,236.62v-13.448H71.093v13.448c0,2.75,2.25,5,5,5h17.963
	C91.306,241.62,89.056,239.37,89.056,236.62z"/>
<path style="fill:#FFCA51;" d="M93.565,0C44.917,0,5.478,39.438,5.478,88.087c0,37.553,23.502,69.611,56.597,82.285v10.456h62.983
	v-10.456c33.095-12.674,56.596-44.732,56.596-82.285C181.653,39.438,142.215,0,93.565,0z"/>
<path style="fill:#EAC00F;" d="M82.599,180.828v-21.284c-33.095-12.674-56.597-44.732-56.597-82.285
	c0-29.659,14.659-55.894,37.126-71.857C29.479,17.793,5.478,50.137,5.478,88.087c0,37.553,23.502,69.611,56.597,82.285v10.456
	H82.599z"/>
<path style="fill:#FFFFFF;" d="M93.565,29c-32.632,0-59.088,26.455-59.088,59.087c0,25.987,16.784,48.04,40.097,55.951V107
	c0-9.649,7.851-17.5,17.5-17.5h2.983c9.649,0,17.5,7.851,17.5,17.5v37.038c23.312-7.912,40.096-29.963,40.096-55.951
	C152.653,55.455,126.198,29,93.565,29z"/>
<path style="fill:#FFDD8D;" d="M97.558,107c0-1.355-1.145-2.5-2.5-2.5h-2.983c-1.356,0-2.5,1.145-2.5,2.5v40.025
	c1.32,0.088,2.648,0.149,3.991,0.149c1.343,0,2.671-0.061,3.992-0.149C97.558,147.025,97.558,107,97.558,107z"/>
<path style="fill:#FFAF10;" d="M93.565,56c-17.721,0-32.088,14.367-32.088,32.087c0,10.613,5.156,20.02,13.097,25.86V107
	c0-9.649,7.851-17.5,17.5-17.5h2.983c9.649,0,17.5,7.851,17.5,17.5v6.947c7.94-5.841,13.096-15.247,13.096-25.86
	C125.653,70.367,111.286,56,93.565,56z"/>
<path style="fill:#FF9518;" d="M71.826,88.087c0-15.958,11.654-29.19,26.914-31.666C97.055,56.148,95.328,56,93.565,56
	c-17.721,0-32.088,14.367-32.088,32.087c0,10.613,5.156,20.02,13.097,25.86V107c0-1.591,0.232-3.125,0.632-4.591
	C73.049,98.098,71.826,93.237,71.826,88.087z"/>
<path style="fill:#FFFFFF;" d="M97.558,107c0-1.355-1.145-2.5-2.5-2.5h-2.983c-1.356,0-2.5,1.145-2.5,2.5v12.919
	c1.309,0.162,2.639,0.256,3.991,0.256c1.353,0,2.684-0.094,3.992-0.256C97.558,119.919,97.558,107,97.558,107z"/>
<path style="fill:#DB722C;" d="M89.666,180.828c-0.054-0.201-0.092-0.407-0.092-0.622V107c0-1.355,1.144-2.5,2.5-2.5h2.983
	c1.355,0,2.5,1.145,2.5,2.5v73.207c0,0.215-0.038,0.421-0.092,0.622h15.061c0.007-0.208,0.031-0.412,0.031-0.622V107
	c0-9.649-7.851-17.5-17.5-17.5h-2.983c-9.649,0-17.5,7.851-17.5,17.5v73.207c0,0.21,0.024,0.414,0.031,0.622L89.666,180.828
	L89.666,180.828z"/>
<path style="fill:#C3DDF4;" d="M130.585,219.731c0,2.75-2.25,5-5,5H61.547c-2.75,0-5-2.25-5-5v-35.172c0-2.75,2.25-5,5-5h64.038
	c2.75,0,5,2.25,5,5L130.585,219.731L130.585,219.731z"/>
<g>
	<path style="fill:#94C2ED;" d="M129.683,199.569H57.448c-3.65,0-6.608-2.958-6.608-6.608c0-3.649,2.958-6.608,6.608-6.608h72.234
		c3.65,0,6.608,2.959,6.608,6.608C136.291,196.611,133.333,199.569,129.683,199.569z"/>
	<path style="fill:#94C2ED;" d="M129.683,218.073H57.448c-3.65,0-6.608-2.958-6.608-6.608s2.958-6.609,6.608-6.609h72.234
		c3.65,0,6.608,2.959,6.608,6.609S133.333,218.073,129.683,218.073z"/>
</g>
<g>
</g>
<g>
</g>
<g>
</g>
<g>
</g>
<g>
</g>
<g>
</g>
<g>
</g>
<g>
</g>
<g>
</g>
<g>
</g>
<g>
</g>
<g>
</g>
<g>
</g>
<g>
</g>
<g>
</g>
</svg>
