<?xml version="1.0" encoding="iso-8859-1"?>
<!-- Generator: Adobe Illustrator 19.0.0, SVG Export Plug-In . SVG Version: 6.00 Build 0)  -->
<svg version="1.1" id="Capa_1" xmlns="http://www.w3.org/2000/svg" xmlns:xlink="http://www.w3.org/1999/xlink" x="0px" y="0px"
	 viewBox="0 0 512 512" style="enable-background:new 0 0 512 512;" xml:space="preserve">
<circle style="fill:#9CE2D8;" cx="256" cy="267" r="245"/>
<g>
	<path style="fill:#FF9518;" d="M255.079,35H223.5c-9.649,0-17.5,7.851-17.5,17.5v115.517c5.377,3.115,10.401,6.774,15,10.899V52.5
		c0-1.355,1.145-2.5,2.5-2.5h31.579V35z"/>
	<path style="fill:#FF9518;" d="M350.5,35h-80.421v15H350.5c1.355,0,2.5,1.145,2.5,2.5v40.788c4.765-1.802,9.79-3.063,15-3.729V52.5
		C368,42.85,360.149,35,350.5,35z"/>
</g>
<g>
	<path style="fill:#445EA0;" d="M255.833,416.423h-53.735v-23.102c-8.375,3.85-17.678,6.015-27.483,6.015h-26.813
		c-9.805,0-19.108-2.164-27.483-6.015v23.102H66.585c-1.497,0-2.952,0.18-4.357,0.496C107.043,474.759,177.167,512,256,512
		c6.678,0,13.29-0.277,19.832-0.802v-74.775C275.832,425.423,266.832,416.423,255.833,416.423z"/>
	<path style="fill:#445EA0;" d="M297,132c0-0.346,0.058-0.676,0.141-0.997h-24.563c-1.355,0-2.5-1.145-2.5-2.5V17.5
		c0-9.649-7.851-17.5-17.5-17.5H171.79c-9.649,0-17.5,7.851-17.5,17.5V133h15V17.5c0-1.355,1.145-2.5,2.5-2.5h80.789
		c1.355,0,2.5,1.145,2.5,2.5v111.003c0,9.649,7.851,17.5,17.5,17.5H297V132z"/>
</g>
<path style="fill:#C3DDF4;" d="M316.343,127H301c-2.75,0-5,2.25-5,5v16c0,2.75,2.25,5,5,5h8.941
	C310.3,143.726,312.555,134.932,316.343,127z"/>
<path style="fill:#FFE2B8;" d="M81.771,284.455H69.32c-5.5,0-10,4.5-10,10v28.263c0,5.5,4.5,10,10,10h12.45v-48.263H81.771z"/>
<path style="fill:#FFC987;" d="M253.097,284.455h-12.45v48.263h12.45c5.5,0,10-4.5,10-10v-28.263
	C263.097,288.955,258.597,284.455,253.097,284.455z"/>
<path style="fill:#FFE2B8;" d="M80.771,284.455v48.849c0,37.021,30.011,67.032,67.032,67.032h26.813
	c37.021,0,67.032-30.011,67.032-67.032v-48.849L80.771,284.455L80.771,284.455z"/>
<path style="fill:#FFC987;" d="M101.124,333.304v-48.849H80.771v48.849c0,37.021,30.011,67.032,67.032,67.032h20.354
	C131.135,400.336,101.124,370.325,101.124,333.304z"/>
<path style="fill:#2E4C89;" d="M184.4,158h-46.384c-38.822,10.247-67.448,45.599-67.448,87.641V260h181.28v-14.36
	C251.849,203.598,223.223,168.246,184.4,158z"/>
<path style="fill:#293D7C;" d="M158.448,158h-20.432c-38.822,10.247-67.448,45.599-67.448,87.641V260H91v-14.36
	C91,203.598,119.626,168.246,158.448,158z"/>
<path style="fill:#37C47A;" d="M208.646,260v-22.704c0-2.75-2.25-5-5-5h-84.875c-2.75,0-5,2.25-5,5V260H208.646z"/>
<path style="fill:#02AF8E;" d="M139.125,232.296h-20.354c-2.75,0-5,2.25-5,5V260h20.354v-22.704
	C134.125,234.546,136.375,232.296,139.125,232.296z"/>
<g>
	<path style="fill:#EBAA48;" d="M206.451,323.332c-4.142,0-7.5-3.358-7.5-7.5v-13.684c0-4.142,3.358-7.5,7.5-7.5s7.5,3.358,7.5,7.5
		v13.684C213.951,319.974,210.593,323.332,206.451,323.332z"/>
	<path style="fill:#EBAA48;" d="M115.966,323.332c-4.142,0-7.5-3.358-7.5-7.5v-13.684c0-4.142,3.358-7.5,7.5-7.5s7.5,3.358,7.5,7.5
		v13.684C123.466,319.974,120.108,323.332,115.966,323.332z"/>
	<path style="fill:#EBAA48;" d="M162.24,349.5h-10.08c-4.142,0-7.5-3.358-7.5-7.5s3.358-7.5,7.5-7.5h7.58v-24.66
		c0-4.142,3.358-7.5,7.5-7.5s7.5,3.358,7.5,7.5V337C174.74,343.893,169.133,349.5,162.24,349.5z"/>
</g>
<path style="fill:#FFFFFF;" d="M269.404,263.545c0-2.75-2.25-5-5-5H58.013c-2.75,0-5,2.25-5,5V281c0,2.75,2.25,5,5,5h206.392
	c2.75,0,5-2.25,5-5v-17.455H269.404z"/>
<path style="fill:#DB722C;" d="M406.984,285.497v-20.009c-6.242,2.888-13.183,4.511-20.5,4.511h-20
	c-7.317,0-14.258-1.624-20.5-4.511v20.009H406.984z"/>
<path style="fill:#FFE2B8;" d="M317.484,221v-34h-11.32c-3.35,1.621-5.68,5.046-5.68,9v16c0,5.5,4.5,10,10,10h7.025
	C317.503,221.666,317.484,221.335,317.484,221z"/>
<path style="fill:#FFC987;" d="M446.804,187h-11.32v34c0,0.335-0.019,0.666-0.025,1h7.025c5.5,0,10-4.5,10-10v-16
	C452.484,192.046,450.154,188.621,446.804,187z"/>
<path style="fill:#FFE2B8;" d="M316.484,187v34c0,27.614,22.386,50,50,50h20c27.614,0,50-22.386,50-50v-34H316.484z"/>
<path style="fill:#FFC987;" d="M337,221v-34h-20.516v34c0,27.614,22.386,50,50,50h20c0.086,0,0.171-0.006,0.258-0.006
	C359.247,270.854,337,248.527,337,221z"/>
<path style="fill:#2E4C89;" d="M444.094,164v-8.391c0-37.34-30.27-67.61-67.61-67.61s-67.61,30.27-67.61,67.61V164H444.094z"/>
<path style="fill:#293D7C;" d="M386.938,88.807C383.53,88.277,380.04,88,376.484,88c-37.34,0-67.61,30.27-67.61,67.61V164h20.906
	v-8.391C329.78,121.825,354.562,93.832,386.938,88.807z"/>
<path style="fill:#37C47A;" d="M407.984,164v-19.999c0-2.75-2.25-5-5-5h-53c-2.75,0-5,2.25-5,5V164H407.984z"/>
<path style="fill:#02AF8E;" d="M370,139.001h-20.016c-2.75,0-5,2.25-5,5V164H365v-19.999C365,141.251,367.25,139.001,370,139.001z"
	/>
<g>
	<path style="fill:#EBAA48;" d="M373.362,242.811h-6.249c-4.142,0-7.5-3.358-7.5-7.5s3.358-7.5,7.5-7.5h3.749V212.12
		c0-4.142,3.358-7.5,7.5-7.5s7.5,3.358,7.5,7.5v18.191C385.862,237.204,380.254,242.811,373.362,242.811z"/>
	<path style="fill:#EBAA48;" d="M341.613,218.231c-6.717,0-13.432-2.556-18.545-7.67c-2.929-2.929-2.929-7.678,0-10.606
		c2.929-2.929,7.678-2.929,10.606,0c4.378,4.378,11.501,4.378,15.878-0.001c2.929-2.928,7.677-2.928,10.607,0.001
		c2.929,2.929,2.928,7.678,0,10.607C355.046,215.673,348.329,218.231,341.613,218.231z"/>
	<path style="fill:#EBAA48;" d="M411.355,218.231c-6.717,0-13.432-2.556-18.545-7.67c-2.929-2.929-2.929-7.678,0-10.606
		c2.929-2.929,7.678-2.929,10.606,0c4.378,4.378,11.501,4.378,15.878-0.001c2.929-2.928,7.677-2.928,10.607,0.001
		c2.929,2.929,2.928,7.678,0,10.607C424.788,215.673,418.071,218.231,411.355,218.231z"/>
</g>
<path style="fill:#FFCA51;" d="M461.984,399.688V303c0-11-9-20-20-20h-131c-11,0-20,9-20,20v206.503
	C362.68,499.25,424.363,457.971,461.984,399.688z"/>
<path style="fill:#EBAA48;" d="M180.208,377.5h-37.999c-4.142,0-7.5-3.358-7.5-7.5s3.358-7.5,7.5-7.5h37.999
	c4.142,0,7.5,3.358,7.5,7.5S184.35,377.5,180.208,377.5z"/>
<g>
	<path style="fill:#2E4C89;" d="M62.228,416.919c7.318,9.444,15.308,18.341,23.903,26.614l27.11-27.11H66.585
		C65.087,416.423,63.633,416.603,62.228,416.919z"/>
	<path style="fill:#2E4C89;" d="M209.176,416.423h46.656c11,0,20,9,20,20v46.656L209.176,416.423z"/>
	<path style="fill:#2E4C89;" d="M161.208,444c-18.077,0-33.194,12.627-37.041,29.539c20.816,13.315,43.785,23.555,68.259,30.113
		c4.27-6.145,6.78-13.604,6.78-21.654C199.206,461.012,182.194,444,161.208,444z"/>
</g>
<path style="fill:#C3DDF4;" d="M187.208,146h-8.499v-9.999c0-2.75-2.25-5-5-5h-25c-2.75,0-5,2.25-5,5V146h-8.499c-2.75,0-5,2.25-5,5
	v3c0,2.75,2.25,5,5,5h51.999c2.75,0,5-2.25,5-5v-3C192.208,148.25,189.958,146,187.208,146z"/>
<g>
	<circle style="fill:#52BBEF;" cx="91.03" cy="272.97" r="8.03"/>
	<circle style="fill:#52BBEF;" cx="67" cy="272.97" r="8.03"/>
</g>
<path style="fill:#FFFFFF;" d="M455.984,183.514c0,2.75-2.25,5-5,5h-149c-2.75,0-5-2.25-5-5v-15.999c0-2.75,2.25-5,5-5h149
	c2.75,0,5,2.25,5,5V183.514z"/>
<g>
	<circle style="fill:#FFCA51;" cx="336.97" cy="175.51" r="8.03"/>
	<circle style="fill:#FFCA51;" cx="312.94" cy="175.51" r="8.03"/>
</g>
<path style="fill:#EF9614;" d="M413.994,326c5.5,0,7.6,3.807,4.667,8.46l-36.844,58.442c-2.933,4.653-7.733,4.653-10.666,0
	l-36.844-58.442c-2.933-4.653-0.833-8.46,4.667-8.46L413.994,326L413.994,326z"/>
<path style="fill:#EF8318;" d="M354.326,334.46c-2.933-4.653-0.833-8.46,4.667-8.46h-20.018c-5.5,0-7.6,3.807-4.667,8.46
	l36.844,58.442c2.933,4.653,7.733,4.653,10.666,0l4.676-7.418L354.326,334.46z"/>
<g>
	<path style="fill:#FFAF10;" d="M312,320c-4.142,0-7.5,3.358-7.5,7.5v179.679c5.06-1.017,10.058-2.205,15-3.527V327.5
		C319.5,323.358,316.142,320,312,320z"/>
	<path style="fill:#FFAF10;" d="M447,420.434V327.5c0-4.142-3.358-7.5-7.5-7.5s-7.5,3.358-7.5,7.5v109.895
		C437.25,431.973,442.264,426.321,447,420.434z"/>
</g>
<g>
</g>
<g>
</g>
<g>
</g>
<g>
</g>
<g>
</g>
<g>
</g>
<g>
</g>
<g>
</g>
<g>
</g>
<g>
</g>
<g>
</g>
<g>
</g>
<g>
</g>
<g>
</g>
<g>
</g>
</svg>
