<?xml version="1.0" encoding="iso-8859-1"?>
<!-- Generator: Adobe Illustrator 19.0.0, SVG Export Plug-In . SVG Version: 6.00 Build 0)  -->
<svg version="1.1" id="Capa_1" xmlns="http://www.w3.org/2000/svg" xmlns:xlink="http://www.w3.org/1999/xlink" x="0px" y="0px"
	 viewBox="0 0 512 512" style="enable-background:new 0 0 512 512;" xml:space="preserve">
<circle style="fill:#FF8DB9;" cx="256" cy="256" r="245"/>
<circle style="fill:#FFFFFF;" cx="255.13" cy="256" r="117.26"/>
<path style="fill:#EEF6FF;" d="M169.84,306.406c-7.282-15.27-11.362-32.36-11.362-50.406c0-61.289,47.023-111.586,106.957-116.806
	c-3.396-0.295-6.831-0.455-10.304-0.455c-64.761,0-117.261,52.499-117.261,117.261c0,18.045,4.08,35.135,11.361,50.406H169.84z"/>
<g>
	<path style="fill:#B7092B;" d="M414.947,198.789l-27.232-44.299c-1.44-2.343-4.535-3.082-6.878-1.642l-13.501,8.3
		c13.356,15.775,23.46,34.387,29.248,54.798l16.722-10.279C415.648,204.227,416.387,201.132,414.947,198.789z"/>
	<path style="fill:#B7092B;" d="M122.634,319.644l-4.374,2.689c-2.343,1.44-3.082,4.535-1.642,6.878l15.296,24.883
		c1.44,2.343,4.535,3.082,6.878,1.641l5.443-3.346C135.658,342.535,128.368,331.533,122.634,319.644z"/>
</g>
<path style="fill:#2E4C89;" d="M330,423.526H182c-0.664,0-1.334-0.076-2-0.212V507c0,2.75,2.25,5,5,5h142c2.75,0,5-2.25,5-5v-83.686
	C331.334,423.45,330.664,423.526,330,423.526z"/>
<g>
	<path style="fill:#293D7C;" d="M332,423.314c-0.666,0.136-1.336,0.212-2,0.212h2V423.314z"/>
	<path style="fill:#293D7C;" d="M195,507v-83.474h-13c-0.664,0-1.334-0.076-2-0.212V507c0,2.75,2.25,5,5,5h15
		C197.25,512,195,509.75,195,507z"/>
</g>
<path style="fill:#2E4C89;" d="M182,88.474h148c0.664,0,1.334,0.076,2,0.212V5c0-2.75-2.25-5-5-5H185c-2.75,0-5,2.25-5,5v83.686
	C180.666,88.55,181.336,88.474,182,88.474z"/>
<g>
	<path style="fill:#293D7C;" d="M200,5c0-2.75,2.25-5,5-5h-20c-2.75,0-5,2.25-5,5v83.686c0.666-0.136,1.336-0.212,2-0.212h18V5z"/>
	<path style="fill:#293D7C;" d="M330,88.474c0.664,0,1.334,0.076,2,0.212v-0.212H330z"/>
</g>
<path style="fill:#B7092B;" d="M255.13,109c39.58,0,75.552,15.73,102.007,41.259L342.633,97.12
	c-1.448-5.306-7.133-9.647-12.633-9.647H182c-5.5,0-11.185,4.341-12.633,9.647l-13.901,50.929
	C181.683,123.826,216.706,109,255.13,109z"/>
<path style="fill:#930628;" d="M190.229,97.121c1.448-5.306,7.133-9.647,12.633-9.647H182c-5.5,0-11.185,4.341-12.633,9.647
	l-13.901,50.929c7.948-7.343,16.71-13.816,26.126-19.281L190.229,97.121z"/>
<path style="fill:#B7092B;" d="M255.13,403c-38.425,0-73.447-14.826-99.665-39.05l13.901,50.929
	c1.448,5.306,7.133,9.647,12.633,9.647h148c5.5,0,11.185-4.341,12.633-9.647l14.504-53.139C330.683,387.27,294.711,403,255.13,403z"
	/>
<path style="fill:#930628;" d="M190.229,414.879l-8.638-31.648c-9.416-5.465-18.178-11.938-26.126-19.281l13.901,50.929
	c1.448,5.306,7.133,9.647,12.633,9.647h20.862C197.362,424.526,191.677,420.185,190.229,414.879z"/>
<circle style="fill:#FFFFFF;" cx="309.56" cy="213.64" r="26.27"/>
<path style="fill:#EEF6FF;" d="M300,213.638c0-11.588,7.505-21.417,17.917-24.91c-2.627-0.881-5.436-1.366-8.359-1.366
	c-14.511,0-26.275,11.764-26.275,26.275s11.764,26.275,26.275,26.275c2.923,0,5.732-0.485,8.359-1.366
	C307.505,235.055,300,225.226,300,213.638z"/>
<g>
	<path style="fill:#0F9390;" d="M218.13,284c-2.717,0-5.272-0.7-7.5-1.924V308h15v-25.924C223.402,283.3,220.847,284,218.13,284z"/>
	<path style="fill:#0F9390;" d="M317.058,280.674v-34.11c12.432-2.831,22.273-12.533,25.301-24.889h24.922
		c-1.578-5.161-3.504-10.169-5.747-15h-18.926c-2.707-12.866-12.76-23.05-25.55-25.962v-24.296c-4.781-2.979-9.791-5.623-15-7.9
		v32.196c-12.79,2.913-22.842,13.097-25.55,25.962h-54.363V189.8c-2.228,1.225-4.783,1.924-7.5,1.924s-5.272-0.7-7.5-1.924v16.874
		h-58.418c-2.244,4.831-4.17,9.839-5.748,15h28.506v41.123c0,6.893,5.607,12.5,12.5,12.5h20.159
		c-1.038-2.089-1.637-4.434-1.637-6.92c0-2.959,0.842-5.718,2.277-8.08h-18.299v-38.623h90.271
		c3.028,12.356,12.87,22.058,25.301,24.889v34.11h-32.993v-7.877c0-6.893-5.607-12.5-12.5-12.5h-25.089
		c1.435,2.361,2.277,5.121,2.277,8.08c0,2.487-0.599,4.831-1.637,6.92h21.949V308h15v-12.326h96.438
		c1.747-4.859,3.18-9.867,4.279-15H317.058z M290.783,213.638c0-10.353,8.422-18.775,18.775-18.775s18.775,8.422,18.775,18.775
		s-8.422,18.775-18.775,18.775S290.783,223.991,290.783,213.638z"/>
	<path style="fill:#0F9390;" d="M214.645,160.479c2.717,0,5.272,0.7,7.5,1.924V143.45c-5.156,1.508-10.166,3.357-15,5.528v13.424
		C209.373,161.178,211.928,160.479,214.645,160.479z"/>
</g>
<path style="fill:#C3DDF4;" d="M149.23,306.406c18.851,39.534,59.184,66.855,105.9,66.855c46.717,0,87.049-27.321,105.9-66.855
	H149.23z"/>
<g>
	<circle style="fill:#FE3745;" cx="214.65" cy="176.1" r="16.623"/>
	<circle style="fill:#FE3745;" cx="218.13" cy="268.38" r="16.623"/>
	<path style="fill:#FE3745;" d="M255.13,108c-81.738,0-148,66.261-148,148s66.262,148,148,148c81.739,0,148.001-66.261,148.001-148
		S336.869,108,255.13,108z M255.13,371.261c-63.657,0-115.261-51.603-115.261-115.261s51.604-115.261,115.261-115.261
		c63.658,0,115.261,51.604,115.261,115.261S318.788,371.261,255.13,371.261z"/>
</g>
<path style="fill:#EA2A3D;" d="M128,256c0-78.23,60.697-142.273,137.565-147.629c-3.448-0.24-6.926-0.371-10.435-0.371
	c-81.738,0-148,66.261-148,148s66.262,148,148,148c3.509,0,6.987-0.131,10.435-0.371C188.697,398.273,128,334.23,128,256z"/>
<path style="fill:#293D7C;" d="M218.5,489c-12.407,0-22.5-10.093-22.5-22.5s10.093-22.5,22.5-22.5h75
	c12.407,0,22.5,10.093,22.5,22.5S305.907,489,293.5,489H218.5z"/>
<path style="fill:#9CE2D8;" d="M306,466.5c0,6.904-5.597,12.5-12.5,12.5h-75c-6.903,0-12.5-5.596-12.5-12.5l0,0
	c0-6.904,5.597-12.5,12.5-12.5h75C300.403,454,306,459.596,306,466.5L306,466.5z"/>
<path style="fill:#FFCA51;" d="M269,454h-50.5c-6.903,0-12.5,5.596-12.5,12.5s5.597,12.5,12.5,12.5H269V454z"/>
<g>
	<circle style="fill:#445EA0;" cx="195.35" cy="326.03" r="8.03"/>
	<circle style="fill:#445EA0;" cx="228" cy="326.03" r="8.03"/>
	<circle style="fill:#445EA0;" cx="260.64" cy="326.03" r="8.03"/>
</g>
<path style="fill:#EEF6FF;" d="M454.224,328.303c-1.919,0-3.839-0.732-5.303-2.196c-2.929-2.929-2.929-7.678,0-10.606
	c32.808-32.809,32.808-86.192,0-119.001c-2.929-2.929-2.929-7.678,0-10.606c2.929-2.929,7.678-2.929,10.607,0
	c38.657,38.657,38.657,101.557,0,140.214C458.062,327.57,456.143,328.303,454.224,328.303z"/>
<path style="fill:#C3DDF4;" d="M435.602,309.682c-1.919,0-3.839-0.732-5.303-2.197c-2.929-2.929-2.929-7.678,0-10.607
	c22.54-22.541,22.54-59.217,0-81.757c-2.929-2.929-2.929-7.678,0-10.607s7.678-2.929,10.606,0c28.389,28.389,28.389,74.581,0,102.97
	C439.441,308.949,437.521,309.682,435.602,309.682z"/>
<path style="fill:#94C2ED;" d="M416.98,291.06c-1.919,0-3.839-0.732-5.303-2.197c-2.929-2.929-2.929-7.678,0-10.606
	c5.945-5.944,9.219-13.849,9.219-22.257c0-8.407-3.274-16.311-9.219-22.257c-2.929-2.929-2.929-7.678,0-10.606
	c2.929-2.929,7.678-2.929,10.607,0c8.778,8.778,13.613,20.449,13.613,32.863c0,12.415-4.834,24.086-13.613,32.863
	C420.819,290.327,418.899,291.06,416.98,291.06z"/>
<path style="fill:#EEF6FF;" d="M57.78,328.304c-1.919,0-3.839-0.732-5.303-2.196c-18.699-18.699-28.997-43.597-28.997-70.106
	c0-26.511,10.298-51.408,28.997-70.107c2.929-2.929,7.678-2.929,10.606,0c2.929,2.929,2.929,7.678,0,10.607
	c-32.808,32.809-32.808,86.191,0,119c2.929,2.929,2.929,7.678,0,10.606C61.619,327.571,59.7,328.304,57.78,328.304z"/>
<path style="fill:#C3DDF4;" d="M76.402,309.683c-1.92,0-3.839-0.732-5.303-2.197c-28.389-28.388-28.389-74.58,0-102.97
	c2.929-2.929,7.678-2.93,10.606,0c2.929,2.929,2.929,7.677,0,10.606c-22.54,22.541-22.54,59.217,0,81.757
	c2.929,2.929,2.929,7.678,0,10.607C80.241,308.95,78.321,309.683,76.402,309.683z"/>
<path style="fill:#94C2ED;" d="M95.023,291.061c-1.919,0-3.839-0.731-5.303-2.196c-18.121-18.121-18.121-47.606,0-65.727
	c2.929-2.929,7.678-2.93,10.606,0c2.929,2.929,2.929,7.677,0,10.606c-12.272,12.272-12.272,32.241,0,44.514
	c2.929,2.929,2.929,7.678,0,10.607C98.862,290.328,96.943,291.061,95.023,291.061z"/>
<g>
</g>
<g>
</g>
<g>
</g>
<g>
</g>
<g>
</g>
<g>
</g>
<g>
</g>
<g>
</g>
<g>
</g>
<g>
</g>
<g>
</g>
<g>
</g>
<g>
</g>
<g>
</g>
<g>
</g>
</svg>
