<?xml version="1.0" encoding="iso-8859-1"?>
<!-- Generator: Adobe Illustrator 19.0.0, SVG Export Plug-In . SVG Version: 6.00 Build 0)  -->
<svg version="1.1" id="Capa_1" xmlns="http://www.w3.org/2000/svg" xmlns:xlink="http://www.w3.org/1999/xlink" x="0px" y="0px"
	 viewBox="0 0 511.999 511.999" style="enable-background:new 0 0 511.999 511.999;" xml:space="preserve">
<circle style="fill:#D9ED69;" cx="255.999" cy="266.999" r="245"/>
<path style="fill:#1A2B63;" d="M87.733,324.729c-2.574,1.587-5.593,2.519-8.832,2.519c-2.15,0-4.201-0.419-6.095-1.155
	c3.206,35.736,23.248,66.693,52.123,84.854v-18.285C104.235,376.563,90.202,352.287,87.733,324.729z"/>
<circle style="fill:#2E4C89;" cx="78.901" cy="310.349" r="17.902"/>
<path style="fill:#293D7C;" d="M71.194,310.346c0-8.115,5.402-14.959,12.805-17.156c-1.616-0.479-3.325-0.747-5.098-0.747
	c-9.888,0-17.902,8.015-17.902,17.902s8.015,17.902,17.902,17.902c1.772,0,3.481-0.267,5.098-0.747
	C76.597,325.305,71.194,318.46,71.194,310.346z"/>
<path style="fill:#2E4C89;" d="M136.068,420.999v-98.065c-4.854-0.442-9.327-2.197-13.069-4.901v102.966H136.068z"/>
<path style="fill:#445EA0;" d="M136.068,287.999c0-5.778,1.497-11.212,4.118-15.941c-0.559-0.035-1.12-0.059-1.688-0.059
	c-14.635,0-26.5,11.864-26.5,26.5c0,13.816,10.574,25.156,24.069,26.384v-36.884H136.068z"/>
<path style="fill:#293D7C;" d="M278,420.999V318.04c-3.962,2.862-8.746,4.657-13.931,4.959v98H278z"/>
<path style="fill:#445EA0;" d="M262.5,271.999c-0.848,0-1.685,0.044-2.512,0.122c2.598,4.714,4.081,10.125,4.081,15.878v36.95
	c13.904-0.813,24.931-12.342,24.931-26.45C289,283.863,277.135,271.999,262.5,271.999z"/>
<rect x="176.07" y="247.999" style="fill:#293D7C;" width="48" height="7"/>
<path style="fill:#2E4C89;" d="M265.069,420.999v-133c0-18.778-15.223-34-34-34h-62c-18.777,0-34,15.222-34,34v133H265.069z"/>
<path style="fill:#293D7C;" d="M189.999,253.999h-20.931c-18.777,0-34,15.222-34,34v133h20.931v-133
	C155.999,269.221,171.223,253.999,189.999,253.999z"/>
<path style="fill:#445EA0;" d="M227.068,420.999v-98c0-5.5-4.5-10-10-10h-34c-5.5,0-10,4.5-10,10v98H227.068z"/>
<rect x="183.07" y="391.999" style="fill:#FF9518;" width="34" height="10"/>
<rect x="183.07" y="374.999" style="fill:#FFCA51;" width="34" height="10"/>
<path style="fill:#60D882;" d="M217.068,333.999v-8c0-1.65-1.35-3-3-3h-28c-1.65,0-3,1.35-3,3v8H217.068z"/>
<rect x="183.07" y="408.999" style="fill:#FF9518;" width="34" height="12"/>
<rect x="183.07" y="340.999" style="fill:#60D882;" width="34" height="10"/>
<rect x="183.07" y="357.999" style="fill:#FFCA51;" width="34" height="10"/>
<path style="fill:#28A5A5;" d="M295.069,444.999v-15c0-5.5-4.5-10-10-10h-170c-5.5,0-10,4.5-10,10v15H295.069z"/>
<path style="fill:#0F9390;" d="M135.999,419.999h-20.931c-5.5,0-10,4.5-10,10v15h20.931v-15
	C125.999,424.499,130.499,419.999,135.999,419.999z"/>
<path style="fill:#60D882;" d="M235.068,285.464c0,5.206-4.5,9.465-10,9.465h-50c-5.5,0-10-4.259-10-9.465s4.5-9.465,10-9.465h50
	C230.568,275.999,235.068,280.258,235.068,285.464z"/>
<path style="fill:#37C47A;" d="M185.999,285.464c0-5.206,4.5-9.465,10-9.465h-20.931c-5.5,0-10,4.259-10,9.465s4.5,9.465,10,9.465
	h20.931C190.499,294.93,185.999,290.67,185.999,285.464z"/>
<path style="fill:#293D7C;" d="M321,443.999H86.607c44,42.12,103.672,68,169.392,68c22.507,0,44.299-3.05,65-8.736V443.999z"/>
<g>
	<circle style="fill:#445EA0;" cx="215.679" cy="471.969" r="8.03"/>
	<circle style="fill:#445EA0;" cx="248.329" cy="471.969" r="8.03"/>
	<circle style="fill:#445EA0;" cx="280.97" cy="471.969" r="8.03"/>
</g>
<path style="fill:#C3DDF4;" d="M372.273,230.336v14.727c3.577-1.618,7.544-2.528,11.727-2.528c4.183,0,8.149,0.91,11.727,2.528
	v-14.727H372.273z"/>
<path style="fill:#EEF6FF;" d="M411.854,263.462c-2.77-12.839-14.186-22.463-27.854-22.463s-25.084,9.624-27.853,22.463H411.854z"/>
<path style="fill:#D9EAFC;" d="M389.073,241.452c-1.646-0.296-3.341-0.453-5.073-0.453c-13.668,0-25.084,9.624-27.853,22.463h10.146
	C368.712,252.25,377.726,243.492,389.073,241.452z"/>
<path style="fill:#C3DDF4;" d="M448,419.184V272c0-5.5-4.5-10-10-10H330c-5.5,0-10,4.5-10,10v231.537
	C371.279,489.694,415.895,459.634,448,419.184z"/>
<path style="fill:#94C2ED;" d="M340,272c0-5.5,4.5-10,10-10h-20c-5.5,0-10,4.5-10,10v231.537c6.789-1.832,13.458-3.958,20-6.346V272
	z"/>
<path style="fill:#EEF6FF;" d="M488,226.415c0,2.889-2.363,5.253-5.252,5.253H285.253c-2.89,0-5.253-2.364-5.253-5.253V113.583
	c0-2.889,2.363-5.252,5.253-5.252h197.495c2.889,0,5.252,2.364,5.252,5.252V226.415z"/>
<path style="fill:#C3DDF4;" d="M295.605,219.062c-1.65,0-3-1.35-3-3v-92.126c0-1.65,1.35-3,3-3h176.788c1.65,0,3,1.35,3,3v92.126
	c0,1.65-1.35,3-3,3H295.605z"/>
<path style="fill:#445EA0;" d="M159.568,142.999h28.912c0.055-0.833,0.088-1.671,0.088-2.516c0-12.287-5.831-23.448-15.219-29.126
	c-0.395-0.238-0.838-0.357-1.281-0.357c-0.444,0-0.887,0.119-1.281,0.357c-9.388,5.679-15.219,16.839-15.219,29.126
	c0,1.141,0.066,2.268,0.165,3.386C156.899,143.317,158.195,142.999,159.568,142.999z"/>
<path style="fill:#2E4C89;" d="M165.999,140.483c0-10.46,4.236-20.09,11.285-26.23c-1.231-1.073-2.538-2.052-3.935-2.896
	c-0.395-0.238-0.838-0.357-1.281-0.357c-0.444,0-0.887,0.119-1.281,0.357c-9.388,5.679-15.219,16.839-15.219,29.126
	c0,1.141,0.066,2.268,0.165,3.386c1.166-0.552,2.462-0.87,3.835-0.87h6.534C166.044,142.166,165.999,141.33,165.999,140.483z"/>
<path style="fill:#445EA0;" d="M240.568,142.999c1.372,0,2.669,0.318,3.835,0.87c0.099-1.118,0.165-2.245,0.165-3.386
	c0-12.287-5.831-23.448-15.219-29.126c-0.395-0.238-0.838-0.357-1.281-0.357c-0.444,0-0.887,0.119-1.281,0.357
	c-9.388,5.679-15.219,16.839-15.219,29.126c0,0.845,0.033,1.683,0.088,2.516H240.568z"/>
<path style="fill:#2E4C89;" d="M240.568,141.999h-81c-5.5,0-10,4.5-10,10v53.136c0.489-0.083,0.988-0.136,1.5-0.136h34.9v-5.751
	c0-2.205,1.794-4,4-4h20.201c2.206,0,4,1.795,4,4v5.751h34.899c0.512,0,1.011,0.053,1.5,0.136v-53.136
	C250.568,146.499,246.068,141.999,240.568,141.999z"/>
<path style="fill:#293D7C;" d="M165.999,151.999c0-5.5,4.5-10,10-10h-16.431c-5.5,0-10,4.5-10,10v53.136
	c0.489-0.083,0.988-0.136,1.5-0.136h14.931V151.999z"/>
<path style="fill:#445EA0;" d="M249.068,203.999h-34.899v2c0,2.206-1.794,4-4,4h-20.201c-2.206,0-4-1.794-4-4v-2h-34.9
	c-5.5,0-10,4.5-10,10v25c0,5.5,4.5,10,10,10h98c5.5,0,10-4.5,10-10v-25C259.069,208.499,254.568,203.999,249.068,203.999z"/>
<path style="fill:#2E4C89;" d="M161.999,238.999v-25c0-5.5,4.5-10,10-10h-20.931c-5.5,0-10,4.5-10,10v25c0,5.5,4.5,10,10,10h20.931
	C166.499,248.999,161.999,244.499,161.999,238.999z"/>
<g>
	<path style="fill:#1A2B63;" d="M215.169,205.999c0,2.75-2.25,5-5,5h-20.201c-2.75,0-5-2.25-5-5v-6.751c0-2.75,2.25-5,5-5h20.201
		c2.75,0,5,2.25,5,5V205.999z"/>
	<path style="fill:#1A2B63;" d="M173.419,183.999c-2.75,0-5-2.25-5-5v-11.201c0-2.75,2.25-5,5-5h6.75c2.75,0,5,2.25,5,5v11.201
		c0,2.75-2.25,5-5,5H173.419z"/>
	<path style="fill:#1A2B63;" d="M220.419,183.999c-2.75,0-5-2.25-5-5v-11.201c0-2.75,2.25-5,5-5h6.75c2.75,0,5,2.25,5,5v11.201
		c0,2.75-2.25,5-5,5H220.419z"/>
</g>
<path style="fill:#60D882;" d="M272.605,34.295c0,1.919-0.732,3.839-2.196,5.304c-2.929,2.929-7.678,2.929-10.607,0
	c-32.809-32.809-86.192-32.809-119.001,0c-2.929,2.929-7.678,2.929-10.606,0c-2.929-2.93-2.929-7.678,0-10.607
	c38.657-38.656,101.557-38.656,140.214,0C271.874,30.456,272.605,32.376,272.605,34.295z"/>
<path style="fill:#37C47A;" d="M253.984,55.878c0,1.919-0.733,3.838-2.197,5.303c-2.929,2.93-7.678,2.93-10.606,0
	c-22.541-22.54-59.217-22.54-81.757,0c-2.929,2.93-7.678,2.93-10.606,0c-2.929-2.929-2.929-7.678,0-10.606
	c28.389-28.389,74.581-28.389,102.97,0C253.253,52.038,253.984,53.958,253.984,55.878z"/>
<path style="fill:#02AF8E;" d="M235.363,77.499c0,1.92-0.732,3.839-2.197,5.303c-2.929,2.93-7.678,2.93-10.606,0
	c-5.944-5.944-13.849-9.219-22.257-9.219c-8.407,0-16.311,3.274-22.257,9.219c-2.929,2.93-7.678,2.93-10.606,0
	c-2.929-2.928-2.929-7.678,0-10.605c8.778-8.779,20.449-13.613,32.863-13.613c12.415,0,24.086,4.834,32.863,13.613
	C234.63,73.66,235.363,75.58,235.363,77.499z"/>
<path style="fill:#60D882;" d="M408.922,282.999c5.5,0,10,4.5,10,10v1.453c0,5.5-4.5,10-10,10h-49.844c-5.5,0-10-4.5-10-10v-1.453
	c0-5.5,4.5-10,10-10H408.922z"/>
<path style="fill:#FFAF10;" d="M408.922,316.999c5.5,0,10,4.5,10,10v1.453c0,5.5-4.5,10-10,10h-49.844c-5.5,0-10-4.5-10-10v-1.453
	c0-5.5,4.5-10,10-10H408.922z"/>
<g>
	<path style="fill:#FFFFFF;" d="M332.855,145.499H316c-4.143,0-7.5-3.358-7.5-7.5s3.357-7.5,7.5-7.5h16.855
		c4.143,0,7.5,3.358,7.5,7.5S336.997,145.499,332.855,145.499z"/>
	<path style="fill:#FFFFFF;" d="M374.986,145.499h-16.852c-4.143,0-7.5-3.358-7.5-7.5s3.357-7.5,7.5-7.5h16.852
		c4.143,0,7.5,3.358,7.5,7.5S379.129,145.499,374.986,145.499z"/>
	<path style="fill:#FFFFFF;" d="M450.829,145.499h-50.561c-4.143,0-7.5-3.358-7.5-7.5s3.357-7.5,7.5-7.5h50.561
		c4.143,0,7.5,3.358,7.5,7.5S454.971,145.499,450.829,145.499z"/>
	<path style="fill:#FFFFFF;" d="M450.829,166.49h-16.853c-4.143,0-7.5-3.358-7.5-7.5s3.357-7.5,7.5-7.5h16.853
		c4.143,0,7.5,3.358,7.5,7.5S454.971,166.49,450.829,166.49z"/>
	<path style="fill:#FFFFFF;" d="M408.693,166.49h-16.855c-4.143,0-7.5-3.358-7.5-7.5s3.357-7.5,7.5-7.5h16.855
		c4.142,0,7.5,3.358,7.5,7.5S412.836,166.49,408.693,166.49z"/>
	<path style="fill:#FFFFFF;" d="M366.561,166.49H316c-4.143,0-7.5-3.358-7.5-7.5s3.357-7.5,7.5-7.5h50.561
		c4.143,0,7.5,3.358,7.5,7.5S370.703,166.49,366.561,166.49z"/>
	<path style="fill:#FFFFFF;" d="M332.855,187.481H316c-4.143,0-7.5-3.358-7.5-7.5s3.357-7.5,7.5-7.5h16.855
		c4.143,0,7.5,3.358,7.5,7.5S336.997,187.481,332.855,187.481z"/>
	<path style="fill:#FFFFFF;" d="M374.986,187.481h-16.852c-4.143,0-7.5-3.358-7.5-7.5s3.357-7.5,7.5-7.5h16.852
		c4.143,0,7.5,3.358,7.5,7.5S379.129,187.481,374.986,187.481z"/>
	<path style="fill:#FFFFFF;" d="M450.829,187.481h-50.561c-4.143,0-7.5-3.358-7.5-7.5s3.357-7.5,7.5-7.5h50.561
		c4.143,0,7.5,3.358,7.5,7.5S454.971,187.481,450.829,187.481z"/>
	<path style="fill:#FFFFFF;" d="M332.855,208.472H316c-4.143,0-7.5-3.358-7.5-7.5s3.357-7.5,7.5-7.5h16.855
		c4.143,0,7.5,3.358,7.5,7.5S336.997,208.472,332.855,208.472z"/>
	<path style="fill:#FFFFFF;" d="M406.587,208.472h-48.452c-4.143,0-7.5-3.358-7.5-7.5s3.357-7.5,7.5-7.5h48.452
		c4.143,0,7.5,3.358,7.5,7.5S410.729,208.472,406.587,208.472z"/>
	<path style="fill:#FFFFFF;" d="M450.829,208.472h-17.758c-4.143,0-7.5-3.358-7.5-7.5s3.357-7.5,7.5-7.5h17.758
		c4.143,0,7.5,3.358,7.5,7.5S454.971,208.472,450.829,208.472z"/>
</g>
<g>
</g>
<g>
</g>
<g>
</g>
<g>
</g>
<g>
</g>
<g>
</g>
<g>
</g>
<g>
</g>
<g>
</g>
<g>
</g>
<g>
</g>
<g>
</g>
<g>
</g>
<g>
</g>
<g>
</g>
</svg>
