<?xml version="1.0" encoding="iso-8859-1"?>
<!-- Generator: Adobe Illustrator 19.0.0, SVG Export Plug-In . SVG Version: 6.00 Build 0)  -->
<svg version="1.1" id="Capa_1" xmlns="http://www.w3.org/2000/svg" xmlns:xlink="http://www.w3.org/1999/xlink" x="0px" y="0px"
	 viewBox="0 0 512 512" style="enable-background:new 0 0 512 512;" xml:space="preserve">
<circle style="fill:#6DC3ED;" cx="254.957" cy="267" r="245"/>
<g>
	<path style="fill:#9CE2D8;" d="M129.997,121.943H93.275c-5.822,0-10.586,4.288-10.586,9.528s4.764,9.528,10.586,9.528h36.722
		V121.943z"/>
	<path style="fill:#9CE2D8;" d="M468.337,121.681h-80.673v23.279c0,1.103-0.897,2-2,2h-15.102v15.264l1.392-0.592
		c1.576-0.67,3.247-1.01,4.967-1.01c1.443,0,2.857,0.241,4.207,0.717c1.11,3.157,0.916,6.67-0.551,9.708l-0.692,1.435h5.779
		c1.103,0,2,0.897,2,2V176h35.91c5.532,0,10.059-4.074,10.059-9.054c0-4.979-4.526-9.053-10.059-9.053h-12.573
		c-5.533,0-10.06-4.073-10.06-9.053s4.526-9.054,10.06-9.054h57.336c5.532,0,10.06-4.073,10.06-9.052
		C478.396,125.755,473.87,121.681,468.337,121.681z"/>
	<path style="fill:#9CE2D8;" d="M502.043,166.946c0,4.979-4.527,9.054-10.059,9.054h-39.231c-5.532,0-10.059-4.075-10.059-9.054
		s4.526-9.053,10.059-9.053h39.231C497.516,157.893,502.043,161.967,502.043,166.946z"/>
</g>
<path style="fill:#0F9390;" d="M271.294,106.812c0.987-2.029,1.546-4.306,1.546-6.714c0-6.307-3.799-11.724-9.23-14.098
	c-5.431,2.375-9.228,7.792-9.228,14.098c0,2.408,0.559,4.685,1.543,6.714H271.294z"/>
<g>
	<path style="fill:#02AF8E;" d="M259.853,106.812c-0.17-3.697-1.662-7.346-4.485-10.17c-4.458-4.46-10.976-5.605-16.494-3.443
		c-1.732,4.422-1.336,9.481,1.183,13.613H259.853z"/>
	<path style="fill:#02AF8E;" d="M286.501,106.812c2.519-4.131,2.915-9.191,1.185-13.613c-5.52-2.162-12.035-1.017-16.496,3.443
		c-2.821,2.824-4.314,6.473-4.482,10.17H286.501z"/>
	<path style="fill:#02AF8E;" d="M329.521,106.812c0.986-2.029,1.545-4.306,1.545-6.714c0-6.307-3.799-11.724-9.23-14.098
		c-5.431,2.375-9.228,7.792-9.228,14.098c0,2.408,0.559,4.685,1.543,6.714H329.521z"/>
</g>
<g>
	<path style="fill:#0F9390;" d="M318.081,106.812c-0.17-3.697-1.662-7.346-4.485-10.17c-4.458-4.46-10.976-5.605-16.494-3.443
		c-1.732,4.422-1.336,9.481,1.183,13.613H318.081z"/>
	<path style="fill:#0F9390;" d="M344.728,106.812c2.518-4.131,2.915-9.191,1.185-13.613c-5.52-2.162-12.035-1.017-16.496,3.443
		c-2.821,2.824-4.313,6.473-4.482,10.17H344.728z"/>
</g>
<path style="fill:#02AF8E;" d="M212.41,106.812c0.987-2.029,1.544-4.306,1.544-6.714c0-6.307-3.797-11.724-9.227-14.098
	c-5.434,2.375-9.229,7.792-9.229,14.098c0,2.408,0.557,4.685,1.543,6.714H212.41z"/>
<g>
	<path style="fill:#0F9390;" d="M200.97,106.812c-0.17-3.697-1.661-7.346-4.485-10.17c-4.46-4.46-10.976-5.605-16.496-3.443
		c-1.73,4.422-1.334,9.481,1.185,13.613H200.97z"/>
	<path style="fill:#0F9390;" d="M227.617,106.812c2.52-4.131,2.915-9.191,1.183-13.613c-5.518-2.162-12.036-1.017-16.493,3.443
		c-2.824,2.824-4.316,6.473-4.485,10.17H227.617z"/>
</g>
<g>
	<rect x="145.818" y="146.3" style="fill:#C3DDF4;" width="225.75" height="26.348"/>
	<rect x="145.818" y="146.3" style="fill:#C3DDF4;" width="20.435" height="26.348"/>
</g>
<path style="fill:#0F9390;" d="M164.264,172.65c0.876-1.802,1.372-3.824,1.372-5.962c0-5.601-3.373-10.412-8.196-12.52
	c-4.824,2.108-8.195,6.919-8.195,12.52c0,2.139,0.495,4.161,1.37,5.962H164.264z"/>
<g>
	<path style="fill:#02AF8E;" d="M154.102,172.65c-0.15-3.284-1.474-6.523-3.982-9.032c-3.959-3.96-9.747-4.978-14.646-3.057
		c-1.539,3.927-1.188,8.42,1.05,12.089H154.102z"/>
	<path style="fill:#02AF8E;" d="M177.768,172.65c2.237-3.669,2.589-8.162,1.05-12.089c-4.9-1.92-10.687-0.903-14.646,3.057
		c-2.509,2.508-3.833,5.748-3.982,9.032H177.768z"/>
</g>
<path style="fill:#0F9390;" d="M215.036,172.65c0.875-1.802,1.37-3.824,1.37-5.962c0-5.601-3.371-10.412-8.195-12.52
	c-4.823,2.108-8.195,6.919-8.195,12.52c0,2.139,0.494,4.161,1.371,5.962H215.036z"/>
<g>
	<path style="fill:#02AF8E;" d="M204.874,172.65c-0.15-3.284-1.474-6.523-3.982-9.032c-3.961-3.96-9.747-4.978-14.648-3.057
		c-1.537,3.927-1.187,8.42,1.051,12.089H204.874z"/>
	<path style="fill:#02AF8E;" d="M228.542,172.65c2.236-3.669,2.586-8.162,1.049-12.089c-4.901-1.92-10.688-0.903-14.648,3.057
		c-2.507,2.508-3.832,5.748-3.981,9.032H228.542z"/>
</g>
<path style="fill:#0F9390;" d="M265.807,172.65c0.876-1.802,1.372-3.824,1.372-5.962c0-5.601-3.373-10.412-8.196-12.52
	c-4.824,2.108-8.196,6.919-8.196,12.52c0,2.139,0.496,4.161,1.371,5.962H265.807z"/>
<g>
	<path style="fill:#02AF8E;" d="M255.646,172.65c-0.15-3.284-1.476-6.523-3.982-9.032c-3.959-3.96-9.747-4.978-14.648-3.057
		c-1.537,3.927-1.186,8.42,1.051,12.089H255.646z"/>
	<path style="fill:#02AF8E;" d="M279.313,172.65c2.236-3.669,2.588-8.162,1.051-12.089c-4.901-1.92-10.689-0.903-14.648,3.057
		c-2.508,2.508-3.832,5.748-3.982,9.032H279.313z"/>
</g>
<path style="fill:#0F9390;" d="M316.578,172.65c0.877-1.802,1.373-3.824,1.373-5.962c0-5.601-3.373-10.412-8.196-12.52
	c-4.823,2.108-8.196,6.919-8.196,12.52c0,2.139,0.496,4.161,1.372,5.962H316.578z"/>
<g>
	<path style="fill:#02AF8E;" d="M306.419,172.65c-0.15-3.284-1.476-6.523-3.983-9.032c-3.96-3.96-9.746-4.978-14.648-3.057
		c-1.537,3.927-1.185,8.42,1.05,12.089H306.419z"/>
	<path style="fill:#02AF8E;" d="M330.086,172.65c2.235-3.669,2.587-8.162,1.049-12.089c-4.901-1.92-10.689-0.903-14.648,3.057
		c-2.508,2.508-3.832,5.748-3.981,9.032H330.086z"/>
</g>
<path style="fill:#0F9390;" d="M367.352,172.65c0.876-1.802,1.37-3.824,1.37-5.962c0-5.601-3.37-10.412-8.194-12.52
	c-4.824,2.108-8.196,6.919-8.196,12.52c0,2.139,0.495,4.161,1.372,5.962H367.352z"/>
<g>
	<path style="fill:#02AF8E;" d="M357.189,172.65c-0.148-3.284-1.474-6.523-3.982-9.032c-3.96-3.96-9.745-4.978-14.646-3.057
		c-1.539,3.927-1.186,8.42,1.05,12.089H357.189z"/>
	<path style="fill:#02AF8E;" d="M380.855,172.65c2.237-3.669,2.589-8.162,1.05-12.089c-4.901-1.92-10.688-0.903-14.647,3.057
		c-2.509,2.508-3.833,5.748-3.981,9.032H380.855z"/>
</g>
<rect x="145.818" y="212.67" style="fill:#C3DDF4;" width="225.75" height="26.348"/>
<rect x="145.818" y="212.67" style="fill:#94C2ED;" width="20.435" height="26.348"/>
<path style="fill:#0F9390;" d="M164.264,239.017c0.876-1.802,1.372-3.824,1.372-5.962c0-5.601-3.373-10.412-8.196-12.52
	c-4.824,2.108-8.195,6.919-8.195,12.52c0,2.139,0.495,4.161,1.37,5.962H164.264z"/>
<g>
	<path style="fill:#02AF8E;" d="M154.102,239.017c-0.15-3.284-1.474-6.523-3.982-9.031c-3.959-3.96-9.747-4.978-14.646-3.058
		c-1.539,3.927-1.188,8.42,1.05,12.089H154.102z"/>
	<path style="fill:#02AF8E;" d="M177.768,239.017c2.237-3.669,2.589-8.162,1.05-12.089c-4.9-1.92-10.687-0.903-14.646,3.058
		c-2.509,2.508-3.833,5.748-3.982,9.031H177.768z"/>
</g>
<path style="fill:#0F9390;" d="M215.036,239.017c0.875-1.802,1.37-3.824,1.37-5.962c0-5.601-3.371-10.412-8.195-12.52
	c-4.823,2.108-8.195,6.919-8.195,12.52c0,2.139,0.494,4.161,1.371,5.962H215.036z"/>
<g>
	<path style="fill:#02AF8E;" d="M204.874,239.017c-0.15-3.284-1.474-6.523-3.982-9.031c-3.961-3.96-9.747-4.978-14.648-3.058
		c-1.537,3.927-1.187,8.42,1.051,12.089H204.874z"/>
	<path style="fill:#02AF8E;" d="M228.542,239.017c2.236-3.669,2.586-8.162,1.049-12.089c-4.901-1.92-10.688-0.903-14.648,3.058
		c-2.507,2.508-3.832,5.748-3.981,9.031H228.542z"/>
</g>
<path style="fill:#0F9390;" d="M265.807,239.017c0.876-1.802,1.372-3.824,1.372-5.962c0-5.601-3.373-10.412-8.196-12.52
	c-4.824,2.108-8.196,6.919-8.196,12.52c0,2.139,0.496,4.161,1.371,5.962H265.807z"/>
<g>
	<path style="fill:#02AF8E;" d="M255.646,239.017c-0.15-3.284-1.476-6.523-3.982-9.031c-3.959-3.96-9.747-4.978-14.648-3.058
		c-1.537,3.927-1.186,8.42,1.051,12.089H255.646z"/>
	<path style="fill:#02AF8E;" d="M279.313,239.017c2.236-3.669,2.588-8.162,1.051-12.089c-4.901-1.92-10.689-0.903-14.648,3.058
		c-2.508,2.508-3.832,5.748-3.982,9.031H279.313z"/>
</g>
<path style="fill:#0F9390;" d="M316.578,239.017c0.877-1.802,1.373-3.824,1.373-5.962c0-5.601-3.373-10.412-8.196-12.52
	c-4.823,2.108-8.196,6.919-8.196,12.52c0,2.139,0.496,4.161,1.372,5.962H316.578z"/>
<g>
	<path style="fill:#02AF8E;" d="M306.419,239.017c-0.15-3.284-1.476-6.523-3.983-9.031c-3.96-3.96-9.746-4.978-14.648-3.058
		c-1.537,3.927-1.185,8.42,1.05,12.089H306.419z"/>
	<path style="fill:#02AF8E;" d="M330.086,239.017c2.235-3.669,2.587-8.162,1.049-12.089c-4.901-1.92-10.689-0.903-14.648,3.058
		c-2.508,2.508-3.832,5.748-3.981,9.031H330.086z"/>
</g>
<path style="fill:#0F9390;" d="M367.352,239.017c0.876-1.802,1.37-3.824,1.37-5.962c0-5.601-3.37-10.412-8.194-12.52
	c-4.824,2.108-8.196,6.919-8.196,12.52c0,2.139,0.495,4.161,1.372,5.962H367.352z"/>
<g>
	<path style="fill:#02AF8E;" d="M357.189,239.017c-0.148-3.284-1.474-6.523-3.982-9.031c-3.96-3.96-9.745-4.978-14.646-3.058
		c-1.539,3.927-1.186,8.42,1.05,12.089H357.189z"/>
	<path style="fill:#02AF8E;" d="M380.855,239.017c2.237-3.669,2.589-8.162,1.05-12.089c-4.901-1.92-10.688-0.903-14.647,3.058
		c-2.509,2.508-3.833,5.748-3.981,9.031H380.855z"/>
</g>
<rect x="145.818" y="280.33" style="fill:#C3DDF4;" width="225.75" height="25.958"/>
<rect x="145.818" y="280.33" style="fill:#94C2ED;" width="20.435" height="25.958"/>
<path style="fill:#0F9390;" d="M164.264,306.285c0.876-1.802,1.372-3.824,1.372-5.962c0-5.601-3.373-10.412-8.196-12.52
	c-4.824,2.108-8.195,6.919-8.195,12.52c0,2.139,0.495,4.161,1.37,5.962H164.264z"/>
<g>
	<path style="fill:#02AF8E;" d="M154.102,306.285c-0.15-3.284-1.474-6.523-3.982-9.032c-3.959-3.96-9.747-4.977-14.646-3.057
		c-1.539,3.927-1.188,8.42,1.05,12.089L154.102,306.285L154.102,306.285z"/>
	<path style="fill:#02AF8E;" d="M177.768,306.285c2.237-3.669,2.589-8.162,1.05-12.089c-4.9-1.92-10.687-0.903-14.646,3.057
		c-2.509,2.508-3.833,5.748-3.982,9.032L177.768,306.285L177.768,306.285z"/>
</g>
<path style="fill:#0F9390;" d="M215.036,306.285c0.875-1.802,1.37-3.824,1.37-5.962c0-5.601-3.371-10.412-8.195-12.52
	c-4.823,2.108-8.195,6.919-8.195,12.52c0,2.139,0.494,4.161,1.371,5.962H215.036z"/>
<g>
	<path style="fill:#02AF8E;" d="M204.874,306.285c-0.15-3.284-1.474-6.523-3.982-9.032c-3.961-3.96-9.747-4.977-14.648-3.057
		c-1.537,3.927-1.187,8.42,1.051,12.089L204.874,306.285L204.874,306.285z"/>
	<path style="fill:#02AF8E;" d="M228.542,306.285c2.236-3.669,2.586-8.162,1.049-12.089c-4.901-1.92-10.688-0.903-14.648,3.057
		c-2.507,2.508-3.832,5.748-3.981,9.032L228.542,306.285L228.542,306.285z"/>
</g>
<path style="fill:#0F9390;" d="M265.807,306.285c0.876-1.802,1.372-3.824,1.372-5.962c0-5.601-3.373-10.412-8.196-12.52
	c-4.824,2.108-8.196,6.919-8.196,12.52c0,2.139,0.496,4.161,1.371,5.962H265.807z"/>
<g>
	<path style="fill:#02AF8E;" d="M255.646,306.285c-0.15-3.284-1.476-6.523-3.982-9.032c-3.959-3.96-9.747-4.977-14.648-3.057
		c-1.537,3.927-1.186,8.42,1.051,12.089L255.646,306.285L255.646,306.285z"/>
	<path style="fill:#02AF8E;" d="M279.313,306.285c2.236-3.669,2.588-8.162,1.051-12.089c-4.901-1.92-10.689-0.903-14.648,3.057
		c-2.508,2.508-3.832,5.748-3.982,9.032L279.313,306.285L279.313,306.285z"/>
</g>
<path style="fill:#0F9390;" d="M316.578,306.285c0.877-1.802,1.373-3.824,1.373-5.962c0-5.601-3.373-10.412-8.196-12.52
	c-4.823,2.108-8.196,6.919-8.196,12.52c0,2.139,0.496,4.161,1.372,5.962H316.578z"/>
<g>
	<path style="fill:#02AF8E;" d="M306.419,306.285c-0.15-3.284-1.476-6.523-3.983-9.032c-3.96-3.96-9.746-4.977-14.648-3.057
		c-1.537,3.927-1.185,8.42,1.05,12.089L306.419,306.285L306.419,306.285z"/>
	<path style="fill:#02AF8E;" d="M330.086,306.285c2.235-3.669,2.587-8.162,1.049-12.089c-4.901-1.92-10.689-0.903-14.648,3.057
		c-2.508,2.508-3.832,5.748-3.981,9.032L330.086,306.285L330.086,306.285z"/>
</g>
<path style="fill:#0F9390;" d="M367.352,306.285c0.876-1.802,1.37-3.824,1.37-5.962c0-5.601-3.37-10.412-8.194-12.52
	c-4.824,2.108-8.196,6.919-8.196,12.52c0,2.139,0.495,4.161,1.372,5.962H367.352z"/>
<g>
	<path style="fill:#02AF8E;" d="M357.189,306.285c-0.148-3.284-1.474-6.523-3.982-9.032c-3.96-3.96-9.745-4.977-14.646-3.057
		c-1.539,3.927-1.186,8.42,1.05,12.089L357.189,306.285L357.189,306.285z"/>
	<path style="fill:#02AF8E;" d="M380.855,306.285c2.237-3.669,2.589-8.162,1.05-12.089c-4.901-1.92-10.688-0.903-14.647,3.057
		c-2.509,2.508-3.833,5.748-3.981,9.032L380.855,306.285L380.855,306.285z"/>
</g>
<rect x="145.818" y="347.33" style="fill:#C3DDF4;" width="225.75" height="25.986"/>
<rect x="145.818" y="347.33" style="fill:#94C2ED;" width="20.435" height="25.986"/>
<path style="fill:#0F9390;" d="M164.264,373.312c0.876-1.801,1.372-3.823,1.372-5.962c0-5.6-3.373-10.411-8.196-12.52
	c-4.824,2.108-8.195,6.919-8.195,12.52c0,2.139,0.495,4.161,1.37,5.962H164.264z"/>
<g>
	<path style="fill:#02AF8E;" d="M154.102,373.312c-0.15-3.283-1.474-6.523-3.982-9.031c-3.959-3.96-9.747-4.978-14.646-3.058
		c-1.539,3.927-1.188,8.421,1.05,12.089L154.102,373.312L154.102,373.312z"/>
	<path style="fill:#02AF8E;" d="M177.768,373.312c2.237-3.668,2.589-8.162,1.05-12.089c-4.9-1.92-10.687-0.903-14.646,3.058
		c-2.509,2.508-3.833,5.748-3.982,9.031L177.768,373.312L177.768,373.312z"/>
</g>
<path style="fill:#0F9390;" d="M215.036,373.312c0.875-1.801,1.37-3.823,1.37-5.962c0-5.6-3.371-10.411-8.195-12.52
	c-4.823,2.108-8.195,6.919-8.195,12.52c0,2.139,0.494,4.161,1.371,5.962H215.036z"/>
<g>
	<path style="fill:#02AF8E;" d="M204.874,373.312c-0.15-3.283-1.474-6.523-3.982-9.031c-3.961-3.96-9.747-4.978-14.648-3.058
		c-1.537,3.927-1.187,8.421,1.051,12.089L204.874,373.312L204.874,373.312z"/>
	<path style="fill:#02AF8E;" d="M228.542,373.312c2.236-3.668,2.586-8.162,1.049-12.089c-4.901-1.92-10.688-0.903-14.648,3.058
		c-2.507,2.508-3.832,5.748-3.981,9.031L228.542,373.312L228.542,373.312z"/>
</g>
<path style="fill:#0F9390;" d="M265.807,373.312c0.876-1.801,1.372-3.823,1.372-5.962c0-5.6-3.373-10.411-8.196-12.52
	c-4.824,2.108-8.196,6.919-8.196,12.52c0,2.139,0.496,4.161,1.371,5.962H265.807z"/>
<g>
	<path style="fill:#02AF8E;" d="M255.646,373.312c-0.15-3.283-1.476-6.523-3.982-9.031c-3.959-3.96-9.747-4.978-14.648-3.058
		c-1.537,3.927-1.186,8.421,1.051,12.089L255.646,373.312L255.646,373.312z"/>
	<path style="fill:#02AF8E;" d="M279.313,373.312c2.236-3.668,2.588-8.162,1.051-12.089c-4.901-1.92-10.689-0.903-14.648,3.058
		c-2.508,2.508-3.832,5.748-3.982,9.031L279.313,373.312L279.313,373.312z"/>
</g>
<path style="fill:#0F9390;" d="M316.578,373.312c0.877-1.801,1.373-3.823,1.373-5.962c0-5.6-3.373-10.411-8.196-12.52
	c-4.823,2.108-8.196,6.919-8.196,12.52c0,2.139,0.496,4.161,1.372,5.962H316.578z"/>
<g>
	<path style="fill:#02AF8E;" d="M306.419,373.312c-0.15-3.283-1.476-6.523-3.983-9.031c-3.96-3.96-9.746-4.978-14.648-3.058
		c-1.537,3.927-1.185,8.421,1.05,12.089L306.419,373.312L306.419,373.312z"/>
	<path style="fill:#02AF8E;" d="M330.086,373.312c2.235-3.668,2.587-8.162,1.049-12.089c-4.901-1.92-10.689-0.903-14.648,3.058
		c-2.508,2.508-3.832,5.748-3.981,9.031L330.086,373.312L330.086,373.312z"/>
</g>
<path style="fill:#0F9390;" d="M367.352,373.312c0.876-1.801,1.37-3.823,1.37-5.962c0-5.6-3.37-10.411-8.194-12.52
	c-4.824,2.108-8.196,6.919-8.196,12.52c0,2.139,0.495,4.161,1.372,5.962H367.352z"/>
<g>
	<path style="fill:#02AF8E;" d="M357.189,373.312c-0.148-3.283-1.474-6.523-3.982-9.031c-3.96-3.96-9.745-4.978-14.646-3.058
		c-1.539,3.927-1.186,8.421,1.05,12.089L357.189,373.312L357.189,373.312z"/>
	<path style="fill:#02AF8E;" d="M380.855,373.312c2.237-3.668,2.589-8.162,1.05-12.089c-4.901-1.92-10.688-0.903-14.647,3.058
		c-2.509,2.508-3.833,5.748-3.981,9.031L380.855,373.312L380.855,373.312z"/>
</g>
<rect x="145.818" y="414.33" style="fill:#C3DDF4;" width="225.75" height="25.674"/>
<rect x="145.818" y="414.33" style="fill:#94C2ED;" width="20.435" height="25.674"/>
<path style="fill:#60D882;" d="M217.508,414.326l5.702,12.139c0.701,1.494,2.625,2.715,4.275,2.715h62.408
	c1.65,0,3.574-1.222,4.275-2.715l5.701-12.139H217.508z"/>
<path style="fill:#37C47A;" d="M243.699,426.464l-5.702-12.138h-20.489l5.702,12.139c0.701,1.494,2.625,2.715,4.275,2.715h20.489
	C246.324,429.18,244.4,427.958,243.699,426.464z"/>
<g>
	<path style="fill:#EEF6FF;" d="M388.664,144.96c0,1.65-1.351,3-3,3H131.715c-1.65,0-3-1.35-3-3v-37.326c0-1.65,1.35-3,3-3h253.949
		c1.649,0,3,1.35,3,3V144.96z"/>
	<path style="fill:#EEF6FF;" d="M388.664,211.807c0,1.65-1.351,3-3,3H131.715c-1.65,0-3-1.35-3-3v-37.326c0-1.65,1.35-3,3-3h253.949
		c1.649,0,3,1.35,3,3V211.807z"/>
</g>
<path style="fill:#D9EAFC;" d="M149.048,211.807v-37.326c0-1.65,1.35-3,3-3h-20.333c-1.65,0-3,1.35-3,3v37.326c0,1.65,1.35,3,3,3
	h20.333C150.397,214.807,149.048,213.457,149.048,211.807z"/>
<path style="fill:#EEF6FF;" d="M388.664,278.653c0,1.65-1.351,3-3,3H131.715c-1.65,0-3-1.35-3-3v-37.326c0-1.65,1.35-3,3-3h253.949
	c1.649,0,3,1.35,3,3V278.653z"/>
<path style="fill:#D9EAFC;" d="M149.048,278.653v-37.326c0-1.65,1.35-3,3-3h-20.333c-1.65,0-3,1.35-3,3v37.326c0,1.65,1.35,3,3,3
	h20.333C150.397,281.653,149.048,280.303,149.048,278.653z"/>
<path style="fill:#EEF6FF;" d="M388.664,345.499c0,1.65-1.351,3-3,3H131.715c-1.65,0-3-1.35-3-3v-37.326c0-1.65,1.35-3,3-3h253.949
	c1.649,0,3,1.35,3,3V345.499z"/>
<path style="fill:#D9EAFC;" d="M149.048,345.499v-37.326c0-1.65,1.35-3,3-3h-20.333c-1.65,0-3,1.35-3,3v37.326c0,1.65,1.35,3,3,3
	h20.333C150.397,348.499,149.048,347.148,149.048,345.499z"/>
<path style="fill:#EEF6FF;" d="M388.664,412.345c0,1.65-1.351,3-3,3H131.715c-1.65,0-3-1.35-3-3v-37.326c0-1.65,1.35-3,3-3h253.949
	c1.649,0,3,1.35,3,3V412.345z"/>
<path style="fill:#D9EAFC;" d="M149.048,412.345v-37.326c0-1.65,1.35-3,3-3h-20.333c-1.65,0-3,1.35-3,3v37.326c0,1.65,1.35,3,3,3
	h20.333C150.397,415.345,149.048,413.995,149.048,412.345z"/>
<g>
	<circle style="fill:#60D882;" cx="147.188" cy="124.5" r="7.5"/>
	<circle style="fill:#60D882;" cx="172.688" cy="124.5" r="7.5"/>
</g>
<circle style="fill:#FFCA51;" cx="198.188" cy="124.5" r="7.5"/>
<path style="fill:#02AF8E;" d="M79.523,438c44.499,45.644,106.647,74,175.429,74c68.781,0,130.93-28.355,175.429-74H79.523z"/>
<path style="fill:#0F9390;" d="M397.85,466H112.054c40.222,28.94,89.562,46,142.898,46S357.629,494.941,397.85,466z"/>
<g>
	<path style="fill:#9CE2D8;" d="M365.754,0H154.28c-5.823,0-10.588,4.288-10.588,9.528c0,5.241,4.765,9.528,10.588,9.528h52.667
		c5.824,0,10.587,4.288,10.587,9.529s-4.763,9.528-10.587,9.528H80.962c-5.822,0-10.587,4.288-10.587,9.528
		c0,5.242,4.765,9.529,10.587,9.529h237.679c5.823,0,10.587-4.287,10.587-9.529c0-5.24-4.764-9.528-10.587-9.528h-13.232
		c-5.824,0-10.588-4.287-10.588-9.528s4.764-9.529,10.588-9.529h60.345c5.823,0,10.588-4.287,10.588-9.528
		C376.341,4.288,371.577,0,365.754,0z"/>
	<path style="fill:#9CE2D8;" d="M405.154,47.641c0,5.24-4.765,9.529-10.586,9.529h-41.291c-5.822,0-10.587-4.289-10.587-9.529
		s4.765-9.528,10.587-9.528h41.291C400.389,38.113,405.154,42.401,405.154,47.641z"/>
	<path style="fill:#9CE2D8;" d="M116.689,88c0,5.24-4.764,9.529-10.586,9.529h-41.29c-5.822,0-10.587-4.289-10.587-9.529
		c0-5.241,4.765-9.529,10.587-9.529h41.29C111.926,78.471,116.689,82.759,116.689,88z"/>
</g>
<g>
	<circle style="fill:#FFFFFF;" cx="81.187" cy="245.5" r="7.5"/>
	<circle style="fill:#FFFFFF;" cx="426.688" cy="220" r="7.5"/>
	<circle style="fill:#FFFFFF;" cx="453.688" cy="253" r="7.5"/>
	<circle style="fill:#FFFFFF;" cx="421.688" cy="279" r="7.5"/>
	<circle style="fill:#FFFFFF;" cx="59.187" cy="275.5" r="7.5"/>
	<circle style="fill:#FFFFFF;" cx="98.187" cy="301.5" r="7.5"/>
	<circle style="fill:#FFFFFF;" cx="67.687" cy="357" r="7.5"/>
	<path style="fill:#FFFFFF;" d="M96.189,205v-7.999c0-13.255-10.745-24-24-24s-24,10.745-24,24V205H96.189z"/>
</g>
<path style="fill:#EEF6FF;" d="M77.593,173.619c-1.737-0.4-3.544-0.619-5.403-0.619c-13.255,0-24,10.745-24,24v8h10.807v-7.999
	C58.997,185.605,66.942,176.071,77.593,173.619z"/>
<path style="fill:#C3DDF4;" d="M112.189,214c0,5.701-4.622,10.323-10.322,10.323H42.512c-5.7,0-10.322-4.622-10.322-10.323l0,0
	c0-5.701,4.622-10.323,10.322-10.323h59.356C107.567,203.677,112.189,208.299,112.189,214L112.189,214z"/>
<path style="fill:#94C2ED;" d="M52.997,214c0-5.701,4.622-10.323,10.322-10.323H42.512c-5.7,0-10.322,4.622-10.322,10.323
	s4.622,10.323,10.322,10.323H63.32C57.619,224.323,52.997,219.701,52.997,214z"/>
<g>
</g>
<g>
</g>
<g>
</g>
<g>
</g>
<g>
</g>
<g>
</g>
<g>
</g>
<g>
</g>
<g>
</g>
<g>
</g>
<g>
</g>
<g>
</g>
<g>
</g>
<g>
</g>
<g>
</g>
</svg>
