<?xml version="1.0" encoding="iso-8859-1"?>
<!-- Generator: Adobe Illustrator 19.0.0, SVG Export Plug-In . SVG Version: 6.00 Build 0)  -->
<svg version="1.1" id="Capa_1" xmlns="http://www.w3.org/2000/svg" xmlns:xlink="http://www.w3.org/1999/xlink" x="0px" y="0px"
	 viewBox="0 0 512 512" style="enable-background:new 0 0 512 512;" xml:space="preserve">
<circle style="fill:#D9ED69;" cx="258.929" cy="267" r="245"/>
<g>
	<path style="fill:#2E4C89;" d="M498.032,430.948l-75.285-278.004c-5.087-18.781-23.595-32.943-43.052-32.943h-0.67v62.78
		l70.645,260.864c0.361,1.336,1.571,2.216,2.894,2.216c0.251,0,0.506-0.032,0.761-0.098l42.571-11.128
		c0.773-0.202,1.436-0.706,1.837-1.398C498.133,432.544,498.241,431.72,498.032,430.948z"/>
	<path style="fill:#2E4C89;" d="M138.837,120.001h-0.669c-19.457,0-37.966,14.163-43.052,32.944L19.83,430.948
		c-0.21,0.772-0.102,1.596,0.3,2.288c0.401,0.692,1.063,1.196,1.837,1.398l42.571,11.128c0.254,0.066,0.509,0.099,0.761,0.098
		c1.322,0,2.532-0.881,2.894-2.216l70.643-260.864V120.001z"/>
</g>
<g>
	<path style="fill:#1A2B63;" d="M79.562,277.523L82.7,266.98c3.536-11.889-0.78-24.242-9.932-31.513l-17.009,62.806
		C66.68,296.591,76.202,288.818,79.562,277.523z"/>
	<path style="fill:#1A2B63;" d="M444.921,234.827c-9.718,7.171-14.4,19.909-10.758,32.153l3.137,10.543
		c3.466,11.651,13.489,19.557,24.842,20.892L444.921,234.827z"/>
	<polygon style="fill:#1A2B63;" points="436.665,204.34 384.864,204.34 388.927,219.34 440.728,219.34 	"/>
	<polygon style="fill:#1A2B63;" points="467.537,318.34 415.736,318.34 419.799,333.34 471.6,333.34 	"/>
	<polygon style="fill:#1A2B63;" points="46.263,333.34 98.063,333.34 102.125,318.34 50.324,318.34 	"/>
	<polygon style="fill:#1A2B63;" points="77.135,219.34 128.936,219.34 132.998,204.34 81.196,204.34 	"/>
</g>
<g>
	<circle style="fill:#445EA0;" cx="462.929" cy="354.84" r="8.03"/>
	<circle style="fill:#445EA0;" cx="469.929" cy="378.84" r="8.03"/>
	<circle style="fill:#445EA0;" cx="476.929" cy="402.84" r="8.03"/>
	<circle style="fill:#445EA0;" cx="54.958" cy="354.84" r="8.03"/>
	<circle style="fill:#445EA0;" cx="47.958" cy="378.84" r="8.03"/>
	<circle style="fill:#445EA0;" cx="40.958" cy="402.84" r="8.03"/>
</g>
<path style="fill:#2E4C89;" d="M314.931,122V64c0-2.75-2.25-5-5-5h-102c-2.75,0-5,2.25-5,5v58H314.931z"/>
<path style="fill:#293D7C;" d="M227.999,59h-20.068c-2.75,0-5,2.25-5,5v58h20.068V64C222.999,61.25,225.249,59,227.999,59z"/>
<rect x="251.429" y="59" style="fill:#1A2B63;" width="15" height="63"/>
<path style="fill:#60D882;" d="M110.52,27.336c1.356,1.357,2.196,3.232,2.197,5.303c0,4.142-3.358,7.5-7.5,7.5
	c-46.398,0-84.146,37.748-84.146,84.146c0,4.142-3.358,7.499-7.5,7.499c-4.143,0-7.5-3.358-7.501-7.5
	c0.001-54.669,44.478-99.146,99.146-99.146C107.288,25.14,109.163,25.979,110.52,27.336z"/>
<path style="fill:#37C47A;" d="M112.614,55.765c1.357,1.357,2.196,3.232,2.196,5.303c0,4.142-3.357,7.5-7.5,7.5
	c-31.877,0-57.81,25.934-57.81,57.811c0,4.143-3.357,7.5-7.5,7.5s-7.5-3.358-7.5-7.5c0-40.147,32.663-72.811,72.811-72.811
	C109.381,53.568,111.257,54.407,112.614,55.765z"/>
<path style="fill:#02AF8E;" d="M114.735,84.221c1.357,1.357,2.196,3.232,2.195,5.303c0.001,4.143-3.357,7.501-7.5,7.5
	c-8.406,0-16.311,3.274-22.256,9.219c-5.945,5.945-9.219,13.849-9.22,22.256c0.001,4.143-3.357,7.501-7.5,7.5
	c-4.141,0.001-7.5-3.358-7.499-7.499c-0.001-12.415,4.834-24.086,13.611-32.864c8.779-8.779,20.45-13.613,32.864-13.612
	C111.503,82.024,113.378,82.864,114.735,84.221z"/>
<path style="fill:#445EA0;" d="M357.828,287.435l22.197-11.391V120.001H137.837v156.043l22.198,11.391
	c4.893,2.511,8.896,9.065,8.896,14.565v124c0,5.5-4.5,10-10,10h-21.095v44.019C173.555,500.367,214.883,512,258.931,512
	c44.049,0,85.377-11.633,121.095-31.981V436h-21.095c-5.5,0-10-4.5-10-10V302C348.931,296.5,352.935,289.945,357.828,287.435z"/>
<g>
	<path style="fill:#2E4C89;" d="M357.828,287.435l22.197-11.391v-15l0,0c-2.344,0-4.694,0.549-6.848,1.655l-22.196,11.391
		c-9.88,5.069-17.05,16.807-17.05,27.911v124c0,13.785,11.215,25,25,25h21.095v-15h-21.095c-5.5,0-10-4.5-10-10V302
		C348.931,296.5,352.935,289.945,357.828,287.435z"/>
	<path style="fill:#2E4C89;" d="M166.88,274.089l-22.196-11.391c-2.154-1.105-4.504-1.655-6.848-1.655h-0.001v15l22.198,11.391
		c4.893,2.511,8.896,9.065,8.896,14.565v124c0,5.5-4.5,10-10,10h-21.095v15h21.095c13.785,0,25-11.215,25-25V302
		C183.932,290.896,176.76,279.158,166.88,274.089z"/>
	<path style="fill:#2E4C89;" d="M265.431,162.446v96.107c23.71-3.178,42-23.474,42-48.054S289.141,165.624,265.431,162.446z"/>
	<path style="fill:#2E4C89;" d="M252.432,162.446c-23.71,3.178-42,23.474-42,48.054s18.29,44.876,42,48.054V162.446z"/>
</g>
<g>
	<path style="fill:#C3DDF4;" d="M265.431,183.975v53.05c11.943-2.917,20.81-13.683,20.81-26.525S277.374,186.892,265.431,183.975z"
		/>
	<path style="fill:#C3DDF4;" d="M252.432,183.975c-11.943,2.917-20.809,13.683-20.809,26.525s8.867,23.607,20.809,26.525V183.975z"
		/>
</g>
<g>
	<path style="fill:#2E4C89;" d="M252.432,303.664h-33.356c-11.138,0-20.168,9.029-20.168,20.168S207.938,344,219.076,344h33.356
		V303.664z"/>
	<path style="fill:#2E4C89;" d="M298.787,303.664H265.43V344h33.357c11.139,0,20.168-9.029,20.168-20.168
		C318.956,312.693,309.926,303.664,298.787,303.664z"/>
	<path style="fill:#2E4C89;" d="M252.432,365.664h-33.356c-11.138,0-20.168,9.029-20.168,20.168S207.938,406,219.076,406h33.356
		V365.664z"/>
	<path style="fill:#2E4C89;" d="M298.787,365.664H265.43V406h33.357c11.139,0,20.168-9.029,20.168-20.168
		C318.956,374.693,309.926,365.664,298.787,365.664z"/>
	<path style="fill:#2E4C89;" d="M252.432,477.912H195.52c-12.039,0-22.524,6.634-28.014,16.443
		c26.351,10.609,54.967,16.773,84.926,17.555V477.912z"/>
	<path style="fill:#2E4C89;" d="M265.431,511.91c29.96-0.782,58.576-6.946,84.927-17.555c-5.49-9.809-15.975-16.443-28.015-16.443
		h-56.912V511.91z"/>
</g>
<path style="fill:#293D7C;" d="M251.432,511.882c2.491,0.075,4.991,0.118,7.5,0.118c2.51,0,5.009-0.043,7.5-0.118V120.001h-15
	V511.882z"/>
<g>
	<path style="fill:#C3DDF4;" d="M160.035,287.435l-22.198-11.391V436h21.095c5.5,0,10-4.5,10-10V302
		C168.932,296.5,164.928,289.945,160.035,287.435z"/>
	<path style="fill:#C3DDF4;" d="M357.828,287.435l22.197-11.391V436H358.93c-5.5,0-10-4.5-10-10V302
		C348.931,296.5,352.935,289.945,357.828,287.435z"/>
</g>
<g>
	<path style="fill:#2E4C89;" d="M193.822,228.826c0,2.688-1.859,3.713-4.133,2.28l-28.554-18.001c-2.273-1.433-2.273-3.778,0-5.211
		l28.554-18.001c2.273-1.433,4.133-0.407,4.133,2.28V228.826z"/>
	<path style="fill:#2E4C89;" d="M324.039,192.174c0-2.688,1.859-3.713,4.133-2.28l28.554,18.001c2.273,1.433,2.273,3.778,0,5.211
		l-28.554,18.001c-2.273,1.433-4.133,0.407-4.133-2.28L324.039,192.174L324.039,192.174z"/>
</g>
<g>
	<path style="fill:#60D882;" d="M301.931,141.764c0,1.65-1.35,3-3,3h-9c-1.65,0-3-1.35-3-3v-9c0-1.65,1.35-3,3-3h9
		c1.65,0,3,1.35,3,3V141.764z"/>
	<path style="fill:#60D882;" d="M323.431,141.764c0,1.65-1.35,3-3,3h-9c-1.65,0-3-1.35-3-3v-9c0-1.65,1.35-3,3-3h9
		c1.65,0,3,1.35,3,3V141.764z"/>
</g>
<path style="fill:#FFCA51;" d="M344.931,141.764c0,1.65-1.35,3-3,3h-9c-1.65,0-3-1.35-3-3v-9c0-1.65,1.35-3,3-3h9c1.65,0,3,1.35,3,3
	V141.764z"/>
<path style="fill:#EF9614;" d="M366.431,141.764c0,1.65-1.35,3-3,3h-9c-1.65,0-3-1.35-3-3v-9c0-1.65,1.35-3,3-3h9c1.65,0,3,1.35,3,3
	V141.764z"/>
<circle style="fill:#02AF8E;" cx="155.96" cy="137.26" r="8.03"/>
<g>
	<circle style="fill:#C3DDF4;" cx="179.899" cy="137.26" r="8.03"/>
	<circle style="fill:#C3DDF4;" cx="203.899" cy="137.26" r="8.03"/>
</g>
<path style="fill:#159E97;" d="M505.928,5c0-2.75-2.25-5-5-5H355.931c-2.75,0-5,2.25-5,5v88.237c0,2.75,2.25,5,5,5h44.337
	c2.75,0,6.329,1.816,7.953,4.035l17.256,23.584c1.624,2.219,4.281,2.219,5.905,0l17.257-23.584c1.624-2.219,5.203-4.035,7.953-4.035
	h44.337c2.75,0,5-2.25,5-5V5H505.928z"/>
<path style="fill:#0F9390;" d="M360.999,93.237V5c0-2.75,2.25-5,5-5h-10.068c-2.75,0-5,2.25-5,5v88.237c0,2.75,2.25,5,5,5h10.068
	C363.249,98.237,360.999,95.987,360.999,93.237z"/>
<g>
	<path style="fill:#FFCA51;" d="M467.179,75.59c0,1.65,1.35,3,3,3h12.556c1.65,0,3-1.35,3-3V45.57c0-1.65-1.35-3-3-3h-12.556
		c-1.65,0-3,1.35-3,3V75.59z"/>
	<path style="fill:#FFCA51;" d="M443.165,75.59c0,1.65,1.35,3,3,3h12.556c1.65,0,3-1.35,3-3V33.563c0-1.65-1.35-3-3-3h-12.556
		c-1.65,0-3,1.35-3,3V75.59z"/>
	<path style="fill:#FFCA51;" d="M419.151,75.59c0,1.65,1.35,3,3,3h12.556c1.65,0,3-1.35,3-3V23.739c0-1.65-1.35-3-3-3h-12.556
		c-1.65,0-3,1.35-3,3V75.59z"/>
	<path style="fill:#FFCA51;" d="M395.138,75.59c0,1.65,1.35,3,3,3h12.556c1.65,0,3-1.35,3-3V31.38c0-1.65-1.35-3-3-3h-12.556
		c-1.65,0-3,1.35-3,3V75.59z"/>
	<path style="fill:#FFCA51;" d="M371.124,75.59c0,1.65,1.35,3,3,3h12.556c1.65,0,3-1.35,3-3V63.034c0-1.65-1.35-3-3-3h-12.556
		c-1.65,0-3,1.35-3,3V75.59z"/>
</g>
<path style="fill:#60D882;" d="M137.837,361v75h21.095c5.5,0,10-4.5,10-10v-65H137.837z"/>
<path style="fill:#EF9614;" d="M348.931,361v65c0,5.5,4.5,10,10,10h21.095v-75H348.931z"/>
<g>
</g>
<g>
</g>
<g>
</g>
<g>
</g>
<g>
</g>
<g>
</g>
<g>
</g>
<g>
</g>
<g>
</g>
<g>
</g>
<g>
</g>
<g>
</g>
<g>
</g>
<g>
</g>
<g>
</g>
</svg>
