<?xml version="1.0" encoding="iso-8859-1"?>
<!-- Generator: Adobe Illustrator 19.0.0, SVG Export Plug-In . SVG Version: 6.00 Build 0)  -->
<svg version="1.1" id="Capa_1" xmlns="http://www.w3.org/2000/svg" xmlns:xlink="http://www.w3.org/1999/xlink" x="0px" y="0px"
	 viewBox="0 0 512 512" style="enable-background:new 0 0 512 512;" xml:space="preserve">
<circle style="fill:#293D7C;" cx="267" cy="267" r="245"/>
<path style="fill:#5DC1D8;" d="M480,175.915h-29v117.246c11.902,4.483,23.308,10.278,34,17.31V180.915
	C485,178.165,482.75,175.915,480,175.915z"/>
<g>
	<path style="fill:#FFFFFF;" d="M472.5,189.5H451v15h21.5c1.65,0,3-1.35,3-3v-9C475.5,190.85,474.15,189.5,472.5,189.5z"/>
	<path style="fill:#FFFFFF;" d="M472.5,213H451v15h21.5c1.65,0,3-1.35,3-3v-9C475.5,214.35,474.15,213,472.5,213z"/>
	<path style="fill:#FFFFFF;" d="M472.5,236.5H451v15h21.5c1.65,0,3-1.35,3-3v-9C475.5,237.85,474.15,236.5,472.5,236.5z"/>
	<path style="fill:#FFFFFF;" d="M472.5,260H451v15h21.5c1.65,0,3-1.35,3-3v-9C475.5,261.35,474.15,260,472.5,260z"/>
	<path style="fill:#FFFFFF;" d="M472.5,283.5H451v9.667c4.276,1.611,8.489,3.387,12.627,5.333h8.873c1.65,0,3-1.35,3-3v-9
		C475.5,284.85,474.15,283.5,472.5,283.5z"/>
</g>
<path style="fill:#0F9390;" d="M447.143,136.185H416v147.838c12.395,1.884,24.512,5.094,36.143,9.571v-152.41
	C452.143,138.435,449.893,136.185,447.143,136.185z"/>
<g>
	<path style="fill:#C3DDF4;" d="M361.143,94.915h18.809c-0.055-0.38-0.092-0.765-0.092-1.158c0-4.979,4.526-9.054,10.06-9.054
		h57.336c5.532,0,10.059-4.073,10.059-9.052s-4.527-9.053-10.059-9.053h-86.112L361.143,94.915L361.143,94.915z"/>
	<path style="fill:#C3DDF4;" d="M317.543,66.598h-71.215c-5.532,0-10.059,4.074-10.059,9.053s4.527,9.052,10.059,9.052h50.041
		c5.533,0,10.059,4.074,10.059,9.054s-4.526,9.053-10.059,9.053H176.666c-5.532,0-10.059,4.074-10.059,9.053
		c0,4.98,4.527,9.054,10.059,9.054h140.877V66.598z"/>
	<path style="fill:#C3DDF4;" d="M489,111.863c0,4.979-4.527,9.054-10.059,9.054H439.71c-5.532,0-10.059-4.075-10.059-9.054
		c0-4.979,4.526-9.053,10.059-9.053h39.231C484.473,102.81,489,106.884,489,111.863z"/>
	<path style="fill:#C3DDF4;" d="M218.11,155.497c0,4.979-4.527,9.054-10.059,9.054H168.82c-5.532,0-10.058-4.075-10.058-9.054
		s4.526-9.053,10.058-9.053h39.232C213.583,146.444,218.11,150.518,218.11,155.497z"/>
	<path style="fill:#C3DDF4;" d="M129.349,188.053c0,4.979-4.527,9.053-10.059,9.053H80.058c-5.532,0-10.058-4.074-10.058-9.053
		c0-4.979,4.526-9.053,10.058-9.053h39.231C124.822,179,129.349,183.074,129.349,188.053z"/>
</g>
<path style="fill:#02AF8E;" d="M412.81,93.915H361v62.562l11.047,10.445c3.769,3.563,6.953,10.956,6.953,16.143v99.33
	c3.638-0.23,7.305-0.348,11-0.348c9.374,0,18.671,0.764,27.81,2.25V98.915C417.81,96.165,415.56,93.915,412.81,93.915z"/>
<g>
	<path style="fill:#FFFFFF;" d="M384,108h-9c-1.65,0-3,1.35-3,3v12c0,1.65,1.35,3,3,3h9c1.65,0,3-1.35,3-3v-12
		C387,109.35,385.65,108,384,108z"/>
	<path style="fill:#FFFFFF;" d="M404,108h-9c-1.65,0-3,1.35-3,3v12c0,1.65,1.35,3,3,3h9c1.65,0,3-1.35,3-3v-12
		C407,109.35,405.65,108,404,108z"/>
	<path style="fill:#FFFFFF;" d="M384,137h-9c-1.65,0-3,1.35-3,3v12c0,1.65,1.35,3,3,3h9c1.65,0,3-1.35,3-3v-12
		C387,138.35,385.65,137,384,137z"/>
	<path style="fill:#FFFFFF;" d="M404,137h-9c-1.65,0-3,1.35-3,3v12c0,1.65,1.35,3,3,3h9c1.65,0,3-1.35,3-3v-12
		C407,138.35,405.65,137,404,137z"/>
	<path style="fill:#FFFFFF;" d="M384,166h-9c-1.05,0-1.975,0.549-2.511,1.372c3.571,3.704,6.511,10.711,6.511,15.693V184h5
		c1.65,0,3-1.35,3-3v-12C387,167.35,385.65,166,384,166z"/>
	<path style="fill:#FFFFFF;" d="M404,166h-9c-1.65,0-3,1.35-3,3v12c0,1.65,1.35,3,3,3h9c1.65,0,3-1.35,3-3v-12
		C407,167.35,405.65,166,404,166z"/>
	<path style="fill:#FFFFFF;" d="M384,195h-5v18h5c1.65,0,3-1.35,3-3v-12C387,196.35,385.65,195,384,195z"/>
	<path style="fill:#FFFFFF;" d="M404,195h-9c-1.65,0-3,1.35-3,3v12c0,1.65,1.35,3,3,3h9c1.65,0,3-1.35,3-3v-12
		C407,196.35,405.65,195,404,195z"/>
	<path style="fill:#FFFFFF;" d="M384,224h-5v18h5c1.65,0,3-1.35,3-3v-12C387,225.35,385.65,224,384,224z"/>
	<path style="fill:#FFFFFF;" d="M404,224h-9c-1.65,0-3,1.35-3,3v12c0,1.65,1.35,3,3,3h9c1.65,0,3-1.35,3-3v-12
		C407,225.35,405.65,224,404,224z"/>
	<path style="fill:#FFFFFF;" d="M384,253h-5v18h5c1.65,0,3-1.35,3-3v-12C387,254.35,385.65,253,384,253z"/>
	<path style="fill:#FFFFFF;" d="M404,253h-9c-1.65,0-3,1.35-3,3v12c0,1.65,1.35,3,3,3h9c1.65,0,3-1.35,3-3v-12
		C407,254.35,405.65,253,404,253z"/>
</g>
<path style="fill:#5DC1D8;" d="M330.428,135.251c0-0.997,0.156-4.251,2.17-4.251c0.939,0,2.15,0.656,3.41,1.847l26.135,24.71V19.839
	c0-2.75-1.59-3.408-3.533-1.462l-38.535,38.598c-1.943,1.946-3.533,5.789-3.533,8.539v76.206c0,2.75-1.59,6.592-3.533,8.539
	l-22.478,22.515c-1.943,1.946-3.533,5.789-3.533,8.539v134.826c13.166-9.788,27.773-17.734,43.428-23.493V135.251H330.428z"/>
<path style="fill:#2DA1DC;" d="M297.857,181.313c0-2.75,1.59-6.592,3.533-8.539l22.478-22.515c1.943-1.946,3.533-5.789,3.533-8.539
	V49.639l-7.324,7.336c-1.943,1.946-3.533,5.789-3.533,8.539v76.206c0,2.75-1.59,6.592-3.533,8.539l-22.478,22.515
	c-1.943,1.946-3.533,5.789-3.533,8.539v134.826c3.516-2.614,7.143-5.086,10.857-7.431V181.313z"/>
<g>
	<path style="fill:#FFD782;" d="M317,198c0,1.65-1.35,3-3,3h-9c-1.65,0-3-1.35-3-3v-12c0-1.65,1.35-3,3-3h9c1.65,0,3,1.35,3,3V198z"
		/>
	<path style="fill:#FFD782;" d="M317,225c0,1.65-1.35,3-3,3h-9c-1.65,0-3-1.35-3-3v-12c0-1.65,1.35-3,3-3h9c1.65,0,3,1.35,3,3V225z"
		/>
	<path style="fill:#FFD782;" d="M317,252c0,1.65-1.35,3-3,3h-9c-1.65,0-3-1.35-3-3v-12c0-1.65,1.35-3,3-3h9c1.65,0,3,1.35,3,3V252z"
		/>
	<path style="fill:#FFD782;" d="M317,279c0,1.65-1.35,3-3,3h-9c-1.65,0-3-1.35-3-3v-12c0-1.65,1.35-3,3-3h9c1.65,0,3,1.35,3,3V279z"
		/>
	<path style="fill:#FFD782;" d="M441,165c0,1.65-1.35,3-3,3h-9c-1.65,0-3-1.35-3-3v-12c0-1.65,1.35-3,3-3h9c1.65,0,3,1.35,3,3V165z"
		/>
	<path style="fill:#FFD782;" d="M441,192c0,1.65-1.35,3-3,3h-9c-1.65,0-3-1.35-3-3v-12c0-1.65,1.35-3,3-3h9c1.65,0,3,1.35,3,3V192z"
		/>
	<path style="fill:#FFD782;" d="M441,219c0,1.65-1.35,3-3,3h-9c-1.65,0-3-1.35-3-3v-12c0-1.65,1.35-3,3-3h9c1.65,0,3,1.35,3,3V219z"
		/>
	<path style="fill:#FFD782;" d="M441,246c0,1.65-1.35,3-3,3h-9c-1.65,0-3-1.35-3-3v-12c0-1.65,1.35-3,3-3h9c1.65,0,3,1.35,3,3V246z"
		/>
	<path style="fill:#FFD782;" d="M441,274c0,1.65-1.35,3-3,3h-9c-1.65,0-3-1.35-3-3v-12c0-1.65,1.35-3,3-3h9c1.65,0,3,1.35,3,3V274z"
		/>
	<path style="fill:#FFD782;" d="M354,85c0,1.65-1.35,3-3,3h-9c-1.65,0-3-1.35-3-3V73c0-1.65,1.35-3,3-3h9c1.65,0,3,1.35,3,3V85z"/>
	<path style="fill:#FFD782;" d="M354,112c0,1.65-1.35,3-3,3h-9c-1.65,0-3-1.35-3-3v-12c0-1.65,1.35-3,3-3h9c1.65,0,3,1.35,3,3V112z"
		/>
	<path style="fill:#FFD782;" d="M345.688,142H351c1.65,0,3-1.35,3-3v-12c0-1.65-1.35-3-3-3h-9c-1.65,0-3,1.35-3,3v8.676L345.688,142
		z"/>
</g>
<path style="fill:#159E97;" d="M380,282.344v-99.278c0-5.5-3.27-13.092-7.266-16.87l-36.039-34.075
	c-3.997-3.778-7.267-2.37-7.267,3.13V293C345.317,287.042,362.306,283.357,380,282.344z"/>
<path style="fill:#0F9390;" d="M340,135.251c0-0.002,0-0.003,0-0.005l-3.305-3.125c-3.997-3.778-7.267-2.37-7.267,3.13V293
	c3.472-1.302,6.999-2.488,10.572-3.569V135.251z"/>
<path style="fill:#FFD782;" d="M505.165,324.628c-30.683-27.115-70.998-43.58-115.165-43.58c-96.098,0-174,77.902-174,174
	c0,18.571,2.92,36.457,8.308,53.238C238.173,510.722,252.437,512,267,512C382.458,512,479.246,432.127,505.165,324.628z"/>
<path style="fill:#FFCA51;" d="M232,458.057c0-94.542,74.121-171.768,167.421-176.748c-3.12-0.167-6.26-0.261-9.421-0.261
	c-96.098,0-174,77.902-174,174c0,18.571,2.92,36.457,8.308,53.238c5.151,0.905,10.359,1.649,15.615,2.229
	C234.785,493.936,232,476.323,232,458.057z"/>
<g>
	
		<ellipse transform="matrix(-0.388 0.9217 -0.9217 -0.388 878.1897 52.1732)" style="fill:#EBAA48;" cx="421.773" cy="317.659" rx="20.78" ry="26.101"/>
	<circle style="fill:#EBAA48;" cx="472.42" cy="342" r="15.585"/>
	<circle style="fill:#EBAA48;" cx="363.58" cy="323.58" r="12.585"/>
</g>
<g>
	<path style="fill:#FFCA51;" d="M186.3,56.4c-0.809,0-1.538-0.487-1.848-1.235c-4.123-9.955-7.163-12.995-17.118-17.118
		c-0.748-0.31-1.235-1.039-1.235-1.848c0-0.809,0.487-1.538,1.235-1.848c9.955-4.123,12.995-7.163,17.118-17.118
		c0.31-0.748,1.039-1.235,1.848-1.235s1.538,0.487,1.848,1.235c4.123,9.955,7.163,12.995,17.118,17.118
		c0.748,0.31,1.235,1.039,1.235,1.848c0,0.809-0.487,1.538-1.235,1.848c-9.955,4.123-12.995,7.163-17.118,17.118
		C187.838,55.913,187.109,56.4,186.3,56.4z"/>
	<path style="fill:#FFCA51;" d="M408.31,38.408c-0.769,0-1.462-0.463-1.757-1.174c-3.919-9.464-6.81-12.354-16.273-16.274
		c-0.711-0.294-1.174-0.988-1.174-1.757s0.463-1.462,1.174-1.757c9.464-3.92,12.354-6.81,16.273-16.274
		C406.848,0.463,407.541,0,408.31,0s1.462,0.463,1.757,1.174c3.919,9.464,6.81,12.354,16.273,16.274
		c0.71,0.294,1.174,0.988,1.174,1.757s-0.463,1.462-1.174,1.757c-9.464,3.92-12.354,6.81-16.273,16.274
		C409.773,37.945,409.08,38.408,408.31,38.408z"/>
</g>
<g>
	<path style="fill:#FFFFFF;" d="M141.2,103.4c-0.569,0-1.081-0.343-1.299-0.868c-2.898-6.998-5.036-9.135-12.033-12.033
		C127.343,90.281,127,89.769,127,89.2s0.343-1.081,0.868-1.299c6.997-2.898,9.135-5.036,12.033-12.033
		c0.218-0.525,0.73-0.868,1.299-0.868s1.081,0.343,1.299,0.868c2.898,6.997,5.036,9.135,12.033,12.033
		c0.525,0.218,0.868,0.73,0.868,1.299s-0.343,1.081-0.868,1.299c-6.997,2.898-9.135,5.036-12.033,12.033
		C142.281,103.058,141.769,103.4,141.2,103.4z"/>
	<path style="fill:#FFFFFF;" d="M178.2,221c-0.569,0-1.081-0.343-1.299-0.868c-2.898-6.998-5.036-9.135-12.033-12.033
		c-0.525-0.218-0.868-0.73-0.868-1.299s0.343-1.081,0.868-1.299c6.997-2.899,9.135-5.036,12.033-12.033
		c0.218-0.525,0.73-0.868,1.299-0.868s1.081,0.343,1.299,0.868c2.898,6.997,5.036,9.135,12.033,12.033
		c0.525,0.218,0.868,0.73,0.868,1.299s-0.343,1.081-0.868,1.299c-6.997,2.898-9.135,5.036-12.033,12.033
		C179.281,220.657,178.769,221,178.2,221z"/>
</g>
<path style="fill:#FFCA51;" d="M76.8,279.4c-0.569,0-1.081-0.343-1.299-0.868c-2.899-6.997-5.036-9.135-12.033-12.033
	c-0.525-0.218-0.868-0.73-0.868-1.299s0.343-1.081,0.868-1.299c6.998-2.898,9.135-5.036,12.033-12.033
	c0.218-0.525,0.73-0.868,1.299-0.868s1.081,0.343,1.299,0.868c2.898,6.997,5.036,9.135,12.033,12.033
	c0.525,0.218,0.868,0.73,0.868,1.299s-0.343,1.081-0.868,1.299c-6.997,2.898-9.135,5.036-12.033,12.033
	C77.881,279.058,77.369,279.4,76.8,279.4z"/>
<circle style="fill:#EBAA48;" cx="276" cy="388" r="19"/>
<circle style="fill:#FFFFFF;" cx="412" cy="379" r="21"/>
<circle style="fill:#EBAA48;" cx="248" cy="457" r="12"/>
<circle style="fill:#FFFFFF;" cx="279" cy="434" r="12"/>
<g>
	<path style="fill:#445EA0;" d="M30.254,443.397l11.888-11.888l-16.375-16.375l-8.512,8.511c-1.857,1.858-1.857,4.895-0.001,6.752
		L30.254,443.397z"/>
	<path style="fill:#445EA0;" d="M40.385,453.526l12.998,12.999c1.857,1.857,4.895,1.857,6.752,0.001l8.512-8.512l-16.375-16.375
		L40.385,453.526z"/>
</g>
<path style="fill:#FE3745;" d="M113.004,319.627L4.547,355.105c-4.991,1.633-6.037,6.007-2.323,9.721l32.79,32.79L113.004,319.627z"
	/>
<g>
	<path style="fill:#EA2A3D;" d="M16.499,354.978c-1.007-1.007-1.696-2.058-2.093-3.098l-9.859,3.225
		c-4.991,1.633-6.037,6.007-2.323,9.721l32.79,32.79l12.061-12.062L16.499,354.978z"/>
	<path style="fill:#EA2A3D;" d="M86.164,448.767l32.789,32.789c3.712,3.712,8.087,2.668,9.72-2.324l35.478-108.453L86.164,448.767z"
		/>
</g>
<path style="fill:#FE3745;" d="M86.164,448.767l32.789,32.789c3.712,3.712,8.087,2.668,9.72-2.324l35.478-108.453L86.164,448.767z"
	/>
<path style="fill:#EA2A3D;" d="M131.268,469.242l-32.79-32.789l-12.314,12.314l32.789,32.789c3.712,3.712,8.087,2.668,9.72-2.324
	l3.113-9.517C131.613,469.564,131.439,469.413,131.268,469.242z"/>
<path style="fill:#D9EAFC;" d="M178.8,252.566c-0.535,0.448-1.04,0.891-1.458,1.31l-153.001,153c-2.267,2.268-2.267,5.979,0,8.247
	l17.094,17.094l62.017-62.018c0.709-0.709,1.657-1.1,2.669-1.1s1.959,0.391,2.668,1.1l4.793,4.792c0.71,0.71,1.1,1.658,1.1,2.669
	c0,1.012-0.391,1.959-1.1,2.668l-62.018,62.018l17.093,17.094c2.269,2.267,5.978,2.267,8.247,0l153-153.001
	c0.419-0.419,0.863-0.922,1.312-1.457L178.8,252.566z"/>
<path style="fill:#C3DDF4;" d="M25.326,416.107L183.834,257.6l-5.034-5.034c-0.535,0.448-1.04,0.891-1.458,1.31l-153.001,153
	c-2.267,2.268-2.267,5.979,0,8.247L25.326,416.107z"/>
<circle style="fill:#FFFFFF;" cx="168.9" cy="314.88" r="26.567"/>
<path style="fill:#EA2A3D;" d="M270.118,210.679L186.8,247.4c-2.899,1.277-7.08,4.135-9.368,6.389l52.558,52.559
	c2.255-2.288,5.112-6.47,6.389-9.369l36.723-83.317C274.395,210.728,273.053,209.386,270.118,210.679z"/>
<path style="fill:#B7092B;" d="M186.8,258.052l82.826-36.504l3.476-7.885c1.293-2.935-0.049-4.277-2.984-2.983L186.8,247.4
	c-2.899,1.277-7.08,4.135-9.368,6.389l6.056,6.056C184.657,259.123,185.805,258.49,186.8,258.052z"/>
<circle style="fill:#52BBEF;" cx="168.9" cy="314.88" r="15.418"/>
<path style="fill:#2DA1DC;" d="M166.68,325.786c-6.021-6.021-6.021-15.784,0-21.805c1.894-1.894,4.159-3.19,6.56-3.893
	c-5.233-1.531-11.118-0.235-15.245,3.893c-6.022,6.021-6.022,15.784,0,21.805c4.126,4.127,10.011,5.423,15.244,3.892
	C170.837,328.976,168.573,327.68,166.68,325.786z"/>
<path style="fill:#EA2A3D;" d="M27.036,468.29c-1.857,1.857-4.895,1.857-6.751,0l-4.793-4.793c-1.858-1.857-1.858-4.895,0-6.752
	l87.254-87.254c1.856-1.857,4.895-1.856,6.751,0l4.793,4.793c1.857,1.857,1.857,4.896,0,6.752L27.036,468.29z"/>
<g>
	<path style="fill:#FFD782;" d="M352.214,200.014c0,1.65-1.35,3-3,3h-9c-1.65,0-3-1.35-3-3v-12c0-1.65,1.35-3,3-3h9
		c1.65,0,3,1.35,3,3V200.014z"/>
	<path style="fill:#FFD782;" d="M372.214,200.014c0,1.65-1.35,3-3,3h-9c-1.65,0-3-1.35-3-3v-12c0-1.65,1.35-3,3-3h9
		c1.65,0,3,1.35,3,3V200.014z"/>
	<path style="fill:#FFD782;" d="M352.214,228.014c0,1.65-1.35,3-3,3h-9c-1.65,0-3-1.35-3-3v-12c0-1.65,1.35-3,3-3h9
		c1.65,0,3,1.35,3,3V228.014z"/>
	<path style="fill:#FFD782;" d="M372.214,228.014c0,1.65-1.35,3-3,3h-9c-1.65,0-3-1.35-3-3v-12c0-1.65,1.35-3,3-3h9
		c1.65,0,3,1.35,3,3V228.014z"/>
	<path style="fill:#FFD782;" d="M352.214,256.014c0,1.65-1.35,3-3,3h-9c-1.65,0-3-1.35-3-3v-12c0-1.65,1.35-3,3-3h9
		c1.65,0,3,1.35,3,3V256.014z"/>
	<path style="fill:#FFD782;" d="M372.214,256.014c0,1.65-1.35,3-3,3h-9c-1.65,0-3-1.35-3-3v-12c0-1.65,1.35-3,3-3h9
		c1.65,0,3,1.35,3,3V256.014z"/>
</g>
<g>
</g>
<g>
</g>
<g>
</g>
<g>
</g>
<g>
</g>
<g>
</g>
<g>
</g>
<g>
</g>
<g>
</g>
<g>
</g>
<g>
</g>
<g>
</g>
<g>
</g>
<g>
</g>
<g>
</g>
</svg>
