<?xml version="1.0" encoding="iso-8859-1"?>
<!-- Generator: Adobe Illustrator 19.0.0, SVG Export Plug-In . SVG Version: 6.00 Build 0)  -->
<svg version="1.1" id="Capa_1" xmlns="http://www.w3.org/2000/svg" xmlns:xlink="http://www.w3.org/1999/xlink" x="0px" y="0px"
	 viewBox="0 0 512 512" style="enable-background:new 0 0 512 512;" xml:space="preserve">
<circle style="fill:#FFCA51;" cx="256" cy="255.539" r="245.479"/>
<path style="fill:#DB722C;" d="M280.981,37.059c-0.412-1.345-1.651-2.262-3.059-2.262c-1.406,0-2.646,0.918-3.057,2.262
	c-1.773,5.8-9.652,30.091-17.88,56.913v33.16h35.082c2.855-9.332,5.684-18.412,8.255-26.584
	C291.585,71.213,282.859,43.203,280.981,37.059z"/>
<path style="fill:#C65E24;" d="M282.94,43.415c-0.899-2.913-1.574-5.098-1.959-6.355c-0.412-1.345-1.651-2.262-3.059-2.262
	c-1.406,0-2.646,0.918-3.057,2.262c-1.773,5.8-9.652,30.091-17.88,56.913v33.16h0.053C265.168,100.766,277.965,59.494,282.94,43.415
	z"/>
<path style="fill:#28A5A5;" d="M328.665,127.132v-15.583c-6.437-21.251-11.931-38.913-13.376-43.637
	c-0.412-1.345-1.651-2.262-3.059-2.262c-1.406,0-2.646,0.918-3.057,2.262c-1.825,5.966-10.108,31.496-18.586,59.221H328.665z"/>
<path style="fill:#0F9390;" d="M315.289,67.912c-0.412-1.345-1.651-2.262-3.059-2.262c-1.406,0-2.646,0.918-3.057,2.262
	c-1.825,5.966-10.108,31.496-18.586,59.221h10.497c6.527-21.343,12.933-41.373,16.372-52.191
	C316.45,71.684,315.703,69.265,315.289,67.912z"/>
<path style="fill:#28A5A5;" d="M113.272,127.132V43.438c0-0.23,0.029-0.454,0.077-0.67c-6.039-19.837-10.941-35.602-12.359-40.237
	C100.53,1.027,99.142,0,97.571,0c-1.573,0-2.961,1.027-3.421,2.531c-3.37,11.021-26.435,81.702-37.669,124.601H113.272z"/>
<path style="fill:#0F9390;" d="M100.99,2.531C100.53,1.027,99.142,0,97.571,0c-1.573,0-2.961,1.027-3.421,2.531
	c-3.37,11.021-26.435,81.702-37.669,124.601H66.63C76.69,88.718,96.233,28.035,102.629,7.851
	C101.897,5.479,101.338,3.668,100.99,2.531z"/>
<path style="fill:#A53535;" d="M105.085,127.132V93.683c0-4.15-3.365-7.515-7.515-7.515c-4.151,0-7.515,3.365-7.515,7.515v33.449
	H105.085z"/>
<path style="fill:#EF8318;" d="M43.02,232.586h70.251V126.13H43.799c-2.257,0-4.104,1.847-4.104,4.103v102.84
	C40.751,232.762,41.865,232.586,43.02,232.586z"/>
<path style="fill:#DB722C;" d="M50.164,130.233c0-2.256,1.847-4.103,4.104-4.103H43.799c-2.257,0-4.104,1.847-4.104,4.103v102.84
	c1.056-0.313,2.17-0.487,3.325-0.487h7.144V130.233z"/>
<rect x="101.959" y="249.708" style="fill:#EF8318;" width="10.634" height="22.82"/>
<path style="fill:#EF9614;" d="M468.98,232.586c1.155,0,2.27,0.174,3.325,0.487v-102.84c0-2.256-1.847-4.103-4.103-4.103h-68.795
	v106.456H468.98z"/>
<g>
	<path style="fill:#EF8318;" d="M428.46,143.034h-9.508c-1.742,0-3.169,1.426-3.169,3.169v12.678c0,1.743,1.427,3.17,3.169,3.17
		h9.508c1.743,0,3.169-1.427,3.169-3.17v-12.678C431.629,144.46,430.203,143.034,428.46,143.034z"/>
	<path style="fill:#EF8318;" d="M452.76,143.034h-9.51c-1.742,0-3.169,1.426-3.169,3.169v12.678c0,1.743,1.427,3.17,3.169,3.17h9.51
		c1.743,0,3.169-1.427,3.169-3.17v-12.678C455.929,144.46,454.504,143.034,452.76,143.034z"/>
	<path style="fill:#EF8318;" d="M428.46,173.672h-9.508c-1.742,0-3.169,1.427-3.169,3.169v12.678c0,1.743,1.427,3.169,3.169,3.169
		h9.508c1.743,0,3.169-1.426,3.169-3.169v-12.678C431.629,175.099,430.203,173.672,428.46,173.672z"/>
	<path style="fill:#EF8318;" d="M452.76,173.672h-9.51c-1.742,0-3.169,1.427-3.169,3.169v12.678c0,1.743,1.427,3.169,3.169,3.169
		h9.51c1.743,0,3.169-1.426,3.169-3.169v-12.678C455.929,175.099,454.504,173.672,452.76,173.672z"/>
	<path style="fill:#EF8318;" d="M428.46,204.31h-9.508c-1.742,0-3.169,1.427-3.169,3.17v12.678c0,1.742,1.427,3.169,3.169,3.169
		h9.508c1.743,0,3.169-1.427,3.169-3.169V207.48C431.629,205.737,430.203,204.31,428.46,204.31z"/>
	<path style="fill:#EF8318;" d="M452.76,204.31h-9.51c-1.742,0-3.169,1.427-3.169,3.17v12.678c0,1.742,1.427,3.169,3.169,3.169h9.51
		c1.743,0,3.169-1.427,3.169-3.169V207.48C455.929,205.737,454.504,204.31,452.76,204.31z"/>
</g>
<g>
	<rect x="255.87" y="249.708" style="fill:#EF9614;" width="72.892" height="22.82"/>
	<rect x="256.982" y="126.126" style="fill:#EF9614;" width="71.78" height="106.458"/>
</g>
<g>
	<path style="fill:#FFCA51;" d="M284.917,143.034h-9.51c-1.742,0-3.169,1.426-3.169,3.169v12.678c0,1.743,1.427,3.17,3.169,3.17
		h9.51c1.743,0,3.17-1.427,3.17-3.17v-12.678C288.088,144.46,286.662,143.034,284.917,143.034z"/>
	<path style="fill:#FFCA51;" d="M309.217,143.034h-9.508c-1.745,0-3.169,1.426-3.169,3.169v12.678c0,1.743,1.424,3.17,3.169,3.17
		h9.508c1.742,0,3.169-1.427,3.169-3.17v-12.678C312.386,144.46,310.96,143.034,309.217,143.034z"/>
	<path style="fill:#FFCA51;" d="M284.917,173.672h-9.51c-1.742,0-3.169,1.427-3.169,3.169v12.678c0,1.743,1.427,3.169,3.169,3.169
		h9.51c1.743,0,3.17-1.426,3.17-3.169v-12.678C288.088,175.099,286.662,173.672,284.917,173.672z"/>
</g>
<g>
	<path style="fill:#EF8318;" d="M341.872,249.713h-7.805c1.356,4.625,2.681,9.195,3.964,13.663
		C339.243,258.97,340.529,254.399,341.872,249.713z"/>
	<path style="fill:#EF8318;" d="M400.561,232.586V43.438c0-2.256-1.847-4.103-4.103-4.103h-64.691c-2.257,0-4.104,1.847-4.104,4.103
		v189.149L400.561,232.586L400.561,232.586z"/>
</g>
<g>
	<path style="fill:#DB722C;" d="M356.669,61.9h-9.571c-1.756,0-3.19,1.436-3.19,3.19v12.762c0,1.754,1.435,3.19,3.19,3.19h9.571
		c1.754,0,3.191-1.436,3.191-3.19V65.09C359.859,63.336,358.423,61.9,356.669,61.9z"/>
	<path style="fill:#DB722C;" d="M381.129,61.9h-9.573c-1.754,0-3.189,1.436-3.189,3.19v12.762c0,1.754,1.435,3.19,3.189,3.19h9.573
		c1.754,0,3.189-1.436,3.189-3.19V65.09C384.318,63.336,382.884,61.9,381.129,61.9z"/>
	<path style="fill:#DB722C;" d="M356.669,92.741h-9.571c-1.756,0-3.19,1.436-3.19,3.19v12.762c0,1.754,1.435,3.19,3.19,3.19h9.571
		c1.754,0,3.191-1.436,3.191-3.19V95.931C359.859,94.176,358.423,92.741,356.669,92.741z"/>
	<path style="fill:#DB722C;" d="M381.129,92.741h-9.573c-1.754,0-3.189,1.436-3.189,3.19v12.762c0,1.754,1.435,3.19,3.189,3.19
		h9.573c1.754,0,3.189-1.436,3.189-3.19V95.931C384.318,94.176,382.884,92.741,381.129,92.741z"/>
	<path style="fill:#DB722C;" d="M356.669,123.581h-9.571c-1.756,0-3.19,1.436-3.19,3.191v12.761c0,1.755,1.435,3.19,3.19,3.19h9.571
		c1.754,0,3.191-1.435,3.191-3.19v-12.761C359.859,125.016,358.423,123.581,356.669,123.581z"/>
	<path style="fill:#DB722C;" d="M371.557,142.724h4.259c1.23-3.872,2.14-6.749,2.651-8.425c0.393-1.283,1.557-2.144,2.898-2.144
		s2.506,0.862,2.9,2.145c0.017,0.054,0.036,0.119,0.054,0.175v-7.703c0-1.755-1.435-3.191-3.189-3.191h-9.573
		c-1.754,0-3.189,1.436-3.189,3.191v12.761C368.367,141.289,369.802,142.724,371.557,142.724z"/>
	<path style="fill:#DB722C;" d="M356.669,154.423h-9.571c-1.756,0-3.19,1.435-3.19,3.19v12.761c0,1.755,1.435,3.191,3.19,3.191
		h9.571c1.754,0,3.191-1.436,3.191-3.191v-12.761C359.859,155.857,358.423,154.423,356.669,154.423z"/>
	<path style="fill:#DB722C;" d="M372.095,154.423h-0.538c-1.754,0-3.189,1.435-3.189,3.19v8.562
		C369.71,161.928,370.962,157.986,372.095,154.423z"/>
	<path style="fill:#DB722C;" d="M356.669,185.263h-9.571c-1.756,0-3.19,1.436-3.19,3.19v12.762c0,1.754,1.435,3.19,3.19,3.19h9.571
		c1.754,0,3.191-1.436,3.191-3.19v-12.762C359.859,186.698,358.423,185.263,356.669,185.263z"/>
	<path style="fill:#DB722C;" d="M359.806,232.586c0.029-0.173,0.054-0.35,0.054-0.531v-12.762c0-1.754-1.437-3.19-3.191-3.19h-9.571
		c-1.756,0-3.19,1.436-3.19,3.19v12.762c0,0.182,0.024,0.358,0.054,0.531H359.806z"/>
</g>
<g>
	<path style="fill:#FFCA51;" d="M68.748,143.034h-9.508c-1.743,0-3.17,1.426-3.17,3.169v12.678c0,1.743,1.427,3.17,3.17,3.17h9.508
		c1.742,0,3.169-1.427,3.169-3.17v-12.678C71.917,144.46,70.491,143.034,68.748,143.034z"/>
	<path style="fill:#FFCA51;" d="M93.048,143.034H83.54c-1.743,0-3.17,1.426-3.17,3.169v12.678c0,1.743,1.427,3.17,3.17,3.17h9.508
		c1.742,0,3.169-1.427,3.169-3.17v-12.678C96.217,144.46,94.79,143.034,93.048,143.034z"/>
	<path style="fill:#FFCA51;" d="M68.748,173.672h-9.508c-1.743,0-3.17,1.427-3.17,3.169v12.678c0,1.743,1.427,3.169,3.17,3.169
		h9.508c1.742,0,3.169-1.426,3.169-3.169v-12.678C71.917,175.099,70.491,173.672,68.748,173.672z"/>
	<path style="fill:#FFCA51;" d="M93.048,173.672H83.54c-1.743,0-3.17,1.427-3.17,3.169v12.678c0,1.743,1.427,3.169,3.17,3.169h9.508
		c1.742,0,3.169-1.426,3.169-3.169v-12.678C96.217,175.099,94.79,173.672,93.048,173.672z"/>
	<path style="fill:#FFCA51;" d="M68.748,204.31h-9.508c-1.743,0-3.17,1.427-3.17,3.17v12.678c0,1.742,1.427,3.169,3.17,3.169h9.508
		c1.742,0,3.169-1.427,3.169-3.169V207.48C71.917,205.737,70.491,204.31,68.748,204.31z"/>
	<path style="fill:#FFCA51;" d="M93.048,204.31H83.54c-1.743,0-3.17,1.427-3.17,3.17v12.678c0,1.742,1.427,3.169,3.17,3.169h9.508
		c1.742,0,3.169-1.427,3.169-3.169V207.48C96.217,205.737,94.79,204.31,93.048,204.31z"/>
</g>
<g>
	<rect x="112.269" y="249.708" style="fill:#EF9614;" width="72.902" height="22.82"/>
	<path style="fill:#EF9614;" d="M185.169,232.586V43.438c0-2.256-1.847-4.103-4.103-4.103h-64.691c-2.257,0-4.104,1.847-4.104,4.103
		v189.149L185.169,232.586L185.169,232.586z"/>
</g>
<rect x="185.092" y="249.708" style="fill:#EF8318;" width="72.892" height="22.82"/>
<path style="fill:#FFCA51;" d="M215.262,272.575c2.451-8.03,4.891-15.901,7.083-22.864h-34.615
	c-2.336,7.674-4.664,15.489-6.777,22.864H215.262z"/>
<path style="fill:#EF8318;" d="M257.987,232.586V62.926c0-2.256-1.847-4.103-4.103-4.103h-68.794v173.763L257.987,232.586
	L257.987,232.586z"/>
<g>
	<path style="fill:#EF9614;" d="M244.581,85.492c0,1.692-1.385,3.077-3.076,3.077H199.45c-1.692,0-3.077-1.385-3.077-3.077v-9.231
		c0-1.692,1.385-3.077,3.077-3.077h42.055c1.692,0,3.076,1.385,3.076,3.077V85.492z"/>
	<path style="fill:#EF9614;" d="M244.581,111.647c0,1.692-1.385,3.077-3.076,3.077H199.45c-1.692,0-3.077-1.385-3.077-3.077v-9.231
		c0-1.692,1.385-3.077,3.077-3.077h42.055c1.692,0,3.076,1.385,3.076,3.077V111.647z"/>
	<path style="fill:#EF9614;" d="M244.581,137.803c0,1.692-1.385,3.077-3.076,3.077H199.45c-1.692,0-3.077-1.385-3.077-3.077v-9.231
		c0-1.692,1.385-3.077,3.077-3.077h42.055c1.692,0,3.076,1.385,3.076,3.077V137.803z"/>
	<path style="fill:#EF9614;" d="M244.581,163.958c0,1.692-1.385,3.077-3.076,3.077H199.45c-1.692,0-3.077-1.385-3.077-3.077v-9.231
		c0-1.692,1.385-3.077,3.077-3.077h42.055c1.692,0,3.076,1.385,3.076,3.077V163.958z"/>
	<path style="fill:#EF9614;" d="M244.581,190.114c0,1.692-1.385,3.077-3.076,3.077H199.45c-1.692,0-3.077-1.385-3.077-3.077v-9.231
		c0-1.692,1.385-3.077,3.077-3.077h42.055c1.692,0,3.076,1.385,3.076,3.077V190.114z"/>
</g>
<g>
	<path style="fill:#DB722C;" d="M141.275,61.9h-9.571c-1.755,0-3.191,1.436-3.191,3.19v12.762c0,1.754,1.436,3.19,3.191,3.19h9.571
		c1.755,0,3.191-1.436,3.191-3.19V65.09C144.466,63.336,143.03,61.9,141.275,61.9z"/>
	<path style="fill:#DB722C;" d="M165.735,61.9h-9.571c-1.755,0-3.191,1.436-3.191,3.19v12.762c0,1.754,1.436,3.19,3.191,3.19h9.571
		c1.755,0,3.191-1.436,3.191-3.19V65.09C168.926,63.336,167.49,61.9,165.735,61.9z"/>
	<path style="fill:#DB722C;" d="M141.275,92.741h-9.571c-1.755,0-3.191,1.436-3.191,3.19v12.762c0,1.754,1.436,3.19,3.191,3.19
		h9.571c1.755,0,3.191-1.436,3.191-3.19V95.931C144.466,94.176,143.03,92.741,141.275,92.741z"/>
	<path style="fill:#DB722C;" d="M165.735,92.741h-9.571c-1.755,0-3.191,1.436-3.191,3.19v12.762c0,1.754,1.436,3.19,3.191,3.19
		h9.571c1.755,0,3.191-1.436,3.191-3.19V95.931C168.926,94.176,167.49,92.741,165.735,92.741z"/>
	<path style="fill:#DB722C;" d="M141.275,123.581h-9.571c-1.755,0-3.191,1.436-3.191,3.191v12.761c0,1.755,1.436,3.19,3.191,3.19
		h9.571c1.755,0,3.191-1.435,3.191-3.19v-12.761C144.466,125.016,143.03,123.581,141.275,123.581z"/>
	<path style="fill:#DB722C;" d="M165.735,123.581h-9.571c-1.755,0-3.191,1.436-3.191,3.191v12.761c0,1.755,1.436,3.19,3.191,3.19
		h9.571c1.755,0,3.191-1.435,3.191-3.19v-12.761C168.926,125.016,167.49,123.581,165.735,123.581z"/>
	<path style="fill:#DB722C;" d="M141.275,154.423h-9.571c-1.755,0-3.191,1.435-3.191,3.19v12.761c0,1.755,1.436,3.191,3.191,3.191
		h9.571c1.755,0,3.191-1.436,3.191-3.191v-12.761C144.466,155.857,143.03,154.423,141.275,154.423z"/>
	<path style="fill:#DB722C;" d="M165.735,154.423h-9.571c-1.755,0-3.191,1.435-3.191,3.19v12.761c0,1.755,1.436,3.191,3.191,3.191
		h9.571c1.755,0,3.191-1.436,3.191-3.191v-12.761C168.926,155.857,167.49,154.423,165.735,154.423z"/>
	<path style="fill:#DB722C;" d="M141.275,185.263h-9.571c-1.755,0-3.191,1.436-3.191,3.19v12.762c0,1.754,1.436,3.19,3.191,3.19
		h9.571c1.755,0,3.191-1.436,3.191-3.19v-12.762C144.466,186.698,143.03,185.263,141.275,185.263z"/>
	<path style="fill:#DB722C;" d="M165.735,185.263h-9.571c-1.755,0-3.191,1.436-3.191,3.19v12.762c0,1.754,1.436,3.19,3.191,3.19
		h9.571c1.755,0,3.191-1.436,3.191-3.19v-12.762C168.926,186.698,167.49,185.263,165.735,185.263z"/>
	<path style="fill:#DB722C;" d="M144.412,232.586c0.029-0.173,0.054-0.35,0.054-0.531v-12.762c0-1.754-1.436-3.19-3.191-3.19h-9.571
		c-1.755,0-3.191,1.436-3.191,3.19v12.762c0,0.182,0.024,0.358,0.054,0.531H144.412z"/>
	<path style="fill:#DB722C;" d="M168.872,232.586c0.029-0.173,0.054-0.35,0.054-0.531v-12.762c0-1.754-1.436-3.19-3.191-3.19h-9.571
		c-1.755,0-3.191,1.436-3.191,3.19v12.762c0,0.182,0.024,0.358,0.054,0.531H168.872z"/>
</g>
<path style="fill:#0F9390;" d="M249.764,272.532c-2.396-8.022-4.768-15.853-6.895-22.82h-20.523
	c-2.192,6.963-4.632,14.79-7.083,22.82H249.764z"/>
<path style="fill:#FFCA51;" d="M217.995,232.586c-4.805-15.838-8.837-28.797-9.93-32.371c-0.325-1.061-1.303-1.784-2.413-1.784
	c-1.109,0-2.087,0.724-2.411,1.784c-1.116,3.647-5.291,16.564-10.227,32.371H217.995z"/>
<g>
	<path style="fill:#0F9390;" d="M237.61,232.586c-1.182-3.833-2.051-6.642-2.476-8.029c-0.326-1.061-1.304-1.784-2.414-1.784
		c-1.109,0-2.087,0.724-2.412,1.784c-0.432,1.411-1.323,4.215-2.536,8.029H237.61z"/>
	<path style="fill:#0F9390;" d="M10.992,270.572c3.727,61.69,30.244,117.226,71.23,158.32v-20.104c0-2.21,1.799-4.008,4.008-4.008
		h59.554c3.112,0,6.886-2.04,8.592-4.645l17.546-26.81c0.539-0.823,1.215-1.276,1.906-1.276s1.368,0.453,1.906,1.276l17.566,26.812
		c1.706,2.604,5.481,4.643,8.594,4.643h59.529c2.21,0,4.008,1.798,4.008,4.008v92.037c126.197-4.77,227.996-104.793,235.576-230.253
		H10.992z"/>
</g>
<g>
	<path style="fill:#52BBEF;" d="M31.269,270.572H10.992c1.794,29.681,8.863,57.935,20.277,83.845V270.572z"/>
	<path style="fill:#52BBEF;" d="M480.731,270.572v83.845c11.414-25.91,18.484-54.164,20.277-83.845H480.731z"/>
	<path style="fill:#52BBEF;" d="M410.041,270.572H101.959v108.211h66.391l3.572-5.459c0.539-0.823,1.215-1.276,1.906-1.276
		c0.69,0,1.368,0.453,1.906,1.276l3.576,5.459H410.04V270.572H410.041z"/>
</g>
<g>
	<path style="fill:#69CDFF;" d="M124.528,287.035c0-2.315,1.047-4.382,2.692-5.76h-25.261v11.461h22.569V287.035z"/>
	<path style="fill:#69CDFF;" d="M199.923,304.197h-7.959c-3.503,0-6.369-2.579-6.369-5.731c0-3.093,2.762-5.628,6.175-5.722
		c-1.612-1.378-2.637-3.423-2.637-5.71c0-2.315,1.047-4.382,2.692-5.76h-35.997c1.645,1.379,2.692,3.446,2.692,5.76
		c0,4.15-3.365,7.515-7.515,7.515h-11.448v11.712c0,4.15-3.365,7.515-7.515,7.515c-4.15,0-7.515-3.365-7.515-7.515v-2.063h-22.569
		v11.462h97.964c3.502,0,6.366-2.579,6.366-5.731C206.29,306.777,203.425,304.197,199.923,304.197z"/>
	<path style="fill:#69CDFF;" d="M228.26,281.274h-7.827c1.645,1.379,2.692,3.446,2.692,5.76v5.701h5.135
		c3.501,0,6.367-2.578,6.367-5.73C234.627,283.853,231.762,281.274,228.26,281.274z"/>
	<path style="fill:#69CDFF;" d="M238.332,345.156h29.033c-2.629-3.472-4.776-7.325-6.35-11.461h-22.682
		c-3.502,0-6.367,2.579-6.367,5.731C231.965,342.578,234.831,345.156,238.332,345.156z"/>
	<path style="fill:#69CDFF;" d="M337.192,356.618h-7.959c-0.259,0-0.511-0.018-0.762-0.045c-7.215,4.465-15.599,6.948-24.256,6.948
		c-10.788,0-20.716-3.726-28.588-9.944c-1.075,1.806-3.192,3.042-5.616,3.042h-46.886v8.137c0,1.195-0.287,2.322-0.784,3.326h114.85
		c3.502,0,6.365-2.578,6.365-5.731C343.558,359.198,340.693,356.618,337.192,356.618z"/>
	<path style="fill:#69CDFF;" d="M487.096,281.935h-6.658v11.461h6.658c3.501,0,6.367-2.578,6.367-5.73
		C493.464,284.513,490.597,281.935,487.096,281.935z"/>
</g>
<g>
	<path style="fill:#DB722C;" d="M329.004,232.586c-9.684-32.486-19.286-63.312-21.369-70.121c-0.46-1.504-1.849-2.531-3.42-2.531
		c-1.573,0-2.961,1.027-3.421,2.531c-2.125,6.952-12.087,37.641-21.974,70.121L329.004,232.586L329.004,232.586z"/>
	<path style="fill:#DB722C;" d="M329.143,308.567c0-5.934,3.165-20.489,9.418-43.342c-1.445-5.049-2.953-10.249-4.495-15.512
		h-60.393c-8.972,30.26-16.672,58.735-16.672,67.598c0,26.034,21.18,47.213,47.213,47.213c16.111,0,30.357-8.118,38.881-20.472
		C334.446,334.729,329.143,322.257,329.143,308.567z"/>
</g>
<g>
	<path style="fill:#C65E24;" d="M307.635,162.465c-0.46-1.504-1.849-2.531-3.42-2.531c-1.573,0-2.961,1.027-3.421,2.531
		c-2.125,6.952-12.087,37.641-21.974,70.121h10.094c8.269-27.167,16.587-53.07,20.333-64.889
		C308.53,165.372,307.979,163.588,307.635,162.465z"/>
	<path style="fill:#C65E24;" d="M267.096,317.31c0-8.863,7.7-37.338,16.672-67.598h-10.094
		c-8.972,30.26-16.672,58.735-16.672,67.598c0,26.034,21.18,47.213,47.213,47.213c1.684,0,3.342-0.108,4.981-0.282
		C285.56,361.684,267.096,341.616,267.096,317.31z"/>
</g>
<path style="fill:#994334;" d="M304.215,398.822c-4.151,0-7.515-3.365-7.515-7.515V289.922c0-4.15,3.364-7.515,7.515-7.515
	c4.15,0,7.515,3.365,7.515,7.515v101.385C311.73,395.457,308.365,398.822,304.215,398.822z"/>
<g>
	<path style="fill:#28A5A5;" d="M328.141,308.567c0,29.348,23.877,53.226,53.224,53.226c10.555,0,20.393-3.101,28.676-8.421V249.713
		h-68.169C334.088,276.878,328.141,300.297,328.141,308.567z"/>
	<path style="fill:#28A5A5;" d="M415.085,232.586c-12.583-42.971-27.099-89.543-29.863-98.582c-0.519-1.695-2.083-2.854-3.858-2.854
		c-1.773,0-3.336,1.157-3.856,2.854c-2.822,9.226-17.888,55.543-30.642,98.582L415.085,232.586L415.085,232.586z"/>
</g>
<g>
	<path style="fill:#0F9390;" d="M338.387,308.567c0-8.27,5.948-31.689,13.731-58.855h-10.246
		c-7.784,27.166-13.731,50.585-13.731,58.855c0,29.348,23.877,53.226,53.224,53.226c1.724,0,3.427-0.091,5.109-0.253
		C359.528,358.947,338.387,336.182,338.387,308.567z"/>
	<path style="fill:#0F9390;" d="M385.222,134.006c-0.519-1.695-2.083-2.854-3.858-2.854c-1.773,0-3.336,1.157-3.855,2.854
		c-2.822,9.226-17.888,55.543-30.642,98.582h10.246c11.421-38.54,24.689-79.689,29.366-94.498
		C385.943,136.35,385.514,134.958,385.222,134.006z"/>
</g>
<path style="fill:#994334;" d="M373.85,255.844v16.999l-4.38-4.598c-2.863-3.005-7.618-3.12-10.624-0.259
	c-3.005,2.863-3.12,7.619-0.258,10.624l15.262,16.022v14.3l-4.38-4.598c-2.863-3.005-7.618-3.12-10.624-0.258
	c-3.005,2.863-3.12,7.619-0.258,10.624l15.262,16.022v60.584c0,4.15,3.364,7.515,7.515,7.515c4.151,0,7.515-3.365,7.515-7.515
	v-60.583l15.263-16.022c2.863-3.006,2.746-7.762-0.259-10.625c-3.005-2.863-7.76-2.746-10.625,0.257l-4.381,4.599v-14.3
	l15.263-16.022c2.863-3.006,2.746-7.762-0.259-10.625c-3.005-2.863-7.76-2.746-10.625,0.257l-4.381,4.599v-16.999
	c0-2.534-1.258-4.77-3.179-6.132h-8.671C375.109,251.073,373.85,253.31,373.85,255.844z"/>
<g>
	<path style="fill:#293D7C;" d="M102.961,250.715h306.078v19.858h72.694v-26.235c0-7.015-5.738-12.753-12.753-12.753H83.832H43.02
		c-7.015,0-12.753,5.739-12.753,12.753v26.235h72.694V250.715z"/>
	<rect x="264.426" y="443.807" style="fill:#293D7C;" width="1.002" height="19.127"/>
	<path style="fill:#293D7C;" d="M481.733,352.083v-81.51h-72.694v173.239H265.431v19.131H387.32
		C428.975,436.515,462.119,397.888,481.733,352.083z"/>
	<path style="fill:#293D7C;" d="M30.267,270.572v81.525c12.365,28.865,30.102,54.884,51.954,76.795v-20.104
		c0-2.21,1.799-4.008,4.008-4.008h16.731V270.572H30.267z"/>
</g>
<g>
	<path style="fill:#1A2B63;" d="M43.02,231.584c-7.015,0-12.753,5.739-12.753,12.753v26.235v81.525
		c12.365,28.865,30.102,54.884,51.954,76.795v-20.104c0-1.308,0.638-2.459,1.61-3.191V270.572v-38.988H43.02z"/>
	<path style="fill:#1A2B63;" d="M468.98,231.584h-40.809v38.988v159.915c22.597-22.24,40.897-48.828,53.563-78.406v-81.51v-26.234
		C481.733,237.324,475.995,231.584,468.98,231.584z"/>
</g>
<path style="fill:#FFCA51;" d="M86.229,512c-2.209,0-4.008-1.798-4.008-4.008v-99.204c0-2.21,1.799-4.008,4.008-4.008h59.555
	c3.112,0,6.886-2.04,8.592-4.645l17.546-26.81c0.539-0.823,1.215-1.276,1.906-1.276s1.368,0.453,1.906,1.276l17.566,26.812
	c1.706,2.604,5.481,4.643,8.594,4.643h59.529c2.21,0,4.008,1.798,4.008,4.008v99.204c0,2.21-1.798,4.008-4.008,4.008H86.229z"/>
<path style="fill:#FFAF10;" d="M92.681,507.992v-99.204c0-2.21,1.798-4.008,4.008-4.008H86.229c-2.209,0-4.008,1.798-4.008,4.008
	v99.204c0,2.21,1.799,4.008,4.008,4.008h10.459C94.479,512,92.681,510.202,92.681,507.992z"/>
<path style="fill:#293D7C;" d="M464.028,371.578c0,2.755-2.254,5.01-5.01,5.01h-13.218c-2.755,0-5.01-2.254-5.01-5.01v-48.627
	c0-2.755,2.254-5.01,5.01-5.01h13.218c2.755,0,5.01,2.254,5.01,5.01L464.028,371.578L464.028,371.578z"/>
<path style="fill:#2E4C89;" d="M123.228,421.824c0.781,0,1.502,0.417,1.892,1.094l18.644,32.422
	c2.409,3.85,3.681,8.286,3.681,12.834c0,13.353-10.864,24.218-24.217,24.218s-24.218-10.865-24.218-24.218
	c0-4.548,1.272-8.985,3.682-12.834l18.644-32.422C121.726,422.241,122.447,421.824,123.228,421.824z"/>
<path style="fill:#293D7C;" d="M109.373,468.174c0-4.548,1.273-8.985,3.682-12.834l15.355-26.701l-3.29-5.721
	c-0.39-0.677-1.11-1.094-1.892-1.094c-0.781,0-1.502,0.417-1.892,1.094l-18.644,32.422c-2.409,3.85-3.682,8.286-3.682,12.834
	c0,13.353,10.865,24.218,24.218,24.218c1.778,0,3.511-0.198,5.181-0.564C117.539,489.448,109.373,479.748,109.373,468.174z"/>
<g>
	<path style="fill:#2E4C89;" d="M241.128,436.853H165.52c-4.15,0-7.515-3.364-7.515-7.515c0-4.151,3.365-7.515,7.515-7.515h75.608
		c4.15,0,7.515,3.364,7.515,7.515C248.643,433.49,245.278,436.853,241.128,436.853z"/>
	<path style="fill:#2E4C89;" d="M241.128,462.343H165.52c-4.15,0-7.515-3.365-7.515-7.515c0-4.151,3.365-7.515,7.515-7.515h75.608
		c4.15,0,7.515,3.364,7.515,7.515C248.643,458.978,245.278,462.343,241.128,462.343z"/>
	<path style="fill:#2E4C89;" d="M210.886,487.953h-45.365c-4.15,0-7.515-3.364-7.515-7.515s3.365-7.515,7.515-7.515h45.365
		c4.15,0,7.515,3.364,7.515,7.515S215.035,487.953,210.886,487.953z"/>
</g>
<g>
	<path style="fill:#EEF6FF;" d="M132.043,313.776c-4.15,0-7.515-3.365-7.515-7.515v-19.227c0-4.15,3.365-7.515,7.515-7.515h18.963
		c4.15,0,7.515,3.365,7.515,7.515c0,4.15-3.365,7.515-7.515,7.515h-11.448v11.712C139.558,310.411,136.193,313.776,132.043,313.776z
		"/>
	<path style="fill:#EEF6FF;" d="M215.61,313.776c-4.15,0-7.515-3.365-7.515-7.515v-11.712h-11.448c-4.15,0-7.515-3.365-7.515-7.515
		c0-4.15,3.365-7.515,7.515-7.515h18.963c4.15,0,7.515,3.365,7.515,7.515v19.227C223.125,310.411,219.76,313.776,215.61,313.776z"/>
	<path style="fill:#EEF6FF;" d="M215.61,372.27h-18.963c-4.15,0-7.515-3.365-7.515-7.515c0-4.15,3.365-7.515,7.515-7.515h11.448
		v-11.184c0-4.15,3.365-7.515,7.515-7.515s7.515,3.365,7.515,7.515v18.698C223.125,368.906,219.76,372.27,215.61,372.27z"/>
	<path style="fill:#EEF6FF;" d="M151.006,372.27h-18.963c-4.15,0-7.515-3.365-7.515-7.515v-18.698c0-4.15,3.365-7.515,7.515-7.515
		c4.15,0,7.515,3.365,7.515,7.515v11.184h11.448c4.15,0,7.515,3.365,7.515,7.515C158.521,368.906,155.156,372.27,151.006,372.27z"/>
</g>
<g>
</g>
<g>
</g>
<g>
</g>
<g>
</g>
<g>
</g>
<g>
</g>
<g>
</g>
<g>
</g>
<g>
</g>
<g>
</g>
<g>
</g>
<g>
</g>
<g>
</g>
<g>
</g>
<g>
</g>
</svg>
