<?xml version="1.0" encoding="iso-8859-1"?>
<!-- Generator: Adobe Illustrator 19.0.0, SVG Export Plug-In . SVG Version: 6.00 Build 0)  -->
<svg version="1.1" id="Capa_1" xmlns="http://www.w3.org/2000/svg" xmlns:xlink="http://www.w3.org/1999/xlink" x="0px" y="0px"
	 viewBox="0 0 512 512" style="enable-background:new 0 0 512 512;" xml:space="preserve">
<circle style="fill:#37C47A;" cx="256" cy="267" r="245"/>
<path style="fill:#293D7C;" d="M475.824,373H36.176c-0.096-0.198-0.188-0.399-0.283-0.598h-1.104
	C74.192,454.954,158.428,512,256,512s181.808-57.046,221.211-139.598h-1.104C476.012,372.601,475.92,372.802,475.824,373z"/>
<path style="fill:#60D882;" d="M331.416,61h-66.764l-5.463,9.462c-0.825,1.429-0.825,3.767,0,5.196l17.172,29.743
	c0.825,1.429,2.85,2.598,4.5,2.598h34.346c1.65,0,3.675-1.169,4.5-2.598l17.172-29.743c0.825-1.429,0.825-3.767,0-5.196L331.416,61z
	"/>
<g>
	<rect x="189" y="314" style="fill:#D9EAFC;" width="46" height="30.598"/>
	<path style="fill:#D9EAFC;" d="M189,373v43c0,12.703,10.299,23,23,23c12.703,0,23-10.297,23-23v-43H189z"/>
</g>
<path style="fill:#EF8318;" d="M197,373v43c0,8.271,6.729,15,15,15s15-6.729,15-15v-43H197z"/>
<path style="fill:#DB722C;" d="M207,416v-43h-10v43c0,8.271,6.729,15,15,15c1.755,0,3.434-0.319,5-0.875
	C211.184,428.059,207,422.516,207,416z"/>
<path id="SVGCleanerId_0" style="fill:#C3DDF4;" d="M247,312c0,1.65-1.35,3-3,3h-64c-1.65,0-3-1.35-3-3v-20c0-1.65,1.35-3,3-3h64
	c1.65,0,3,1.35,3,3V312z"/>
<path style="fill:#0F9390;" d="M247,344.598V336c0-1.65-1.35-3-3-3h-64c-1.65,0-3,1.35-3,3v8.598H247z"/>
<g>
	<rect x="283" y="314" style="fill:#D9EAFC;" width="46" height="30.598"/>
	<path style="fill:#D9EAFC;" d="M283,373v43c0,12.703,10.299,23,23,23c12.703,0,23-10.297,23-23v-43H283z"/>
</g>
<path style="fill:#E26693;" d="M306,431c-8.272,0-15-6.729-15-15v-25h30v25C321,424.271,314.272,431,306,431z"/>
<path style="fill:#F24976;" d="M301,416v-25h-10v25c0,8.271,6.728,15,15,15c1.755,0,3.434-0.319,5-0.875
	C305.184,428.059,301,422.516,301,416z"/>
<path id="SVGCleanerId_1" style="fill:#C3DDF4;" d="M341,312c0,1.65-1.35,3-3,3h-64c-1.65,0-3-1.35-3-3v-20c0-1.65,1.35-3,3-3h64
	c1.65,0,3,1.35,3,3V312z"/>
<path style="fill:#0F9390;" d="M341,344.598V336c0-1.65-1.35-3-3-3h-64c-1.65,0-3,1.35-3,3v8.598H341z"/>
<g>
	<rect x="377" y="314" style="fill:#D9EAFC;" width="46" height="30.598"/>
	<path style="fill:#D9EAFC;" d="M377,373v43c0,12.703,10.299,23,23,23c12.703,0,23-10.297,23-23v-43H377z"/>
</g>
<path style="fill:#E26693;" d="M400,431c-8.272,0-15-6.729-15-15v-25h30v25C415,424.271,408.272,431,400,431z"/>
<path style="fill:#F24976;" d="M395,416v-25h-10v25c0,8.271,6.728,15,15,15c1.755,0,3.434-0.319,5-0.875
	C399.184,428.059,395,422.516,395,416z"/>
<path id="SVGCleanerId_2" style="fill:#C3DDF4;" d="M435,312c0,1.65-1.35,3-3,3h-64c-1.65,0-3-1.35-3-3v-20c0-1.65,1.35-3,3-3h64
	c1.65,0,3,1.35,3,3V312z"/>
<g>
	<path id="SVGCleanerId_0_1_" style="fill:#C3DDF4;" d="M247,312c0,1.65-1.35,3-3,3h-64c-1.65,0-3-1.35-3-3v-20c0-1.65,1.35-3,3-3
		h64c1.65,0,3,1.35,3,3V312z"/>
</g>
<g>
	<path id="SVGCleanerId_1_1_" style="fill:#C3DDF4;" d="M341,312c0,1.65-1.35,3-3,3h-64c-1.65,0-3-1.35-3-3v-20c0-1.65,1.35-3,3-3
		h64c1.65,0,3,1.35,3,3V312z"/>
</g>
<g>
	<path id="SVGCleanerId_2_1_" style="fill:#C3DDF4;" d="M435,312c0,1.65-1.35,3-3,3h-64c-1.65,0-3-1.35-3-3v-20c0-1.65,1.35-3,3-3
		h64c1.65,0,3,1.35,3,3V312z"/>
</g>
<path style="fill:#0F9390;" d="M435,344.598V336c0-1.65-1.35-3-3-3h-64c-1.65,0-3,1.35-3,3v8.598H435z"/>
<path style="fill:#2E4C89;" d="M117.711,134c5.002,0,9.65,1.54,13.5,4.169v-60.17h-27v60.169
	C108.061,135.54,112.709,134,117.711,134z"/>
<path style="fill:#FFCA51;" d="M90,61v8c0,5.5,4.5,10,10,10h35c5.5,0,10-4.5,10-10v-8H90z"/>
<path style="fill:#FFAF10;" d="M110,69v-8H90v8c0,5.5,4.5,10,10,10h20C114.5,79,110,74.5,110,69z"/>
<g>
	<path style="fill:#2E4C89;" d="M377,112c3.026,0,5.898,0.656,8.5,1.814V77.999h-15v35.043C372.549,112.373,374.73,112,377,112z"/>
	<path style="fill:#2E4C89;" d="M357.157,166.45l13.452-13.452c-4.987-1.598-9.154-5.017-11.748-9.466l-12.31,12.311L357.157,166.45
		z"/>
</g>
<path style="fill:#FFCA51;" d="M354,61v8c0,5.5,4.5,10,10,10h27c5.5,0,10-4.5,10-10v-8H354z"/>
<path style="fill:#FFAF10;" d="M374,69v-8h-20v8c0,5.5,4.5,10,10,10h20C378.5,79,374,74.5,374,69z"/>
<path style="fill:#EF9614;" d="M447,52c0,5.5-4.5,10-10,10H75c-5.5,0-10-4.5-10-10V10c0-5.5,4.5-10,10-10h362c5.5,0,10,4.5,10,10V52
	z"/>
<path style="fill:#EF8318;" d="M85,52V10c0-5.5,4.5-10,10-10H75c-5.5,0-10,4.5-10,10v42c0,5.5,4.5,10,10,10h20
	C89.5,62,85,57.5,85,52z"/>
<circle style="fill:#EF9614;" cx="377" cy="133" r="22"/>
<circle style="fill:#FFCA51;" cx="377" cy="133" r="10"/>
<path style="fill:#60D882;" d="M201.172,182.664c-1.65,0-3.675-1.169-4.5-2.598L173.5,139.93c-0.825-1.429-0.825-3.767,0-5.196
	l23.172-40.136c0.825-1.429,2.85-2.598,4.5-2.598h46.346c1.65,0,3.675,1.169,4.5,2.598l23.172,40.136
	c0.825,1.429,0.825,3.767,0,5.196l-23.172,40.136c-0.825,1.429-2.85,2.598-4.5,2.598H201.172z"/>
<g>
	<path style="fill:#2E4C89;" d="M83.711,222c0-1.103,0.897-2,2-2h4.117l-23.78-26.608l17.006-25.971H95.64
		c-1.24-2.894-1.929-6.078-1.929-9.421c0-1.921,0.233-3.788,0.662-5.579H82c-4.152,0-8.642,2.426-10.918,5.901L51.99,187.479
		c-2.78,4.244-2.345,10.07,1.037,13.854l28.547,31.941c0.624,0.698,1.353,1.244,2.137,1.651C83.711,234.925,83.711,222,83.711,222z"
		/>
	<path style="fill:#2E4C89;" d="M183.514,187.536l-18.576-29.117c-2.251-3.532-6.749-5.998-10.938-5.998h-12.951
		c0.429,1.792,0.662,3.658,0.662,5.579c0,3.343-0.688,6.527-1.929,9.421h13.105l16.536,25.919L145.596,220h4.115
		c1.103,0,2,0.897,2,2v12.925c0.785-0.407,1.515-0.953,2.139-1.651l28.548-31.941C185.751,197.58,186.22,191.777,183.514,187.536z"
		/>
</g>
<g>
	<circle style="fill:#FFFFFF;" cx="350.03" cy="31.03" r="8.03"/>
	<circle style="fill:#FFFFFF;" cx="382.67" cy="31.03" r="8.03"/>
</g>
<circle style="fill:#60D882;" cx="415.32" cy="31.03" r="8.03"/>
<path style="fill:#EF8318;" d="M306.125,225c0.447,0,0.86,0.239,1.084,0.626l10.682,18.576c1.381,2.205,2.109,4.747,2.109,7.353
	c0,7.65-6.225,13.875-13.875,13.875s-13.875-6.225-13.875-13.875c0-2.605,0.729-5.148,2.109-7.353l10.683-18.576
	C305.265,225.239,305.678,225,306.125,225z"/>
<path style="fill:#D9EAFC;" d="M140.51,345c0.128-0.982,0.201-1.982,0.201-3v-98h-46v98c0,1.018,0.073,2.018,0.201,3H140.51z"/>
<path style="fill:#EF8318;" d="M132.408,345c0.198-0.97,0.303-1.973,0.303-3v-54h-30v54c0,1.027,0.104,2.03,0.303,3H132.408z"/>
<path style="fill:#DB722C;" d="M113,288h-10.289v54c0,1.027,0.104,2.03,0.303,3h10.289c-0.198-0.97-0.303-1.973-0.303-3V288z"/>
<path style="fill:#C3DDF4;" d="M152.711,242c0,1.65-1.35,3-3,3h-64c-1.65,0-3-1.35-3-3v-20c0-1.65,1.35-3,3-3h64c1.65,0,3,1.35,3,3
	V242z"/>
<g>
	<path style="fill:#94C2ED;" d="M197,312v-20c0-1.65,1.35-3,3-3h-20c-1.65,0-3,1.35-3,3v20c0,1.65,1.35,3,3,3h20
		C198.35,315,197,313.65,197,312z"/>
	<path style="fill:#94C2ED;" d="M291,312v-20c0-1.65,1.35-3,3-3h-20c-1.65,0-3,1.35-3,3v20c0,1.65,1.35,3,3,3h20
		C292.35,315,291,313.65,291,312z"/>
	<path style="fill:#94C2ED;" d="M385,312v-20c0-1.65,1.35-3,3-3h-20c-1.65,0-3,1.35-3,3v20c0,1.65,1.35,3,3,3h20
		C386.35,315,385,313.65,385,312z"/>
	<path style="fill:#94C2ED;" d="M103,242v-20c0-1.65,1.35-3,3-3H85.711c-1.65,0-3,1.35-3,3v20c0,1.65,1.35,3,3,3H106
		C104.35,245,103,243.65,103,242z"/>
</g>
<circle style="fill:#EF9614;" cx="117.71" cy="158" r="25"/>
<circle style="fill:#FFCA51;" cx="117.71" cy="158" r="12"/>
<path style="fill:#02AF8E;" d="M35.549,374h440.902c4.76-9.787,8.878-19.94,12.319-30.402H23.229
	C26.671,354.06,30.789,364.213,35.549,374z"/>
<path style="fill:#D9EAFC;" d="M333.646,166.312l-22.453,22.452c-3.507,3.507-3.507,9.194,0,12.701
	c3.508,3.507,9.194,3.507,12.702,0l22.451-22.453L333.646,166.312z"/>
<path style="fill:#EF9614;" d="M353.021,182.857c-1.167,1.166-3.076,1.166-4.242,0L329.8,163.881c-1.166-1.167-1.167-3.076,0-4.242
	l8.859-8.859c1.167-1.167,3.075-1.167,4.242,0l18.978,18.977c1.166,1.167,1.166,3.076,0,4.242L353.021,182.857z"/>
<circle style="fill:#FFCA51;" cx="103.97" cy="31.03" r="8.03"/>
<path style="fill:#28A5A5;" d="M218.475,0l9.853,17.066c0.825,1.429,2.85,2.598,4.5,2.598h46.346c1.65,0,3.675-1.169,4.5-2.598
	L293.525,0H218.475z"/>
<path style="fill:#0F9390;" d="M248.852,17.066L239,0h-20.525l9.853,17.066c0.825,1.429,2.85,2.598,4.5,2.598h20.525
	C251.702,19.664,249.678,18.495,248.852,17.066z"/>
<g>
</g>
<g>
</g>
<g>
</g>
<g>
</g>
<g>
</g>
<g>
</g>
<g>
</g>
<g>
</g>
<g>
</g>
<g>
</g>
<g>
</g>
<g>
</g>
<g>
</g>
<g>
</g>
<g>
</g>
</svg>
