<?xml version="1.0" encoding="iso-8859-1"?>
<!-- Generator: Adobe Illustrator 19.0.0, SVG Export Plug-In . SVG Version: 6.00 Build 0)  -->
<svg version="1.1" id="Capa_1" xmlns="http://www.w3.org/2000/svg" xmlns:xlink="http://www.w3.org/1999/xlink" x="0px" y="0px"
	 viewBox="0 0 512 512" style="enable-background:new 0 0 512 512;" xml:space="preserve">
<circle style="fill:#C3DDF4;" cx="256" cy="267" r="245"/>
<path style="fill:#FFFFFF;" d="M160.211,394h6.891l-89.803-89.803c-2.93-2.929-7.678-2.929-10.607,0s-2.929,7.678,0,10.606
	l85.086,85.086C153.047,396.457,156.343,394,160.211,394z"/>
<g>
	<path style="fill:#EEF6FF;" d="M445.799,304.197c-2.93-2.929-7.678-2.929-10.607,0L345.389,394h6.891
		c3.868,0,7.164,2.457,8.434,5.889l85.086-85.086C448.728,311.875,448.728,307.125,445.799,304.197z"/>
	<path style="fill:#EEF6FF;" d="M324.007,394l157.801-222.786C444.515,83.505,357.564,22,256.245,22
		c-101.32,0-188.27,61.506-225.563,149.215L188.481,394H324.007z"/>
</g>
<path style="fill:#FFE2B8;" d="M219.369,125.464v-16.845h-6.174c-3.567,0-6.458,2.892-6.458,6.458v11.838
	c0,3.566,2.891,6.458,6.458,6.458h7.025C219.668,130.823,219.369,128.178,219.369,125.464z"/>
<path style="fill:#FFC987;" d="M299.296,108.619h-6.175v16.845c0,2.714-0.299,5.359-0.852,7.909h7.026
	c3.566,0,6.457-2.892,6.457-6.458v-11.838C305.753,111.511,302.862,108.619,299.296,108.619z"/>
<path style="fill:#445EA0;" d="M303.205,224.979h-6.329v-47.626c0-5.532-4.5-10.033-10.032-10.033h-15.266v-8.12
	c-4.673,2.16-9.863,3.374-15.333,3.374s-10.66-1.214-15.333-3.374v8.12h-15.265c-5.532,0-10.033,4.501-10.033,10.033v44.626
	c0,1.657,1.343,3,3,3h6.33v14.607h-11.486c-1.649,0-3,1.35-3,3v8.606c0,1.65,1.351,3,3,3h6.39v14.607h-1.233c-1.657,0-3,1.343-3,3
	v2.866c0,2.77,2.246,5.016,5.018,5.016h71.227c2.772,0,5.018-2.246,5.018-5.016v-5.866h1.232c1.649,0,3-1.35,3-3v-8.606
	c0-1.65-1.351-3-3-3h-6.39v-14.607h11.486c1.649,0,3-1.35,3-3v-8.607C306.205,226.329,304.854,224.979,303.205,224.979z"/>
<path style="fill:#FFC987;" d="M380.837,262.493l-8.819-8.82l6.443-6.444c0.813-0.812,0.811-2.14,0-2.951l-3.384-3.384
	c-0.813-0.812-2.14-0.811-2.95,0l-6.444,6.444l-2.11-2.11l-12.671,12.67l17.266,17.265c0.811,0.811,2.14,0.812,2.951,0l9.719-9.72
	C381.649,264.632,381.649,263.304,380.837,262.493z"/>
<path style="fill:#2E4C89;" d="M364.376,241.596l-68.751-68.751c-0.423-0.423-0.944-0.688-1.491-0.804
	c1.091,1.493,1.742,3.325,1.742,5.311v30.589l51.077,51.077c1.166,1.167,3.076,1.167,4.242,0l13.181-13.18
	C365.543,244.672,365.543,242.763,364.376,241.596z"/>
<path style="fill:#FFC987;" d="M148.918,245.228l-2.109,2.11l-6.445-6.444c-0.811-0.811-2.138-0.812-2.95,0l-3.384,3.384
	c-0.811,0.811-0.813,2.139,0,2.951l6.443,6.444l-8.819,8.82c-0.813,0.811-0.813,2.139,0,2.951l9.719,9.72
	c0.812,0.812,2.14,0.811,2.951,0l17.266-17.265L148.918,245.228z"/>
<g>
	<path style="fill:#445EA0;" d="M216.865,172.846L171.711,218h-12.466c-1.65,0-3,1.35-3,3v12.465l-8.131,8.131
		c-1.167,1.166-1.167,3.076,0,4.242l13.181,13.18c1.166,1.167,3.076,1.167,4.242,0l51.077-51.077v-30.589
		c0-1.986,0.652-3.818,1.743-5.311C217.809,172.158,217.288,172.423,216.865,172.846z"/>
	<path style="fill:#445EA0;" d="M286.844,167.32h-15.266v-8.12c-4.673,2.16-9.863,3.374-15.333,3.374s-10.66-1.214-15.333-3.374
		v8.12h-15.265c-5.532,0-10.033,4.501-10.033,10.033v44.626c0,1.657,1.343,3,3,3h78.262v-47.626
		C296.876,171.821,292.376,167.32,286.844,167.32z"/>
</g>
<path style="fill:#2E4C89;" d="M225.783,221.979v-44.626c0-5.532,4.501-10.033,10.033-10.033h-10.169
	c-5.532,0-10.033,4.501-10.033,10.033v44.626c0,1.657,1.343,3,3,3h10.169C227.126,224.979,225.783,223.635,225.783,221.979z"/>
<path style="fill:#994334;" d="M299.245,58h-14c-1.65,0-3,1.35-3,3v4.253c-6.784-5.351-15.93-8.253-26-8.253
	c-20.919,0-37.876,12.492-37.876,33.54v19.341c0-21.048,16.957-30.096,37.876-30.096s37.876,9.048,37.876,30.096V90.54
	c0-4.603-0.811-8.797-2.297-12.54h7.421c1.65,0,3-1.35,3-3V61C302.245,59.35,300.896,58,299.245,58z"/>
<path style="fill:#772C22;" d="M261.595,57.284c-1.748-0.187-3.533-0.284-5.35-0.284c-20.919,0-37.876,12.492-37.876,33.54v19.341
	c0-10.39,4.137-17.851,10.838-22.747C230.781,69.891,244.313,59.113,261.595,57.284z"/>
<g>
	<path style="fill:#1A2B63;" d="M222.789,383h25.08c0.398,0,0.78,0.059,1.152,0.147V278h-27.384v105.147
		C222.01,383.059,222.392,383,222.789,383z"/>
	<path style="fill:#1A2B63;" d="M264.62,383h25.081c0.398,0,0.78,0.059,1.152,0.147V278h-27.385v105.147
		C263.84,383.059,264.223,383,264.62,383z"/>
</g>
<path style="fill:#FFE2B8;" d="M294.121,125.464c0,21.048-16.957,38.11-37.876,38.11l0,0c-20.919,0-37.876-17.063-37.876-38.11
	v-17.008c0-21.048,16.957-30.096,37.876-30.096l0,0c20.919,0,37.876,9.048,37.876,30.096V125.464z"/>
<path style="fill:#FFC987;" d="M229.045,125.464v-17.008c0-19.224,14.148-28.433,32.538-29.885c-1.745-0.138-3.525-0.21-5.338-0.21
	c-20.919,0-37.876,9.048-37.876,30.096v17.008c0,21.048,16.957,38.11,37.876,38.11c1.813,0,3.593-0.136,5.338-0.384
	C243.193,160.579,229.045,144.688,229.045,125.464z"/>
<path style="fill:#994334;" d="M247.869,381.961h-25.08c-2.759,0-5.017,2.257-5.017,5.016V394h35.112v-7.022
	C252.885,384.219,250.628,381.961,247.869,381.961z"/>
<path style="fill:#772C22;" d="M232.949,381.961h-10.16c-2.759,0-5.017,2.257-5.017,5.016V394h10.16v-7.022
	C227.933,384.219,230.19,381.961,232.949,381.961z"/>
<path style="fill:#994334;" d="M289.701,381.961H264.62c-2.758,0-5.015,2.257-5.015,5.016V394h35.112v-7.022
	C294.718,384.219,292.461,381.961,289.701,381.961z"/>
<path style="fill:#772C22;" d="M274.947,381.961H264.62c-2.758,0-5.015,2.257-5.015,5.016V394h10.327v-7.022
	C269.933,384.219,272.189,381.961,274.947,381.961z"/>
<g>
	<path style="fill:#1A2B63;" d="M240.912,167.32h-15.265c-5.532,0-10.033,4.501-10.033,10.033v15.264L240.912,167.32z"/>
	<path style="fill:#1A2B63;" d="M271.578,167.32h15.266c5.531,0,10.032,4.501,10.032,10.033v15.264L271.578,167.32z"/>
</g>
<g>
	<path style="fill:#EBAA48;" d="M239.852,129.637c-4.143,0-7.5-3.358-7.5-7.5v-7.016c0-4.142,3.357-7.5,7.5-7.5s7.5,3.358,7.5,7.5
		v7.016C247.352,126.279,243.994,129.637,239.852,129.637z"/>
	<path style="fill:#EBAA48;" d="M272.64,129.637c-4.143,0-7.5-3.358-7.5-7.5v-7.016c0-4.142,3.357-7.5,7.5-7.5s7.5,3.358,7.5,7.5
		v7.016C280.14,126.279,276.782,129.637,272.64,129.637z"/>
</g>
<path style="fill:#FFFFFF;" d="M362.279,430.003V403c0-5.5-4.5-10-10-10H160.211c-5.5,0-10,4.5-10,10v27.003H362.279z"/>
<path style="fill:#EEF6FF;" d="M181.045,393h-20.834c-5.5,0-10,4.5-10,10v27.003h20.834V403C171.045,397.5,175.545,393,181.045,393z
	"/>
<path style="fill:#293D7C;" d="M377.745,427.003h-243c-5.5,0-10,4.5-10,10V473.9C162.688,498.021,207.71,512,256,512
	c48.497,0,93.701-14.095,131.745-38.406v-36.591C387.745,431.503,383.245,427.003,377.745,427.003z"/>
<g>
	<circle style="fill:#445EA0;" cx="223.6" cy="473" r="8.03"/>
	<circle style="fill:#445EA0;" cx="256.25" cy="473" r="8.03"/>
	<circle style="fill:#445EA0;" cx="288.89" cy="473" r="8.03"/>
</g>
<g>
	<path style="fill:#1A2B63;" d="M333.245,335c0,1.65-1.35,3-3,3h-14c-1.65,0-3-1.35-3-3v-14c0-1.65,1.35-3,3-3h14c1.65,0,3,1.35,3,3
		V335z"/>
	<path style="fill:#1A2B63;" d="M342.745,344.5c0,1.65-1.35,3-3,3h-14c-1.65,0-3-1.35-3-3v-14c0-1.65,1.35-3,3-3h14
		c1.65,0,3,1.35,3,3V344.5z"/>
	<path style="fill:#1A2B63;" d="M304.245,364c0,1.65-1.35,3-3,3h-14c-1.65,0-3-1.35-3-3v-14c0-1.65,1.35-3,3-3h14c1.65,0,3,1.35,3,3
		V364z"/>
</g>
<path style="fill:#293D7C;" d="M323.245,305c0,1.65-1.35,3-3,3h-14c-1.65,0-3-1.35-3-3v-14c0-1.65,1.35-3,3-3h14c1.65,0,3,1.35,3,3
	V305z"/>
<path style="fill:#994334;" d="M340.245,90c0,1.65-1.35,3-3,3h-14c-1.65,0-3-1.35-3-3V76c0-1.65,1.35-3,3-3h14c1.65,0,3,1.35,3,3V90
	z"/>
<path style="fill:#DB722C;" d="M342.245,42c0,1.65-1.35,3-3,3h-14c-1.65,0-3-1.35-3-3V28c0-1.65,1.35-3,3-3h14c1.65,0,3,1.35,3,3V42
	z"/>
<path style="fill:#994334;" d="M373.245,17c0,1.65-1.35,3-3,3h-14c-1.65,0-3-1.35-3-3V3c0-1.65,1.35-3,3-3h14c1.65,0,3,1.35,3,3V17z
	"/>
<g>
	<path style="fill:#293D7C;" d="M191.245,303c0,1.65-1.35,3-3,3h-14c-1.65,0-3-1.35-3-3v-14c0-1.65,1.35-3,3-3h14c1.65,0,3,1.35,3,3
		V303z"/>
	<path style="fill:#293D7C;" d="M206.245,271c0,1.65-1.35,3-3,3h-14c-1.65,0-3-1.35-3-3v-14c0-1.65,1.35-3,3-3h14c1.65,0,3,1.35,3,3
		V271z"/>
</g>
<path style="fill:#1A2B63;" d="M168.245,198c0,1.65-1.35,3-3,3h-14c-1.65,0-3-1.35-3-3v-14c0-1.65,1.35-3,3-3h14c1.65,0,3,1.35,3,3
	V198z"/>
<g>
	<path style="fill:#2E4C89;" d="M202.245,176c0,1.65-1.35,3-3,3h-14c-1.65,0-3-1.35-3-3v-14c0-1.65,1.35-3,3-3h14c1.65,0,3,1.35,3,3
		V176z"/>
	<path style="fill:#2E4C89;" d="M208.245,370c0,1.65-1.35,3-3,3h-14c-1.65,0-3-1.35-3-3v-14c0-1.65,1.35-3,3-3h14c1.65,0,3,1.35,3,3
		V370z"/>
</g>
<path style="fill:#1A2B63;" d="M231.245,345c0,1.65-1.35,3-3,3h-14c-1.65,0-3-1.35-3-3v-14c0-1.65,1.35-3,3-3h14c1.65,0,3,1.35,3,3
	V345z"/>
<path style="fill:#02AF8E;" d="M218.72,427.003l9.853,17.066c0.825,1.429,2.85,2.598,4.5,2.598h46.346c1.65,0,3.675-1.169,4.5-2.598
	l9.853-17.066H218.72z"/>
<path style="fill:#0F9390;" d="M248.897,444.069l-9.852-17.066H218.72l9.853,17.066c0.825,1.429,2.85,2.598,4.5,2.598h20.325
	C251.747,446.668,249.723,445.499,248.897,444.069z"/>
<g>
	<path style="fill:#EEF6FF;" d="M467.045,297c-0.81,0-1.538-0.488-1.848-1.235c-4.123-9.955-7.164-12.995-17.118-17.118
		c-0.747-0.31-1.234-1.039-1.234-1.848s0.487-1.538,1.234-1.848c9.954-4.123,12.995-7.162,17.118-17.118
		c0.31-0.747,1.038-1.235,1.848-1.235s1.538,0.488,1.848,1.235c4.123,9.955,7.164,12.995,17.117,17.118
		c0.748,0.31,1.235,1.039,1.235,1.848s-0.487,1.538-1.235,1.848c-9.953,4.123-12.994,7.163-17.117,17.118
		C468.583,296.512,467.854,297,467.045,297z"/>
	<path style="fill:#EEF6FF;" d="M47.045,302.4c-0.81,0-1.538-0.488-1.848-1.235c-4.123-9.955-7.164-12.995-17.118-17.118
		c-0.747-0.31-1.234-1.039-1.234-1.848s0.487-1.538,1.234-1.848c9.954-4.123,12.995-7.163,17.118-17.118
		c0.31-0.747,1.038-1.235,1.848-1.235s1.538,0.488,1.848,1.235c4.123,9.955,7.164,12.995,17.117,17.118
		c0.748,0.31,1.235,1.039,1.235,1.848s-0.487,1.538-1.235,1.848c-9.953,4.123-12.994,7.163-17.117,17.118
		C48.583,301.913,47.854,302.4,47.045,302.4z"/>
</g>
<path style="fill:#C3DDF4;" d="M114.445,152.4c-0.81,0-1.538-0.488-1.848-1.235c-4.123-9.955-7.164-12.995-17.118-17.118
	c-0.747-0.31-1.234-1.039-1.234-1.848s0.487-1.538,1.234-1.848c9.954-4.123,12.995-7.163,17.118-17.118
	c0.31-0.747,1.038-1.235,1.848-1.235s1.538,0.488,1.848,1.235c4.123,9.955,7.164,12.995,17.117,17.118
	c0.748,0.31,1.235,1.039,1.235,1.848s-0.487,1.538-1.235,1.848c-9.953,4.123-12.994,7.163-17.117,17.118
	C115.983,151.913,115.255,152.4,114.445,152.4z"/>
<path style="fill:#9CE2D8;" d="M137.045,82.4c-1.01,0-1.919-0.608-2.305-1.54c-5.144-12.419-8.938-16.211-21.356-21.354
	c-0.933-0.386-1.54-1.296-1.54-2.305s0.607-1.919,1.54-2.305c12.418-5.144,16.212-8.936,21.356-21.354
	c0.386-0.932,1.295-1.541,2.305-1.541s1.919,0.608,2.306,1.541c5.143,12.419,8.936,16.211,21.354,21.354
	c0.934,0.386,1.541,1.296,1.541,2.305s-0.607,1.919-1.541,2.305c-12.417,5.144-16.211,8.936-21.354,21.354
	C138.964,81.792,138.055,82.4,137.045,82.4z"/>
<path style="fill:#C3DDF4;" d="M396.445,224c-0.81,0-1.538-0.488-1.848-1.235c-4.123-9.955-7.164-12.995-17.118-17.118
	c-0.747-0.31-1.234-1.039-1.234-1.848s0.487-1.538,1.234-1.848c9.954-4.123,12.995-7.163,17.118-17.118
	c0.31-0.747,1.038-1.235,1.848-1.235s1.538,0.488,1.848,1.235c4.123,9.955,7.164,12.995,17.117,17.118
	c0.748,0.31,1.235,1.039,1.235,1.848s-0.487,1.538-1.235,1.848c-9.953,4.123-12.994,7.163-17.117,17.118
	C397.983,223.512,397.255,224,396.445,224z"/>
<path style="fill:#9CE2D8;" d="M390.045,155c-1.05,0-1.995-0.633-2.396-1.602c-5.348-12.912-9.292-16.855-22.202-22.202
	c-0.97-0.401-1.602-1.347-1.602-2.396s0.632-1.995,1.602-2.397c12.91-5.348,16.855-9.29,22.202-22.202
	c0.401-0.969,1.347-1.602,2.396-1.602s1.995,0.633,2.397,1.602c5.348,12.912,9.292,16.854,22.201,22.202
	c0.971,0.401,1.602,1.347,1.602,2.397s-0.632,1.995-1.602,2.396c-12.909,5.348-16.854,9.29-22.201,22.202
	C392.04,154.367,391.095,155,390.045,155z"/>
<path style="fill:#994334;" d="M297.245,25c0,1.65-1.35,3-3,3h-14c-1.65,0-3-1.35-3-3V11c0-1.65,1.35-3,3-3h14c1.65,0,3,1.35,3,3V25
	z"/>
<path style="fill:#DB722C;" d="M241.245,50c0,1.65-1.35,3-3,3h-14c-1.65,0-3-1.35-3-3V36c0-1.65,1.35-3,3-3h14c1.65,0,3,1.35,3,3V50
	z"/>
<path style="fill:#2E4C89;" d="M303.205,224.979h-78.261v14.607h78.261c1.649,0,3-1.35,3-3v-8.607
	C306.205,226.329,304.854,224.979,303.205,224.979z"/>
<rect x="224.94" y="224.98" style="fill:#293D7C;" width="10.1" height="14.606"/>
<path style="fill:#2E4C89;" d="M298.108,254.192h-78.261v14.606h78.261c1.649,0,3-1.35,3-3v-8.606
	C301.108,255.542,299.758,254.192,298.108,254.192z"/>
<rect x="219.85" y="254.19" style="fill:#293D7C;" width="10.197" height="14.606"/>
<path style="fill:#445EA0;" d="M213.458,254.192h78.261v-14.606h-78.261c-1.649,0-3,1.35-3,3v8.606
	C210.458,252.842,211.809,254.192,213.458,254.192z"/>
<path style="fill:#2E4C89;" d="M220.784,251.192v-8.606c0-1.65,1.351-3,3-3h-10.326c-1.649,0-3,1.35-3,3v8.606c0,1.65,1.351,3,3,3
	h10.326C222.135,254.192,220.784,252.842,220.784,251.192z"/>
<path style="fill:#445EA0;" d="M218.614,268.799c-1.657,0-3,1.343-3,3v2.866c0,2.77,2.246,5.016,5.018,5.016h71.227
	c2.772,0,5.018-2.246,5.018-5.016v-5.866H218.614z"/>
<path style="fill:#2E4C89;" d="M225.783,274.665v-2.866c0-1.657,1.343-3,3-3h-10.169c-1.657,0-3,1.343-3,3v2.866
	c0,2.77,2.246,5.016,5.018,5.016h10.169C228.029,279.681,225.783,277.435,225.783,274.665z"/>
<path style="fill:#1A2B63;" d="M155.045,427.003h-20.3c-5.5,0-10,4.5-10,10V473.9c6.562,4.171,13.334,8.041,20.3,11.586v-48.483
	C145.045,431.503,149.545,427.003,155.045,427.003z"/>
<g>
</g>
<g>
</g>
<g>
</g>
<g>
</g>
<g>
</g>
<g>
</g>
<g>
</g>
<g>
</g>
<g>
</g>
<g>
</g>
<g>
</g>
<g>
</g>
<g>
</g>
<g>
</g>
<g>
</g>
</svg>
