<?xml version="1.0" encoding="iso-8859-1"?>
<!-- Generator: Adobe Illustrator 19.0.0, SVG Export Plug-In . SVG Version: 6.00 Build 0)  -->
<svg version="1.1" id="Capa_1" xmlns="http://www.w3.org/2000/svg" xmlns:xlink="http://www.w3.org/1999/xlink" x="0px" y="0px"
	 viewBox="0 0 512 512" style="enable-background:new 0 0 512 512;" xml:space="preserve">
<circle style="fill:#94C2ED;" cx="256" cy="267" r="245"/>
<path style="fill:#0F9390;" d="M451.136,179c2.479-5.79,3.855-12.16,3.855-18.848c0-14.559-40.004-142.662-44.564-157.577
	C409.959,1.046,408.546,0,406.946,0c-1.602,0-3.013,1.046-3.481,2.575C398.905,17.49,358.9,139.77,358.9,160.152
	c0,6.688,1.377,13.058,3.855,18.848H451.136z"/>
<path style="fill:#057C76;" d="M413.461,12.414c-1.432-4.636-2.488-8.055-3.034-9.839C409.959,1.046,408.546,0,406.946,0
	c-1.602,0-3.013,1.046-3.481,2.575C398.905,17.49,358.9,139.77,358.9,160.152c0,6.688,1.377,13.058,3.855,18.848h13.1
	c-2.478-5.79-3.855-12.16-3.855-18.848C372,142.248,402.863,45.735,413.461,12.414z"/>
<path style="fill:#A53535;" d="M415.022,179v-43.724c0-4.461-3.616-8.076-8.075-8.076c-4.461,0-8.076,3.615-8.076,8.076V179H415.022
	z"/>
<path style="fill:#D9ED69;" d="M350.594,179c-12.069-42.075-28.306-94.144-31.113-103.325C319.013,74.146,317.6,73.1,316,73.1
	c-1.602,0-3.013,1.046-3.481,2.575c-2.864,9.369-19.712,61.096-31.847,103.325H350.594z"/>
<path style="fill:#37C47A;" d="M319.48,75.675c-0.467-1.529-1.88-2.575-3.48-2.575c-1.602,0-3.013,1.046-3.481,2.575
	c-2.864,9.369-19.712,61.096-31.847,103.325h16.406c8.962-31.186,20.492-67.548,27.065-88.209
	C321.877,83.441,320.217,78.082,319.48,75.675z"/>
<path style="fill:#EEF6FF;" d="M247.9,198.298c-1.103,0-2-0.897-2-2v-16c0-1.103,0.897-2,2-2h9.939V39H71v282h388.9V198.298H247.9z"
	/>
<rect x="71" y="39" style="fill:#D9EAFC;" width="21" height="282"/>
<path style="fill:#2E4C89;" d="M472.9,196.298c0,1.65-1.35,3-3,3h-222c-1.65,0-3-1.35-3-3v-16c0-1.65,1.35-3,3-3h222
	c1.65,0,3,1.35,3,3V196.298z"/>
<path style="fill:#C3DDF4;" d="M215.84,321V214.438c0-1.65-1.35-3-3-3h-82c-1.65,0-3,1.35-3,3V321H215.84z"/>
<path style="fill:#94C2ED;" d="M151,211.438h-20.16c-1.65,0-3,1.35-3,3V321H148V214.438C148,212.787,149.35,211.438,151,211.438z"/>
<g>
	<path style="fill:#C3DDF4;" d="M326.9,219.298h-28c-1.65,0-3,1.35-3,3v66.383c0.838-0.098,1.684-0.147,2.53-0.147
		c6.085,0,11.6,2.481,15.588,6.485H326.9c1.65,0,3-1.35,3-3v-69.721C329.9,220.648,328.551,219.298,326.9,219.298z"/>
	<path style="fill:#C3DDF4;" d="M381.9,292.019c0,1.65-1.35,3-3,3h-28c-1.65,0-3-1.35-3-3v-69.721c0-1.65,1.35-3,3-3h28
		c1.65,0,3,1.35,3,3V292.019z"/>
	<path style="fill:#C3DDF4;" d="M433.9,292.019c0,1.65-1.35,3-3,3h-28c-1.65,0-3-1.35-3-3v-69.721c0-1.65,1.35-3,3-3h28
		c1.65,0,3,1.35,3,3V292.019z"/>
</g>
<g>
	<path style="fill:#94C2ED;" d="M358,292.019v-69.721c0-1.65,1.35-3,3-3h-10.1c-1.65,0-3,1.35-3,3v69.721c0,1.65,1.35,3,3,3H361
		C359.35,295.019,358,293.669,358,292.019z"/>
	<path style="fill:#94C2ED;" d="M410,292.019v-69.721c0-1.65,1.35-3,3-3h-10.1c-1.65,0-3,1.35-3,3v69.721c0,1.65,1.35,3,3,3H413
		C411.35,295.019,410,293.669,410,292.019z"/>
</g>
<path style="fill:#60D882;" d="M298.431,287.533c-3.974,0-7.713,1.008-10.975,2.781c2.401,4.5,3.767,9.637,3.767,15.095
	c0,6.472-1.921,11.636-5.215,15.591h32.263c2.014-2.732,3.173-6.198,3.173-10.453C321.444,297.837,311.143,287.533,298.431,287.533z
	"/>
<path style="fill:#37C47A;" d="M287.331,321c3.294-3.955,5.215-9.119,5.215-15.591c0-17.734-14.377-32.111-32.111-32.111
	c-17.735,0-32.112,14.377-32.112,32.111c0,6.472,1.921,11.636,5.215,15.591H287.331z"/>
<path style="fill:#02AF8E;" d="M265.661,273.728c-1.701-0.278-3.446-0.43-5.227-0.43c-17.735,0-32.112,14.377-32.112,32.111
	c0,6.472,1.921,11.636,5.215,15.591h10.454c-3.294-3.955-5.215-9.119-5.215-15.591C238.776,289.455,250.414,276.226,265.661,273.728
	z"/>
<path style="fill:#2E4C89;" d="M275,37.298c0,1.65-1.35,3-3,3H58c-1.65,0-3-1.35-3-3v-22c0-1.65,1.35-3,3-3h214c1.65,0,3,1.35,3,3
	V37.298z"/>
<g>
	<path style="fill:#293D7C;" d="M265.9,196.298v-16c0-1.65,1.35-3,3-3h-21c-1.65,0-3,1.35-3,3v16c0,1.65,1.35,3,3,3h21
		C267.25,199.298,265.9,197.948,265.9,196.298z"/>
	<path style="fill:#293D7C;" d="M76,37.298v-22c0-1.65,1.35-3,3-3H58c-1.65,0-3,1.35-3,3v22c0,1.65,1.35,3,3,3h21
		C77.35,40.298,76,38.948,76,37.298z"/>
</g>
<path style="fill:#C3DDF4;" d="M218.379,110.78c-1.92,0-3.84-0.732-5.303-2.196c-22.738-22.738-59.734-22.738-82.473,0
	c-2.928,2.928-7.678,2.928-10.605,0c-2.93-2.93-2.93-7.678,0-10.607c28.584-28.587,75.098-28.585,103.684,0
	c2.93,2.93,2.93,7.678,0,10.607C222.217,110.048,220.299,110.78,218.379,110.78z"/>
<path style="fill:#69CDFF;" d="M140.559,126.039c-1.918,0-3.838-0.732-5.303-2.196c-2.93-2.93-2.93-7.678,0-10.607
	c20.172-20.173,52.994-20.172,73.168,0c2.93,2.93,2.93,7.678,0,10.606c-2.93,2.93-7.678,2.929-10.607,0.001
	c-14.324-14.324-37.629-14.324-51.953,0C144.398,125.307,142.478,126.039,140.559,126.039z"/>
<path style="fill:#1E99D6;" d="M187.861,141.298c-1.92,0-3.838-0.732-5.303-2.196c-5.91-5.909-15.527-5.91-21.438,0
	c-2.928,2.928-7.678,2.928-10.605,0c-2.93-2.93-2.93-7.678,0-10.607c11.758-11.758,30.891-11.758,42.648,0
	c2.93,2.93,2.93,7.678,0,10.607C191.701,140.565,189.781,141.298,187.861,141.298z"/>
<path style="fill:#EEF6FF;" d="M205,283.605c0,1.65-1.35,3-3,3h-9c-1.65,0-3-1.35-3-3V254.99c0-1.65,1.35-3,3-3h9c1.65,0,3,1.35,3,3
	V283.605z"/>
<path style="fill:#02AF8E;" d="M256,512c117.205,0,215.169-82.307,239.292-192.269H16.708C40.831,429.693,138.796,512,256,512z"/>
<g>
	<path style="fill:#0F9390;" d="M83.817,344h-14c-4.143,0-7.5,3.357-7.5,7.5s3.357,7.5,7.5,7.5h14c4.143,0,7.5-3.357,7.5-7.5
		S87.96,344,83.817,344z"/>
	<path style="fill:#0F9390;" d="M234.317,481h-14c-4.143,0-7.5,3.357-7.5,7.5s3.357,7.5,7.5,7.5h14c4.143,0,7.5-3.357,7.5-7.5
		S238.46,481,234.317,481z"/>
	<path style="fill:#0F9390;" d="M115.817,398h-14c-4.143,0-7.5,3.357-7.5,7.5s3.357,7.5,7.5,7.5h14c4.143,0,7.5-3.357,7.5-7.5
		S119.96,398,115.817,398z"/>
	<path style="fill:#0F9390;" d="M439.817,350h-14c-4.143,0-7.5,3.357-7.5,7.5s3.357,7.5,7.5,7.5h14c4.143,0,7.5-3.357,7.5-7.5
		S443.96,350,439.817,350z"/>
	<path style="fill:#0F9390;" d="M415.817,408h-14c-4.143,0-7.5,3.357-7.5,7.5s3.357,7.5,7.5,7.5h14c4.143,0,7.5-3.357,7.5-7.5
		S419.96,408,415.817,408z"/>
</g>
<path style="fill:#2E4C89;" d="M368.513,335.1c6.058,0,11.01,4.955,11.01,11.006V453.99c0,6.057-4.952,11.01-11.01,11.01H150.12
	c-6.055,0-11.008-4.953-11.008-11.01V346.105c0-6.051,4.953-11.006,11.008-11.006h218.393V335.1z"/>
<rect x="155.42" y="335.1" style="fill:#C3DDF4;" width="187.78" height="129.9"/>
<path style="fill:#FFFFFF;" d="M360.159,418.793c-4.143,0-7.5-3.358-7.5-7.5v-22.486c0-4.143,3.357-7.5,7.5-7.5s7.5,3.357,7.5,7.5
	v22.486C367.659,415.435,364.302,418.793,360.159,418.793z"/>
<path style="fill:#94C2ED;" d="M312.93,446.447c5.5,0,10-4.5,10-10v-72.795c0-5.5-4.5-10-10-10h-19.647c-5.5,0-10,4.5-10,10v72.795
	c0,5.5,4.5,10,10,10L312.93,446.447L312.93,446.447z"/>
<path style="fill:#6A8AC4;" d="M293.353,436.447v-72.795c0-5.5,4.5-10,10-10h-10.07c-5.5,0-10,4.5-10,10v72.795c0,5.5,4.5,10,10,10
	h10.07C297.853,446.447,293.353,441.947,293.353,436.447z"/>
<path style="fill:#60D882;" d="M259.668,397.604c-1.92,0-3.839-0.732-5.304-2.197c-8.903-8.904-20.763-13.808-33.395-13.808
	c-12.633,0-24.494,4.904-33.4,13.809c-2.929,2.928-7.678,2.929-10.607-0.001c-2.929-2.929-2.928-7.678,0.001-10.606
	c11.739-11.737,27.367-18.201,44.006-18.201s32.267,6.464,44.003,18.202c2.929,2.929,2.929,7.678-0.001,10.606
	C263.507,396.872,261.587,397.604,259.668,397.604z"/>
<path style="fill:#37C47A;" d="M246.979,412.876c-1.919,0-3.839-0.732-5.304-2.197c-5.52-5.521-12.874-8.561-20.708-8.561
	c-7.833,0-15.188,3.04-20.709,8.561c-2.929,2.928-7.678,2.928-10.606,0c-2.929-2.93-2.929-7.678,0-10.607
	c8.354-8.353,19.475-12.954,31.315-12.954c11.841,0,22.962,4.601,31.315,12.955c2.929,2.929,2.928,7.678-0.001,10.606
	C250.817,412.144,248.898,412.876,246.979,412.876z"/>
<path style="fill:#02AF8E;" d="M234.291,428.259c-1.92,0-3.84-0.732-5.305-2.198c-2.142-2.142-4.989-3.322-8.018-3.322
	s-5.877,1.18-8.019,3.322c-2.929,2.931-7.678,2.932-10.606,0.003c-2.93-2.928-2.931-7.677-0.003-10.607
	c4.975-4.978,11.591-7.719,18.628-7.719s13.653,2.741,18.628,7.719c2.928,2.93,2.927,7.679-0.003,10.607
	C238.129,427.527,236.21,428.259,234.291,428.259z"/>
<path style="fill:#94C2ED;" d="M306,222.298c0-1.65,1.35-3,3-3h-10.1c-1.65,0-3,1.35-3,3v66.383c0.838-0.098,1.684-0.147,2.53-0.147
	c2.658,0,5.208,0.474,7.569,1.342v-67.578H306z"/>
<g>
</g>
<g>
</g>
<g>
</g>
<g>
</g>
<g>
</g>
<g>
</g>
<g>
</g>
<g>
</g>
<g>
</g>
<g>
</g>
<g>
</g>
<g>
</g>
<g>
</g>
<g>
</g>
<g>
</g>
</svg>
