<?xml version="1.0" encoding="iso-8859-1"?>
<!-- Generator: Adobe Illustrator 19.0.0, SVG Export Plug-In . SVG Version: 6.00 Build 0)  -->
<svg version="1.1" id="Capa_1" xmlns="http://www.w3.org/2000/svg" xmlns:xlink="http://www.w3.org/1999/xlink" x="0px" y="0px"
	 viewBox="0 0 512 512" style="enable-background:new 0 0 512 512;" xml:space="preserve">
<circle style="fill:#D9ED69;" cx="256" cy="256" r="245"/>
<g>
	<path style="fill:#2E4C89;" d="M112.146,248.499H23.755l33.334-33.412c2.926-2.932,2.92-7.681-0.013-10.606
		c-2.933-2.926-7.682-2.921-10.606,0.013l-42.252,42.35c-4.86,4.873-4.86,12.801,0,17.674l42.89,42.989
		c1.465,1.469,3.387,2.203,5.31,2.203c1.916,0,3.833-0.73,5.297-2.19c2.933-2.926,2.938-7.675,0.013-10.607l-33.336-33.414h87.755
		c4.143,0,7.5-3.357,7.5-7.5C119.646,251.857,116.288,248.499,112.146,248.499z"/>
	<path style="fill:#2E4C89;" d="M507.782,247.48l-42.889-42.987c-2.925-2.933-7.674-2.938-10.606-0.013
		c-2.933,2.926-2.939,7.675-0.013,10.606l33.335,33.412h-87.755c-4.143,0-7.5,3.358-7.5,7.5c0,4.143,3.357,7.5,7.5,7.5h88.392
		l-33.335,33.414c-2.926,2.933-2.92,7.681,0.013,10.607c1.464,1.461,3.38,2.19,5.297,2.19c1.922,0,3.845-0.734,5.31-2.203
		l42.252-42.353C512.643,260.281,512.643,252.354,507.782,247.48z"/>
	<path style="fill:#2E4C89;" d="M209.896,59.448c1.922,0,3.845-0.734,5.31-2.203l33.293-33.37v58.733
		c2.46-0.311,4.96-0.488,7.503-0.488c2.541,0,5.039,0.178,7.497,0.487v-59.37l33.295,33.369c2.927,2.933,7.675,2.938,10.607,0.013
		c2.932-2.926,2.938-7.675,0.012-10.607l-42.256-42.35C262.801,1.301,259.661,0,256.317,0c-3.344,0-6.483,1.301-8.841,3.663
		l-42.89,42.988c-2.926,2.932-2.92,7.681,0.013,10.606C206.064,58.719,207.98,59.448,209.896,59.448z"/>
	<path style="fill:#2E4C89;" d="M296.794,454.756l-33.295,33.369v-58.542h-15v59.18l-33.293-33.367
		c-2.927-2.932-7.675-2.938-10.607-0.013c-2.932,2.926-2.938,7.675-0.012,10.606l42.254,42.349c2.356,2.361,5.496,3.662,8.84,3.662
		s6.483-1.301,8.841-3.662l42.892-42.986c2.925-2.933,2.92-7.682-0.012-10.607C304.467,451.818,299.719,451.824,296.794,454.756z"/>
</g>
<g>
	<path style="fill:#EEF6FF;" d="M131.264,186.056c-4.143,0-7.5-3.357-7.5-7.5v-42.379c0-6.893,5.607-12.5,12.5-12.5h38.473
		c4.143,0,7.5,3.357,7.5,7.5c0,4.143-3.357,7.5-7.5,7.5h-35.973v39.879C138.764,182.698,135.406,186.056,131.264,186.056z"/>
	<path style="fill:#EEF6FF;" d="M380.736,186.056c-4.142,0-7.5-3.357-7.5-7.5v-39.879h-35.973c-4.143,0-7.5-3.357-7.5-7.5
		c0-4.143,3.357-7.5,7.5-7.5h38.473c6.893,0,12.5,5.607,12.5,12.5v42.379C388.236,182.698,384.879,186.056,380.736,186.056z"/>
	<path style="fill:#EEF6FF;" d="M174.736,388.325h-38.473c-6.893,0-12.5-5.607-12.5-12.5v-44.379c0-4.143,3.357-7.5,7.5-7.5
		c4.143,0,7.5,3.357,7.5,7.5v41.879h35.973c4.143,0,7.5,3.357,7.5,7.5S178.879,388.325,174.736,388.325z"/>
	<path style="fill:#EEF6FF;" d="M375.736,388.325h-38.473c-4.143,0-7.5-3.357-7.5-7.5s3.357-7.5,7.5-7.5h35.973v-41.879
		c0-4.143,3.358-7.5,7.5-7.5c4.143,0,7.5,3.357,7.5,7.5v44.379C388.236,382.718,382.629,388.325,375.736,388.325z"/>
</g>
<path style="fill:#2E4C89;" d="M346.99,181.169c-4.971,0-9,4.029-9,9v65.309c0,45.211-36.779,81.992-81.988,81.992
	c-45.211,0-81.992-36.781-81.992-81.992v-65.309c0-4.971-4.029-9-9-9s-9,4.029-9,9v65.309c0,52.102,40.059,95.017,90.992,99.583
	v18.733c2.969-0.327,5.972-0.494,9-0.494c3.028,0,6.031,0.167,9,0.494v-18.733c50.932-4.566,90.988-47.482,90.988-99.583v-65.309
	C355.99,185.198,351.961,181.169,346.99,181.169z"/>
<path style="fill:#999CAD;" d="M195.297,255.478c0,33.521,27.18,60.701,60.705,60.701s60.699-27.18,60.699-60.701v-31.385H195.297
	V255.478z"/>
<path style="fill:#838696;" d="M216,255.478v-31.385h-20.703v31.385c0,33.521,27.18,60.701,60.705,60.701
	c3.531,0,6.985-0.318,10.351-0.897C237.762,310.366,216,285.469,216,255.478z"/>
<path style="fill:#445EA0;" d="M185.883,430.882c-2.277,0-4.398-1.154-5.627-3.068c-1.236-1.914-1.406-4.32-0.471-6.395
	c13.559-29.84,43.473-49.119,76.217-49.119c32.74,0,62.656,19.279,76.215,49.119c0.936,2.074,0.762,4.48-0.471,6.395
	s-3.352,3.068-5.631,3.068H185.883z"/>
<path style="fill:#2E4C89;" d="M201.067,427.814c-1.236-1.914-1.406-4.32-0.471-6.395c12.106-26.644,37.254-44.854,65.811-48.453
	c-3.426-0.432-6.897-0.666-10.405-0.666c-32.744,0-62.658,19.279-76.217,49.119c-0.936,2.074-0.766,4.48,0.471,6.395
	c1.229,1.914,3.35,3.068,5.627,3.068h20.812C204.417,430.882,202.296,429.728,201.067,427.814z"/>
<path style="fill:#293D7C;" d="M256.002,81.12c-33.525,0-60.705,27.178-60.705,60.701v83.482h121.404v-83.482
	C316.701,108.298,289.527,81.12,256.002,81.12z"/>
<path style="fill:#1A2B63;" d="M266.353,82.018c-3.366-0.579-6.82-0.897-10.351-0.897c-33.525,0-60.705,27.178-60.705,60.701v83.482
	H216v-83.482C216,111.829,237.762,86.933,266.353,82.018z"/>
<path style="fill:#02AF8E;" d="M282.051,255.538c0,8.031-6.51,14.541-14.541,14.541h-23.021c-8.029,0-14.541-6.51-14.541-14.541l0,0
	c0-8.027,6.512-14.537,14.541-14.537h23.021C275.541,241.001,282.051,247.511,282.051,255.538L282.051,255.538z"/>
<path style="fill:#0F9390;" d="M240,255.538c0-8.027,6.512-14.537,14.541-14.537h-10.053c-8.029,0-14.541,6.51-14.541,14.537
	c0,8.031,6.512,14.541,14.541,14.541h10.053C246.512,270.079,240,263.569,240,255.538z"/>
<g>
	<path style="fill:#445EA0;" d="M234.193,158.058c5.018,0,9.084-4.066,9.084-9.086s-4.066-9.09-9.084-9.09h-38.846
		c-0.02,0.648-0.051,1.289-0.051,1.939v16.236L234.193,158.058L234.193,158.058z"/>
	<path style="fill:#445EA0;" d="M195.297,185.929h38.896c5.018,0,9.084-4.068,9.084-9.09c0-5.018-4.066-9.088-9.084-9.088h-38.896
		V185.929z"/>
	<path style="fill:#445EA0;" d="M195.297,213.794h38.896c5.018,0,9.084-4.068,9.084-9.088s-4.066-9.086-9.084-9.086h-38.896V213.794
		z"/>
	<path style="fill:#445EA0;" d="M277.809,158.058c-5.02,0-9.084-4.066-9.084-9.086s4.064-9.09,9.084-9.09h38.844
		c0.021,0.648,0.049,1.289,0.049,1.939v16.236L277.809,158.058L277.809,158.058z"/>
	<path style="fill:#445EA0;" d="M316.701,185.929h-38.893c-5.02,0-9.084-4.068-9.084-9.09c0-5.018,4.064-9.088,9.084-9.088h38.893
		V185.929z"/>
	<path style="fill:#445EA0;" d="M316.701,213.794h-38.893c-5.02,0-9.084-4.068-9.084-9.088s4.064-9.086,9.084-9.086h38.893V213.794z
		"/>
</g>
<path style="fill:#1A2B63;" d="M272.441,411.79H239.56c-4.393,0-7.955-3.561-7.955-7.955c0-4.393,3.563-7.955,7.955-7.955h32.881
	c4.395,0,7.955,3.563,7.955,7.955C280.397,408.229,276.836,411.79,272.441,411.79z"/>
<g>
</g>
<g>
</g>
<g>
</g>
<g>
</g>
<g>
</g>
<g>
</g>
<g>
</g>
<g>
</g>
<g>
</g>
<g>
</g>
<g>
</g>
<g>
</g>
<g>
</g>
<g>
</g>
<g>
</g>
</svg>
