<?xml version="1.0" encoding="iso-8859-1"?>
<!-- Generator: Adobe Illustrator 19.0.0, SVG Export Plug-In . SVG Version: 6.00 Build 0)  -->
<svg version="1.1" id="Capa_1" xmlns="http://www.w3.org/2000/svg" xmlns:xlink="http://www.w3.org/1999/xlink" x="0px" y="0px"
	 viewBox="0 0 512 512" style="enable-background:new 0 0 512 512;" xml:space="preserve">
<circle style="fill:#94C2ED;" cx="256" cy="267" r="245"/>
<path style="fill:#FFAF10;" d="M203.208,81.611c7.714,0,13.99-5.693,13.99-12.692s-6.276-12.692-13.99-12.692h-16.239
	c-6.612,0-11.991-4.796-11.991-10.691c0-5.896,5.379-10.693,11.991-10.693h47.068C228.137,14.708,209.542,0,187.5,0
	C160.714,0,139,21.714,139,48.5c0,12.805,4.971,24.442,13.077,33.111H203.208z"/>
<path style="fill:#EF9614;" d="M195.53,0.663C192.918,0.228,190.236,0,187.5,0C160.714,0,139,21.714,139,48.5
	c0,12.805,4.971,24.442,13.077,33.111h16C159.971,72.942,155,61.305,155,48.5C155,24.43,172.538,4.466,195.53,0.663z"/>
<g>
	<path style="fill:#02AF8E;" d="M340,497.207v-81.206h-64v95.172C298.311,509.369,319.779,504.59,340,497.207z"/>
	<path style="fill:#02AF8E;" d="M236,511.174v-95.173h-64v81.207C192.221,504.59,213.689,509.369,236,511.174z"/>
	<path style="fill:#02AF8E;" d="M132,416.001H68v8.045c18.017,21.547,39.659,39.95,64,54.269V416.001z"/>
	<path style="fill:#02AF8E;" d="M444,416.001h-64v62.314c24.341-14.318,45.982-32.723,64-54.269V416.001z"/>
</g>
<path style="fill:#D9EAFC;" d="M293.734,180.342c-4.796-9.623-16.952-17.346-27.601-17.346h-140
	c-10.448,0-19.076,7.674-19.917,17.346L293.734,180.342L293.734,180.342z"/>
<g>
	<path style="fill:#C3DDF4;" d="M146.917,162.996h-20.783c-10.448,0-19.076,7.674-19.917,17.346H127
		C127.841,170.67,136.469,162.996,146.917,162.996z"/>
	<path style="fill:#C3DDF4;" d="M129.159,103.996h259.497c7.145,0,12.991-5.261,12.991-11.693s-5.846-11.691-12.991-11.691h-64.627
		c-7.147,0-12.991-5.261-12.991-11.692s5.844-11.692,12.991-11.692h154.595c7.147,0,12.991-5.261,12.991-11.691
		c0-6.432-5.845-11.693-12.991-11.693H186.969c-7.145,0-12.991,5.262-12.991,11.693s5.847,11.691,12.991,11.691h16.239
		c7.145,0,12.99,5.262,12.99,11.692c0,6.432-5.846,11.692-12.99,11.692h-74.049c-7.148,0-12.993,5.26-12.993,11.691
		C116.166,98.735,122.011,103.996,129.159,103.996z"/>
	<path style="fill:#C3DDF4;" d="M113.554,55.556c0,6.43-5.847,11.693-12.99,11.693H49.896c-7.145,0-12.991-5.264-12.991-11.693
		c0-6.432,5.847-11.692,12.991-11.692h50.668C107.707,43.863,113.554,49.124,113.554,55.556z"/>
	<path style="fill:#C3DDF4;" d="M93,125.743c0,6.431-5.846,11.694-12.991,11.694H29.343c-7.145,0-12.991-5.264-12.991-11.694
		c0-6.43,5.847-11.693,12.991-11.693h50.666C87.154,114.05,93,119.313,93,125.743z"/>
	<path style="fill:#C3DDF4;" d="M362.21,141.827c0,6.431-5.846,11.694-12.99,11.694h-50.666c-7.146,0-12.992-5.264-12.992-11.694
		s5.847-11.693,12.992-11.693h50.666C356.364,130.134,362.21,135.398,362.21,141.827z"/>
</g>
<path style="fill:#EEF6FF;" d="M462.348,257.836c0-24.941-20.219-45.161-45.16-45.161H396.95
	c-10.306-19.802-30.999-33.333-54.865-33.333H27.166C16.732,206.561,11,236.109,11,267c0,12.23,0.908,24.247,2.639,35.996h403.549
	C442.129,302.996,462.348,282.777,462.348,257.836z"/>
<g>
	<path style="fill:#D9EAFC;" d="M41.719,198.552c1.895-6.518,4.039-12.929,6.447-19.21h-21c-2.408,6.281-4.553,12.692-6.447,19.21
		H41.719z"/>
	<path style="fill:#D9EAFC;" d="M33.779,237.44h-21C11.611,247.131,11,256.994,11,267c0,12.23,0.908,24.247,2.639,35.996h21
		C32.908,291.247,32,279.23,32,267C32,256.994,32.611,247.131,33.779,237.44z"/>
</g>
<g>
	<path style="fill:#9CE2D8;" d="M12.964,236c-0.417,3.314-0.773,6.646-1.059,10H103.5c4.143,0,7.5-3.357,7.5-7.5
		c0-0.878-0.158-1.717-0.436-2.5H12.964z"/>
	<path style="fill:#9CE2D8;" d="M110.5,253H11.407C11.146,257.635,11,262.3,11,267c0,0.334,0.012,0.666,0.013,1H110.5
		c4.143,0,7.5-3.357,7.5-7.5S114.643,253,110.5,253z"/>
	<path style="fill:#9CE2D8;" d="M117.5,275H11.144c0.162,5.04,0.477,10.041,0.939,15H117.5c4.143,0,7.5-3.357,7.5-7.5
		S121.643,275,117.5,275z"/>
</g>
<path style="fill:#445EA0;" d="M352.245,198.552H20.703c-3.651,12.575-6.32,25.567-7.923,38.889h339.465
	c10.739,0,19.444-8.705,19.444-19.444C371.69,207.257,362.984,198.552,352.245,198.552z"/>
<path style="fill:#2E4C89;" d="M12.78,237.44h315.575l-24.443-38.889H20.703C17.052,211.127,14.383,224.119,12.78,237.44z"/>
<polygon style="fill:#293D7C;" points="303.912,198.552 203.912,198.552 228.355,237.44 328.355,237.44 "/>
<g>
	<circle style="fill:#02AF8E;" cx="339.5" cy="273.03" r="8.919"/>
	<circle style="fill:#02AF8E;" cx="375.77" cy="273.03" r="8.919"/>
	<circle style="fill:#02AF8E;" cx="412.04" cy="273.03" r="8.92"/>
</g>
<path style="fill:#2E4C89;" d="M276,405c0-17.673,14.327-32,32-32s32,14.327,32,32v92.216c13.974-5.101,27.348-11.444,40-18.886V405
	c0-17.673,14.327-32,32-32s32,14.327,32,32v19.078c17.336-20.73,31.314-44.367,41.084-70.078H26.916
	c9.77,25.711,23.748,49.348,41.084,70.079V405c0-17.673,14.327-32,32-32s32,14.327,32,32v73.33
	c12.651,7.441,26.026,13.785,40,18.886V405c0-17.673,14.327-32,32-32s32,14.327,32,32v106.19c6.597,0.533,13.266,0.81,20,0.81
	c6.734,0,13.403-0.276,20-0.81V405z"/>
<path style="fill:#293D7C;" d="M27.296,355h457.407c4.467-11.601,8.073-23.626,10.748-36H16.549
	C19.224,331.374,22.83,343.399,27.296,355z"/>
<path style="fill:#1A2B63;" d="M16.549,319c2.675,12.374,6.281,24.399,10.747,36h20.549c-4.466-11.601-8.072-23.626-10.747-36
	H16.549z"/>
<g>
</g>
<g>
</g>
<g>
</g>
<g>
</g>
<g>
</g>
<g>
</g>
<g>
</g>
<g>
</g>
<g>
</g>
<g>
</g>
<g>
</g>
<g>
</g>
<g>
</g>
<g>
</g>
<g>
</g>
</svg>
