<?xml version="1.0" encoding="iso-8859-1"?>
<!-- Generator: Adobe Illustrator 19.0.0, SVG Export Plug-In . SVG Version: 6.00 Build 0)  -->
<svg version="1.1" id="Capa_1" xmlns="http://www.w3.org/2000/svg" xmlns:xlink="http://www.w3.org/1999/xlink" x="0px" y="0px"
	 viewBox="0 0 512 512" style="enable-background:new 0 0 512 512;" xml:space="preserve">
<circle style="fill:#C3DDF4;" cx="248.558" cy="267" r="245"/>
<path style="fill:#445EA0;" d="M383.782,113.978h-119.19v-8.461c-4.925,2.28-10.371,3.543-16.038,3.543
	c-5.721,0-11.149-1.269-16.038-3.524v8.442H113.325c-1.65,0-3,1.35-3,3v19.771c0,1.65,1.35,3,3,3h92.729v86.508
	c0,2.898,2.35,5.246,5.248,5.246h1.053V297h28.643v-65.497h15.111V297h28.645v-65.497h1.051c2.898,0,5.248-2.348,5.248-5.246
	v-86.508h92.73c1.65,0,3-1.35,3-3v-19.771C386.782,115.327,385.432,113.978,383.782,113.978z"/>
<g>
	<path style="fill:#FFFFFF;" d="M172.256,387c-4.142,0-7.5-3.357-7.5-7.5v-96c0-4.143,3.358-7.5,7.5-7.5s7.5,3.357,7.5,7.5v96
		C179.756,383.643,176.398,387,172.256,387z"/>
	<path style="fill:#FFFFFF;" d="M324.256,408.6c-4.142,0-7.5-3.357-7.5-7.5v-96c0-4.143,3.358-7.5,7.5-7.5
		c4.142,0,7.5,3.357,7.5,7.5v96C331.756,405.242,328.398,408.6,324.256,408.6z"/>
	<rect x="239.998" y="230.5" style="fill:#FFFFFF;" width="17.11" height="18.15"/>
	<path style="fill:#FFFFFF;" d="M213.355,230.503h-2.053c-2.342,0-4.248-1.905-4.248-4.246v-33.693h-75.065
		c-5.712,0-10.386,4.206-10.386,9.349c0,5.142,4.674,9.348,10.386,9.348h12.983c5.713,0,10.387,4.206,10.387,9.348
		s-4.674,9.348-10.387,9.348H85.769c-5.713,0-10.387,4.207-10.387,9.349s4.674,9.348,10.387,9.348h127.586V230.503z"/>
	<path style="fill:#FFFFFF;" d="M365.168,192.564h-75.115v18.696h75.115c5.712,0,10.386-4.206,10.386-9.348
		C375.554,196.77,370.88,192.564,365.168,192.564z"/>
	<path style="fill:#FFFFFF;" d="M293.238,229.955h-5.389c-0.609,0.338-1.3,0.548-2.045,0.548h-2.051v18.148h9.484
		c5.712,0,10.387-4.206,10.387-9.348S298.95,229.955,293.238,229.955z"/>
	<path style="fill:#FFFFFF;" d="M42.665,201.912c0-5.143,4.674-9.349,10.386-9.349h40.508c5.713,0,10.387,4.206,10.387,9.349
		c0,5.142-4.674,9.348-10.387,9.348H53.051C47.339,211.26,42.665,207.054,42.665,201.912z"/>
	<path style="fill:#FFFFFF;" d="M328.358,239.652c0-5.143,4.674-9.349,10.386-9.349h40.508c5.713,0,10.387,4.206,10.387,9.349
		c0,5.142-4.674,9.348-10.387,9.348h-40.508C333.032,249,328.358,244.794,328.358,239.652z"/>
	<path style="fill:#FFFFFF;" d="M402.358,205.001c0-5.143,4.674-9.349,10.386-9.349h40.508c5.713,0,10.387,4.206,10.387,9.349
		c0,5.142-4.674,9.348-10.387,9.348h-40.508C407.032,214.349,402.358,210.143,402.358,205.001z"/>
</g>
<g>
	<path style="fill:#69CDFF;" d="M210.696,77.873h-60.602c-6.347,0-11.54,4.675-11.54,10.387c0,5.714,5.193,10.388,11.54,10.388
		h72.19C216.472,93.209,212.32,85.997,210.696,77.873z"/>
	<path style="fill:#69CDFF;" d="M460.548,36.326H287.172v17.251h6.411c3.173,0,5.755,2.581,5.755,5.754v12.383
		c0,3.174-2.582,5.756-5.755,5.756h-3.011c-1,0.257-2.051,0.403-3.14,0.403h-1.016l-0.082,0.392
		c-1.685,8.033-5.838,15.068-11.544,20.383h134.4c6.348,0,11.541-4.674,11.541-10.388c0-5.712-5.193-10.387-11.541-10.387h-14.426
		c-6.348,0-11.541-4.674-11.541-10.386c0-5.715,5.193-10.388,11.541-10.388h65.784c6.347,0,11.54-4.674,11.54-10.388
		C472.088,41,466.894,36.326,460.548,36.326z"/>
	<path style="fill:#69CDFF;" d="M508.442,88.26c0,5.713-5.193,10.388-11.54,10.388h-45.011c-6.348,0-11.54-4.675-11.54-10.388
		c0-5.712,5.192-10.387,11.54-10.387h45.011C503.249,77.873,508.442,82.548,508.442,88.26z"/>
	<path style="fill:#69CDFF;" d="M488.939,146.612c0,5.713-5.193,10.388-11.54,10.388h-45.011c-6.348,0-11.541-4.675-11.541-10.388
		c0-5.712,5.193-10.386,11.541-10.386h45.011C483.746,136.227,488.939,140.9,488.939,146.612z"/>
</g>
<path style="fill:#EF8318;" d="M245.554,406.951c0-5.381-1.771-10.349-4.762-14.352h-0.649h-37.827
	c-2.991,4.003-4.762,8.971-4.762,14.352c0,6.098,2.278,11.66,6.024,15.895c-0.112,2.159-0.17,4.34-0.17,6.54
	c0,23.227,6.375,44.29,16.636,54.971c0.396,0.411,0.94,0.644,1.51,0.644c0.569,0,1.115-0.232,1.51-0.644
	c10.261-10.681,16.636-31.744,16.636-54.971c0-2.2-0.058-4.381-0.17-6.54C243.275,418.611,245.554,413.049,245.554,406.951z"/>
<path style="fill:#FFCA51;" d="M227.986,392.657h-12.864c-1.588,1.623-2.568,3.844-2.568,6.294c0,4.971,4.03,9,9,9s9-4.029,9-9
	C230.554,396.501,229.574,394.28,227.986,392.657z"/>
<path style="fill:#EF8318;" d="M298.554,406.951c0-5.381-1.771-10.349-4.762-14.352h-38.476c-2.991,4.003-4.762,8.971-4.762,14.352
	c0,6.098,2.278,11.66,6.024,15.895c-0.112,2.159-0.17,4.34-0.17,6.54c0,23.227,6.375,44.29,16.636,54.971
	c0.396,0.411,0.94,0.644,1.51,0.644c0.569,0,1.115-0.232,1.51-0.644c10.261-10.681,16.636-31.744,16.636-54.971
	c0-2.2-0.058-4.381-0.17-6.54C296.275,418.611,298.554,413.049,298.554,406.951z"/>
<g>
	<path style="fill:#FFCA51;" d="M221.554,466.332c-0.81,0-1.54-0.488-1.849-1.236c-4.061-9.834-6.297-22.517-6.297-35.71
		c0-5.369,0.367-10.657,1.091-15.718c0.141-0.985,0.985-1.717,1.98-1.717h10.149c0.995,0,1.839,0.731,1.98,1.717
		c0.724,5.057,1.091,10.345,1.091,15.718c0,13.193-2.236,25.876-6.297,35.71C223.093,465.844,222.363,466.332,221.554,466.332z"/>
	<path style="fill:#FFCA51;" d="M274.554,466.332c-0.81,0-1.54-0.488-1.849-1.236c-4.06-9.834-6.297-22.517-6.297-35.71
		c0-5.369,0.367-10.657,1.091-15.718c0.141-0.985,0.985-1.717,1.98-1.717h10.149c0.995,0,1.839,0.731,1.98,1.717
		c0.724,5.057,1.091,10.345,1.091,15.718c0,13.193-2.236,25.876-6.297,35.71C276.093,465.844,275.363,466.332,274.554,466.332z"/>
	<path style="fill:#FFCA51;" d="M280.986,392.657h-12.864c-1.588,1.623-2.568,3.844-2.568,6.294c0,4.971,4.03,9,9,9
		c4.97,0,9-4.029,9-9C283.554,396.501,282.574,394.28,280.986,392.657z"/>
</g>
<g>
	<path style="fill:#FFE2B8;" d="M410.554,116.56h-13.229v-9.715c0-1.1-0.9-2-2-2h-5.372c-1.1,0-2,0.9-2,2v9.715h-2.216
		c0.029,0.135,0.045,0.274,0.045,0.418v18.324h24.771c1.1,0,2-0.9,2-2V118.56C412.554,117.46,411.654,116.56,410.554,116.56z"/>
	<path style="fill:#FFE2B8;" d="M111.325,116.978c0-0.144,0.017-0.283,0.046-0.418h-2.216v-9.715c0-1.1-0.9-2-2-2h-5.372
		c-1.1,0-2,0.9-2,2v9.715H86.554c-1.1,0-2,0.9-2,2v14.742c0,1.1,0.9,2,2,2h24.771C111.325,135.302,111.325,116.978,111.325,116.978z
		"/>
</g>
<path style="fill:#994334;" d="M248.554,0c-21.881,0-39.618,13.066-39.618,35.082v18.397c0-22.015,17.737-31.479,39.618-31.479
	s39.618,9.465,39.618,31.479V35.082C288.172,13.066,270.434,0,248.554,0z"/>
<path style="fill:#772C22;" d="M253.585,0.246C251.936,0.089,250.259,0,248.554,0c-21.881,0-39.618,13.066-39.618,35.082v18.397
	c0-10.349,3.921-17.924,10.349-23.046C221.412,12.856,235.618,1.955,253.585,0.246z"/>
<g>
	<rect x="212.358" y="230" style="fill:#1A2B63;" width="28.643" height="67"/>
	<rect x="256.108" y="230" style="fill:#1A2B63;" width="28.645" height="67"/>
</g>
<path style="fill:#445EA0;" d="M383.782,113.978h-119.19v-8.461c-4.925,2.28-10.371,3.543-16.038,3.543
	c-5.721,0-11.149-1.269-16.038-3.524v8.442H113.325c-1.65,0-3,1.35-3,3v19.771c0,1.65,1.35,3,3,3h92.729v86.508
	c0,2.898,2.35,5.246,5.248,5.246h74.502c2.898,0,5.248-2.348,5.248-5.246v-86.508h92.73c1.65,0,3-1.35,3-3v-19.771
	C386.782,115.327,385.432,113.978,383.782,113.978z"/>
<path style="fill:#2E4C89;" d="M120.541,136.749v-19.771c0-1.65,1.35-3,3-3h-10.216c-1.65,0-3,1.35-3,3v19.771c0,1.65,1.35,3,3,3
	h10.216C121.891,139.749,120.541,138.399,120.541,136.749z"/>
<path style="fill:#FFE2B8;" d="M209.936,70.196V52.577h-6.411c-3.731,0-6.755,3.025-6.755,6.754v12.383
	c0,3.731,3.023,6.756,6.755,6.756h7.301C210.248,75.802,209.936,73.035,209.936,70.196z"/>
<path style="fill:#FFC987;" d="M293.583,52.577h-6.411v17.619c0,2.839-0.313,5.606-0.89,8.273h7.301
	c3.731,0,6.755-3.024,6.755-6.756V59.331C300.338,55.602,297.314,52.577,293.583,52.577z"/>
<path style="fill:#FFE2B8;" d="M288.172,70.196c0,22.015-17.737,39.863-39.618,39.863l0,0c-21.881,0-39.618-17.849-39.618-39.863
	V52.405c0-22.015,17.737-31.479,39.618-31.479l0,0c21.881,0,39.618,9.465,39.618,31.479V70.196z"/>
<path style="fill:#FFC987;" d="M218.998,70.196V52.405c0-20.299,15.083-29.921,34.587-31.298c-1.649-0.117-3.326-0.182-5.031-0.182
	c-21.881,0-39.618,9.465-39.618,31.479v17.791c0,22.015,17.737,39.863,39.618,39.863c1.706,0,3.382-0.121,5.031-0.331
	C234.081,107.239,218.998,90.495,218.998,70.196z"/>
<g>
	<path style="fill:#2E4C89;" d="M232.516,113.978h-15.967c-5.786,0-10.494,4.707-10.494,10.493v15.967L232.516,113.978z"/>
	<path style="fill:#2E4C89;" d="M264.592,113.978h15.967c5.786,0,10.494,4.707,10.494,10.493v15.967L264.592,113.978z"/>
</g>
<g>
	<path style="fill:#EBAA48;" d="M231.406,74.217c-4.142,0-7.5-3.357-7.5-7.5v-7.339c0-4.142,3.358-7.5,7.5-7.5s7.5,3.358,7.5,7.5
		v7.339C238.906,70.859,235.548,74.217,231.406,74.217z"/>
	<path style="fill:#EBAA48;" d="M265.701,74.217c-4.142,0-7.5-3.357-7.5-7.5v-7.339c0-4.142,3.358-7.5,7.5-7.5
		c4.142,0,7.5,3.358,7.5,7.5v7.339C273.201,70.859,269.843,74.217,265.701,74.217z"/>
</g>
<g>
	<path style="fill:#02AF8E;" d="M240.738,355.942c2.359,0,4.613,0.435,6.713,1.195V300.2c0-2.75-2.25-5-5-5h-32.172
		c-2.75,0-5,2.25-5,5v56.939c2.101-0.76,4.354-1.196,6.714-1.196h28.745V355.942z"/>
	<path style="fill:#02AF8E;" d="M285.738,355.942c2.359,0,4.613,0.435,6.713,1.195V300.2c0-2.75-2.25-5-5-5h-32.172
		c-2.75,0-5,2.25-5,5v56.939c2.101-0.76,4.354-1.196,6.714-1.196h28.745V355.942z"/>
</g>
<path style="fill:#0F9390;" d="M285.738,354.942h-28.745c-2.882,0-5.629,0.591-8.127,1.654c-2.499-1.064-5.245-1.654-8.128-1.654
	h-28.745c-11.477,0-20.815,9.339-20.815,20.816v13.876c0,2.189,1.775,3.965,3.965,3.965h107.445c2.19,0,3.966-1.775,3.966-3.965
	v-13.876C306.554,364.281,297.216,354.942,285.738,354.942z"/>
<path style="fill:#057C76;" d="M211.998,389.635v-13.876c0-11.477,9.338-20.816,20.815-20.816h-20.82
	c-11.477,0-20.815,9.339-20.815,20.816v13.876c0,2.189,1.775,3.965,3.965,3.965h20.82
	C213.773,393.6,211.998,391.824,211.998,389.635z"/>
<path style="fill:#FFFFFF;" d="M262.054,185.5c0,7.456-6.044,13.5-13.5,13.5l0,0c-7.456,0-13.5-6.044-13.5-13.5v-36
	c0-7.456,6.044-13.5,13.5-13.5l0,0c7.456,0,13.5,6.044,13.5,13.5V185.5z"/>
<path style="fill:#EF9614;" d="M257.054,152v-2.5c0-4.686-3.813-8.5-8.5-8.5s-8.5,3.814-8.5,8.5v2.5H257.054z"/>
<rect x="240.058" y="157" style="fill:#EF8318;" width="17" height="9"/>
<path style="fill:#02AF8E;" d="M240.054,171v14.5c0,4.686,3.813,8.5,8.5,8.5s8.5-3.814,8.5-8.5V171H240.054z"/>
<g>
	<path style="fill:#EF8318;" d="M310.927,451.942c0.644,0.643,0.644,1.696,0,2.34l-5.46,5.46c-0.645,0.644-1.696,0.644-2.34,0
		l-5.46-5.46c-0.644-0.643-0.644-1.696,0-2.34l5.46-5.46c0.644-0.643,1.695-0.643,2.34,0L310.927,451.942z"/>
	<path style="fill:#EF8318;" d="M255.184,473.83c0.645,0.643,0.645,1.696,0,2.34l-5.459,5.46c-0.645,0.643-1.697,0.643-2.34,0
		l-5.461-5.46c-0.644-0.643-0.644-1.696,0-2.34l5.461-5.46c0.643-0.643,1.695-0.643,2.34,0L255.184,473.83z"/>
	<path style="fill:#EF8318;" d="M196.07,430.942c0.645,0.643,0.645,1.696,0,2.34l-5.459,5.46c-0.645,0.644-1.697,0.644-2.34,0
		l-5.461-5.46c-0.644-0.643-0.644-1.696,0-2.34l5.461-5.46c0.643-0.643,1.695-0.643,2.34,0L196.07,430.942z"/>
	<path style="fill:#EF8318;" d="M214.777,488.556c0.385,0.386,0.385,1.016,0,1.4l-3.268,3.268c-0.385,0.385-1.015,0.385-1.4,0
		l-3.267-3.268c-0.386-0.385-0.386-1.015,0-1.4l3.267-3.267c0.386-0.386,1.016-0.386,1.4,0L214.777,488.556z"/>
	<path style="fill:#EF8318;" d="M278.554,497c0.386,0.386,0.386,1.016,0,1.4l-3.267,3.268c-0.386,0.385-1.016,0.385-1.4,0
		l-3.268-3.268c-0.385-0.385-0.385-1.015,0-1.4l3.268-3.267c0.385-0.386,1.015-0.386,1.4,0L278.554,497z"/>
	<path style="fill:#EF8318;" d="M245.521,502.3c0.385,0.386,0.385,1.016,0,1.4l-3.268,3.268c-0.385,0.385-1.016,0.385-1.4,0
		l-3.268-3.268c-0.385-0.385-0.385-1.015,0-1.4l3.268-3.267c0.385-0.386,1.016-0.386,1.4,0L245.521,502.3z"/>
</g>
<g>
	<path style="fill:#60D882;" d="M292.451,313h-7.897c-2.75,0-5,2.25-5,5v24c0,2.75,2.25,5,5,5h7.897V313z"/>
	<path style="fill:#60D882;" d="M205.279,313h7.898c2.75,0,5,2.25,5,5v24c0,2.75-2.25,5-5,5h-7.898V313z"/>
</g>
<g>
	<path style="fill:#FFFFFF;" d="M353.256,442c-4.142,0-7.5-3.357-7.5-7.5v-96c0-4.143,3.358-7.5,7.5-7.5c4.142,0,7.5,3.357,7.5,7.5
		v96C360.756,438.643,357.398,442,353.256,442z"/>
	<path style="fill:#FFFFFF;" d="M142.256,447c-4.142,0-7.5-3.357-7.5-7.5v-96c0-4.143,3.358-7.5,7.5-7.5s7.5,3.357,7.5,7.5v96
		C149.756,443.643,146.398,447,142.256,447z"/>
</g>
<g>
</g>
<g>
</g>
<g>
</g>
<g>
</g>
<g>
</g>
<g>
</g>
<g>
</g>
<g>
</g>
<g>
</g>
<g>
</g>
<g>
</g>
<g>
</g>
<g>
</g>
<g>
</g>
<g>
</g>
</svg>
