<?xml version="1.0" encoding="iso-8859-1"?>
<!-- Generator: Adobe Illustrator 19.0.0, SVG Export Plug-In . SVG Version: 6.00 Build 0)  -->
<svg version="1.1" id="Capa_1" xmlns="http://www.w3.org/2000/svg" xmlns:xlink="http://www.w3.org/1999/xlink" x="0px" y="0px"
	 viewBox="0 0 512 512" style="enable-background:new 0 0 512 512;" xml:space="preserve">
<circle style="fill:#293D7C;" cx="267" cy="267" r="245"/>
<g>
	<path style="fill:#EEF6FF;" d="M393.482,156.75v-53.373c0-3.136-2.564-5.701-5.701-5.701H244.112c-3.136,0-5.701,2.565-5.701,5.701
		v53.373H393.482z"/>
	<path style="fill:#EEF6FF;" d="M238.411,462.612v46.686c0,0.356,0.037,0.705,0.101,1.044C247.859,511.425,257.362,512,267,512
		c46.28,0,89.56-12.838,126.482-35.139v-14.249H238.411z"/>
</g>
<g>
	<path style="fill:#2E4C89;" d="M307.957,156.75v-30.569c0-4.143-3.357-7.5-7.5-7.5c-4.142,0-7.5,3.357-7.5,7.5v30.569H307.957z"/>
	<path style="fill:#2E4C89;" d="M333.709,156.75v-30.569c0-4.143-3.357-7.5-7.5-7.5s-7.5,3.357-7.5,7.5v30.569H333.709z"/>
	<path style="fill:#2E4C89;" d="M359.459,156.75v-30.569c0-4.143-3.357-7.5-7.5-7.5s-7.5,3.357-7.5,7.5v30.569H359.459z"/>
	<path style="fill:#2E4C89;" d="M300.457,489.352c-4.142,0-7.5-3.357-7.5-7.5v-4.479c0-4.143,3.358-7.5,7.5-7.5
		c4.143,0,7.5,3.357,7.5,7.5v4.479C307.957,485.994,304.6,489.352,300.457,489.352z"/>
	<path style="fill:#2E4C89;" d="M326.209,489.352c-4.143,0-7.5-3.357-7.5-7.5v-4.479c0-4.143,3.357-7.5,7.5-7.5s7.5,3.357,7.5,7.5
		v4.479C333.709,485.994,330.352,489.352,326.209,489.352z"/>
	<path style="fill:#2E4C89;" d="M351.959,489.352c-4.143,0-7.5-3.357-7.5-7.5v-4.479c0-4.143,3.357-7.5,7.5-7.5s7.5,3.357,7.5,7.5
		v4.479C359.459,485.994,356.102,489.352,351.959,489.352z"/>
</g>
<path style="fill:#3EB7FF;" d="M273.76,156.75V97.676h-29.647c-3.136,0-5.701,2.565-5.701,5.701v53.373H273.76z"/>
<g>
	<path style="fill:#1E99D6;" d="M238.411,462.612v46.686c0,0.356,0.037,0.705,0.101,1.044C247.859,511.425,257.362,512,267,512
		c2.261,0,4.514-0.036,6.76-0.097v-49.291H238.411z"/>
	<path style="fill:#1E99D6;" d="M238.411,462.612v46.686c0,0.356,0.037,0.705,0.101,1.044C247.859,511.425,257.362,512,267,512
		c2.261,0,4.514-0.036,6.76-0.097v-49.291H238.411z"/>
	<path style="fill:#1E99D6;" d="M254.352,97.676h-10.24c-3.136,0-5.701,2.565-5.701,5.701v53.373h10.24v-53.373
		C248.651,100.241,251.216,97.676,254.352,97.676z"/>
</g>
<path style="fill:#3EB7FF;" d="M248.651,462.612v46.686c0,0.356,0.037,0.705,0.101,1.044c9.348,1.083,18.85,1.658,28.488,1.658
	c2.261,0,4.514-0.036,6.76-0.097v-49.291H248.651z"/>
<path style="fill:#EEF6FF;" d="M455.316,155.75H437c5.5,0,10,4.5,10,10v267.43c6.526-7.07,12.648-14.52,18.316-22.32V165.75
	C465.316,160.25,460.816,155.75,455.316,155.75z"/>
<path style="fill:#02AF8E;" d="M438.973,155.75H199c-5.5,0-10,4.5-10,10v54.433l37.745,74.45c1.167,2.302,1.282,4.428,0.323,5.988
	c-0.958,1.56-2.906,2.419-5.484,2.419c0,0-19.408,0-32.584,0v150.572c0,5.5,4.5,10,10,10h214.196
	c12.976-9.664,24.959-20.585,35.776-32.578V165.75C448.973,160.25,444.473,155.75,438.973,155.75z"/>
<g>
	<path style="fill:#0F9390;" d="M210,165.75c0-5.5,4.5-10,10-10h-21c-5.5,0-10,4.5-10,10v54.433l21,41.422V165.75z"/>
	<path style="fill:#0F9390;" d="M210,453.612V303.04c-6.46,0-14.49,0-21,0v150.572c0,5.5,4.5,10,10,10h21
		C214.5,463.612,210,459.112,210,453.612z"/>
</g>
<circle style="fill:#FFFFFF;" cx="318.99" cy="282.32" r="67.27"/>
<path style="fill:#EEF6FF;" d="M272.453,282.316c0-33.628,24.673-61.49,56.903-66.478c-3.381-0.523-6.843-0.798-10.37-0.798
	c-37.154,0-67.273,30.12-67.273,67.275c0,37.153,30.119,67.272,67.273,67.272c3.527,0,6.989-0.274,10.37-0.798
	C297.126,343.805,272.453,315.943,272.453,282.316z"/>
<circle style="fill:#0F9390;" cx="405.48" cy="420.48" r="20.524"/>
<circle style="fill:#FFFFFF;" cx="237.84" cy="215.61" r="21.09"/>
<path style="fill:#EEF6FF;" d="M226.811,215.613c0-9.912,6.847-18.204,16.061-20.465c-1.615-0.396-3.295-0.629-5.033-0.629
	c-11.648,0-21.093,9.444-21.093,21.094c0,11.647,9.444,21.093,21.093,21.093c1.738,0,3.417-0.233,5.033-0.63
	C233.658,233.816,226.811,225.523,226.811,215.613z"/>
<g>
	<path style="fill:#FFCA51;" d="M85.075,45c-0.645,0-1.224-0.388-1.471-0.982c-3.28-7.922-5.7-10.342-13.622-13.622
		C69.388,30.148,69,29.569,69,28.925c0-0.645,0.388-1.224,0.982-1.471c7.922-3.28,10.342-5.7,13.622-13.622
		c0.247-0.595,0.826-0.982,1.471-0.982s1.224,0.388,1.471,0.982c3.28,7.922,5.7,10.342,13.622,13.622
		c0.595,0.247,0.982,0.826,0.982,1.471c0,0.644-0.388,1.224-0.982,1.471c-7.922,3.28-10.342,5.7-13.622,13.622
		C86.299,44.612,85.72,45,85.075,45z"/>
	<path style="fill:#FFCA51;" d="M202.2,83.4c-0.81,0-1.538-0.487-1.848-1.234c-4.123-9.955-7.163-12.995-17.118-17.118
		C182.487,64.738,182,64.01,182,63.2s0.487-1.538,1.234-1.848c9.955-4.123,12.995-7.163,17.118-17.118
		C200.662,43.487,201.39,43,202.2,43s1.538,0.487,1.848,1.234c4.123,9.955,7.163,12.995,17.118,17.118
		c0.747,0.31,1.234,1.038,1.234,1.848s-0.487,1.538-1.234,1.848c-9.955,4.123-12.995,7.163-17.118,17.118
		C203.738,82.913,203.01,83.4,202.2,83.4z"/>
	<path style="fill:#FFCA51;" d="M17.2,34.4c-0.69,0-1.31-0.415-1.573-1.051c-3.511-8.477-6.1-11.065-14.576-14.576
		C0.415,18.51,0,17.89,0,17.2c0-0.689,0.415-1.31,1.051-1.573c8.476-3.511,11.065-6.1,14.576-14.576C15.891,0.415,16.511,0,17.2,0
		c0.689,0,1.31,0.415,1.573,1.051c3.511,8.476,6.1,11.065,14.576,14.576c0.636,0.264,1.051,0.884,1.051,1.573
		c0,0.689-0.415,1.31-1.051,1.573c-8.477,3.511-11.065,6.1-14.576,14.576C18.51,33.985,17.89,34.4,17.2,34.4z"/>
	<path style="fill:#FFCA51;" d="M53.825,108.65c-0.794,0-1.509-0.479-1.813-1.212c-4.047-9.77-7.03-12.753-16.799-16.8
		C34.478,90.334,34,89.62,34,88.825c0-0.795,0.478-1.509,1.213-1.813c9.768-4.047,12.752-7.03,16.799-16.801
		C52.316,69.478,53.031,69,53.825,69s1.509,0.478,1.813,1.211c4.047,9.771,7.03,12.754,16.799,16.801
		c0.734,0.305,1.213,1.019,1.213,1.813c0,0.795-0.479,1.509-1.213,1.813c-9.769,4.047-12.752,7.03-16.799,16.8
		C55.334,108.171,54.619,108.65,53.825,108.65z"/>
</g>
<path style="fill:#C3DDF4;" d="M132.268,323.189h-23.404l0.001,8.858c-0.001,3.041,2.486,5.528,5.527,5.527h17.876V323.189z"/>
<path style="fill:#94C2ED;" d="M119.001,332.047L119,323.189h-10.136l0.001,8.858c-0.001,3.041,2.486,5.528,5.527,5.527h10.136
	C121.487,337.575,118.999,335.088,119.001,332.047z"/>
<path style="fill:#C3DDF4;" d="M146.776,323.188v14.388h17.875c3.041,0,5.528-2.487,5.527-5.527v-8.86h-23.402V323.188z"/>
<path style="fill:#EA2A3D;" d="M102.942,192.529L51.408,294.181c-2.75,5.422-0.024,9.86,6.057,9.86h45.477V192.529z"/>
<path style="fill:#B7092B;" d="M61.466,294.181l41.476-81.812v-19.84L51.408,294.181c-2.75,5.422-0.024,9.86,6.057,9.86h10.058
	C61.442,304.041,58.716,299.603,61.466,294.181z"/>
<path style="fill:#EA2A3D;" d="M227.637,294.181l-51.533-101.647V304.04h45.478C227.662,304.041,230.386,299.603,227.637,294.181z"
	/>
<path style="fill:#EEF6FF;" d="M177.042,98h-75.04c-0.036,0.526-0.06,1.032-0.06,1.493v218.8c0,3.242,2.653,5.897,5.894,5.896
	h24.432l-0.001-99.011c0.001-2.496,2.032-4.527,4.529-4.528h5.452c2.497,0,4.528,2.031,4.528,4.528l0.001,99.01h24.431
	c3.241,0.001,5.895-2.652,5.896-5.894V99.492C177.103,99.031,177.079,98.525,177.042,98z"/>
<path style="fill:#D9EAFC;" d="M112,318.293v-218.8c0-0.461,0.024-0.967,0.06-1.493h-10.058c-0.036,0.526-0.06,1.032-0.06,1.493
	v218.8c0,3.242,2.653,5.897,5.894,5.896h10.059C114.653,324.19,112,321.535,112,318.293z"/>
<circle style="fill:#FFFFFF;" cx="139.52" cy="149.15" r="26.862"/>
<path style="fill:#EA2A3D;" d="M137.388,2.268l-33.314,85.83c-1.159,2.988-2.106,8.021-2.129,11.27H177.1
	c-0.023-3.248-0.97-8.281-2.128-11.27l-33.316-85.83C140.481-0.756,138.561-0.755,137.388,2.268z"/>
<path style="fill:#B7092B;" d="M144.549,9.725l-2.895-7.457c-1.173-3.023-3.093-3.023-4.267,0l-33.314,85.83
	c-1.159,2.988-2.106,8.021-2.129,11.27H112c0.023-3.248,0.971-8.281,2.129-11.27L144.549,9.725z"/>
<circle style="fill:#52BBEF;" cx="139.52" cy="149.15" r="15.59"/>
<path style="fill:#2DA1DC;" d="M134,149.152c0-6.848,4.418-12.648,10.555-14.745c-1.581-0.54-3.27-0.847-5.034-0.847
	c-8.611,0.001-15.589,6.98-15.589,15.592c0,8.609,6.979,15.591,15.59,15.59c1.764,0,3.453-0.307,5.033-0.846
	C138.419,161.801,134,155.998,134,149.152z"/>
<path style="fill:#EA2A3D;" d="M147.776,348.556c0.001,3.041-2.487,5.527-5.528,5.527h-5.453c-3.04,0-5.527-2.486-5.527-5.527
	l-0.001-123.378c0.001-3.041,2.488-5.527,5.528-5.528h5.453c3.041,0,5.528,2.487,5.528,5.528V348.556z"/>
<path style="fill:#C3DDF4;" d="M392.823,207.34c-1.863-1.863-5.255-4.085-10.832-4.085c-8.692,0-21.132,5.482-36.973,16.294
	c-0.218,0.148-0.439,0.307-0.659,0.457c5.264,2.146,10.191,4.94,14.69,8.282c10.268-6.493,18.349-10.005,22.886-10.033
	c-0.001,2.765-1.998,10.571-11.592,25.261c-9.65,14.774-24.044,31.992-40.533,48.482c-32.557,32.556-63.043,52.031-73.772,52.098
	c0-2.509,1.667-9.195,9.152-21.398c-3.378-4.492-6.198-9.423-8.377-14.689c-1.44,2.133-2.798,4.228-4.067,6.277
	c-12.433,20.084-14.916,33.405-7.594,40.725c1.863,1.863,5.255,4.085,10.833,4.085c8.692,0,21.131-5.481,36.972-16.292
	c14.963-10.213,31.374-24.112,47.461-40.199C347.974,295.047,413.649,228.166,392.823,207.34z"/>
<g>
</g>
<g>
</g>
<g>
</g>
<g>
</g>
<g>
</g>
<g>
</g>
<g>
</g>
<g>
</g>
<g>
</g>
<g>
</g>
<g>
</g>
<g>
</g>
<g>
</g>
<g>
</g>
<g>
</g>
</svg>
