<?xml version="1.0" encoding="iso-8859-1"?>
<!-- Generator: Adobe Illustrator 19.0.0, SVG Export Plug-In . SVG Version: 6.00 Build 0)  -->
<svg version="1.1" id="Capa_1" xmlns="http://www.w3.org/2000/svg" xmlns:xlink="http://www.w3.org/1999/xlink" x="0px" y="0px"
	 viewBox="0 0 512 512" style="enable-background:new 0 0 512 512;" xml:space="preserve">
<circle style="fill:#9CE2D8;" cx="245" cy="256" r="245"/>
<path style="fill:#445EA0;" d="M380.025,89c0-18.587,8.652-35.183,22.131-46H194c-2.75,0-5,2.25-5,5v86c0,2.75,2.25,5,5,5h120.035
	c2.75,0,6.125,1.948,7.5,4.33l8.965,15.528c1.375,2.382,3.625,2.382,5,0l8.965-15.528c1.375-2.382,4.75-4.33,7.5-4.33h55.816
	C391.129,128.564,380.025,110.06,380.025,89z"/>
<path style="fill:#2E4C89;" d="M502,171.364H154.9v75.037c0,5.52-4.489,10.01-10.007,10.01H60.299v160.548
	C71.234,429.498,83.43,440.905,96.682,451H502c5.5,0,10-4.5,10-10V181.364C512,175.864,507.5,171.364,502,171.364z"/>
<path style="fill:#FFCA51;" d="M163.883,409.535c0,5.5-4.5,10-10,10H94.041c-5.5,0-10-4.5-10-10V308.519c0-5.5,4.5-10,10-10h59.842
	c5.5,0,10,4.5,10,10V409.535z"/>
<path style="fill:#FFAF10;" d="M105,409.535V308.519c0-5.5,4.5-10,10-10H94.041c-5.5,0-10,4.5-10,10v101.017c0,5.5,4.5,10,10,10H115
	C109.5,419.535,105,415.035,105,409.535z"/>
<path style="fill:#2E4C89;" d="M488.258,414.363c0,2.845-2.328,5.172-5.172,5.172H188.441c-2.844,0-5.171-2.327-5.171-5.172v-206.36
	c0-2.845,2.327-5.172,5.171-5.172h294.645c2.844,0,5.172,2.327,5.172,5.172V414.363z"/>
<path style="fill:#02AF8E;" d="M483.086,202.831H188.441c-2.844,0-5.171,2.327-5.171,5.172v206.36c0,2.845,2.327,5.172,5.171,5.172
	h242.004l57.813-57.813v-153.72C488.258,205.158,485.93,202.831,483.086,202.831z"/>
<path style="fill:#0F9390;" d="M204.013,414.363v-206.36c0-2.845,2.327-5.172,5.171-5.172h-20.742c-2.844,0-5.171,2.327-5.171,5.172
	v206.36c0,2.845,2.327,5.172,5.171,5.172h20.742C206.34,419.535,204.013,417.208,204.013,414.363z"/>
<g>
	<path style="fill:#FFFFFF;" d="M301.112,293.953c0,2.75-2.25,5-5,5h-25.5c-2.75,0-5-2.25-5-5v-37.788c0-2.75,2.25-5,5-5h25.5
		c2.75,0,5,2.25,5,5V293.953z"/>
	<path style="fill:#FFFFFF;" d="M405.917,293.953c0,2.75-2.25,5-5,5h-25.498c-2.75,0-5-2.25-5-5v-37.788c0-2.75,2.25-5,5-5h25.498
		c2.75,0,5,2.25,5,5V293.953z"/>
</g>
<path style="fill:#0F9390;" d="M488.258,241.125l-16.094,5.364c-5.396,1.799-9.813,7.925-9.813,13.614v48.614
	c0,5.689,4.484,11.589,9.966,13.112l15.94,4.428L488.258,241.125L488.258,241.125z"/>
<path style="fill:#FFAF10;" d="M430.445,419.535h52.641c2.844,0,5.172-2.327,5.172-5.172v-52.641L430.445,419.535z"/>
<path style="fill:#FFFFFF;" d="M299.976,373.527c-8.841,0-16.032-7.192-16.032-16.033v-20.505c0-1.714,1.389-3.103,3.104-3.103
	h15.515c1.714,0,3.104,1.389,3.104,3.103v14.816h60.199v-14.816c0-1.714,1.389-3.103,3.103-3.103h15.516
	c1.714,0,3.103,1.389,3.103,3.103v20.505c0,8.841-7.191,16.033-16.032,16.033H299.976z"/>
<g>
	<path style="fill:#94C2ED;" d="M26,246.401c0,6.058,4.953,11.01,11.01,11.01h107.884c6.052,0,11.007-4.952,11.007-11.01v-26.204H26
		V246.401z"/>
	<path style="fill:#94C2ED;" d="M144.894,17H37.01C30.953,17,26,21.953,26,28.009v6.188h129.9v-6.188
		C155.9,21.953,150.945,17,144.894,17z"/>
</g>
<rect x="26" y="33.31" style="fill:#FFCA51;" width="129.9" height="187.78"/>
<rect x="26" y="33.31" style="fill:#FFAF10;" width="10.1" height="187.78"/>
<path style="fill:#FFFFFF;" d="M102.193,245.548H79.707c-4.143,0-7.5-3.357-7.5-7.5s3.357-7.5,7.5-7.5h22.486
	c4.143,0,7.5,3.357,7.5,7.5C109.693,242.19,106.336,245.548,102.193,245.548z"/>
<path style="fill:#445EA0;" d="M44.553,190.818c0,5.5,4.5,10,10,10h72.795c5.5,0,10-4.5,10-10v-19.646c0-5.5-4.5-10-10-10H54.553
	c-5.5,0-10,4.5-10,10V190.818z"/>
<path style="fill:#2E4C89;" d="M65.205,190.818v-19.646c0-5.5,4.5-10,10-10H54.553c-5.5,0-10,4.5-10,10v19.646c0,5.5,4.5,10,10,10
	h20.652C69.705,200.818,65.205,196.318,65.205,190.818z"/>
<path style="fill:#94C2ED;" d="M52.249,103.72c-1.92,0-3.839-0.732-5.304-2.197c-2.929-2.929-2.929-7.678,0.001-10.606
	C58.684,79.18,74.312,72.715,90.952,72.715c16.639,0,32.267,6.465,44.003,18.203c2.929,2.929,2.929,7.678-0.001,10.606
	c-2.929,2.929-7.678,2.928-10.606-0.001c-8.903-8.904-20.764-13.809-33.396-13.809c-12.633,0-24.495,4.904-33.4,13.81
	C56.088,102.987,54.168,103.72,52.249,103.72z"/>
<path style="fill:#445EA0;" d="M116.962,118.991c-1.92,0-3.839-0.732-5.304-2.197c-5.52-5.521-12.874-8.562-20.707-8.562
	c-7.834,0-15.188,3.04-20.709,8.562c-2.93,2.928-7.678,2.928-10.607,0c-2.929-2.93-2.929-7.678,0-10.607
	c8.353-8.353,19.476-12.954,31.315-12.954c0.001,0,0,0,0.001,0c11.841,0,22.962,4.602,31.314,12.956
	c2.929,2.93,2.929,7.678-0.001,10.606C120.801,118.259,118.881,118.991,116.962,118.991z"/>
<path style="fill:#1A2B63;" d="M104.274,134.373c-1.92,0-3.84-0.732-5.305-2.198c-2.142-2.143-4.989-3.322-8.019-3.322
	c-3.029,0-5.877,1.18-8.019,3.322c-2.929,2.931-7.676,2.932-10.606,0.003c-2.93-2.928-2.931-7.677-0.003-10.606
	c4.975-4.977,11.591-7.719,18.628-7.719c7.037,0,13.653,2.741,18.628,7.719c2.928,2.93,2.927,7.679-0.003,10.606
	C108.112,133.642,106.193,134.373,104.274,134.373z"/>
<circle style="fill:#2E4C89;" cx="439" cy="89" r="59.975"/>
<path style="fill:#293D7C;" d="M400,89c0-29.543,21.368-54.08,49.487-59.042c-3.407-0.601-6.907-0.933-10.487-0.933
	c-33.122,0-59.975,26.852-59.975,59.975c0,33.122,26.853,59.975,59.975,59.975c3.58,0,7.08-0.332,10.487-0.933
	C421.368,143.079,400,118.542,400,89z"/>
<path style="fill:#FFCA51;" d="M441.547,43.941c0.098,0,0.199,0.01,0.299,0.028c0.776,0.145,1.338,0.821,1.338,1.61v35.758h12.297
	c0.539,0,1.044,0.266,1.35,0.711c0.306,0.444,0.372,1.012,0.179,1.515l-19.026,49.444c-0.247,0.641-0.86,1.05-1.527,1.05
	c-0.099,0-0.2-0.01-0.301-0.027c-0.775-0.145-1.338-0.821-1.338-1.61V96.662h-12.296c-0.54,0-1.044-0.267-1.351-0.711
	c-0.305-0.445-0.372-1.012-0.178-1.516l19.026-49.443C440.266,44.351,440.879,43.941,441.547,43.941z"/>
<path style="fill:#94C2ED;" d="M234.889,59c0.712,0,1.37,0.38,1.727,1l17.023,29.604c2.201,3.513,3.361,7.563,3.361,11.715
	c0,12.192-9.92,22.112-22.111,22.112c-12.192,0-22.112-9.92-22.112-22.112c0-4.152,1.163-8.202,3.362-11.715L233.162,60
	C233.517,59.38,234.174,59,234.889,59z"/>
<path style="fill:#6A8AC4;" d="M223,101.318c0-4.152,1.163-8.202,3.362-11.715L240,65.887L236.615,60c-0.356-0.62-1.015-1-1.727-1
	c-0.715,0-1.372,0.38-1.727,1l-17.023,29.604c-2.199,3.513-3.362,7.563-3.362,11.715c0,12.192,9.92,22.112,22.112,22.112
	c1.76,0,3.47-0.213,5.111-0.603C230.266,120.514,223,111.751,223,101.318z"/>
<g>
	<path style="fill:#EEF6FF;" d="M356.225,74.469H285c-4.143,0-7.5-3.358-7.5-7.5c0-4.143,3.357-7.5,7.5-7.5h71.225
		c4.143,0,7.5,3.357,7.5,7.5C363.725,71.111,360.367,74.469,356.225,74.469z"/>
	<path style="fill:#EEF6FF;" d="M356.225,97.931H285c-4.143,0-7.5-3.358-7.5-7.5c0-4.143,3.357-7.5,7.5-7.5h71.225
		c4.143,0,7.5,3.357,7.5,7.5C363.725,94.573,360.367,97.931,356.225,97.931z"/>
	<path style="fill:#EEF6FF;" d="M320.079,121.393H285c-4.143,0-7.5-3.357-7.5-7.5s3.357-7.5,7.5-7.5h35.079
		c4.143,0,7.5,3.357,7.5,7.5S324.222,121.393,320.079,121.393z"/>
</g>
<g>
</g>
<g>
</g>
<g>
</g>
<g>
</g>
<g>
</g>
<g>
</g>
<g>
</g>
<g>
</g>
<g>
</g>
<g>
</g>
<g>
</g>
<g>
</g>
<g>
</g>
<g>
</g>
<g>
</g>
</svg>
