<?xml version="1.0" encoding="iso-8859-1"?>
<!-- Generator: Adobe Illustrator 19.0.0, SVG Export Plug-In . SVG Version: 6.00 Build 0)  -->
<svg version="1.1" id="Capa_1" xmlns="http://www.w3.org/2000/svg" xmlns:xlink="http://www.w3.org/1999/xlink" x="0px" y="0px"
	 viewBox="0 0 512 512" style="enable-background:new 0 0 512 512;" xml:space="preserve">
<circle style="fill:#69CDFF;" cx="256" cy="267" r="245"/>
<path style="fill:#1A2B63;" d="M77.771,434.5v0.589c40.538,42.968,96.436,71.284,158.92,76.156V434.5H77.771z"/>
<path style="fill:#445EA0;" d="M269,214.5h-9.876v11.967c0,1.054-0.158,2.069-0.439,3.033h7.815v29h-35.158
	c1.054,2.287,1.658,4.821,1.658,7.5s-0.605,5.213-1.658,7.5H269c6.893,0,12.5-5.607,12.5-12.5v-34
	C281.5,220.107,275.893,214.5,269,214.5z"/>
<path style="fill:#1A2B63;" d="M70.633,114.111c-2.426,0-4.768-0.358-6.982-1.015v63.242c0.822-0.2,1.678-0.317,2.561-0.317H78.65
	v-63.258C76.135,113.633,73.439,114.111,70.633,114.111z"/>
<path style="fill:#02AF8E;" d="M208.88,5c0-2.75,2.25-5,5-5H346c2.75,0,5,2.25,5,5v89.85c0,2.75-2.25,5-5,5h-16.399
	c-2.75,0-5,2.25-5,5V119c0,2.75-1.906,3.805-4.236,2.344l-30.047-18.838c-2.33-1.461-6.486-2.656-9.236-2.656H213.88
	c-2.75,0-5-2.25-5-5V5z"/>
<path style="fill:#0F9390;" d="M222.88,94.85V5c0-2.75,2.25-5,5-5h-14c-2.75,0-5,2.25-5,5v89.85c0,2.75,2.25,5,5,5h14
	C225.13,99.85,222.88,97.6,222.88,94.85z"/>
<g>
	<path style="fill:#FFFFFF;" d="M323.487,29.459H312.47c-4.143,0-7.5-3.357-7.5-7.5s3.357-7.5,7.5-7.5h11.018
		c4.143,0,7.5,3.357,7.5,7.5S327.63,29.459,323.487,29.459z"/>
	<path style="fill:#FFFFFF;" d="M291.915,29.459h-3.873c-4.143,0-7.5-3.357-7.5-7.5s3.357-7.5,7.5-7.5h3.873
		c4.143,0,7.5,3.357,7.5,7.5S296.058,29.459,291.915,29.459z"/>
	<path style="fill:#FFFFFF;" d="M268.402,29.459H235.35c-4.143,0-7.5-3.357-7.5-7.5s3.357-7.5,7.5-7.5h33.052
		c4.143,0,7.5,3.357,7.5,7.5S272.545,29.459,268.402,29.459z"/>
	<path style="fill:#FFFFFF;" d="M267.7,53.792h-32.35c-4.143,0-7.5-3.357-7.5-7.5s3.357-7.5,7.5-7.5h32.35
		c4.143,0,7.5,3.357,7.5,7.5S271.843,53.792,267.7,53.792z"/>
	<path style="fill:#FFFFFF;" d="M323.487,53.792h-35.445c-4.143,0-7.5-3.357-7.5-7.5s3.357-7.5,7.5-7.5h35.445
		c4.143,0,7.5,3.357,7.5,7.5S327.63,53.792,323.487,53.792z"/>
	<path style="fill:#FFFFFF;" d="M323.487,78.123h-7.357c-4.143,0-7.5-3.357-7.5-7.5s3.357-7.5,7.5-7.5h7.357
		c4.143,0,7.5,3.357,7.5,7.5S327.63,78.123,323.487,78.123z"/>
	<path style="fill:#FFFFFF;" d="M293.851,78.123h-4.841c-4.143,0-7.5-3.357-7.5-7.5s3.357-7.5,7.5-7.5h4.841
		c4.143,0,7.5,3.357,7.5,7.5S297.993,78.123,293.851,78.123z"/>
	<path style="fill:#FFFFFF;" d="M268.402,78.123H235.35c-4.143,0-7.5-3.357-7.5-7.5s3.357-7.5,7.5-7.5h33.052
		c4.143,0,7.5,3.357,7.5,7.5S272.545,78.123,268.402,78.123z"/>
</g>
<g>
	<path style="fill:#2E4C89;" d="M248.251,175.021h-18.3v57.732c0,1.861-0.105,3.725-0.281,5.585h18.581
		c6.559,0,11.873-5.314,11.873-11.872v-39.572C260.124,180.336,254.81,175.021,248.251,175.021z"/>
	<path style="fill:#2E4C89;" d="M84.511,232.754v-57.732h-18.3c-6.559,0-11.873,5.314-11.873,11.873v39.572
		c0,6.558,5.314,11.872,11.873,11.872h18.581C84.615,236.479,84.511,234.615,84.511,232.754z"/>
</g>
<path style="fill:#293D7C;" d="M64.546,226.467v-39.572c0-6.559,5.314-11.873,11.873-11.873H66.211
	c-6.559,0-11.873,5.314-11.873,11.873v39.572c0,6.558,5.314,11.872,11.873,11.872h10.208
	C69.86,238.339,64.546,233.024,64.546,226.467z"/>
<path style="fill:#EF8318;" d="M185.13,103.2h-1.456c8.307,8.145,13.845,19.102,15.067,31.332c19.25,9.85,32.21,28.692,32.21,52.536
	v-38.047C230.951,123.715,210.436,103.2,185.13,103.2z"/>
<path style="fill:#DB722C;" d="M147.948,127h18.566c12.342,0,23.869,2.949,33.668,8.28c-2.227-26.154-24.146-46.691-50.876-46.691
	H134.59c-28.21,0-51.079,22.867-51.079,51.077v47.401C83.511,151.48,112.361,127,147.948,127z"/>
<path style="fill:#C65E24;" d="M104.328,139.667c0-27.182,21.234-49.395,48.02-50.978c-1.008-0.06-2.02-0.1-3.041-0.1H134.59
	c-28.21,0-51.079,22.867-51.079,51.077v47.401c0-18.76,8.023-34.428,20.817-45.055V139.667z"/>
<path style="fill:#1A2B63;" d="M236.691,421.5v-93.985c0-10.819-8.801-19.62-19.621-19.62h-29.852V294.69
	c-7.523,3.123-15.458,4.777-23.434,4.777h-13.106c-7.928,0-15.89-1.685-23.434-4.815v13.243H97.392
	c-10.817,0-19.62,8.801-19.62,19.62V421.5H236.691z"/>
<g>
	<path style="fill:#293D7C;" d="M77.771,434.5v0.589c1.568,1.662,3.166,3.294,4.779,4.911h53.335
		c-3.063-1.545-5.938-3.401-8.614-5.5H77.771z"/>
	<path style="fill:#293D7C;" d="M107.5,394c0-0.671,0.025-1.336,0.051-2h-29.78v15h31.394C108.081,402.846,107.5,398.489,107.5,394z
		"/>
	<path style="fill:#293D7C;" d="M122.5,394c0,4.578,0.855,8.959,2.401,13h68.197c1.546-4.041,2.401-8.422,2.401-13
		c0-0.671-0.021-1.338-0.057-2h-72.887C122.521,392.662,122.5,393.329,122.5,394z"/>
	<path style="fill:#293D7C;" d="M210.449,392c0.025,0.664,0.051,1.329,0.051,2c0,4.489-0.581,8.846-1.665,13h27.856v-15H210.449z"/>
</g>
<path style="fill:#FFE2B8;" d="M197,266c0-9.925,8.075-18,18-18c4.854,0,9.258,1.94,12.498,5.075
	c2.223-6.498,3.453-13.341,3.453-20.321v-46.963c0-35.588-28.849-60.068-64.437-60.068h-18.566
	c-35.587,0-64.438,24.48-64.438,60.068v46.963c0,35.587,31.58,67.713,67.167,67.713h13.106c16.514,0,32.158-6.925,44.19-17.896
	C201.531,279.828,197,273.434,197,266z"/>
<path style="fill:#FFC987;" d="M104,232.754v-46.963c0-35.266,28.334-59.609,63.477-60.048c-0.322-0.004-0.64-0.021-0.962-0.021
	h-18.566c-35.587,0-64.438,24.48-64.438,60.068v46.963c0,35.587,31.58,67.713,67.167,67.713h13.106c1.23,0,2.451-0.051,3.669-0.126
	C133.413,298.208,104,267.098,104,232.754z"/>
<g>
	<path style="fill:#EBAA48;" d="M194.087,208.78c-4.143,0-7.5-3.357-7.5-7.5v-13.723c0-4.143,3.357-7.5,7.5-7.5s7.5,3.357,7.5,7.5
		v13.723C201.587,205.423,198.23,208.78,194.087,208.78z"/>
	<path style="fill:#EBAA48;" d="M120.375,208.78c-4.143,0-7.5-3.357-7.5-7.5v-13.723c0-4.143,3.357-7.5,7.5-7.5s7.5,3.357,7.5,7.5
		v13.723C127.875,205.423,124.518,208.78,120.375,208.78z"/>
	<path style="fill:#EBAA48;" d="M157.146,235.807h-7.287c-4.143,0-7.5-3.357-7.5-7.5s3.357-7.5,7.5-7.5h4.787v-18.299
		c0-4.143,3.357-7.5,7.5-7.5s7.5,3.357,7.5,7.5v20.799C169.646,230.199,164.039,235.807,157.146,235.807z"/>
</g>
<path style="fill:#FF8DB9;" d="M157.231,284.193c-17.977,0-32.601-14.624-32.601-32.602c0-2.286,1.854-4.14,4.14-4.14h56.923
	c2.286,0,4.14,1.854,4.14,4.14C189.833,269.569,175.208,284.193,157.231,284.193z"/>
<circle style="fill:#999CAD;" cx="70.63" cy="89.5" r="18.11"/>
<path style="fill:#2E4C89;" d="M70.633,115.111c-14.122,0-25.611-11.489-25.611-25.612c0-14.122,11.489-25.611,25.611-25.611
	s25.611,11.489,25.611,25.611C96.244,103.622,84.755,115.111,70.633,115.111z M70.633,78.888c-5.851,0-10.611,4.76-10.611,10.611
	c0,5.852,4.76,10.612,10.611,10.612c5.852,0,10.611-4.761,10.611-10.612C81.244,83.647,76.484,78.888,70.633,78.888z"/>
<path style="fill:#60D882;" d="M98.857,42.868c-1.92,0-3.839-0.732-5.304-2.197c-6.314-6.314-14.727-9.792-23.688-9.792
	s-17.373,3.477-23.688,9.792c-2.93,2.93-7.679,2.929-10.606,0.001c-2.93-2.929-2.93-7.678-0.001-10.607
	c9.148-9.148,21.327-14.186,34.295-14.186s25.146,5.038,34.295,14.186c2.929,2.929,2.929,7.678-0.001,10.607
	C102.696,42.136,100.776,42.868,98.857,42.868z"/>
<path style="fill:#37C47A;" d="M84.716,59.5c-1.919,0-3.839-0.732-5.303-2.196c-5.264-5.264-13.83-5.264-19.094,0
	c-2.929,2.929-7.678,2.928-10.606-0.001c-2.929-2.929-2.929-7.678,0.001-10.606c11.111-11.111,29.193-11.111,40.305,0
	c2.93,2.929,2.93,7.678,0.001,10.606C88.555,58.768,86.635,59.5,84.716,59.5z"/>
<g>
	<path style="fill:#293D7C;" d="M77.771,327.515V341h158.92v-13.485c0-0.511-0.038-1.013-0.076-1.515H77.848
		C77.81,326.502,77.771,327.004,77.771,327.515z"/>
	<path style="fill:#293D7C;" d="M128.49,374h61.02c-4.69-7.132-11.809-12.525-20.173-15h-20.674
		C140.299,361.475,133.181,366.868,128.49,374z"/>
	<path style="fill:#293D7C;" d="M196.733,359c4.054,4.368,7.368,9.432,9.724,15h30.234v-15H196.733z"/>
	<path style="fill:#293D7C;" d="M121.267,359H77.771v15h33.771C113.898,368.432,117.213,363.368,121.267,359z"/>
	<path style="fill:#293D7C;" d="M190.729,434.5c-2.677,2.099-5.552,3.955-8.614,5.5h54.577v-5.5H190.729z"/>
</g>
<g>
	<path style="fill:#445EA0;" d="M135.041,421.5c-7.677-6.696-12.541-16.538-12.541-27.5c0-20.126,16.374-36.5,36.5-36.5
		s36.5,16.374,36.5,36.5c0,10.962-4.864,20.804-12.541,27.5h19.552c5.051-7.963,7.989-17.393,7.989-27.5
		c0-28.397-23.102-51.5-51.5-51.5s-51.5,23.103-51.5,51.5c0,10.107,2.938,19.537,7.989,27.5H135.041z"/>
	<path style="fill:#445EA0;" d="M127.245,434.5c8.757,6.881,19.78,11,31.755,11s22.998-4.119,31.755-11H127.245z"/>
</g>
<g>
	<path style="fill:#293D7C;" d="M123.364,473h113.327v-15H102.573C109.226,463.352,116.168,468.355,123.364,473z"/>
	<path style="fill:#293D7C;" d="M201.916,506h34.775v-15h-80.025C171.073,497.399,186.205,502.459,201.916,506z"/>
</g>
<g>
	<path style="fill:#DB722C;" d="M440.213,420.5c-0.512,0.877-1.453,1.475-2.54,1.475H434.5c-0.553,0-1,0.447-1,1V435.5h0.346
		c4.565-4.816,8.93-9.825,13.095-15H440.213z"/>
	<path style="fill:#DB722C;" d="M327.125,431.705V420.5H65.06c4.165,5.175,8.529,10.184,13.095,15h249.77
		C327.413,434.337,327.125,433.055,327.125,431.705z"/>
</g>
<g>
	<path style="fill:#FFCA51;" d="M372.832,431.146c-15.108-2.026-28.212-10.467-36.468-22.491
		c-5.675,0.131-10.239,4.764-10.239,10.472v12.579c0,5.789,4.694,10.482,10.482,10.482c4.158,0,7.74-2.427,9.435-5.936
		c1.694,3.51,5.276,5.936,9.435,5.936s7.74-2.427,9.435-5.936c1.694,3.51,5.276,5.936,9.435,5.936c1.394,0,2.721-0.277,3.938-0.772
		C375.076,439.093,372.958,435.369,372.832,431.146z"/>
	<path style="fill:#FFCA51;" d="M316.648,182.822c-0.09-1.371-0.148-2.747-0.148-4.135c0-10.141,2.512-19.967,7.039-28.722
		c-1.715-0.213-3.455-0.334-5.22-0.334c-22.197,0-40.968,17.318-42.731,39.428c-0.07,0.886,0.231,1.762,0.835,2.415
		c0.604,0.654,1.453,1.025,2.342,1.025h32.517C311.714,188.59,313.719,185.151,316.648,182.822z"/>
</g>
<path style="fill:#FFAF10;" d="M286.01,189.06c1.623-20.355,17.664-36.636,37.52-39.095c-1.711-0.212-3.449-0.333-5.21-0.333
	c-22.197,0-40.968,17.318-42.731,39.428c-0.07,0.886,0.231,1.762,0.835,2.415c0.604,0.654,1.453,1.025,2.342,1.025h10.422
	c-0.889,0-1.737-0.371-2.342-1.025S285.94,189.945,286.01,189.06z"/>
<path style="fill:#FFCA51;" d="M323.947,208.398c-5.262-0.602-9.672-4.045-11.646-8.759h-11.764c-1.586,0-3.089,0.709-4.098,1.931
	c-1.01,1.224-1.42,2.834-1.119,4.391c3.017,15.595,16.741,26.914,32.633,26.914c5.168,0,10.104-1.204,14.52-3.356
	C334.652,223.868,328.373,216.633,323.947,208.398z"/>
<path style="fill:#FFAF10;" d="M305.848,205.961c-0.301-1.557,0.109-3.167,1.119-4.391c1.009-1.222,2.512-1.931,4.098-1.931h-10.527
	c-1.586,0-3.089,0.709-4.098,1.931c-1.01,1.224-1.42,2.834-1.119,4.391c3.017,15.595,16.741,26.914,32.633,26.914
	c1.782,0,3.534-0.152,5.25-0.429C319.633,230.262,308.524,219.798,305.848,205.961z"/>
<path style="fill:#EA2A3D;" d="M372.813,430.753V265.567c0-18.695,15.209-33.905,33.904-33.905c2.556,0,5.043,0.294,7.439,0.832
	c-0.107-0.088-0.206-0.184-0.314-0.27C431.383,220.866,443,201.14,443,178.688c0-18.153-7.601-34.521-19.777-46.132l-38.301-49.728
	c-0.392-0.507-0.989-0.811-1.629-0.827C383.275,82,383.256,82,383.237,82c-0.619,0-1.209,0.27-1.612,0.741
	c-2.638,3.074-8.282,11.802-3.742,26.419l-34.957-19.626c-0.321-0.181-0.681-0.272-1.041-0.272c-0.264,0-0.527,0.049-0.777,0.147
	c-0.594,0.233-1.052,0.722-1.246,1.329c-0.801,2.5-1.839,7.658,0.203,14.113c1.8,5.688,5.677,11.218,11.426,16.435
	c-21.301,10.32-35.99,32.145-35.99,57.401c0,1.671,0.072,3.325,0.198,4.964c2.584-2.449,6.063-3.964,9.896-3.964
	c7.943,0,14.406,6.463,14.406,14.406c0,7.943-6.463,14.406-14.406,14.406c-0.976,0-1.929-0.1-2.851-0.285
	c5.25,10.017,13.087,18.465,22.621,24.462c-11.758,9.859-19.239,24.652-19.239,41.198v105c0,27.316,20.382,49.857,46.765,53.283
	C372.841,431.696,372.813,431.228,372.813,430.753z"/>
<circle style="fill:#FF8DB9;" cx="325.59" cy="194.09" r="15.406"/>
<path style="fill:#1A2B63;" d="M366.688,163.281c0,6.852-5.555,12.406-12.406,12.406l0,0c-6.852,0-12.406-5.555-12.406-12.406l0,0
	c0-6.852,5.555-12.406,12.406-12.406l0,0C361.133,150.875,366.688,156.43,366.688,163.281L366.688,163.281z"/>
<path style="fill:#B7092B;" d="M390,417.028c-10.827-5.932-18.188-17.431-18.188-30.623v44.348c0,7.826,6.344,14.17,14.17,14.17
	c1.397,0,2.743-0.21,4.018-0.587L390,417.028L390,417.028z"/>
<path style="fill:#EA2A3D;" d="M407.661,421.313h-0.944c-6.47,0-12.53-1.775-17.73-4.856v37.411c0,7.825,6.345,14.169,14.17,14.169
	c1.576,0,3.088-0.268,4.505-0.743v-45.981H407.661z"/>
<path style="fill:#B7092B;" d="M406.717,421.313c-0.186,0-0.37-0.012-0.556-0.014v54.531c0,7.825,6.344,14.17,14.169,14.17
	c7.826,0,14.17-6.345,14.17-14.17v-54.518h-27.783V421.313z"/>
<path style="fill:#293D7C;" d="M406.717,422.975c-19.246,0-34.904-15.66-34.904-34.907v-122.5c0-19.247,15.658-34.905,34.904-34.905
	c19.248,0,34.907,15.658,34.907,34.905v153.456c0,2.183-1.768,3.951-3.951,3.951L406.717,422.975L406.717,422.975z"/>
<path style="fill:#1A2B63;" d="M382,388.067v-122.5c0-17.517,12.971-32.057,29.81-34.53c-1.663-0.244-3.363-0.375-5.094-0.375
	c-19.246,0-34.904,15.658-34.904,34.905v122.5c0,19.247,15.658,34.907,34.904,34.907h10.188
	C397.658,422.975,382,407.315,382,388.067z"/>
<path style="fill:#2E4C89;" d="M406.717,230.662c-19.246,0-34.904,15.658-34.904,34.905v85.313
	c0,19.247,15.658,34.907,34.904,34.907h30.956c2.184,0,3.951-1.769,3.951-3.951V265.567
	C441.624,246.32,425.965,230.662,406.717,230.662z"/>
<path style="fill:#293D7C;" d="M382,350.88v-85.313c0-17.517,12.971-32.057,29.81-34.53c-1.663-0.244-3.363-0.375-5.094-0.375
	c-19.246,0-34.904,15.658-34.904,34.905v85.313c0,19.247,15.658,34.907,34.904,34.907h10.188
	C397.658,385.787,382,370.127,382,350.88z"/>
<path style="fill:#445EA0;" d="M437.673,368.787h-30.956c-19.246,0-34.904-15.66-34.904-34.907v17
	c0,19.247,15.658,34.907,34.904,34.907h30.956c2.184,0,3.951-1.769,3.951-3.951v-17
	C441.624,367.019,439.856,368.787,437.673,368.787z"/>
<path style="fill:#2E4C89;" d="M383.09,359.545c-6.928-6.383-11.277-15.524-11.277-25.665v17c0,19.247,15.658,34.907,34.904,34.907
	h10.188C400.648,385.787,386.953,374.614,383.09,359.545z"/>
<path style="fill:#B7092B;" d="M330.375,257.313c-0.554,0-1.103,0.015-1.652,0.041c-1.681,5.207-2.598,10.756-2.598,16.522v105
	c0,21.044,12.101,39.252,29.717,48.075c4.667-5.684,7.471-12.958,7.471-20.888V290.25
	C363.313,272.059,348.566,257.313,330.375,257.313z"/>
<circle style="fill:#60D882;" cx="244.5" cy="191.5" r="7.5"/>
<circle style="fill:#1A2B63;" cx="244.5" cy="212.5" r="7.5"/>
<circle style="fill:#293D7C;" cx="215" cy="266" r="19"/>
<path style="fill:#1A2B63;" d="M206,266c0-8.76,5.936-16.115,14-18.313c-1.596-0.436-3.267-0.688-5-0.688c-10.493,0-19,8.507-19,19
	c0,10.493,8.507,19,19,19c1.733,0,3.404-0.252,5-0.688C211.936,282.115,206,274.76,206,266z"/>
<g>
</g>
<g>
</g>
<g>
</g>
<g>
</g>
<g>
</g>
<g>
</g>
<g>
</g>
<g>
</g>
<g>
</g>
<g>
</g>
<g>
</g>
<g>
</g>
<g>
</g>
<g>
</g>
<g>
</g>
</svg>
