<?xml version="1.0" encoding="iso-8859-1"?>
<!-- Generator: Adobe Illustrator 19.0.0, SVG Export Plug-In . SVG Version: 6.00 Build 0)  -->
<svg version="1.1" id="Capa_1" xmlns="http://www.w3.org/2000/svg" xmlns:xlink="http://www.w3.org/1999/xlink" x="0px" y="0px"
	 viewBox="0 0 512 512" style="enable-background:new 0 0 512 512;" xml:space="preserve">
<circle style="fill:#2E4C89;" cx="253" cy="267" r="245"/>
<path style="fill:#EF8318;" d="M309.798,198.227c-1.383-2.582-4.913-4.695-7.842-4.695h-69.095v81.962h118.337L309.798,198.227z"/>
<path style="fill:#EEF6FF;" d="M173.538,238.96c0.952,0,1.838,0.512,2.314,1.336l12.094,20.962
	c4.526,7.85,15.581,14.235,24.644,14.235h21.372V162.74c0-44.697-36.235-80.931-80.932-80.931c-44.696,0-80.93,36.233-80.93,80.931
	v76.22H173.538z"/>
<g>
	<path style="fill:#D9EAFC;" d="M208.846,261.258l-12.094-20.962c-0.476-0.824-1.362-1.336-2.314-1.336h-20.9
		c0.952,0,1.838,0.512,2.314,1.336l12.094,20.962c4.526,7.85,15.581,14.235,24.644,14.235h20.9
		C224.428,275.493,213.373,269.107,208.846,261.258z"/>
	<path style="fill:#D9EAFC;" d="M163.48,82.504c-3.423-0.441-6.906-0.694-10.45-0.694c-44.696,0-80.93,36.233-80.93,80.931v76.22H93
		v-76.22C93,121.587,123.724,87.633,163.48,82.504z"/>
</g>
<g>
	<path style="fill:#EF9614;" d="M386.045,249.588v-53.172c-2.42,0.843-5.016,1.307-7.719,1.307c-2.906,0-5.689-0.533-8.261-1.501
		v53.366H386.045z"/>
	<path style="fill:#EF9614;" d="M454.185,0h-70.803c-7.343,0-13.316,5.974-13.316,13.316v91.227
		c2.572-0.968,5.355-1.501,8.261-1.501c2.703,0,5.299,0.464,7.719,1.307v-88.37h65.477v69.29c2.086-1.211,4.5-1.916,7.081-1.916
		c3.37,0,6.465,1.188,8.899,3.16V13.316C467.501,5.974,461.527,0,454.185,0z"/>
</g>
<path style="fill:#EF8318;" d="M397.498,275.493v-21.578c0-2.93-2.397-5.327-5.327-5.327H363.82c-2.93,0-5.327,2.397-5.327,5.327
	v21.578H397.498z"/>
<path style="fill:#C3DDF4;" d="M153.03,211.396c-26.48,0-48.023-21.543-48.023-48.023s21.543-48.022,48.023-48.022
	c26.481,0,48.023,21.542,48.023,48.022C201.054,189.854,179.511,211.396,153.03,211.396z"/>
<circle style="fill:#69CDFF;" cx="153.03" cy="163.37" r="31.04"/>
<path style="fill:#6DC3ED;" d="M132,163.373c0-15.438,11.273-28.241,26.037-30.636c-1.63-0.265-3.301-0.407-5.006-0.407
	c-17.145,0-31.043,13.899-31.043,31.043s13.898,31.044,31.043,31.044c1.705,0,3.376-0.144,5.006-0.407
	C143.273,191.615,132,178.811,132,163.373z"/>
<path style="fill:#FFAF10;" d="M70.129,325.041c0.763-0.694,1.727-1.041,2.691-1.041c0.964,0,1.929,0.347,2.691,1.041
	c11.597,10.549,26.639,16.358,42.354,16.358s30.756-5.81,42.353-16.358c0.763-0.694,1.727-1.041,2.691-1.041
	c0.964,0,1.929,0.347,2.691,1.041c11.597,10.549,26.639,16.358,42.354,16.358s30.756-5.81,42.354-16.358
	c0.763-0.694,1.727-1.041,2.691-1.041s1.929,0.347,2.691,1.041c11.597,10.549,26.639,16.358,42.353,16.358
	c15.715,0,30.756-5.81,42.354-16.358c0.763-0.694,1.727-1.041,2.691-1.041c0.964,0,1.929,0.347,2.691,1.041
	c11.597,10.549,26.638,16.358,42.353,16.358c7.424,0,14.693-1.312,21.524-3.793c10.044-18.318,17.346-38.124,21.469-58.722
	c0.215-1.078-0.063-2.197-0.762-3.047c-0.697-0.851-1.739-1.345-2.839-1.345H212.589c-8.743,0-19.409-6.16-23.777-13.735
	l-12.094-20.962c-0.656-1.137-1.868-1.836-3.18-1.836H23.542c-0.985,0-1.93,0.395-2.62,1.098c-0.691,0.703-1.068,1.655-1.052,2.64
	c0.613,34.479,9.643,67.612,26.049,97.031C54.839,336.053,63.116,331.42,70.129,325.041z"/>
<path style="fill:#EF8318;" d="M70.129,325.041c0.763-0.694,1.727-1.041,2.691-1.041c0.964,0,1.929,0.347,2.691,1.041
	c11.597,10.549,26.639,16.358,42.354,16.358c14.581,0,28.577-5.009,39.785-14.157c-4.631-19.774-22.365-34.506-43.553-34.506H27.149
	c4.377,16.047,10.696,31.464,18.792,45.986C54.852,336.045,63.122,331.415,70.129,325.041z"/>
<path style="fill:#FFCA51;" d="M261.77,249.811h75.669l-15.082-28.146H261.77c-2.019,0-3.671,1.651-3.671,3.67v20.807
	C258.098,248.16,259.751,249.811,261.77,249.811z"/>
<g>
	<path style="fill:#FFAF10;" d="M284.865,221.665H261.77c-2.019,0-3.671,1.651-3.671,3.67v20.807c0,2.019,1.652,3.67,3.671,3.67
		h23.096v-28.147H284.865z"/>
	<path style="fill:#FFAF10;" d="M440.846,107.14h7.398c-2.352-2.529-3.803-5.906-3.803-9.624c0-2.287,0.557-4.441,1.524-6.355
		h-10.139c-3.069,0-5.868,1.758-7.198,4.523l-14.633,30.39c-1.181,2.452-1.032,5.337,0.395,7.655l18.705,30.389
		c0.533,0.865,1.208,1.587,1.972,2.167c0.98-6.698,3.184-13.12,6.455-18.963l-11.233-18.251L440.846,107.14z"/>
	<path style="fill:#FFAF10;" d="M503.14,125.934l-15.368-30.39c-1.36-2.688-4.117-4.384-7.13-4.384h-9.403
		c0.967,1.914,1.524,4.068,1.524,6.355c0,3.718-1.451,7.095-3.803,9.624h6.769l11.134,22.018l-11.072,17.988
		c3.301,5.845,5.528,12.276,6.529,18.985c0.686-0.554,1.301-1.219,1.79-2.014l18.704-30.389
		C504.27,131.363,504.393,128.412,503.14,125.934z"/>
</g>
<path style="fill:#EF8318;" d="M378.326,198.723c-13.548,0-24.531-10.982-24.531-24.531v-47.619c0-13.547,10.983-24.53,24.531-24.53
	l0,0c13.548,0,24.531,10.983,24.531,24.53v47.619C402.857,187.74,391.874,198.723,378.326,198.723L378.326,198.723z"/>
<g>
	<circle style="fill:#FFCA51;" cx="378.33" cy="126.42" r="14.03"/>
	<circle style="fill:#FFCA51;" cx="378.33" cy="174.35" r="14.03"/>
</g>
<circle style="fill:#EF8318;" cx="458.6" cy="97.52" r="15.16"/>
<path style="fill:#9CE2D8;" d="M290.372,104c-4.143,0-7.501-3.357-7.501-7.5c0-34.943-28.427-63.371-63.37-63.371
	c-4.143,0.001-7.501-3.357-7.501-7.5s3.358-7.5,7.499-7.5c43.215,0.001,78.371,35.156,78.372,78.373
	C297.871,100.643,294.513,104.001,290.372,104z"/>
<path style="fill:#69CDFF;" d="M267.135,104c-4.142,0.001-7.5-3.357-7.499-7.499c-0.001-22.132-18.005-40.136-40.134-40.136
	c-4.142,0-7.501-3.357-7.501-7.5c0.001-4.142,3.358-7.5,7.501-7.5c30.401,0,55.134,24.734,55.135,55.135
	C274.635,100.643,271.277,104,267.135,104z"/>
<path style="fill:#9CE2D8;" d="M243.899,104c-4.142,0-7.501-3.357-7.5-7.5c-0.001-9.317-7.581-16.897-16.899-16.898
	c-4.141,0.001-7.499-3.356-7.5-7.5c0.001-4.142,3.358-7.5,7.501-7.5c17.589,0.001,31.898,14.311,31.898,31.898
	C251.398,100.643,248.041,104,243.899,104z"/>
<circle style="fill:#02AF8E;" cx="107.02" cy="261.7" r="7.991"/>
<circle style="fill:#60D882;" cx="83.18" cy="261.7" r="7.99"/>
<circle style="fill:#69CDFF;" cx="59.29" cy="261.7" r="7.99"/>
<g>
	<path style="fill:#159E97;" d="M401.799,304.346c0,5.194-4.49,9.446-9.979,9.446h-49.896c-5.489,0-9.979-4.252-9.979-9.446
		s4.49-9.445,9.979-9.445h49.896C397.309,294.9,401.799,299.151,401.799,304.346z"/>
	<path style="fill:#159E97;" d="M469.672,211.532c9.073-10.181,14.271-23.451,14.271-37.326c0-18.071-8.793-35.142-23.521-45.655
		c-0.514-0.366-1.117-0.551-1.718-0.551c-0.603,0-1.206,0.185-1.719,0.551c-14.727,10.514-23.52,27.584-23.52,45.655
		c0,13.875,5.2,27.145,14.272,37.326c-5.428,5.852-9.393,12.957-11.457,20.712c-0.231,0.869-0.046,1.798,0.502,2.512
		c0.549,0.714,1.398,1.131,2.298,1.131h39.25c0.899,0,1.749-0.417,2.297-1.131c0.548-0.714,0.734-1.643,0.503-2.512
		C479.065,224.488,475.1,217.382,469.672,211.532z"/>
</g>
<circle style="fill:#057C76;" cx="460.32" cy="150.18" r="8.316"/>
<path style="fill:#52BBEF;" d="M478.224,340.399c-15.715,0-30.756-5.81-42.353-16.358c-0.763-0.694-1.727-1.041-2.691-1.041
	c-0.964,0-1.929,0.347-2.691,1.041c-11.597,10.549-26.639,16.358-42.353,16.358c-15.715,0-30.756-5.81-42.353-16.358
	c-0.763-0.694-1.727-1.041-2.691-1.041c-0.964,0-1.929,0.347-2.691,1.041c-11.597,10.549-26.639,16.358-42.354,16.358
	s-30.756-5.81-42.353-16.358c-0.765-0.694-1.73-1.041-2.694-1.041s-1.929,0.347-2.691,1.041
	c-11.597,10.549-26.639,16.358-42.354,16.358s-30.756-5.81-42.354-16.358c-0.763-0.694-1.727-1.041-2.691-1.041
	c-0.964,0-1.929,0.347-2.691,1.041c-11.597,10.549-26.638,16.358-42.353,16.358s-30.756-5.81-42.354-16.358
	C74.75,323.347,73.785,323,72.821,323c-0.964,0-1.929,0.347-2.691,1.041c-11.597,10.549-26.639,16.358-42.353,16.358
	c-2.969,0-5.899-0.231-8.789-0.636C49.979,439.543,143.027,512,253,512s203.021-72.457,234.013-172.236
	C484.123,340.168,481.193,340.399,478.224,340.399z"/>
<path style="fill:#69CDFF;" d="M478.224,356.399c-15.715,0-30.756-5.81-42.353-16.358c-0.763-0.694-1.727-1.041-2.691-1.041
	c-0.964,0-1.929,0.347-2.691,1.041c-11.597,10.549-26.639,16.358-42.353,16.358c-15.715,0-30.756-5.81-42.353-16.358
	c-0.763-0.694-1.727-1.041-2.691-1.041c-0.964,0-1.929,0.347-2.691,1.041c-11.597,10.549-26.639,16.358-42.354,16.358
	s-30.756-5.81-42.353-16.358c-0.765-0.694-1.73-1.041-2.694-1.041s-1.929,0.347-2.691,1.041
	c-11.597,10.549-26.639,16.358-42.354,16.358s-30.756-5.81-42.354-16.358c-0.763-0.694-1.727-1.041-2.691-1.041
	c-0.964,0-1.929,0.347-2.691,1.041c-11.597,10.549-26.638,16.358-42.353,16.358s-30.756-5.81-42.354-16.358
	C74.75,339.347,73.785,339,72.821,339c-0.964,0-1.929,0.347-2.691,1.041c-11.597,10.549-26.639,16.358-42.353,16.358
	c-0.998,0-1.99-0.032-2.979-0.081C60.496,447.456,149.208,512,253,512s192.504-64.544,228.203-155.682
	C480.214,356.367,479.222,356.399,478.224,356.399z"/>
<g>
	<path style="fill:#52BBEF;" d="M478.594,362.682h-65.241c-4.515,0-8.208,3.323-8.208,7.386s3.693,7.387,8.208,7.387h40.829
		c4.514,0,8.207,3.324,8.207,7.386c0,4.063-3.692,7.387-8.207,7.387h-97.666c-4.513,0-8.207,3.324-8.207,7.387
		s3.694,7.387,8.207,7.387h97.552C463.696,393.197,471.937,378.357,478.594,362.682z"/>
	<path style="fill:#52BBEF;" d="M127.5,370.682H30.967c7.372,15.76,16.374,30.604,26.787,44.318h33.225
		c4.514,0,8.207-3.324,8.207-7.387s-3.693-7.387-8.207-7.387h-10.26c-4.515,0-8.208-3.323-8.208-7.387
		c0-4.062,3.693-7.386,8.208-7.386H127.5c4.514,0,8.207-3.324,8.207-7.387S132.014,370.682,127.5,370.682z"/>
	<path style="fill:#52BBEF;" d="M155,407.613c0,4.063-3.694,7.387-8.207,7.387h-32.009c-4.514,0-8.207-3.324-8.207-7.387
		s3.693-7.387,8.207-7.387h32.009C151.306,400.227,155,403.551,155,407.613z"/>
</g>
<path style="fill:#02AF8E;" d="M171.584,403.058c2.929-2.929,7.677-2.929,10.607,0c24.709,24.709,64.911,24.709,89.62,0.001
	c2.929-2.93,7.677-2.93,10.606,0c2.929,2.929,2.929,7.678,0,10.606c-30.557,30.557-80.276,30.556-110.833-0.001
	C168.654,410.735,168.655,405.986,171.584,403.058z"/>
<path style="fill:#28A5A5;" d="M188.014,386.627c2.929-2.929,7.677-2.929,10.606,0c15.649,15.649,41.111,15.648,56.759,0.001
	c2.929-2.929,7.677-2.93,10.607,0c2.929,2.929,2.929,7.678,0,10.607c-21.497,21.497-56.475,21.496-77.972,0
	C185.085,394.305,185.085,389.557,188.014,386.627z"/>
<path style="fill:#0F9390;" d="M204.445,370.196c2.929-2.929,7.677-2.929,10.606,0.001c6.588,6.588,17.309,6.588,23.898,0
	c2.929-2.929,7.677-2.93,10.607,0c2.929,2.929,2.929,7.678,0,10.606c-12.437,12.436-32.674,12.436-45.111,0
	C201.516,377.874,201.516,373.126,204.445,370.196z"/>
<g>
	<path style="fill:#52BBEF;" d="M154.878,462.735c5.895,5.254,13.579,8.265,21.613,8.265c10.464,0,20.348-5.092,26.437-13.619
		c0.212-0.297,0.319-0.647,0.319-0.995s-0.107-0.698-0.319-0.995c-6.088-8.528-15.973-13.619-26.437-13.619
		c-8.034,0-15.718,3.01-21.613,8.264c-3.388-3.142-7.502-5.439-11.993-6.634c-0.504-0.135-1.042-0.026-1.455,0.29
		c-0.414,0.318-0.654,0.81-0.654,1.331v22.727c0,0.522,0.241,1.014,0.654,1.331c0.413,0.317,0.951,0.425,1.455,0.292
		C147.377,468.175,151.491,465.879,154.878,462.735z"/>
	<path style="fill:#52BBEF;" d="M287.102,470.964c5.895,5.254,13.579,8.265,21.613,8.265c10.464,0,20.348-5.092,26.437-13.619
		c0.212-0.297,0.319-0.647,0.319-0.995s-0.107-0.698-0.319-0.995c-6.088-8.529-15.973-13.62-26.437-13.62
		c-8.034,0-15.718,3.01-21.613,8.264c-3.388-3.142-7.503-5.44-11.993-6.634c-0.504-0.135-1.042-0.026-1.455,0.29
		c-0.414,0.318-0.654,0.81-0.654,1.331v22.727c0,0.521,0.241,1.014,0.654,1.331c0.414,0.317,0.951,0.425,1.455,0.292
		C279.6,476.403,283.715,474.107,287.102,470.964z"/>
	<path style="fill:#52BBEF;" d="M300.102,384.735c5.895,5.254,13.579,8.265,21.613,8.265c10.464,0,20.348-5.092,26.437-13.619
		c0.212-0.297,0.319-0.647,0.319-0.995s-0.107-0.698-0.319-0.995c-6.088-8.528-15.973-13.619-26.437-13.619
		c-8.034,0-15.718,3.01-21.613,8.264c-3.388-3.142-7.503-5.439-11.993-6.634c-0.504-0.135-1.042-0.026-1.455,0.29
		c-0.414,0.318-0.654,0.81-0.654,1.331v22.727c0,0.522,0.241,1.014,0.654,1.331c0.414,0.317,0.951,0.425,1.455,0.292
		C292.6,390.175,296.715,387.879,300.102,384.735z"/>
	<path style="fill:#52BBEF;" d="M428.715,414.772c-8.034,0-15.718,3.01-21.613,8.264c-3.388-3.142-7.503-5.439-11.993-6.634
		c-0.504-0.135-1.042-0.026-1.455,0.29c-0.414,0.318-0.654,0.81-0.654,1.331v22.727c0,0.522,0.241,1.014,0.654,1.331
		c0.414,0.317,0.951,0.425,1.455,0.292c4.491-1.197,8.605-3.493,11.993-6.637c4.459,3.975,9.944,6.662,15.829,7.737
		c7.885-7.595,15.263-15.712,22.077-24.298C440.117,416.337,434.506,414.772,428.715,414.772z"/>
</g>
<g>
</g>
<g>
</g>
<g>
</g>
<g>
</g>
<g>
</g>
<g>
</g>
<g>
</g>
<g>
</g>
<g>
</g>
<g>
</g>
<g>
</g>
<g>
</g>
<g>
</g>
<g>
</g>
<g>
</g>
</svg>
