<?xml version="1.0"?>
<svg xmlns="http://www.w3.org/2000/svg" xmlns:xlink="http://www.w3.org/1999/xlink" xmlns:svgjs="http://svgjs.com/svgjs" version="1.1" width="512" height="512" x="0" y="0" viewBox="0 0 512 512" style="enable-background:new 0 0 512 512" xml:space="preserve" class=""><g><g xmlns="http://www.w3.org/2000/svg"><path d="m1.92 110.44c-1.969 3.508-2.447 7.659-1.327 11.522l70.407 242.739v-277.675l-59.933 16.282c-3.881 1.055-7.177 3.625-9.147 7.132z" fill="#ffffff" data-original="#000000" style="" class=""/><path d="m510.079 110.44c-1.969-3.508-5.265-6.077-9.146-7.132l-59.933-16.282v277.675l70.406-242.738c1.12-3.863.643-8.015-1.327-11.523z" fill="#ffffff" data-original="#000000" style="" class=""/><path d="m282.834 213.579c-6.059 0-11.637 2.48-15.708 6.981-2.844 3.145-6.886 4.939-11.126 4.939-4.241 0-8.283-1.795-11.127-4.94-4.069-4.501-9.648-6.98-15.707-6.98-11.671 0-21.166 9.495-21.166 21.166 0 21.144 30.124 47.47 48.034 60.515 21.189-15.285 47.966-41.05 47.966-60.515 0-11.671-9.495-21.166-21.166-21.166z" fill="#ffffff" data-original="#000000" style="" class=""/><path d="m396 31h-280c-8.284 0-15 6.716-15 15v420c0 8.284 6.716 15 15 15h280c8.284 0 15-6.716 15-15v-420c0-8.284-6.716-15-15-15zm-250 60c-8.284 0-15-6.716-15-15s6.716-15 15-15 15 6.716 15 15-6.716 15-15 15zm118.045 235.082c-2.455 1.56-5.25 2.34-8.045 2.34s-5.59-.78-8.044-2.34c-7.161-4.55-69.956-45.767-69.956-91.337 0-28.213 22.953-51.166 51.166-51.166 9.55 0 18.837 2.689 26.834 7.611 7.998-4.922 17.285-7.611 26.834-7.611 28.213 0 51.166 22.953 51.166 51.166 0 45.57-62.795 86.787-69.955 91.337zm101.955 124.918c-8.284 0-15-6.716-15-15s6.716-15 15-15 15 6.716 15 15-6.716 15-15 15z" fill="#ffffff" data-original="#000000" style="" class=""/></g></g></svg>
