<svg id="Capa_1" enable-background="new 0 0 497 497" height="512" viewBox="0 0 497 497" width="512" xmlns="http://www.w3.org/2000/svg"><g><path d="m157.61 497h-110.04c0-96.62 49.42-138.35 49.42-138.35-113.63-127.13 43.26-283.82 116.94-346.02 19.96-16.84 49.18-16.84 69.14 0 73.68 62.2 230.57 218.89 116.94 346.02 0 0 49.42 41.73 49.42 138.35h-110.04l-90.89-50.715z" fill="#c7c5cb"/><path d="m126.99 358.65c-113.63-127.13 43.26-283.82 116.94-346.02 5.877-4.958 12.56-8.445 19.57-10.483-16.797-4.884-35.487-1.398-49.57 10.483-73.68 62.2-230.57 218.89-116.94 346.02 0 0-49.42 41.73-49.42 138.35h30c0-96.62 49.42-138.35 49.42-138.35z" fill="#b2b0bc"/><path d="m371.74 230.53c0 35.25-14.8 64.36-38.53 84.22l-9.46-20.82c-4.76-10.49-19.67-10.49-24.43 0l-19.3 42.47-19.3-42.47c-4.77-10.49-19.67-10.49-24.44 0l-19.3 42.47-19.3-42.47c-4.76-10.49-19.67-10.49-24.43 0l-9.46 20.82c-23.73-19.86-38.53-48.97-38.53-84.22 0-34.64 14.29-58.16 37.3-72.91l10.69 23.51c4.76 10.49 19.67 10.49 24.43 0l18.99-41.78c.2-.03.39-.05.59-.08l19.02 41.86c4.77 10.49 19.67 10.49 24.44 0l19.02-41.86c.2.03.39.05.59.08l18.99 41.78c4.76 10.49 19.67 10.49 24.43 0l10.69-23.51c23.01 14.75 37.3 38.27 37.3 72.91z" fill="#da9d81"/><path d="m155.26 230.53c0-22.188 5.87-39.806 16.132-53.487l-8.832-19.423c-23.01 14.75-37.3 38.27-37.3 72.91 0 35.25 14.8 64.36 38.53 84.22l9.46-20.82c.182-.4.383-.78.593-1.15-11.775-17.284-18.583-38.353-18.583-62.25z" fill="#c7856a"/><g><g><path d="m181.04 241.367c-4.142 0-7.5-3.358-7.5-7.5v-12.963c0-4.142 3.358-7.5 7.5-7.5s7.5 3.358 7.5 7.5v12.963c0 4.142-3.358 7.5-7.5 7.5z" fill="#423e4f"/></g><g><path d="m315.96 241.367c-4.142 0-7.5-3.358-7.5-7.5v-12.963c0-4.142 3.358-7.5 7.5-7.5s7.5 3.358 7.5 7.5v12.963c0 4.142-3.358 7.5-7.5 7.5z" fill="#423e4f"/></g><g><path d="m248.5 249.084c-8.984 0-17.527-3.891-23.439-10.675-2.722-3.123-2.396-7.86.726-10.582 3.122-2.721 7.86-2.396 10.582.726 3.063 3.515 7.485 5.53 12.132 5.53s9.068-2.016 12.131-5.53c2.721-3.123 7.458-3.448 10.582-.727 3.123 2.721 3.448 7.459.727 10.582-5.913 6.785-14.456 10.676-23.441 10.676z" fill="#423e4f"/></g></g><g><path d="m180.357 113.708c-4.142 0-7.5-3.358-7.5-7.5v-14.963c0-4.142 3.358-7.5 7.5-7.5s7.5 3.358 7.5 7.5v14.963c0 4.142-3.358 7.5-7.5 7.5z" fill="#423e4f"/></g><g><path d="m316.643 113.708c-4.142 0-7.5-3.358-7.5-7.5v-14.963c0-4.142 3.358-7.5 7.5-7.5s7.5 3.358 7.5 7.5v14.963c0 4.142-3.358 7.5-7.5 7.5z" fill="#423e4f"/></g><g fill="#e8e8e8"><path d="m279.74 139.27-19.02 41.86c-4.77 10.49-19.67 10.49-24.44 0l-19.02-41.86c9.98-1.34 20.45-1.97 31.24-1.97s21.26.63 31.24 1.97z"/><path d="m216.67 139.35-18.99 41.78c-4.76 10.49-19.67 10.49-24.43 0l-10.69-23.51c14.89-9.56 33.43-15.44 54.11-18.27z"/><path d="m334.44 157.62-10.69 23.51c-4.76 10.49-19.67 10.49-24.43 0l-18.99-41.78c20.68 2.83 39.22 8.71 54.11 18.27z"/><path d="m339.93 487c0 3.38-.18 6.72-.54 10h-181.78c-.36-3.28-.54-6.62-.54-10 0-50.5 40.93-91.43 91.43-91.43s91.43 40.93 91.43 91.43z"/></g><g><path d="m101.003 497v-51.715c0-4.142 3.358-7.5 7.5-7.5s7.5 3.358 7.5 7.5v51.715z" fill="#b2b0bc"/></g><g><path d="m380.997 497v-51.715c0-4.142 3.358-7.5 7.5-7.5s7.5 3.358 7.5 7.5v51.715z" fill="#b2b0bc"/></g><path d="m323.75 293.93c-4.76-10.49-19.67-10.49-24.43 0l-19.3 42.47-19.3-42.47c-4.77-10.49-19.67-10.49-24.44 0l-19.3 42.47-19.3-42.47c-4.76-10.49-19.67-10.49-24.43 0l-9.46 20.82c14.35 12.04 31.97 20.69 51.55 25.26l3.65.8c9.45 1.95 19.34 2.96 29.51 2.96s20.06-1.01 29.51-2.96l3.65-.8c19.58-4.57 37.2-13.22 51.55-25.26z" fill="#e8e8e8"/></g></svg>