<svg id="Capa_1" enable-background="new 0 0 497 497" height="512" viewBox="0 0 497 497" width="512" xmlns="http://www.w3.org/2000/svg"><g><g fill="#5bd6fd"><path d="m217.953 497h61.095l33.997-94.089-33.997-40.69h-61.095l-33.998 40.69z"/><path d="m313.476 497h107.964s9.578-63.359-36.365-108.304l-72.031 14.214-22.378 55.019z"/><path d="m183.525 497h-107.965s-9.578-63.359 36.365-108.304l72.031 14.214 22.378 55.019z"/></g><path d="m145.635 395.349-33.711-6.652c-45.942 44.944-36.364 108.303-36.364 108.303h40s-8.669-57.369 30.075-101.651z" fill="#00c4fc"/><path d="m279.048 362.221v134.779h34.428c5.455-28.921 11.331-61.667 52.772-78.233 83.973-33.568 36.513-109.946 36.513-109.946z" fill="#e8e8e8"/><path d="m217.953 362.221v134.779h-34.428c-5.455-28.921-11.331-61.667-52.772-78.233-83.973-33.567-36.513-109.946-36.513-109.946z" fill="#e8e8e8"/><ellipse cx="248.5" cy="191.642" fill="#ff748f" rx="194.954" ry="191.642"/><path d="m117.736 324.83-.102-5.911-23.394-10.097s-47.46 76.378 36.513 109.946c-41.993-38.812-13.017-93.938-13.017-93.938z" fill="#dadad8"/><path d="m93.546 191.642c0-99.203 76.68-180.8 174.954-190.645-6.575-.659-13.247-.997-20-.997-107.67 0-194.954 85.801-194.954 191.642s87.284 191.642 194.954 191.642c6.752 0 13.424-.338 20-.997-98.274-9.844-174.954-91.442-174.954-190.645z" fill="#fd5f7e"/><path d="m378.163 97.79c-5.835-7.712-17.36-7.98-23.379-.411-15.022 18.887-48.019 48.818-106.283 48.818s-91.265-29.93-106.29-48.818c-6.021-7.568-17.546-7.299-23.38.414-19.861 26.258-31.618 58.734-31.618 93.85 0 1.818.031 3.628.094 5.431 1.275 36.823 30.04 66.791 66.817 69.033.486.03.975.057 1.468.083 4.99.259 8.98 4.204 9.27 9.192 1.238 21.314 11.472 73.344 81.811 74.23.606.01 1.212.01 1.827.01.616 0 1.222 0 1.827-.01 70.339-.887 80.573-52.916 81.811-74.23.29-4.988 4.281-8.932 9.27-9.192.493-.026.982-.053 1.467-.083 36.253-2.21 65.187-31.376 66.764-67.662.098-2.256.148-4.524.148-6.803.001-35.116-11.757-67.593-31.624-93.852z" fill="#e8e8e8"/><circle cx="166.302" cy="198.475" fill="#da9d81" r="35.55"/><circle cx="330.698" cy="198.475" fill="#da9d81" r="35.55"/><path d="m250.903 206.308h-4.807c-7.969 0-14.429 6.46-14.429 14.429 0 7.969 6.46 14.429 14.429 14.429h4.807c7.969 0 14.429-6.46 14.429-14.429 0-7.969-6.46-14.429-14.429-14.429z" fill="#da9d81"/><g><g><path d="m166.302 211.775c-4.142 0-7.5-3.358-7.5-7.5v-14.5c0-4.142 3.358-7.5 7.5-7.5s7.5 3.358 7.5 7.5v14.5c0 4.142-3.357 7.5-7.5 7.5z" fill="#423e4f"/></g></g><g><g><path d="m330.698 211.775c-4.142 0-7.5-3.358-7.5-7.5v-14.5c0-4.142 3.358-7.5 7.5-7.5s7.5 3.358 7.5 7.5v14.5c0 4.142-3.358 7.5-7.5 7.5z" fill="#423e4f"/></g></g><path d="m282.141 56.016-16.856-2.449-7.538-15.274c-3.783-7.665-14.712-7.665-18.495 0l-7.538 15.274-16.856 2.449c-8.458 1.229-11.836 11.624-5.715 17.59l12.197 11.889-2.879 16.788c-1.445 8.424 7.397 14.848 14.963 10.871l15.076-7.926 15.076 7.926c7.565 3.977 16.408-2.447 14.963-10.871l-2.879-16.788 12.197-11.889c6.12-5.967 2.743-16.361-5.716-17.59z" fill="#e8e8e8"/><g id="XMLID_5_"><path d="m248.5 308.821c-15.585 0-30.109-3.834-40.895-10.795-11.158-7.201-14.366-22.084-7.165-33.243 7.201-11.158 22.084-14.363 33.242-7.165 1.668 1.076 6.911 3.112 14.818 3.112 7.908 0 13.151-2.035 14.819-3.112 11.159-7.202 26.041-3.993 33.242 7.166s3.993 26.042-7.166 33.242c-10.787 6.961-25.31 10.795-40.895 10.795z" fill="#da9d81"/></g><g><path d="m248.5 294.203c-8.267 0-16.129-3.58-21.569-9.823-2.722-3.123-2.396-7.86.726-10.582 3.122-2.721 7.86-2.397 10.582.726 2.591 2.973 6.332 4.678 10.262 4.678s7.67-1.705 10.262-4.678c2.721-3.123 7.458-3.448 10.582-.726 3.123 2.722 3.448 7.459.726 10.582-5.442 6.243-13.304 9.823-21.571 9.823z" fill="#423e4f"/></g></g></svg>