<svg id="Capa_1" enable-background="new 0 0 497 497" height="512" viewBox="0 0 497 497" width="512" xmlns="http://www.w3.org/2000/svg"><g><path d="m490.164 210.305c9.114-12.363 9.114-29.221 0-41.584-9.114-12.363-9.114-29.221 0-41.584 9.114-12.363 9.114-29.221 0-41.584-10.46-14.189-29.338-19.257-45.499-12.214-15.691 6.838-35.201 19.036-52.705 40.708v150.936c17.504 21.671 37.014 33.87 52.705 40.708 16.16 7.042 35.038 1.975 45.499-12.214 9.114-12.363 9.114-29.221 0-41.584-9.114-12.367-9.114-29.224 0-41.588z" fill="#c6ade3"/><path d="m6.836 210.305c-9.114-12.363-9.114-29.221 0-41.584 9.114-12.363 9.114-29.221 0-41.584-9.114-12.363-9.114-29.221 0-41.584 10.46-14.189 29.338-19.257 45.499-12.214 15.691 6.838 35.201 19.036 52.705 40.708v150.936c-17.504 21.671-37.014 33.87-52.705 40.708-16.16 7.042-35.038 1.975-45.499-12.214-9.114-12.363-9.114-29.221 0-41.584 9.114-12.367 9.114-29.224 0-41.588z" fill="#c6ade3"/><path d="m425.465 83.67c-11.014 7.135-22.645 16.929-33.505 30.375v150.936c11.717 14.507 24.329 24.753 36.097 32.004 17.947-30.72 28.249-66.427 28.249-104.5 0-39.869-11.296-77.145-30.841-108.815z" fill="#b08bd7"/><path d="m71.535 83.67c-19.545 31.67-30.841 68.946-30.841 108.815 0 38.073 10.301 73.78 28.249 104.5 11.768-7.251 24.38-17.497 36.097-32.004v-150.936c-10.86-13.446-22.492-23.24-33.505-30.375z" fill="#b08bd7"/><path d="m400.38 482.321c0-98.606-68.541-132.744-68.541-132.744h-166.678s-68.541 34.137-68.541 132.744z" fill="#5bd6fd"/><path d="m195.161 349.577h-30s-68.541 34.137-68.541 132.744h30c0-98.607 68.541-132.744 68.541-132.744z" fill="#00c4fc"/><g><path d="m453.803 278.037c-.762 0-1.538-.117-2.302-.364-38.293-12.343-56.86-44.185-57.631-45.534-2.056-3.596-.808-8.177 2.788-10.234 3.592-2.054 8.167-.811 10.227 2.776.273.468 16.728 28.242 49.218 38.715 3.942 1.271 6.108 5.497 4.837 9.439-1.024 3.179-3.969 5.202-7.137 5.202z" fill="#ffa2e7"/></g><g><path d="m400.372 164.045c-1.267 0-2.55-.321-3.726-.998-3.585-2.061-4.83-6.627-2.777-10.217.771-1.35 19.338-33.191 57.631-45.534 3.943-1.272 8.168.895 9.439 4.837s-.895 8.168-4.837 9.439c-32.602 10.509-49.058 38.438-49.22 38.719-1.39 2.406-3.916 3.754-6.51 3.754z" fill="#ffa2e7"/></g><g><path d="m460.839 199.985h-54.542c-4.142 0-7.5-3.358-7.5-7.5s3.358-7.5 7.5-7.5h54.542c4.142 0 7.5 3.358 7.5 7.5s-3.358 7.5-7.5 7.5z" fill="#ffa2e7"/></g><g><path d="m43.197 278.037c-3.168 0-6.113-2.023-7.137-5.201-1.271-3.942.895-8.168 4.837-9.439 32.82-10.579 49.051-38.423 49.211-38.703 2.056-3.596 6.639-4.844 10.234-2.788 3.596 2.056 4.844 6.638 2.788 10.234-.771 1.35-19.338 33.191-57.631 45.534-.764.246-1.54.363-2.302.363z" fill="#ffa2e7"/></g><g><path d="m96.627 164.055c-2.599 0-5.125-1.352-6.511-3.767-.273-.468-16.728-28.242-49.218-38.715-3.942-1.271-6.108-5.497-4.837-9.439 1.27-3.942 5.495-6.108 9.439-4.837 38.293 12.343 56.86 44.184 57.631 45.534 2.056 3.596.808 8.177-2.788 10.234-1.174.671-2.454.99-3.716.99z" fill="#ffa2e7"/></g><g><path d="m90.703 199.985h-54.542c-4.142 0-7.5-3.358-7.5-7.5s3.358-7.5 7.5-7.5h54.542c4.142 0 7.5 3.358 7.5 7.5s-3.358 7.5-7.5 7.5z" fill="#ffa2e7"/></g><g><path d="m248.5 445.622c-1.4 0-2.801-.196-4.159-.588-2.009-.579-20.152-6.14-38.46-22.779-17.078-15.521-37.418-43.919-37.339-91.069l30.013.051c-.097 57.196 37.283 77.993 49.961 83.397 12.779-5.404 50.026-26.078 49.929-83.397l30.013-.051c.08 47.151-20.261 75.549-37.339 91.069-18.308 16.638-36.452 22.199-38.46 22.779-1.359.391-2.759.588-4.159.588z" fill="#f9f097"/></g><circle cx="248.5" cy="192.485" fill="#a4e6ff" r="177.806"/><g fill="#e8e8e8"><ellipse cx="146.946" cy="202.658" rx="37.471" ry="29.84"/><ellipse cx="350.054" cy="202.658" rx="37.471" ry="29.84"/></g><g><path d="m168.784 181.433c-4.142 0-7.5-3.358-7.5-7.5v-25.318c0-4.142 3.358-7.5 7.5-7.5s7.5 3.358 7.5 7.5v25.318c0 4.142-3.357 7.5-7.5 7.5z" fill="#423e4f"/></g><g><path d="m328.215 181.433c-4.142 0-7.5-3.358-7.5-7.5v-25.318c0-4.142 3.358-7.5 7.5-7.5s7.5 3.358 7.5 7.5v25.318c0 4.142-3.358 7.5-7.5 7.5z" fill="#423e4f"/></g><path d="m354.557 110.694c-6.144-11.266-19.494-16.529-31.645-12.402-20.99 7.129-46.986 11.066-74.412 11.066s-53.422-3.938-74.412-11.067c-12.151-4.127-25.501 1.136-31.645 12.402-7.83 14.358-.923 32.427 14.572 37.658 26.684 9.008 58.577 13.97 91.485 13.97s64.801-4.962 91.485-13.97c15.495-5.23 22.402-23.298 14.572-37.657z" fill="#ffa2e7"/><path d="m272.242 204.549h-47.483c-19.119 0-34.617 15.499-34.617 34.617 0 19.118 15.499 34.617 34.617 34.617h47.483c19.118 0 34.617-15.499 34.617-34.617 0-19.119-15.499-34.617-34.617-34.617z" fill="#ffa2e7"/><g><path d="m272.484 246.666h-47.969c-4.142 0-7.5-3.358-7.5-7.5s3.358-7.5 7.5-7.5h47.969c4.142 0 7.5 3.358 7.5 7.5s-3.358 7.5-7.5 7.5z" fill="#423e4f"/></g><g><path d="m152.158 482.321v-52.47c0-4.142 3.358-7.5 7.5-7.5s7.5 3.358 7.5 7.5v52.47z" fill="#00c4fc"/></g><g><path d="m329.842 482.321v-52.47c0-4.142 3.358-7.5 7.5-7.5s7.5 3.358 7.5 7.5v52.47z" fill="#00c4fc"/></g><ellipse cx="248.5" cy="430.615" fill="#ffa2e7" rx="19.457" ry="25.598"/></g></svg>