<svg id="Capa_1" enable-background="new 0 0 497 497" height="512" viewBox="0 0 497 497" width="512" xmlns="http://www.w3.org/2000/svg"><g><g fill="#77718c"><path d="m164.137 497h-71.234c0-23.979 4.244-44.12 10.473-60.761l58.537 22.105z"/><path d="m370.113 394.969-28.914 58.158-73.107 43.873h-39.184l-66.994-38.656-35.027-63.376c13.272-16.315 25.373-23.673 25.373-23.673h192.48s12.102 7.359 25.373 23.674z"/><path d="m404.097 497h-71.234l8.336-43.873 52.425-16.888c6.229 16.641 10.473 36.782 10.473 60.761z"/></g><path d="m31.248 217.252c0-119.794 97.459-217.252 217.252-217.252 58.03 0 112.587 22.598 153.621 63.631s63.631 95.59 63.631 153.62h-434.504z" fill="#ff748f"/><path d="m268.577.923c-6.636-.605-13.331-.923-20.077-.923-119.793 0-217.252 97.458-217.252 217.252h40c0-113.076 86.84-206.236 197.329-216.329z" fill="#fd5f7e"/><circle cx="430.13" cy="237.607" fill="#ffcabd" r="44.821"/><path d="m387.989 100.932c-13.091-15.679-33.97-22.629-53.922-18.257-63.123 13.832-89.961-.963-119.094-9.849-42.702-13.025-88.797 2.984-114.652 39.38-21.065 29.654-33.451 65.902-33.451 105.046 0 100.311 81.319 181.63 181.63 181.63s181.63-81.319 181.63-181.63c0-44.257-15.834-84.812-42.141-116.32z" fill="#ffdcce"/><path d="m182.26 371.295h-30s-12.101 7.358-25.373 23.673l13.749 24.876c5.104-9.89 10.777-18.154 16.251-24.876 13.27-16.313 25.37-23.671 25.373-23.673z" fill="#5c586f"/><path d="m106.87 217.252c0-39.144 12.387-75.392 33.451-105.045 15.786-22.222 39.121-36.825 64.618-41.879-39.73-7.886-80.778 8.319-104.618 41.879-16.607 23.378-27.814 50.858-31.816 80.622-.54-.02-1.08-.042-1.635-.042-24.754 0-44.821 20.067-44.821 44.821s20.067 44.821 44.821 44.821c4.229 0 8.019-.598 11.414-1.693 25.746 69.002 92.238 118.146 170.216 118.146 6.76 0 13.431-.381 20-1.101-90.9-9.958-161.63-86.978-161.63-180.529z" fill="#ffcabd"/><path d="m385.172 196.249c-26.959-7.007-43.594-34.214-52.703-55.344-3.491-8.099-14.953-8.068-18.55-.015-10.922 24.456-31.791 57.064-65.42 57.064s-54.498-32.608-65.42-57.064c-3.597-8.053-15.058-8.084-18.55.015-9.108 21.13-25.743 48.337-52.703 55.344-7.76 2.017-13.22 8.954-13.22 16.971 0 8.018 5.461 14.955 13.22 16.971 26.959 7.007 43.594 34.214 52.703 55.344 3.491 8.099 14.953 8.069 18.55.015 10.922-24.456 31.791-57.064 65.42-57.064s54.498 32.608 65.42 57.064c3.597 8.053 15.058 8.084 18.55-.015 9.108-21.13 25.743-48.337 52.703-55.344 7.76-2.017 13.22-8.954 13.22-16.971.001-8.017-5.46-14.954-13.22-16.971z" fill="#77718c"/><g><g><g><path d="m169.544 234.094c-4.143 0-7.5-3.358-7.5-7.5v-18.454c0-4.142 3.357-7.5 7.5-7.5s7.5 3.358 7.5 7.5v18.454c0 4.142-3.357 7.5-7.5 7.5z" fill="#e8e8e8"/></g><g><path d="m327.456 234.094c-4.143 0-7.5-3.358-7.5-7.5v-18.454c0-4.142 3.357-7.5 7.5-7.5s7.5 3.358 7.5 7.5v18.454c0 4.142-3.357 7.5-7.5 7.5z" fill="#e8e8e8"/></g></g></g><g><path d="m248.5 278.491c-9.59 0-18.709-4.153-25.019-11.395-2.722-3.123-2.396-7.86.728-10.582 3.121-2.721 7.858-2.396 10.581.727 3.461 3.971 8.458 6.249 13.71 6.249s10.249-2.278 13.71-6.249c2.721-3.123 7.458-3.448 10.581-.727s3.449 7.458.728 10.582c-6.31 7.242-15.429 11.395-25.019 11.395z" fill="#423e4f"/></g><path d="m103.376 436.239c-5.45 14.561-9.381 31.802-10.278 51.948-.128 2.878-.195 5.815-.195 8.813h30c0-19.341 2.764-36.181 7.1-50.706z" fill="#5c586f"/><g><path d="m228.908 497h-64.771l-60.761-60.761c6.524-17.485 15.246-31.123 23.511-41.271z" fill="#f9f097"/></g><path d="m126.653 459.519c1.761-8.416 4.055-16.172 6.717-23.283 3.291-8.821 7.142-16.659 11.211-23.568l-17.701-17.703c-9.897 12.151-17.846 26.089-23.511 41.271z" fill="#fccb88"/><g><path d="m393.624 436.239-60.761 60.761h-64.771l102.021-102.031c8.265 10.147 16.987 23.785 23.511 41.27z" fill="#f9f097"/></g></g></svg>