<svg id="Capa_1" enable-background="new 0 0 497 497" height="512" viewBox="0 0 497 497" width="512" xmlns="http://www.w3.org/2000/svg"><g><path d="m143.902 413.919 23.049 41.541-23.049 41.54h-58.62c0-48.823 29.006-77.829 29.006-77.829z" fill="#76e6d5"/><path d="m146.231 418.117-2.329-4.198-29.614 5.252s-29.006 29.006-29.006 77.829h26c0-48.822 29.006-77.829 29.006-77.829z" fill="#00d6bc"/><path d="m411.718 497h-58.62l-21.288-41.541 21.288-41.541 29.613 5.253c.001 0 29.007 29.007 29.007 77.829z" fill="#76e6d5"/><path d="m353.098 413.919v83.081h-209.196v-83.081l104.598-18.562z" fill="#ff748f"/><path d="m71.561 354.733s-23.651-2.641-39.281-18.401c-4.092-4.126-11.098-1.326-11.105 4.485-.044 34.287 9.486 101.954 85.097 104.064 45.278-.943 66.974-43.391 66.974-43.391z" fill="#fccb88"/><path d="m425.439 354.733s23.651-2.641 39.281-18.401c4.092-4.126 11.098-1.326 11.105 4.485.044 34.287-9.486 101.954-85.097 104.064-45.278-.943-66.974-43.391-66.974-43.391z" fill="#fccb88"/><circle cx="248.5" cy="190.486" fill="#76e6d5" r="190.486"/><path d="m98.014 190.486c0-98.447 74.685-179.446 170.486-189.443-6.574-.686-13.245-1.043-20-1.043-105.203 0-190.486 85.284-190.486 190.486s85.283 190.487 190.486 190.487c6.755 0 13.426-.357 20-1.043-95.801-9.997-170.486-90.996-170.486-189.444z" fill="#00d6bc"/><path d="m435.56 38.398c-.137-.167-.272-.33-.406-.49-2.859-3.429-7.769-4.292-11.622-2.037l-153.569 89.878c-13.257 7.759-29.67 7.759-42.927 0l-153.569-89.878c-3.853-2.255-8.763-1.392-11.622 2.037-.133.16-.269.323-.406.49-33.406 40.661-22.069 101.676 23.349 128.257l81.369 47.622c15.855 9.28 25.599 26.273 25.599 44.644 0 17.056 8.408 33.015 22.474 42.661l5.016 3.44c17.629 12.089 40.879 12.089 58.508 0l5.016-3.44c14.066-9.646 22.474-25.605 22.474-42.661 0-18.371 9.744-35.364 25.599-44.644l81.369-47.622c45.418-26.581 56.756-87.596 23.348-128.257z" fill="#f9f097"/><path d="m248.5 363.758c60.317 0 86.612-51.033 94.359-70.195 1.258-3.111 5.51-3.414 7.237-.537 6.735 11.221 16.377 35.253-3.395 60.713 0 0 47.652 4.955 74.732-16.959 3.325-2.691 8.22.099 7.454 4.308-4.195 23.073-20.452 67.94-83.438 74.552-55.959 5.874-80.213 22.894-90.283 33.924-3.575 3.916-9.758 3.916-13.334 0-10.07-11.03-34.324-28.05-90.283-33.924-62.986-6.612-79.243-51.479-83.438-74.552-.765-4.209 4.129-6.999 7.454-4.308 27.08 21.915 74.732 16.959 74.732 16.959-19.771-25.46-10.13-49.492-3.395-60.713 1.727-2.877 5.979-2.574 7.237.537 7.749 19.162 34.044 70.195 94.361 70.195z" fill="#f9f097"/><g fill="#423e4f"><path d="m182.828 149.205-32.14-8.611c-3.994-1.072-8.113 1.302-9.186 5.303-1.072 4.001 1.302 8.114 5.304 9.186l10.894 2.919c-.061.386-.102.78-.102 1.184v17.893c0 4.142 3.358 7.5 7.5 7.5s7.5-3.358 7.5-7.5v-15.085l6.348 1.701c.65.174 1.303.257 1.946.257 3.311 0 6.342-2.21 7.24-5.561 1.071-4.001-1.303-8.114-5.304-9.186z"/><path d="m355.497 145.896c-1.072-4.001-5.185-6.375-9.186-5.303l-32.139 8.611c-4.001 1.072-6.375 5.185-5.303 9.186.898 3.351 3.928 5.561 7.24 5.561.643 0 1.296-.083 1.946-.257l6.348-1.701v15.085c0 4.142 3.358 7.5 7.5 7.5s7.5-3.358 7.5-7.5v-17.893c0-.404-.041-.798-.102-1.184l10.894-2.919c4-1.072 6.374-5.185 5.302-9.186z"/><path d="m270.091 204.783c-3.124-2.722-7.861-2.396-10.582.727-2.779 3.189-6.792 5.019-11.009 5.019s-8.229-1.829-11.009-5.019c-2.721-3.123-7.459-3.448-10.582-.727s-3.448 7.458-.727 10.581c5.628 6.46 13.763 10.164 22.317 10.164s16.688-3.704 22.317-10.164c2.723-3.122 2.398-7.859-.725-10.581z"/></g></g></svg>