<svg id="Capa_1" enable-background="new 0 0 497 497" height="512" viewBox="0 0 497 497" width="512" xmlns="http://www.w3.org/2000/svg"><g><path d="m338.31 357.952s73.053 29.353 73.053 139.048h-325.726c0-109.695 73.053-139.048 73.053-139.048z" fill="#5bd6fd"/><path d="m182.69 357.952h-24s-73.053 29.353-73.053 139.048h24c0-109.695 73.053-139.048 73.053-139.048z" fill="#00c4fc"/><g><path d="m19.504 26.618h31.385v145.113h-31.385z" fill="#ffa2e7"/></g><g><path d="m446.111 26.618h31.385v145.113h-31.385z" fill="#ffa2e7"/></g><circle cx="66.633" cy="185.793" fill="#f9f097" r="57.731"/><circle cx="430.367" cy="185.793" fill="#f9f097" r="57.731"/><circle cx="248.5" cy="185.793" fill="#5bd6fd" r="181.867"/><path d="m96.633 185.794c0-95.391 73.443-173.618 166.867-181.247-4.948-.404-9.948-.62-15-.62-100.442 0-181.867 81.424-181.867 181.867 0 100.442 81.425 181.867 181.867 181.867 5.052 0 10.053-.216 15-.62-93.424-7.629-166.867-85.857-166.867-181.247z" fill="#00c4fc"/><path d="m117.814 134.175v193.467c0 29.664 24.047 53.711 53.711 53.711h153.95c29.664 0 53.711-24.047 53.711-53.711v-193.467z" fill="#77718c"/><path d="m117.814 181.572c5.134 1.764 10.634 2.736 16.359 2.736h228.654c5.725 0 11.225-.972 16.359-2.736v-47.396h-261.372z" fill="#5c586f"/><path d="m362.827 100.315h-228.654c-11.31 0-20.479 9.169-20.479 20.479v13.035c0 11.31 9.169 20.479 20.479 20.479h228.654c11.31 0 20.479-9.169 20.479-20.479v-13.035c0-11.31-9.169-20.479-20.479-20.479z" fill="#f9f097"/><g><g><ellipse cx="248.527" cy="228.679" fill="#423e4f" rx="19.443" ry="21.757"/></g><g><path d="m191.284 223.162c-4.142 0-7.5-3.358-7.5-7.5 0-4.851-3.946-8.797-8.797-8.797s-8.796 3.946-8.796 8.797c0 4.142-3.358 7.5-7.5 7.5s-7.5-3.358-7.5-7.5c0-13.122 10.675-23.797 23.796-23.797s23.797 10.675 23.797 23.797c0 4.142-3.358 7.5-7.5 7.5z" fill="#423e4f"/></g><g><path d="m336.96 223.162c-4.142 0-7.5-3.358-7.5-7.5 0-4.851-3.946-8.797-8.797-8.797s-8.797 3.946-8.797 8.797c0 4.142-3.358 7.5-7.5 7.5s-7.5-3.358-7.5-7.5c0-13.122 10.675-23.797 23.797-23.797s23.797 10.675 23.797 23.797c0 4.142-3.358 7.5-7.5 7.5z" fill="#423e4f"/></g></g><path d="m19.504 81.007c4.987 1.441 10.248 2.229 15.692 2.229 5.445 0 10.706-.788 15.693-2.229v-54.389h-31.385z" fill="#ff8ce2"/><circle cx="35.196" cy="26.618" fill="#f9f097" r="26.618"/><path d="m446.111 81.007c4.987 1.441 10.248 2.229 15.692 2.229s10.706-.788 15.692-2.229v-54.389h-31.385v54.389z" fill="#ff8ce2"/><circle cx="461.804" cy="26.618" fill="#f9f097" r="26.618"/><path d="m288.193 427.649h-79.333c-17.932 0-32.469 14.537-32.469 32.469v36.882h144.271v-36.882c.001-17.932-14.536-32.469-32.469-32.469z" fill="#ffa2e7"/><path d="m238.86 427.648h-30c-17.932 0-32.469 14.537-32.469 32.469v36.883h30v-36.882c0-17.932 14.537-32.47 32.469-32.47z" fill="#ff8ce2"/><g><path d="m130.892 497v-48.428c0-4.142 3.358-7.5 7.5-7.5s7.5 3.358 7.5 7.5v48.428z" fill="#00c4fc"/></g><g><path d="m351.108 497v-48.428c0-4.142 3.358-7.5 7.5-7.5s7.5 3.358 7.5 7.5v48.428z" fill="#00c4fc"/></g><circle cx="248.5" cy="54.143" fill="#f9f097" r="19.47"/></g></svg>