<svg id="Capa_1" enable-background="new 0 0 497 497" height="512" viewBox="0 0 497 497" width="512" xmlns="http://www.w3.org/2000/svg"><g><path d="m100.648.056c-9.391-.711-17.918 5.383-20.456 14.452-13.933 49.781 10.723 82.502 10.723 82.502l90.629-55.618c-22.863-32.228-60.067-39.76-80.896-41.336z" fill="#ff748f"/><path d="m396.352.056c9.391-.711 17.918 5.383 20.456 14.452 13.932 49.781-10.724 82.501-10.724 82.501l-90.629-55.618c22.864-32.227 60.068-39.759 80.897-41.335z" fill="#ff748f"/><path d="m351.617 352.22h-206.234s-56.067 45.421-56.067 144.78h103.63l55.554-25.626 55.554 25.626h103.63c0-99.359-56.067-144.78-56.067-144.78z" fill="#5c586f"/><path d="m175.383 352.22h-30s-56.067 45.421-56.067 144.78h30c0-99.359 56.067-144.78 56.067-144.78z" fill="#423e4f"/><circle cx="248.5" cy="201.291" fill="#77718c" r="194.101"/><path d="m84.399 201.292c0-102.152 78.911-185.872 179.101-193.53-4.95-.378-9.953-.572-15-.572-107.199 0-194.101 86.902-194.101 194.102 0 107.199 86.902 194.101 194.101 194.101 5.047 0 10.05-.194 15-.572-100.19-7.658-179.101-91.378-179.101-193.529z" fill="#5c586f"/><path d="m451.429 149.847c-4.594-18.1-20.856-30.794-39.53-30.794h-326.798c-18.674 0-34.936 12.694-39.53 30.794-4.178 16.464-6.401 33.699-6.401 51.445v.419c.044 22.379 18.382 40.422 40.761 40.422h337.137c22.379 0 40.717-18.042 40.761-40.422 0-.14 0-.279 0-.419.001-17.746-2.221-34.981-6.4-51.445z" fill="#e8e8e8"/><path d="m69.17 201.711c0-.14 0-.279 0-.419 0-17.746 2.223-34.981 6.401-51.445 4.594-18.1 20.856-30.794 39.53-30.794h-30c-18.674 0-34.936 12.694-39.53 30.794-4.178 16.464-6.401 33.699-6.401 51.445v.419c.044 22.379 18.382 40.422 40.761 40.422h30c-22.379-.001-40.716-18.043-40.761-40.422z" fill="#dadad8"/><path d="m366.674 150.228h-236.348c-16.77 0-30.364 13.594-30.364 30.364 0 16.77 13.594 30.364 30.364 30.364h236.348c16.77 0 30.364-13.594 30.364-30.364 0-16.769-13.594-30.364-30.364-30.364z" fill="#ff748f"/><path d="m129.962 180.592c0-16.77 13.594-30.364 30.364-30.364h-30c-16.77 0-30.364 13.595-30.364 30.364 0 16.77 13.594 30.364 30.364 30.364h30c-16.77.001-30.364-13.594-30.364-30.364z" fill="#fd5f7e"/><g><path d="m140.828 497v-51.251c0-4.142 3.358-7.5 7.5-7.5s7.5 3.358 7.5 7.5v51.251z" fill="#423e4f"/></g><g><path d="m341.173 497v-51.251c0-4.142 3.358-7.5 7.5-7.5s7.5 3.358 7.5 7.5v51.251z" fill="#423e4f"/></g><path d="m248.5 441.446c-30.681 0-55.554 24.872-55.554 55.554h111.107c.001-30.681-24.872-55.554-55.553-55.554z" fill="#e8e8e8"/><path d="m340.749 334.858c-2.764-75.02-42.726-109.348-69.138-123.916-14.4-7.943-31.823-7.943-46.224 0-26.411 14.568-66.373 48.896-69.138 123.916-1.236 33.542 21.636 63.149 54.389 70.486 13.384 2.998 27.1 5.278 37.86 5.278s24.476-2.28 37.86-5.278c32.755-7.337 55.627-36.944 54.391-70.486z" fill="#5bd6fd"/><path d="m248.5 370.012c-3.661 0-12.295-.558-28.983-4.296-13.657-3.06-23.197-15.409-22.683-29.363 1.086-29.468 10.324-68.976 48.168-89.85 1.091-.602 2.268-.907 3.498-.907 1.229 0 2.406.305 3.496.906 20.889 11.521 46.203 36.462 48.17 89.85.515 13.954-9.025 26.303-22.683 29.363-16.688 3.739-25.321 4.297-28.983 4.297z" fill="#77718c"/><path d="m249.517 365.716c-13.657-3.06-23.197-15.409-22.683-29.363.966-26.209 8.4-60.351 36.656-82.27-3.867-3.012-7.751-5.516-11.494-7.581-1.09-.601-2.266-.906-3.496-.906s-2.407.305-3.498.907c-37.844 20.874-47.082 60.382-48.168 89.85-.514 13.954 9.025 26.303 22.683 29.363 16.688 3.738 25.322 4.296 28.983 4.296 2.453 0 7.155-.256 15-1.546-3.864-.635-8.477-1.517-13.983-2.75z" fill="#5c586f"/></g></svg>