<svg id="Capa_1" enable-background="new 0 0 497 497" height="512" viewBox="0 0 497 497" width="512" xmlns="http://www.w3.org/2000/svg"><g><path d="m119.824 382.052 38.992 46.432-38.992 68.516h-50.991c0-58.286 27.304-94.498 50.991-114.948z" fill="#ffdcce"/><path d="m428.167 497h-50.991l-38.992-68.516 38.992-46.432c23.687 20.45 50.991 56.662 50.991 114.948z" fill="#ffdcce"/><path d="m299.191 359.968 38.992 68.516-38.992 68.516h-101.382l-38.992-68.516 38.992-68.516z" fill="#e8e8e8"/><path d="m197.809 359.968v137.032h-77.985v-114.948c18.166-15.671 34.208-22.084 34.208-22.084z" fill="#00d6bc"/><path d="m377.176 382.052v114.948h-77.985v-137.032h43.777s16.042 6.412 34.208 22.084z" fill="#00d6bc"/><path d="m333.453 423.501h-34.555c-10.148 0-18.375 8.227-18.375 18.375 0 10.148 8.227 18.375 18.375 18.375h34.555c10.148 0 18.375-8.227 18.375-18.375 0-10.148-8.227-18.375-18.375-18.375z" fill="#f9f097"/><path d="m333.453 460.25h-34.555c-10.148 0-18.375 8.227-18.375 18.375 0 10.148 8.227 18.375 18.375 18.375h34.555c10.148 0 18.375-8.227 18.375-18.375 0-10.148-8.227-18.375-18.375-18.375z" fill="#fccb88"/><path d="m163.547 423.501h34.555c10.148 0 18.375 8.227 18.375 18.375 0 10.148-8.227 18.375-18.375 18.375h-34.555c-10.148 0-18.375-8.227-18.375-18.375 0-10.148 8.227-18.375 18.375-18.375z" fill="#f9f097"/><path d="m163.547 460.25h34.555c10.148 0 18.375 8.227 18.375 18.375 0 10.148-8.227 18.375-18.375 18.375h-34.555c-10.148 0-18.375-8.227-18.375-18.375 0-10.148 8.227-18.375 18.375-18.375z" fill="#fccb88"/><path d="m262.689 5.804c-9.376 1.796-19.003 1.796-28.378 0-53.88-10.323-240.23-31.185-189.165 187.924h406.707c51.066-219.109-135.284-198.247-189.164-187.924z" fill="#77718c"/><path d="m195.561.741c-73.379-5.168-192.491 12.445-150.415 192.987h40c-34.986-150.118 41.47-187.59 110.415-192.987z" fill="#5c586f"/><circle cx="68.833" cy="227.154" fill="#ffcabd" r="40.976"/><circle cx="428.167" cy="227.154" fill="#ffcabd" r="40.976"/><path d="m73.082 169.95c17.815-72.985 89.588-105.429 175.418-105.429s157.603 32.444 175.418 105.429z" fill="#ff748f"/><path d="m73.082 169.95h30c16.766-68.689 81.327-101.465 160.418-105.086-84.16-3.861-170.429 23.196-190.418 105.086z" fill="#fd5f7e"/><path d="m428.167 207.114c0 99.237-80.44 179.677-179.667 179.677s-179.667-80.44-179.667-179.677c0-13.397 1.463-25.771 4.248-37.164 46.873-19.248 108.245-28.276 175.418-28.276s128.545 9.028 175.418 28.276c2.787 11.393 4.25 23.767 4.25 37.164z" fill="#ffdcce"/><path d="m263.5 386.163c-92.207-7.623-164.667-84.864-164.667-179.048 0-16.728 2.263-32.978 7.562-48.495-11.756 3.282-22.895 7.052-33.314 11.331-1.393 5.696-2.454 11.638-3.169 17.831-12.773 110.733 80.062 207.807 193.588 198.381z" fill="#ffcabd"/><g><g><g><ellipse cx="141.363" cy="250.255" fill="#ffb5ec" rx="39.531" ry="31.481"/></g><g><ellipse cx="355.637" cy="250.255" fill="#ffb5ec" rx="39.532" ry="31.481"/></g></g></g><g><path d="m164.401 227.45c-4.143 0-7.5-3.358-7.5-7.5v-16.16c0-4.142 3.357-7.5 7.5-7.5s7.5 3.358 7.5 7.5v16.16c0 4.142-3.357 7.5-7.5 7.5z" fill="#423e4f"/></g><g><path d="m332.599 227.45c-4.143 0-7.5-3.358-7.5-7.5v-16.16c0-4.142 3.357-7.5 7.5-7.5s7.5 3.358 7.5 7.5v16.16c0 4.142-3.358 7.5-7.5 7.5z" fill="#423e4f"/></g><g><path d="m248.5 237.07c-10.665 0-20.808-4.619-27.826-12.674-2.722-3.123-2.396-7.86.727-10.582 3.122-2.721 7.859-2.396 10.582.727 4.169 4.784 10.189 7.528 16.518 7.528s12.349-2.744 16.518-7.528c2.72-3.123 7.457-3.449 10.582-.727 3.122 2.721 3.448 7.459.727 10.582-7.02 8.055-17.163 12.674-27.828 12.674z" fill="#423e4f"/></g></g></svg>