<svg id="Capa_1" enable-background="new 0 0 497 497" height="512" viewBox="0 0 497 497" width="512" xmlns="http://www.w3.org/2000/svg"><g><path d="m446.082 251.442s13.72 121.221-90.994 173.172h-213.176c-104.714-51.952-90.994-173.172-90.994-173.172z" fill="#f9f097"/><path d="m80.918 251.442h-30s-13.72 121.221 90.994 173.172h30c-104.714-51.952-90.994-173.172-90.994-173.172z" fill="#fccb88"/><circle cx="68.177" cy="226.877" fill="#ffcabd" r="45.232"/><circle cx="428.823" cy="226.877" fill="#ffcabd" r="45.232"/><path d="m320.217 371.386s63.374 36.257 63.374 125.614h-270.182c0-89.357 63.374-125.614 63.374-125.614z" fill="#ffa2e7"/><path d="m199.783 371.386h-23s-63.374 36.257-63.374 125.614h23c0-89.357 63.374-125.614 63.374-125.614z" fill="#ff8ce2"/><path d="m433.197 201.184c0 101.842-82.854 184.696-184.697 184.696-101.842 0-184.696-82.854-184.696-184.696z" fill="#ffdcce"/><path d="m93.804 201.184h-30c0 101.842 82.854 184.696 184.697 184.696 5.05 0 10.051-.212 15-.612-94.854-7.66-169.697-87.293-169.697-184.084z" fill="#ffcabd"/><path d="m248.5 13.516c-103.651 0-187.673 84.021-187.673 187.663 0 4.314.146 8.594.432 12.836 1.959 28.976 26.087 51.456 55.129 51.456 23.287 0 46.138-6.392 66.056-18.481 20.294-12.317 43.175-18.481 66.055-18.481s45.761 6.164 66.055 18.481c9.959 6.045 20.651 10.662 31.769 13.774 11.108 3.112 22.643 4.707 34.286 4.707 29.042 0 53.17-22.48 55.129-51.456.287-4.241.432-8.521.432-12.836.003-103.642-84.018-187.663-187.67-187.663z" fill="#ffa2e7"/><path d="m90.828 201.179c0-98.592 76.036-179.423 172.673-187.065-4.949-.392-9.95-.597-15-.597-103.651 0-187.673 84.021-187.673 187.663 0 4.314.146 8.594.432 12.835 1.347 19.928 13.18 36.783 29.885 45.366-.211-14.177-.317-54.508-.317-58.202z" fill="#ff8ce2"/><g><g><path d="m180.888 222.081c-4.142 0-7.5-3.358-7.5-7.5 0-6.61-5.378-11.988-11.988-11.988s-11.988 5.378-11.988 11.988c0 4.142-3.358 7.5-7.5 7.5s-7.5-3.358-7.5-7.5c0-14.881 12.106-26.988 26.988-26.988s26.988 12.107 26.988 26.988c0 4.143-3.358 7.5-7.5 7.5z" fill="#423e4f"/></g><g><path d="m355.088 222.081c-4.142 0-7.5-3.358-7.5-7.5 0-6.61-5.378-11.988-11.988-11.988s-11.988 5.378-11.988 11.988c0 4.142-3.358 7.5-7.5 7.5s-7.5-3.358-7.5-7.5c0-14.881 12.106-26.988 26.988-26.988s26.988 12.107 26.988 26.988c0 4.143-3.358 7.5-7.5 7.5z" fill="#423e4f"/></g></g><g><path d="m248.5 273.104c-10.089 0-19.685-4.37-26.326-11.99-2.721-3.123-2.396-7.86.727-10.582 3.123-2.721 7.859-2.396 10.582.727 3.791 4.35 9.265 6.845 15.017 6.845 5.753 0 11.227-2.495 15.018-6.845 2.722-3.123 7.459-3.448 10.582-.727s3.448 7.459.727 10.582c-6.642 7.62-16.237 11.99-26.327 11.99z" fill="#423e4f"/></g><path d="m215.819 66.432c4.142-22.98 8.433-46.078 8.433-46.078 2.071-11.773 12.297-20.354 24.248-20.354s22.177 8.581 24.248 20.354l-24.248 62.977z" fill="#f9f097"/><path d="m281.974 70.871c3.567 19.848 6.808 38.478 6.808 40.648 0 22.246-18.035 40.281-40.281 40.281-17.44 0-32.294-11.089-37.893-26.597l37.892-41.872z" fill="#e8e8e8"/><g><path d="m156.851 497v-42.701c0-4.142 3.358-7.5 7.5-7.5s7.5 3.358 7.5 7.5v42.701z" fill="#ff8ce2"/></g><g><path d="m325.149 497v-42.701c0-4.142 3.358-7.5 7.5-7.5s7.5 3.358 7.5 7.5v42.701z" fill="#ff8ce2"/></g><path d="m248.5 421.445c-23.501-22.968-62.43 16.91-1.154 49.738.72.386 1.588.386 2.309 0 61.275-32.828 22.346-72.705-1.155-49.738z" fill="#f9f097"/><path d="m281.974 70.871c-10.028 17.252-33.92 50.329-71.367 54.333-1.546-4.281-2.388-8.879-2.388-13.685 0-2.339 3.736-23.654 7.6-45.087 37.764-2.131 56.929-46.078 56.929-46.078s4.866 26.18 9.226 50.517z" fill="#b08bd7"/></g></svg>