<svg id="Capa_1" enable-background="new 0 0 497 497" height="512" viewBox="0 0 497 497" width="512" xmlns="http://www.w3.org/2000/svg"><g><g fill="#76e6d5"><path d="m407.593 497h-26.861l-66.116-59.664-8.601-59.664h29.41c-.001.001 72.168 44.399 72.168 119.328z"/><path d="m321.073 497h-145.146l6.457-59.663 66.116-56.246 66.116 56.246z"/><path d="m190.986 377.673-8.601 59.664-66.117 59.663h-26.861c0-74.93 72.169-119.327 72.169-119.327z"/></g><path d="m190.926 378.086.06-.413h-29.41s-72.169 44.397-72.169 119.327h30.043c1.707-69.087 64.446-114.375 71.476-118.914z" fill="#00d6bc"/><g><path d="m248.5 381.091-72.573 115.909h-59.659l74.718-119.327h55.37z" fill="#f9f097"/></g><path d="m119.727 491.477-3.458 5.523h3.182c.045-1.86.144-3.699.276-5.523z" fill="#fccb88"/><g><path d="m380.732 497h-59.659l-72.573-115.909 2.144-3.418h55.371z" fill="#f9f097"/></g><path d="m443.557 152.957h-51.911v112.643h51.911c20.831 0 37.719-16.887 37.719-37.719v-37.206c0-20.831-16.887-37.718-37.719-37.718z" fill="#f9f097"/><path d="m53.443 152.957h51.911v112.643h-51.911c-20.831 0-37.719-16.887-37.719-37.719v-37.206c0-20.831 16.888-37.718 37.719-37.718z" fill="#f9f097"/><circle cx="141.839" cy="77.162" fill="#f9f097" r="36.485"/><path d="m161.839 93.647c-20.15 0-36.485-16.335-36.485-36.485 0-4.878.965-9.529 2.702-13.783-13.315 5.438-22.702 18.512-22.702 33.783 0 20.15 16.335 36.485 36.485 36.485 15.272 0 28.345-9.387 33.783-22.702-4.253 1.737-8.904 2.702-13.783 2.702z" fill="#fccb88"/><circle cx="355.161" cy="77.162" fill="#f9f097" r="36.485"/><path d="m338.676 97.162c0-20.15 16.335-36.485 36.485-36.485 4.878 0 9.529.965 13.783 2.702-5.438-13.315-18.511-22.702-33.783-22.702-20.15 0-36.485 16.335-36.485 36.485 0 15.272 9.387 28.345 22.702 33.783-1.737-4.254-2.702-8.905-2.702-13.783z" fill="#fccb88"/><circle cx="248.5" cy="219.897" fill="#76e6d5" r="180.109"/><path d="m98.392 219.897c0-94.419 72.657-171.858 165.109-179.482-4.947-.408-9.948-.627-15-.627-99.471 0-180.109 80.638-180.109 180.109s80.637 180.109 180.108 180.109c5.052 0 10.053-.219 15-.626-92.451-7.625-165.108-85.064-165.108-179.483z" fill="#00d6bc"/><path d="m373.696 219.897c0 69.144-56.052 125.196-125.196 125.196s-125.196-56.052-125.196-125.196z" fill="#da9d81"/><path d="m377.287 127.063h-73.18c-10.49 0-20.491 4.432-27.538 12.203-.177.195-.354.391-.532.586-14.754 16.27-40.322 16.27-55.076 0l-.532-.586c-7.046-7.771-17.048-12.203-27.538-12.203h-73.18c-32.649 0-59.117 26.468-59.117 59.117v39.116c0 32.649 26.468 59.117 59.117 59.117h26.618c11.918 0 23.665-2.84 34.266-8.285l33.636-17.275c21.509-11.046 47.022-11.047 68.531-.001 10.517 5.401 22.31 11.458 33.64 17.277 10.602 5.445 22.346 8.284 34.264 8.284h26.618c32.649 0 59.117-26.468 59.117-59.117v-39.116c.003-32.649-26.464-59.117-59.114-59.117z" fill="#fccb88"/><path d="m90.596 225.297v-39.116c0-32.649 26.468-59.117 59.117-59.117h-30c-32.649 0-59.117 26.468-59.117 59.117v39.116c0 32.649 26.468 59.117 59.117 59.117h26.618c.71 0 1.42-.011 2.129-.032-32.069-.669-57.864-26.856-57.864-59.085z" fill="#fab659"/><g><g><path d="m160.762 235.66c-4.142 0-7.5-3.358-7.5-7.5v-19.185c0-4.142 3.358-7.5 7.5-7.5s7.5 3.358 7.5 7.5v19.185c0 4.142-3.358 7.5-7.5 7.5z" fill="#423e4f"/></g><g><path d="m336.239 235.66c-4.142 0-7.5-3.358-7.5-7.5v-19.185c0-4.142 3.358-7.5 7.5-7.5s7.5 3.358 7.5 7.5v19.185c0 4.142-3.358 7.5-7.5 7.5z" fill="#423e4f"/></g></g><g><path d="m248.5 298.454c-10.121 0-19.747-4.384-26.408-12.027-2.721-3.123-2.396-7.86.727-10.582 3.123-2.721 7.859-2.396 10.582.727 3.812 4.374 9.315 6.882 15.1 6.882s11.288-2.508 15.1-6.882c2.721-3.123 7.459-3.448 10.582-.727s3.448 7.459.727 10.582c-6.663 7.643-16.288 12.027-26.41 12.027z" fill="#423e4f"/></g><path d="m295.368 46.868c0 25.884-20.983 26.641-46.868 26.641s-46.868-.757-46.868-26.641 20.984-46.868 46.868-46.868 46.868 20.984 46.868 46.868z" fill="#f9f097"/><path d="m231.632 46.868c0-20.636 13.343-38.145 31.868-44.401-4.711-1.591-9.752-2.467-15-2.467-25.884 0-46.868 20.983-46.868 46.868 0 25.884 20.983 26.641 46.868 26.641 5.248 0 10.289-.036 15-.301-18.524-1.043-31.868-5.704-31.868-26.34z" fill="#fccb88"/></g></svg>