<svg id="Capa_1" enable-background="new 0 0 497 497" height="512" viewBox="0 0 497 497" width="512" xmlns="http://www.w3.org/2000/svg"><g><circle cx="64.245" cy="220.802" fill="#f9f097" r="51.592"/><circle cx="432.755" cy="220.802" fill="#f9f097" r="51.592"/><path d="m330.882 385.651h-164.764s-61.256 32.296-61.256 111.349h74.003l69.635-23.095 69.635 23.095h74.003c.001-79.053-61.256-111.349-61.256-111.349z" fill="#5bd6fd"/><path d="m201.118 385.651h-35s-61.256 32.296-61.256 111.349h35c0-79.053 61.256-111.349 61.256-111.349z" fill="#00c4fc"/><circle cx="248.5" cy="220.802" fill="#ff748f" r="184.255"/><path d="m104.245 220.802c0-95.002 71.903-173.201 164.255-183.171-6.57-.709-13.241-1.084-20-1.084-101.761 0-184.255 82.494-184.255 184.255s82.494 184.255 184.255 184.255c6.759 0 13.43-.375 20-1.084-92.352-9.97-164.255-88.169-164.255-183.171z" fill="#fd5f7e"/><g><g><path d="m166.118 202.783c-4.142 0-7.5-3.358-7.5-7.5v-17.778c0-4.142 3.358-7.5 7.5-7.5s7.5 3.358 7.5 7.5v17.778c0 4.143-3.358 7.5-7.5 7.5z" fill="#423e4f"/></g><g><path d="m330.882 202.783c-4.142 0-7.5-3.358-7.5-7.5v-17.778c0-4.142 3.358-7.5 7.5-7.5s7.5 3.358 7.5 7.5v17.778c0 4.143-3.358 7.5-7.5 7.5z" fill="#423e4f"/></g></g><path d="m281.395 66.383c-2.132-30.771-11.867-49.536-20.199-60.193-6.452-8.253-18.941-8.253-25.393 0-8.331 10.658-18.067 29.423-20.199 60.193-.635 9.163 1.33 18.337 5.664 26.435 3.337 6.236 8.133 13.671 14.6 20.272 6.971 7.117 18.292 7.117 25.263 0 6.466-6.601 11.262-14.036 14.6-20.272 4.334-8.098 6.299-17.272 5.664-26.435z" fill="#f9f097"/><path d="m251.269 92.818c-4.333-8.098-6.299-17.272-5.664-26.435 1.938-27.97 10.158-46.018 17.895-57.076-.775-1.108-1.545-2.147-2.304-3.117-6.452-8.253-18.941-8.253-25.393 0-8.331 10.658-18.067 29.423-20.199 60.194-.635 9.163 1.331 18.337 5.664 26.435 3.337 6.236 8.133 13.671 14.6 20.272 6.971 7.116 18.292 7.116 25.263 0 .816-.833 1.605-1.68 2.368-2.535-5.284-5.924-9.314-12.288-12.23-17.738z" fill="#fccb88"/><path d="m352.487 243.111c-13.226-16.761-35.495-23.699-55.799-17.097-24.499 7.966-48.187 8.957-48.187 8.957s-23.689-.991-48.187-8.957c-20.304-6.602-42.573.336-55.799 17.097-16.322 20.685-14.41 50.471 4.646 68.668 19.518 18.637 50.973 36.874 99.341 36.874s79.823-18.237 99.341-36.874c19.054-18.197 20.966-47.984 4.644-68.668z" fill="#ffdcce"/><path d="m318.182 454.603c-35.889 8.37-55.839-5.371-64.465-14.168-2.869-2.927-7.565-2.927-10.435 0-8.626 8.798-28.576 22.538-64.465 14.168-4.82-1.124-9.361 2.685-9.007 7.621.586 8.192 2.654 20.666 9.054 34.776h139.271c6.401-14.11 8.468-26.583 9.054-34.776.354-4.936-4.187-8.745-9.007-7.621z" fill="#f9f097"/><g><path d="m248.5 275.557c-10.491 0-20.469-4.544-27.374-12.467-2.722-3.123-2.396-7.86.726-10.582s7.86-2.397 10.582.726c4.056 4.653 9.912 7.322 16.066 7.322s12.01-2.669 16.066-7.322c2.722-3.123 7.458-3.448 10.582-.726 3.123 2.721 3.448 7.459.726 10.582-6.905 7.923-16.883 12.467-27.374 12.467z" fill="#423e4f"/></g></g></svg>