<svg id="Capa_1" enable-background="new 0 0 497 497" height="512" viewBox="0 0 497 497" width="512" xmlns="http://www.w3.org/2000/svg"><g><path d="m342.735 355.141h-188.47s-49.78 47.523-49.78 141.859h64.783l18.96-13.122 18.962 13.122h82.621l18.96-13.122 18.96 13.122h64.783c.001-94.336-49.779-141.859-49.779-141.859z" fill="#77718c"/><path d="m179.265 355.141h-25s-49.78 47.523-49.78 141.859h25c0-94.336 49.78-141.859 49.78-141.859z" fill="#5c586f"/><path d="m169.269 355.141h37.921v141.859h-37.921z" fill="#5c586f"/><path d="m289.81 355.141h37.921v141.859h-37.921z" fill="#5c586f" transform="matrix(-1 0 0 -1 617.542 852.141)"/><path d="m248.5 0c-97.328 0-176.228 78.9-176.228 176.228v161.211c0 14.925 8.567 28.525 22.028 34.97 13.929 6.669 30.128 6.669 44.057 0 13.929-6.669 30.128-6.669 44.057 0 13.929 6.669 30.128 6.669 44.057 0 13.929-6.669 30.128-6.669 44.057 0 13.929 6.669 30.128 6.669 44.057 0 13.929-6.669 30.128-6.669 44.057 0 13.929 6.669 30.128 6.669 44.057 0 13.461-6.445 22.028-20.045 22.028-34.97v-161.211c.001-97.328-78.899-176.228-176.227-176.228z" fill="#c6ade3"/><path d="m124.3 372.408c-13.461-6.445-22.028-20.045-22.028-34.969v-161.211c0-92.274 70.923-167.973 161.228-175.586-4.946-.417-9.946-.642-15-.642-97.328 0-176.228 78.9-176.228 176.228v161.211c0 14.925 8.567 28.525 22.028 34.969 11.642 5.574 24.866 6.471 37.029 2.727-2.389-.735-4.742-1.632-7.029-2.727z" fill="#b08bd7"/><g fill="#77718c"><path d="m431.831 176.12c-.004-5.912-4.874-10.671-10.786-10.671h-345.09c-5.912 0-10.782 4.759-10.786 10.671v.109 26.096c0 5.957 4.829 10.786 10.786 10.786h345.091c5.957 0 10.786-4.829 10.786-10.786v-26.096c-.001-.037-.001-.073-.001-.109z"/><path d="m176.221 7.761c-9.773 4.209-19.109 9.243-27.921 15.016-3.012 1.974-4.807 5.353-4.807 8.954v156.973h47.661v-171.063c.001-7.691-7.868-12.922-14.933-9.88z"/><path d="m348.699 22.778c-8.812-5.773-18.148-10.808-27.921-15.016-7.064-3.042-14.934 2.189-14.934 9.88v171.063h47.661v-156.973c.001-3.601-1.793-6.981-4.806-8.954z"/></g><path d="m204.572 416.273h-32.686c-9.894 0-17.915 8.021-17.915 17.915s8.021 17.915 17.915 17.915h32.686c9.894 0 17.915-8.021 17.915-17.915s-8.021-17.915-17.915-17.915z" fill="#c6ade3"/><path d="m292.428 416.273h32.686c9.894 0 17.915 8.021 17.915 17.915s-8.021 17.915-17.915 17.915h-32.686c-9.894 0-17.915-8.021-17.915-17.915s8.021-17.915 17.915-17.915z" fill="#c6ade3"/><circle cx="167.325" cy="189.279" fill="#ff748f" r="57.766"/><circle cx="167.325" cy="189.279" fill="#e8e8e8" r="25.69"/><circle cx="329.675" cy="189.279" fill="#ff748f" r="57.766"/><circle cx="329.675" cy="189.279" fill="#e8e8e8" r="25.69"/></g></svg>