<svg id="Capa_1" enable-background="new 0 0 497 497" height="512" viewBox="0 0 497 497" width="512" xmlns="http://www.w3.org/2000/svg"><g><path d="m458.343 176.001c-17.599-99.879-104.996-176.001-209.843-176.001s-192.244 76.122-209.842 176h419.685z" fill="#ff748f"/><path d="m263.5.526c-4.956-.346-9.957-.526-15-.526-104.847 0-192.244 76.122-209.842 176h30c16.752-95.074 96.751-168.619 194.842-175.474z" fill="#fd5f7e"/><path d="m449.222 192.859s59.222 183.23-92.005 218.128h-217.434c-151.227-34.898-92.005-218.128-92.005-218.128z" fill="#ff748f"/><path d="m77.778 192.859h-30s-59.222 183.23 92.005 218.128h30c-151.226-34.898-92.005-218.128-92.005-218.128z" fill="#fd5f7e"/><path d="m334.591 368.644s62.46 39.524 62.46 128.356h-297.101c0-88.832 62.46-128.356 62.46-128.356z" fill="#ffdcce"/><path d="m192.409 368.644h-30s-62.46 39.523-62.46 128.356h30c.001-88.833 62.46-128.356 62.46-128.356z" fill="#ffcabd"/><path d="m248.5 106.42c-68.318-73.76-148.097 8.295-148.097 8.295-18.748 28.17-29.681 61.988-29.681 98.364 0 98.184 79.594 177.778 177.778 177.778s177.778-79.594 177.778-177.778c0-36.376-10.934-70.195-29.682-98.365-.063-.065-79.804-82.026-148.096-8.294z" fill="#ffdcce"/><path d="m100.722 213.078c0-36.376 10.934-70.193 29.681-98.364 0 0 29.864-30.712 68.694-37.666-52.316-10.031-98.694 37.666-98.694 37.666-18.748 28.17-29.681 61.988-29.681 98.364 0 98.184 79.594 177.778 177.778 177.778 5.053 0 10.054-.222 15-.636-91.163-7.617-162.778-84.011-162.778-177.142z" fill="#ffcabd"/><path d="m453.834 97.16c-11.374-19.567-36.749-25.774-56.043-13.944l-149.291 91.528-149.291-91.529c-19.295-11.829-44.67-5.623-56.043 13.944-10.139 17.443-15.946 37.715-15.946 59.346 0 65.325 52.95 118.275 118.265 118.275 44.194 0 82.718-24.234 103.015-60.135 20.298 35.901 58.821 60.135 103.015 60.135 65.315 0 118.265-52.95 118.265-118.275 0-21.63-5.807-41.902-15.946-59.345z" fill="#77718c"/><path d="m427.706 140.117c-2.583-12.058-16.42-17.854-26.934-11.409l-96.38 59.089c-10.482 6.427-11.638 21.344-2.115 29.122.064.052.127.104.191.156 14 11.36 30.959 17.364 49.047 17.364 42.967 0 77.923-34.961 77.923-77.933 0-5.568-.589-11.057-1.732-16.389z" fill="#ffdcce"/><path d="m69.294 140.117c2.583-12.058 16.42-17.854 26.934-11.409l96.381 59.089c10.482 6.427 11.638 21.344 2.115 29.122-.064.052-.127.104-.191.156-14 11.36-30.959 17.364-49.047 17.364-42.967 0-77.923-34.961-77.923-77.933-.001-5.568.588-11.057 1.731-16.389z" fill="#ffdcce"/><path d="m97.562 166.506c0-5.568.589-11.057 1.731-16.389 1.329-6.205 5.642-10.745 10.945-12.819l-14.011-8.59c-10.513-6.445-24.35-.649-26.934 11.409-1.142 5.332-1.731 10.821-1.731 16.389 0 39.904 30.148 72.88 68.857 77.388-23.21-13.511-38.857-38.649-38.857-67.388z" fill="#ffcabd"/><g><g><path d="m150.945 218.136c-4.142 0-7.5-3.358-7.5-7.5v-17.777c0-4.142 3.358-7.5 7.5-7.5s7.5 3.358 7.5 7.5v17.777c0 4.142-3.358 7.5-7.5 7.5z" fill="#423e4f"/></g><g><path d="m346.055 218.136c-4.142 0-7.5-3.358-7.5-7.5v-17.777c0-4.142 3.358-7.5 7.5-7.5s7.5 3.358 7.5 7.5v17.777c0 4.142-3.358 7.5-7.5 7.5z" fill="#423e4f"/></g></g><g><path d="m248.5 287.86c-9.205 0-17.959-3.987-24.017-10.938-2.721-3.123-2.396-7.86.727-10.582 3.123-2.721 7.86-2.396 10.582.727 3.208 3.682 7.84 5.793 12.708 5.793s9.5-2.112 12.709-5.793c2.721-3.123 7.459-3.448 10.582-.727s3.448 7.459.727 10.582c-6.059 6.951-14.813 10.938-24.018 10.938z" fill="#423e4f"/></g><path d="m321.919 435.278c-7.433 9.073-21.31 9.073-28.743 0l-8.543-10.429c-3.418-4.172-9.799-4.172-13.217 0l-8.543 10.429c-7.433 9.073-21.31 9.073-28.743 0l-8.543-10.429c-3.418-4.172-9.799-4.172-13.217 0l-8.543 10.429c-7.433 9.073-21.31 9.073-28.743 0-5.086-6.209-15.152-2.612-15.152 5.414v56.308h177.142v-56.308c-.003-8.026-10.069-11.622-15.155-5.414z" fill="#ff748f"/></g></svg>