<svg id="Capa_1" enable-background="new 0 0 497 497" height="512" viewBox="0 0 497 497" width="512" xmlns="http://www.w3.org/2000/svg"><g><path d="m459.117 217.906s3.126 187.426-63.625 250.819h-293.984c-66.751-63.393-63.625-250.819-63.625-250.819z" fill="#e8e8e8"/><path d="m77.883 217.907h-40s-3.125 187.426 63.625 250.819h40c-66.75-63.393-63.625-250.819-63.625-250.819z" fill="#dadad8"/><path d="m248.5 7.29c-116.135 0-210.617 94.482-210.617 210.617h421.233c0-116.135-94.481-210.617-210.616-210.617z" fill="#e8e8e8"/><path d="m268.5 8.245c-6.585-.623-13.254-.956-20-.956-116.134 0-210.617 94.482-210.617 210.617h40c0-109.388 83.829-199.554 190.617-209.661z" fill="#dadad8"/><circle cx="424.068" cy="237.934" fill="#c7856a" r="44.877"/><path d="m356.369 399.216-70.277 90.495h-75.183l-70.277-90.495c15.902-15.662 30.362-23.743 30.362-23.743h155.014c-.001 0 14.459 8.081 30.361 23.743z" fill="#f9f097"/><path d="m150.259 411.612c20.117-24.365 41.266-35.749 41.735-36.139h-21c-.104.077-14.441 8.062-30.362 23.743z" fill="#fccb88"/><path d="m104.689 117.188c-20.007 28.513-31.757 63.242-31.757 100.719 0 96.963 78.605 175.568 175.568 175.568s175.568-78.605 175.568-175.568c0-37.477-11.75-72.206-31.757-100.719z" fill="#da9d81"/><path d="m102.932 217.907c0-37.477 11.75-72.206 31.757-100.719h-30c-15.511 22.106-26.055 47.951-30.012 75.915-.574-.023-1.149-.045-1.745-.045-24.785 0-44.877 20.092-44.877 44.877s20.092 44.877 44.877 44.877c4.509 0 8.359-.672 11.653-1.91 25.32 65.841 89.156 112.574 163.916 112.574 5.054 0 10.054-.226 15-.645-89.942-7.612-160.569-83.015-160.569-174.924z" fill="#c7856a"/><path d="m413.8 158.608s-34.721 149.547-165.301 67.775c-130.58 81.772-165.301-67.775-165.301-67.775l12.502-34.508h278.88z" fill="#fccb88"/><g><g><path d="m163.328 215.514c-4.142 0-7.5-3.358-7.5-7.5v-16.366c0-4.142 3.358-7.5 7.5-7.5s7.5 3.358 7.5 7.5v16.366c0 4.142-3.358 7.5-7.5 7.5z" fill="#423e4f"/></g><g><path d="m333.671 215.514c-4.142 0-7.5-3.358-7.5-7.5v-16.366c0-4.142 3.358-7.5 7.5-7.5s7.5 3.358 7.5 7.5v16.366c0 4.142-3.357 7.5-7.5 7.5z" fill="#423e4f"/></g></g><g><path d="m248.5 278.074c-8.659 0-16.894-3.75-22.592-10.289-2.721-3.123-2.396-7.86.727-10.582 3.123-2.721 7.86-2.396 10.582.727 2.849 3.269 6.961 5.144 11.283 5.144s8.435-1.875 11.284-5.144c2.722-3.123 7.458-3.448 10.582-.726 3.123 2.722 3.448 7.459.726 10.582-5.699 6.538-13.933 10.288-22.592 10.288z" fill="#423e4f"/></g><g fill="#fccb88"><path d="m494.796 69.341c-1.785-8.948-13.44-11.405-18.695-3.945-8.742 12.411-24.04 25.553-50.049 27.38l-12.252 65.832s99.076 1.361 80.996-89.267z"/><path d="m70.948 92.777c-26.008-1.827-41.307-14.97-50.049-27.38-5.255-7.46-16.91-5.004-18.695 3.945-18.08 90.627 80.995 89.266 80.995 89.266z"/><path d="m210.908 489.71h-111.353c0-40.866 21.62-71.348 41.077-90.495z"/></g><path d="m120.555 489.71c0-32.953 14.058-59.148 29.704-78.098l-9.627-12.396c-24.787 24.392-41.077 55.165-41.077 90.495h21z" fill="#fab659"/><path d="m397.445 489.71h-111.353l70.277-90.495c19.456 19.147 41.076 49.629 41.076 90.495z" fill="#fccb88"/><g><path d="m342.006 489.71v-31.604c0-4.142 3.358-7.5 7.5-7.5s7.5 3.358 7.5 7.5v31.604z" fill="#fab659"/></g><g><path d="m139.994 489.71v-31.604c0-4.142 3.358-7.5 7.5-7.5s7.5 3.358 7.5 7.5v31.604z" fill="#fab659"/></g><path d="m435.773 50.441c-2.834-7.78-13.128-9.344-18.108-2.729-71.085 94.423-140.665 46.801-162.302 27.843-3.934-3.447-9.792-3.447-13.725 0-21.638 18.958-91.218 66.58-162.303-27.843-4.98-6.615-15.274-5.05-18.108 2.729-9.198 25.249-18.563 72.829 21.972 108.167 0 0 81.222-29.607 157.721 25.947 4.51 3.275 10.65 3.275 15.16 0 76.499-55.554 157.721-25.947 157.721-25.947 40.535-35.338 31.17-82.918 21.972-108.167z" fill="#f9f097"/><ellipse cx="248.5" cy="135.461" fill="#ff748f" rx="16.552" ry="21.554"/><ellipse cx="248.5" cy="442.46" fill="#ff748f" rx="16.552" ry="21.554"/></g></svg>