<svg id="Capa_1" enable-background="new 0 0 497 497" height="512" viewBox="0 0 497 497" width="512" xmlns="http://www.w3.org/2000/svg"><g><path d="m192.963 497h111.075l23.768-59.224-79.306-37.896-79.306 37.896z" fill="#c6ade3"/><path d="m89.887 497c0-80.988 68.688-118.447 68.688-118.447l89.925 21.327s-10.31 61.359-55.537 97.12z" fill="#77718c"/><path d="m180.496 383.752-21.922-5.199s-68.688 37.459-68.688 118.447h30c.001-63.678 42.458-100.44 60.61-113.248z" fill="#5c586f"/><path d="m407.113 497c0-80.988-68.688-118.447-68.688-118.447l-89.925 21.327s10.31 61.359 55.537 97.12z" fill="#77718c"/><circle cx="248.5" cy="199.94" fill="#c6ade3" r="199.94"/><path d="m78.56 199.94c0-105.377 81.523-191.71 184.94-199.381-4.952-.367-9.954-.559-15-.559-110.424 0-199.94 89.516-199.94 199.94s89.516 199.94 199.94 199.94c5.046 0 10.048-.191 15-.559-103.417-7.67-184.94-94.003-184.94-199.381z" fill="#b08bd7"/><path d="m397.35 201.665c0 82.074-66.776 138.819-148.85 138.819s-148.85-56.745-148.85-138.819l69.822-38.942h168.988z" fill="#fed2a4"/><path d="m99.65 201.665c0 87.452 75.7 145.76 163.85 138.177-75.057-6.456-133.85-61.165-133.85-138.177z" fill="#ffbd86"/><path d="m397.35 201.665c-47.995 46.791-97.028 31.496-125.115 15.405-14.722-8.434-32.747-8.434-47.469 0-28.087 16.091-77.12 31.386-125.115-15.405 0-82.084 66.776-109.167 148.85-109.167s148.849 27.084 148.849 109.167z" fill="#77718c"/><path d="m99.65 201.665c10.616 10.35 21.282 17.657 31.761 22.595-1.153-7.288-1.761-14.826-1.761-22.595 0-77.021 58.793-105.616 133.85-108.85-4.934-.213-9.938-.317-15-.317-82.1 0-148.85 27.101-148.85 109.167z" fill="#5c586f"/><path d="m206.683 172.615c-3.843-9.951-11.963-18.152-22.898-21.708s-22.326-1.701-31.287 4.086c-5.124 3.309-7.219 9.751-5.022 15.441 3.843 9.95 11.963 18.152 22.899 21.708 10.935 3.556 22.326 1.701 31.287-4.086 5.124-3.308 7.219-9.751 5.021-15.441z" fill="#e8e8e8"/><path d="m290.317 172.615c3.843-9.951 11.963-18.152 22.898-21.708s22.326-1.701 31.287 4.086c5.124 3.309 7.219 9.751 5.022 15.441-3.843 9.95-11.963 18.152-22.899 21.708-10.935 3.556-22.326 1.701-31.287-4.086-5.123-3.308-7.219-9.751-5.021-15.441z" fill="#e8e8e8"/><g><path d="m248.5 254.587c-8.497 0-16.578-3.68-22.169-10.096-2.721-3.123-2.396-7.86.727-10.582 3.123-2.721 7.86-2.396 10.582.727 2.742 3.146 6.701 4.951 10.861 4.951s8.119-1.805 10.861-4.951c2.721-3.123 7.459-3.448 10.582-.727s3.448 7.459.727 10.582c-5.593 6.416-13.674 10.096-22.171 10.096z" fill="#423e4f"/></g></g></svg>