<svg id="Capa_1" enable-background="new 0 0 497 497" height="512" viewBox="0 0 497 497" width="512" xmlns="http://www.w3.org/2000/svg"><g><path d="m36.675 211.825c0-116.8 95.024-211.825 211.825-211.825s211.825 95.025 211.825 211.825z" fill="#76e6d5"/><path d="m268.5.951c-6.586-.62-13.255-.951-20-.951-116.801 0-211.825 95.025-211.825 211.825h40c0-110.055 84.37-200.762 191.825-210.874z" fill="#00d6bc"/><path d="m460.325 211.825c9.134 232.818-100.033 242.034-100.033 242.034h-223.584s-109.167-9.215-100.033-242.034z" fill="#76e6d5"/><path d="m76.675 211.825h-40c-9.134 232.818 100.033 242.034 100.033 242.034h40s-109.167-9.215-100.033-242.034z" fill="#00d6bc"/><path d="m468.094 116.806c6.955-2.632 14.603 1.583 15.968 8.893 6.666 35.71 16.962 133.778-71.021 133.778l-4.314-99.623c-.001-.001 25.16-30.106 59.367-43.048z" fill="#ffcabd"/><path d="m317.204 368.749-57.671 64.126-84.686 64.125-51.211-53.037c16.672-55.886 56.16-75.215 56.16-75.215h137.408z" fill="#ffa2e7"/><path d="m153.636 443.963c16.672-55.886 56.16-75.215 56.16-75.215h-30s-39.489 19.329-56.16 75.215z" fill="#ff8ce2"/><path d="m418.671 192.42c-3.113-27.541-16.022-53.203-37.104-71.195-26.69-22.779-71.073-37.919-133.067 15.059-61.989-52.973-106.37-37.84-133.061-15.064-20.907 17.84-33.838 43.228-37.033 70.526-.781 6.675-1.178 13.467-1.168 20.355.149 94.541 79.428 172.426 173.959 170.967 93.341-1.441 168.564-77.556 168.564-171.241.001-6.564-.37-13.038-1.09-19.407z" fill="#ffdcce"/><path d="m107.239 212.099c-.011-6.887.386-13.68 1.168-20.354 3.195-27.298 16.126-52.686 37.033-70.526 10.247-8.744 23.104-16.355 38.56-19.425-29.422-5.513-52.281 5.534-68.56 19.425-12.151 10.368-21.601 23.289-28.018 37.65-4.624-5.249-27.949-30.498-58.515-42.063-6.955-2.631-14.603 1.583-15.968 8.893-6.666 35.71-16.962 133.777 71.021 133.777l.022-.504c21.06 72.058 88.904 125.303 167.216 124.094 4.183-.064 8.328-.285 12.433-.645-86.584-7.718-156.253-81.702-156.392-170.322z" fill="#ffcabd"/><path d="m368.108 168.792c-22.487-12.017-50.717-13.428-76.163-1.358-14.164 6.718-25.637 16.747-33.875 28.633-4.604 6.642-14.533 6.642-19.137 0-8.239-11.886-19.712-21.915-33.875-28.633-25.447-12.07-53.677-10.659-76.163 1.358-11.331 6.055-17.345 18.735-14.865 31.34 4.921 25.017 21.689 47.771 47.136 59.841 29.877 14.171 63.586 9.752 87.337-8.591 23.751 18.343 57.46 22.763 87.337 8.591 25.447-12.07 42.215-34.824 47.136-59.841 2.476-12.606-3.538-25.286-14.868-31.34z" fill="#00d6bc"/><g><g><path d="m173.798 239.144c-4.142 0-7.5-3.358-7.5-7.5v-17.397c0-4.142 3.358-7.5 7.5-7.5s7.5 3.358 7.5 7.5v17.397c0 4.142-3.358 7.5-7.5 7.5z" fill="#423e4f"/></g><g><path d="m323.202 239.144c-4.142 0-7.5-3.358-7.5-7.5v-17.397c0-4.142 3.358-7.5 7.5-7.5s7.5 3.358 7.5 7.5v17.397c0 4.142-3.358 7.5-7.5 7.5z" fill="#423e4f"/></g></g><path d="m373.365 443.963-51.212 53.037h-95.75l33.13-64.126 84.686-42.009c10.638 11.876 21.996 29.125 29.146 53.098z" fill="#ffa2e7"/><g><path d="m248.5 303.463c-9.716 0-18.955-4.208-25.349-11.545-2.721-3.123-2.396-7.86.727-10.582 3.123-2.721 7.859-2.396 10.582.727 3.544 4.067 8.662 6.4 14.041 6.4 5.378 0 10.496-2.333 14.041-6.4 2.721-3.123 7.458-3.448 10.582-.726 3.123 2.722 3.448 7.459.726 10.582-6.395 7.337-15.634 11.544-25.35 11.544z" fill="#423e4f"/></g><path d="m344.22 390.866-117.817 106.134h-51.556l142.357-128.251s12.879 6.307 27.016 22.117z" fill="#e8e8e8"/><path d="m380.656 497h-58.503v-53.037h51.211c4.463 14.948 7.292 32.522 7.292 53.037z" fill="#ffdcce"/><path d="m174.847 443.963v53.037h-58.503c0-20.515 2.829-38.089 7.291-53.037z" fill="#ffdcce"/><path d="m123.636 443.963c-4.462 14.948-7.291 32.522-7.291 53.037h30c0-20.515 2.829-38.089 7.291-53.037z" fill="#ffcabd"/></g></svg>