<svg id="Capa_1" enable-background="new 0 0 497 497" height="512" viewBox="0 0 497 497" width="512" xmlns="http://www.w3.org/2000/svg"><g><path d="m330.944 385.568h-164.888s-61.302 32.32-61.302 111.432h91.423l52.323-12.747 52.323 12.747h91.423c0-79.112-61.302-111.432-61.302-111.432z" fill="#ffb5ec"/><path d="m188.056 385.568h-22s-61.302 32.32-61.302 111.432h22c0-79.112 61.302-111.432 61.302-111.432z" fill="#ff8ce2"/><path d="m196.177 497h104.646l.018-.034c10.471-20.12-3.495-44.306-26.155-45.296l-.033-.001c-12.188-19.129-40.117-19.129-52.305 0l-.033.001c-22.66.989-36.626 25.175-26.155 45.296z" fill="#c6ade3"/><path d="m223.006 497c0-14.08 11.414-25.494 25.494-25.494s25.494 11.414 25.494 25.494z" fill="#f9f097"/><g><path d="m145.368 497v-39.313c0-4.142 3.358-7.5 7.5-7.5s7.5 3.358 7.5 7.5v39.313z" fill="#ff8ce2"/></g><g><path d="m336.632 497v-39.313c0-4.142 3.358-7.5 7.5-7.5s7.5 3.358 7.5 7.5v39.313z" fill="#ff8ce2"/></g><path d="m431.319 199.919c.344.668.915 1.202 1.608 1.49 28.556 11.881 49.014 1.662 58.293-5.058 2.451-1.775 2.063-5.53-.696-6.774-17.022-7.678-14.018-28.104-14.92-45.3-1.337-25.503-10.134-50.799-33.696-63.6-20.942-11.378-51.021-10.719-71.643 1.45z" fill="#f9f097"/><path d="m65.681 199.919c-.344.668-.915 1.202-1.608 1.49-28.556 11.881-49.014 1.662-58.293-5.058-2.451-1.775-2.063-5.53.696-6.774 17.022-7.678 14.018-28.104 14.92-45.3 1.337-25.503 10.134-50.799 33.696-63.6 20.942-11.378 51.021-10.719 71.643 1.45z" fill="#f9f097"/><circle cx="248.5" cy="220.595" fill="#c6ade3" r="184.393"/><path d="m94.107 220.596c0-96.787 74.572-176.148 169.393-183.783-4.948-.398-9.949-.61-15-.61-101.837 0-184.393 82.555-184.393 184.393 0 101.837 82.555 184.393 184.393 184.393 5.051 0 10.052-.211 15-.61-94.821-7.636-169.393-86.997-169.393-183.783z" fill="#b08bd7"/><path d="m352.564 242.921c-13.236-16.773-35.522-23.717-55.841-17.11-24.517 7.972-48.223 8.964-48.223 8.964s-23.706-.992-48.223-8.964c-20.319-6.607-42.605.337-55.841 17.11-16.334 20.7-14.421 50.509 4.649 68.719 19.532 18.651 51.011 36.901 99.415 36.901s79.883-18.25 99.415-36.901c19.071-18.211 20.984-48.019 4.649-68.719z" fill="#ffdcce"/><g><path d="m248.5 275.386c-10.498 0-20.481-4.547-27.39-12.474-2.721-3.123-2.396-7.86.727-10.582 3.123-2.721 7.861-2.396 10.582.727 4.059 4.658 9.921 7.33 16.082 7.33s12.022-2.671 16.082-7.33c2.721-3.124 7.458-3.448 10.582-.726 3.123 2.721 3.448 7.459.726 10.582-6.91 7.927-16.894 12.473-27.391 12.473z" fill="#423e4f"/></g><g><g><path d="m183.603 208.453c-4.142 0-7.5-3.358-7.5-7.5 0-6.179-5.026-11.206-11.205-11.206s-11.206 5.027-11.206 11.206c0 4.142-3.358 7.5-7.5 7.5s-7.5-3.358-7.5-7.5c0-14.45 11.756-26.206 26.206-26.206s26.205 11.756 26.205 26.206c0 4.142-3.358 7.5-7.5 7.5z" fill="#423e4f"/></g><g><path d="m350.808 208.453c-4.142 0-7.5-3.358-7.5-7.5 0-6.179-5.027-11.206-11.206-11.206s-11.205 5.027-11.205 11.206c0 4.142-3.358 7.5-7.5 7.5s-7.5-3.358-7.5-7.5c0-14.45 11.755-26.206 26.205-26.206s26.206 11.756 26.206 26.206c0 4.142-3.358 7.5-7.5 7.5z" fill="#423e4f"/></g></g><path d="m315.339 76.235.023-.044c13.376-25.702-4.465-56.598-33.411-57.862l-.042-.002c-15.569-24.436-51.246-24.436-66.816 0l-.042.002c-28.947 1.264-46.787 32.16-33.411 57.862l.023.044-.023.044c-13.376 25.702 4.465 56.598 33.411 57.862l.042.002c15.569 24.436 51.246 24.436 66.816 0l.042-.002c28.947-1.264 46.787-32.16 33.411-57.862z" fill="#ffb5ec"/><circle cx="248.5" cy="76.235" fill="#f9f097" r="32.566"/></g></svg>