<svg id="Capa_1" enable-background="new 0 0 497 497" height="512" viewBox="0 0 497 497" width="512" xmlns="http://www.w3.org/2000/svg"><g><path d="m36.403 222.17c0-59.344 13.037-115.135 55-157.098 41.962-41.962 97.754-65.072 157.097-65.072s115.135 23.11 157.097 65.072c41.962 41.963 54.999 97.754 54.999 157.098z" fill="#77718c"/><path d="m268.5.898c-6.612-.586-13.282-.898-20-.898-59.344 0-115.135 23.11-157.097 65.072-41.963 41.963-55 97.754-55 157.098h40c0-59.343 13.037-115.135 55-157.098 37.211-37.212 85.302-59.582 137.097-64.174z" fill="#5c586f"/><path d="m460.597 222.17c40.477 219.85-91.195 231.174-91.195 231.174h-241.804s-131.672-11.324-91.195-231.174z" fill="#77718c"/><path d="m76.403 222.17h-40c-40.477 219.851 91.195 231.174 91.195 231.174h40s-131.672-11.323-91.195-231.174z" fill="#5c586f"/><path d="m68.224 197.924c11.856-88.974 88.048-157.622 180.276-157.622s168.42 68.647 180.276 157.622z" fill="#5bd6fd"/><circle cx="430.374" cy="242.32" fill="#ffbd86" r="42.604"/><path d="m325.364 387.041h-153.727s-58.121 36.73-58.121 109.959h43.234l91.751-15.021 91.75 15.021h43.234c0-73.229-58.121-109.959-58.121-109.959z" fill="#fed2a4"/><path d="m196.637 387.041h-25s-58.121 36.729-58.121 109.959h25c-.001-73.229 58.121-109.959 58.121-109.959z" fill="#ffbd86"/><path d="m171.637 387.041h37.171v84.611h-37.171z" fill="#f9f097"/><path d="m288.193 387.041h37.171v84.611h-37.171z" fill="#f9f097" transform="matrix(-1 0 0 -1 613.556 858.692)"/><path d="m199.866 46.886c-62.656 17.346-111.731 67.374-127.708 130.58-1.689 6.68-3.008 13.507-3.934 20.458h30c8.235-61.802 47.513-113.788 101.642-139.779z" fill="#00c4fc"/><path d="m430.378 222.17c0 100.448-81.43 181.878-181.878 181.878s-181.878-81.43-181.878-181.878c0-8.22.544-16.318 1.602-24.246 9.892-10.607 65.887-64.659 180.276-64.659s170.385 54.052 180.276 64.659c1.058 7.928 1.602 16.026 1.602 24.246z" fill="#fed2a4"/><path d="m96.622 222.17c0-8.22.544-16.318 1.602-24.246 1.283-9.63 3.329-19.018 6.058-28.11-20.273 12.189-32.016 23.776-36.058 28.11-.081.606-.138 1.219-.213 1.828-.459-.016-.913-.036-1.385-.036-23.53 0-42.604 19.074-42.604 42.604s19.075 42.604 42.604 42.604c3.977 0 7.473-.556 10.555-1.576 25.125 70.349 92.338 120.699 171.319 120.699h.03c4.818 0 10.302-.237 14.97-.619-93.43-7.629-166.878-85.862-166.878-181.258z" fill="#ffbd86"/><g fill="#f9f097"><circle cx="77.742" cy="293.99" r="21.998"/><circle cx="419.258" cy="293.99" r="21.998"/><path d="m289.656 27.465-28.415 8.862c-8.297 2.588-17.185 2.588-25.482 0l-28.415-8.862c-10.182-3.176-20.523 4.432-20.523 15.097v72.493c0 10.483 4.63 20.43 12.65 27.181l36.528 30.745c7.225 6.081 17.777 6.081 25.002 0l36.528-30.745c8.02-6.75 12.65-16.698 12.65-27.181v-72.493c0-10.666-10.342-18.273-20.523-15.097z"/></g><ellipse cx="248.5" cy="102.139" fill="#ff748f" rx="22.053" ry="31.125"/><path d="m340.251 497c-.127-28.02-22.876-50.697-50.926-50.697-16.708 0-31.537 8.046-40.825 20.474-9.287-12.428-24.116-20.474-40.825-20.474-28.05 0-50.799 22.677-50.926 50.697z" fill="#ff748f"/><g fill="#ffbd86"><ellipse cx="148.597" cy="267.816" rx="36.862" ry="29.355"/><ellipse cx="348.403" cy="267.816" rx="36.862" ry="29.355"/></g><g><path d="m170.08 247.058c-4.143 0-7.5-3.358-7.5-7.5v-15.069c0-4.142 3.357-7.5 7.5-7.5s7.5 3.358 7.5 7.5v15.069c0 4.142-3.357 7.5-7.5 7.5z" fill="#423e4f"/></g><g><path d="m326.92 247.058c-4.143 0-7.5-3.358-7.5-7.5v-15.069c0-4.142 3.357-7.5 7.5-7.5s7.5 3.358 7.5 7.5v15.069c0 4.142-3.357 7.5-7.5 7.5z" fill="#423e4f"/></g><g><path d="m248.5 256.028c-10.092 0-19.688-4.371-26.329-11.992-2.722-3.123-2.396-7.86.728-10.582 3.122-2.721 7.86-2.396 10.581.728 3.791 4.351 9.266 6.846 15.021 6.846 5.754 0 11.229-2.495 15.021-6.846 2.722-3.123 7.46-3.448 10.582-.727s3.448 7.459.727 10.582c-6.643 7.62-16.24 11.991-26.331 11.991z" fill="#423e4f"/></g></g></svg>