<svg id="Capa_1" enable-background="new 0 0 497 497" height="512" viewBox="0 0 497 497" width="512" xmlns="http://www.w3.org/2000/svg"><g><path d="m318.205 396.836h-139.41s-62.763 28.793-62.763 100.164h103.029l29.439-12.689 29.44 12.689h103.028c0-71.371-62.763-100.164-62.763-100.164z" fill="#5bd6fd"/><path d="m219.061 497 29.439-50.082 29.439 50.082z" fill="#e8e8e8"/><circle cx="248.5" cy="204.513" fill="#c6ade3" r="204.513"/><path d="m83.987 204.513c0-106.2 80.951-193.485 184.513-203.538-6.581-.639-13.251-.975-20-.975-112.949 0-204.513 91.563-204.513 204.513s91.564 204.512 204.513 204.512c6.749 0 13.419-.336 20-.975-103.562-10.052-184.513-97.337-184.513-203.537z" fill="#b08bd7"/><ellipse cx="248.5" cy="289.496" fill="#ffdcce" rx="95.362" ry="68.218"/><path d="m443.848 91.632c-4.763-8.224-16.198-9.144-22.298-1.856-41.377 49.435-103.537 80.868-173.05 80.868s-131.674-31.434-173.05-80.868c-6.1-7.288-17.535-6.368-22.298 1.856-19.225 33.195-30.235 71.747-30.235 112.88 0 56.943 21.097 108.94 55.885 148.631 4.978 5.679 13.651 6.105 19.276 1.066 39.907-35.747 92.628-57.476 150.421-57.476s110.515 21.729 150.421 57.476c5.625 5.039 14.298 4.613 19.276-1.066 34.788-39.69 55.885-91.688 55.885-148.631.002-41.133-11.007-79.685-30.233-112.88z" fill="#5bd6fd"/><path d="m62.917 204.512c0-36.639 8.741-71.227 24.238-101.809-4.062-4.158-7.971-8.467-11.705-12.927-6.1-7.288-17.535-6.368-22.298 1.856-19.225 33.195-30.235 71.747-30.235 112.88 0 56.943 21.097 108.94 55.885 148.631 4.978 5.679 13.651 6.105 19.276 1.066 4.132-3.701 8.409-7.243 12.807-10.635-30.039-38.315-47.968-86.584-47.968-139.062z" fill="#00c4fc"/><path d="m177.558 497v-43.638c0-4.142-3.358-7.5-7.5-7.5s-7.5 3.358-7.5 7.5v43.638z" fill="#00c4fc"/><path d="m334.442 497v-43.638c0-4.142-3.358-7.5-7.5-7.5s-7.5 3.358-7.5 7.5v43.638z" fill="#00c4fc"/><path d="m180.736 249.053-33.134-8.878c-3.998-1.068-8.114 1.302-9.186 5.303s1.302 8.114 5.303 9.186l11.675 3.128c-.242.737-.377 1.521-.377 2.339v17.433c0 4.142 3.358 7.5 7.5 7.5s7.5-3.358 7.5-7.5v-15.854l6.836 1.832c.65.174 1.303.257 1.946.257 3.311 0 6.342-2.21 7.24-5.561 1.072-4-1.302-8.113-5.303-9.185z" fill="#423e4f"/><path d="m358.584 245.478c-1.072-4.001-5.183-6.372-9.186-5.303l-33.134 8.878c-4.001 1.072-6.375 5.185-5.303 9.186.898 3.351 3.928 5.561 7.24 5.561.643 0 1.296-.083 1.946-.257l6.836-1.832v15.854c0 4.142 3.358 7.5 7.5 7.5s7.5-3.358 7.5-7.5v-17.433c0-.817-.135-1.603-.377-2.339l11.674-3.128c4.001-1.073 6.375-5.186 5.304-9.187z" fill="#423e4f"/><path d="m270.659 315.711c-3.123-2.721-7.86-2.396-10.582.727-2.923 3.354-7.143 5.278-11.577 5.278s-8.655-1.924-11.578-5.278c-2.722-3.123-7.459-3.447-10.582-.727-3.123 2.722-3.448 7.459-.727 10.582 5.773 6.624 14.114 10.422 22.886 10.422 8.771 0 17.113-3.799 22.886-10.422 2.722-3.122 2.397-7.86-.726-10.582z" fill="#423e4f"/><g fill="#e8e8e8"><path d="m263.365 65.352-8.46-20.436c-2.363-5.707-10.447-5.707-12.81 0l-8.46 20.436c-7.88 19.033-6.289 40.673 4.29 58.349 4.784 7.994 16.367 7.994 21.152 0 10.577-17.676 12.168-39.315 4.288-58.349z"/><path d="m202.923 113.813c-7.713-7.56-17.256-17.958-25.004-29.65-4.989-7.529-16.373-6.879-20.427 1.192-8.475 16.869-10.921 40.33 39.898 41.583 6.946.172 10.495-8.26 5.533-13.125z"/><path d="m294.078 113.813c7.713-7.56 17.256-17.958 25.004-29.65 4.989-7.529 16.373-6.879 20.427 1.192 8.475 16.869 10.921 40.33-39.898 41.583-6.947.172-10.496-8.26-5.533-13.125z"/></g></g></svg>