<svg id="Capa_1" enable-background="new 0 0 497 497" height="512" viewBox="0 0 497 497" width="512" xmlns="http://www.w3.org/2000/svg"><g><path d="m445.069 271.855 11.749 14.337c35.305 43.084 29.803 107.069-13.3 142.35-20.97 17.165-49.461 26.433-87.598 14.82h-214.84c-38.137 11.613-66.628 2.345-87.598-14.82-43.103-35.281-48.605-99.267-13.3-142.35l11.749-14.337z" fill="#c6ade3"/><path d="m83.482 428.542c-43.103-35.281-48.605-99.267-13.3-142.351l11.749-14.337h-30l-11.749 14.337c-35.305 43.084-29.803 107.069 13.3 142.351 17.701 14.489 40.76 23.35 70.455 18.778-15.855-2.673-29.233-9.592-40.455-18.778z" fill="#b08bd7"/><path d="m61.142 114.97h374.716c-34.792-68.176-105.712-114.97-187.358-114.97-81.647 0-152.566 46.794-187.358 114.97z" fill="#f9f097"/><path d="m268.5.951c-6.584-.625-13.255-.951-20-.951-81.646 0-152.566 46.794-187.358 114.97h40c31.918-62.543 94.242-107.085 167.358-114.019z" fill="#fccb88"/><path d="m323.987 367.673h-150.974s-70.595 45.461-61.689 129.327h56.93l80.246-21.22 80.246 21.22h56.93c8.906-83.866-61.689-129.327-61.689-129.327z" fill="#ffdcce"/><path d="m203.013 367.673h-30s-70.595 45.461-61.689 129.327h30c-8.906-83.866 61.689-129.327 61.689-129.327z" fill="#ffcabd"/><path d="m340.096 94.578s-63.668-3.356-91.596-41.154c-27.928 37.798-91.596 41.154-91.596 41.154l-24.124 15.655-21.464-8.042c-23.429 29.717-37.411 67.228-37.411 108.007 0 96.426 78.169 174.595 174.595 174.595s174.595-78.169 174.595-174.595c0-42.917-15.494-82.21-41.182-112.612z" fill="#ffdcce"/><path d="m113.905 210.197c0-16.393 2.264-32.255 6.488-47.298h-40c-4.224 15.042-6.488 30.905-6.488 47.298 0 96.426 78.169 174.596 174.595 174.596 6.765 0 13.436-.398 20-1.147-87.005-9.924-154.595-83.787-154.595-173.449z" fill="#ffcabd"/><path d="m248.5 218.005s73.062 90.133 186.099 94.022c11.981.412 22.531-7.803 25.339-19.458 5.547-23.024 8.238-62.512-24.13-95.201-5.258-5.31-5.258-13.79 0-19.1 32.368-32.689 29.678-72.177 24.13-95.201-2.808-11.655-13.358-19.87-25.339-19.458-113.037 3.891-186.099 94.024-186.099 94.024z" fill="#ffa2e7"/><path d="m355.996 169.536h-16.239c-19.217 0-34.795 15.578-34.795 34.795 0 19.217 15.578 34.795 34.795 34.795h16.239c19.217 0 34.795-15.578 34.795-34.795.001-19.217-15.578-34.795-34.795-34.795z" fill="#ffdcce"/><g><path d="m347.877 220.425c-4.142 0-7.5-3.358-7.5-7.5v-17.187c0-4.142 3.358-7.5 7.5-7.5s7.5 3.358 7.5 7.5v17.187c0 4.142-3.358 7.5-7.5 7.5z" fill="#423e4f"/></g><path d="m248.5 218.005s-73.062 90.133-186.099 94.022c-11.981.412-22.531-7.803-25.339-19.458-5.547-23.024-8.238-62.512 24.13-95.201 5.258-5.31 5.258-13.79 0-19.1-32.368-32.689-29.678-72.177-24.13-95.201 2.808-11.655 13.358-19.87 25.339-19.458 113.037 3.891 186.099 94.024 186.099 94.024z" fill="#ffa2e7"/><path d="m141.004 169.536h16.239c19.217 0 34.795 15.578 34.795 34.795 0 19.217-15.578 34.795-34.795 34.795h-16.239c-19.217 0-34.795-15.578-34.795-34.795-.001-19.217 15.578-34.795 34.795-34.795z" fill="#ffdcce"/><g><path d="m149.123 220.425c-4.142 0-7.5-3.358-7.5-7.5v-17.187c0-4.142 3.358-7.5 7.5-7.5s7.5 3.358 7.5 7.5v17.187c0 4.142-3.357 7.5-7.5 7.5z" fill="#423e4f"/></g><g><path d="m248.5 291.781c-8.586 0-16.751-3.719-22.401-10.202-2.721-3.123-2.396-7.86.727-10.582 3.122-2.721 7.861-2.396 10.582.727 2.801 3.214 6.844 5.057 11.093 5.057s8.292-1.843 11.093-5.057c2.722-3.123 7.458-3.448 10.582-.726 3.123 2.721 3.448 7.459.727 10.582-5.652 6.483-13.817 10.201-22.403 10.201z" fill="#423e4f"/></g><path d="m328.746 470.414c0-23.781-19.279-43.06-43.06-43.06-15.864 0-29.715 8.585-37.186 21.357-7.47-12.772-21.321-21.357-37.186-21.357-23.782 0-43.06 19.279-43.06 43.06v26.586h160.492z" fill="#ffa2e7"/><circle cx="83.037" cy="367.673" fill="#f9f097" r="23.171"/><circle cx="413.963" cy="367.673" fill="#f9f097" r="23.171"/><path d="m248.5 122.725c-14.253 0-25.808 11.555-25.808 25.808v78.572c0 14.253 11.555 25.808 25.808 25.808s25.808-11.555 25.808-25.808v-78.572c0-14.253-11.555-25.808-25.808-25.808z" fill="#c6ade3"/><path d="m62.401 63.61c-11.981-.413-22.531 7.803-25.339 19.458-5.547 23.024-8.238 62.512 24.13 95.201 5.258 5.311 5.258 13.79 0 19.1-32.368 32.689-29.678 72.177-24.13 95.201 2.808 11.655 13.358 19.87 25.339 19.458 14.194-.488 27.757-2.338 40.625-5.197-.06-.113-.114-.224-.174-.336-53.076-99.859-8.304-239.013-8.189-239.371-10.345-1.895-21.105-3.13-32.262-3.514z" fill="#ff8ce2"/></g></svg>