<svg id="Capa_1" enable-background="new 0 0 497 497" height="512" viewBox="0 0 497 497" width="512" xmlns="http://www.w3.org/2000/svg"><g><path d="m107.072 397.508c-10.019-1.657-16.569 10.184-9.842 17.791l37.857 42.811 28.368-51.277z" fill="#c7c5cb"/><path d="m389.928 397.508c10.019-1.657 16.569 10.184 9.842 17.791l-37.857 42.811-28.368-51.277z" fill="#c7c5cb"/><path d="m194.622 379.796 24.939 62.733-24.939 54.471h-77.153c0-77.408 54.8-117.204 54.8-117.204z" fill="#77718c"/><path d="m192.269 379.796h-20s-54.8 39.797-54.8 117.204h20c0-77.407 54.8-117.204 54.8-117.204z" fill="#5c586f"/><path d="m379.532 497h-77.153l-18.325-58.602 18.325-58.602h22.353s54.8 39.797 54.8 117.204z" fill="#77718c"/><circle cx="422.651" cy="242.784" fill="#ffbd86" r="40.649"/><path d="m194.622 379.796h107.757v117.204h-107.757z" fill="#ff748f"/><circle cx="248.5" cy="223.185" fill="#fed2a4" r="174.151"/><path d="m114.35 223.185c0-89.416 67.391-163.079 154.151-173.001-6.564-.75-13.235-1.15-20-1.15-89.066 0-162.505 66.865-172.884 153.133-.42-.014-.836-.033-1.266-.033-22.45 0-40.649 18.199-40.649 40.649s18.199 40.649 40.649 40.649c3.789 0 7.163-.529 10.17-1.499 24.105 67.271 88.418 115.401 163.981 115.401 6.765 0 13.436-.399 20-1.15-86.761-9.92-154.152-83.583-154.152-172.999z" fill="#ffbd86"/><path d="m355.157 132.831c-5.792-6.825-16.378-6.675-22.016.278-16.072 19.818-48.974 52.561-74.555 26.742-5.535-5.587-14.635-5.587-20.17 0-25.581 25.819-58.483-6.924-74.555-26.742-5.639-6.953-16.224-7.103-22.016-.278-20.699 24.39-33.194 55.943-33.194 90.357 0 30.403 9.753 58.572 26.295 81.538 6.842 9.499 21.592 7.271 25.232-3.855 13.429-41.047 47.906-70.245 88.324-70.245s74.895 29.198 88.324 70.245c3.64 11.126 18.39 13.354 25.232 3.855 16.542-22.966 26.295-51.135 26.295-81.538-.002-34.414-12.497-65.967-33.196-90.357z" fill="#77718c"/><g><g><path d="m172.269 226.978c-4.142 0-7.5-3.358-7.5-7.5v-16.608c0-4.142 3.358-7.5 7.5-7.5s7.5 3.358 7.5 7.5v16.608c0 4.142-3.358 7.5-7.5 7.5z" fill="#423e4f"/></g><g><path d="m324.731 226.978c-4.142 0-7.5-3.358-7.5-7.5v-16.608c0-4.142 3.358-7.5 7.5-7.5s7.5 3.358 7.5 7.5v16.608c0 4.142-3.358 7.5-7.5 7.5z" fill="#423e4f"/></g></g><g><path d="m248.5 274.896c-9.87 0-19.256-4.275-25.752-11.729-2.721-3.123-2.396-7.86.727-10.582 3.122-2.721 7.86-2.396 10.582.727 3.646 4.184 8.911 6.583 14.443 6.583 5.533 0 10.798-2.4 14.444-6.583 2.722-3.123 7.459-3.448 10.582-.727s3.448 7.459.727 10.582c-6.496 7.455-15.883 11.729-25.753 11.729z" fill="#423e4f"/></g><g><path d="m151.485 497v-43.161c0-4.142 3.358-7.5 7.5-7.5s7.5 3.358 7.5 7.5v43.161z" fill="#5c586f"/></g><g><path d="m330.515 497v-43.161c0-4.142 3.358-7.5 7.5-7.5s7.5 3.358 7.5 7.5v43.161z" fill="#5c586f"/></g><path d="m81.643 271.946c-7.741 0-14.016 6.275-14.016 14.016v15.863c0 7.741 6.275 14.016 14.016 14.016 7.741 0 14.016-6.275 14.016-14.016v-15.863c-.001-7.741-6.276-14.016-14.016-14.016z" fill="#f9f097"/><path d="m265.704 13.606c-1.629-7.876-8.432-13.606-16.475-13.606h-.478c-8.043 0-14.846 5.729-16.476 13.606-5.154 24.906-22.825 39.825-22.825 39.825 15.53 5.651 25.208 16.73 31.099 26.853 3.747 6.438 13.134 6.438 16.881 0 5.891-10.123 15.57-21.202 31.1-26.853 0 0-17.671-14.919-22.826-39.825z" fill="#ff748f"/><path d="m232.276 13.605c-5.154 24.906-22.825 39.826-22.825 39.826 5.599 2.037 10.426 4.787 14.601 7.936.003-.001.005-.002.008-.004 26.046-13.009 24.691-61.363 24.691-61.363-8.043 0-14.845 5.729-16.475 13.605z" fill="#fd5f7e"/></g></svg>