<svg id="Capa_1" enable-background="new 0 0 497 497" height="512" viewBox="0 0 497 497" width="512" xmlns="http://www.w3.org/2000/svg"><g><path d="m178.029 464.039 18.376 16.867-18.376 16.094h-70.45c0-12.112 1.433-23.072 3.897-32.961l33.276-17.542z" fill="#c7c5cb"/><path d="m111.476 464.039c-2.465 9.888-3.897 20.848-3.897 32.961h20c0-12.112 1.433-23.073 3.897-32.961z" fill="#b2b0bc"/><path d="m178.029 383.972 18.376 23.168-18.376 21.815-33.276 17.542-18.259-17.542c20.868-32.721 51.535-44.983 51.535-44.983z" fill="#c7c5cb"/><path d="m146.494 428.955c11.825-18.542 26.792-30.508 37.547-37.403l-6.012-7.58s-30.667 12.263-51.535 44.983z" fill="#b2b0bc"/><path d="m342.291 464.039-18.376 16.867 18.376 16.094h70.45c0-12.112-1.433-23.072-3.897-32.961l-33.276-17.542z" fill="#c7c5cb"/><path d="m342.291 383.972-18.376 23.168 18.376 21.815 33.276 17.542 18.259-17.542c-20.868-32.721-51.535-44.983-51.535-44.983z" fill="#c7c5cb"/><path d="m178.029 428.955 18.376 17.542-18.376 17.542h-66.553c3.406-13.675 8.766-25.297 15.018-35.085h51.535z" fill="#b2b0bc"/><path d="m126.494 428.955c-6.251 9.788-11.611 21.409-15.018 35.085h20c3.406-13.675 8.766-25.297 15.018-35.085z" fill="#a19dae"/><path d="m342.291 428.955-18.376 17.542 18.376 17.542h66.553c-3.406-13.675-8.766-25.297-15.018-35.085h-51.535z" fill="#b2b0bc"/><path d="m178.029 383.972v113.028h33.368l48.763-18.882 48.762 18.882h33.369v-113.028z" fill="#77718c"/><path d="m283.1 427.698h-45.88c-14.261 0-25.822 11.561-25.822 25.822v43.48h97.525v-43.48c-.001-14.261-11.562-25.822-25.823-25.822z" fill="#5c586f"/><circle cx="260.16" cy="464.039" fill="#ff748f" r="14.078"/><circle cx="260.16" cy="223.938" fill="#da9d81" r="179.839"/><path d="m110.321 223.938c0-94.27 72.536-171.588 164.839-179.211-4.947-.408-9.948-.627-15-.627-91.432 0-166.924 68.234-178.341 156.557-.495-.018-.987-.039-1.498-.039-23.945 0-43.357 19.412-43.357 43.357s19.412 43.357 43.357 43.357c4.131 0 7.729-.59 10.874-1.669 25.183 68.918 91.328 118.114 168.965 118.114 5.052 0 10.053-.219 15-.627-92.302-7.624-164.839-84.942-164.839-179.212z" fill="#c7856a"/><path d="m458.764 181.331c-1.873-16.533-16.052-28.924-32.69-28.924h-54.218v102.989h54.212c16.874 0 30.917-12.762 32.764-29.534.795-7.212 1.203-14.539 1.203-21.96.001-7.631-.431-15.162-1.271-22.571z" fill="#e8e8e8"/><path d="m375.501 139.42h-91.356c-14.68 0-26.581 11.901-26.581 26.581v75.801c0 14.68 11.901 26.581 26.581 26.581h91.356c14.68 0 26.581-11.901 26.581-26.581v-75.801c0-14.68-11.9-26.581-26.581-26.581z" fill="#5bd6fd"/><g fill="#423e4f"><path d="m192.973 203.255-32.859-8.805c-3.997-1.071-8.113 1.302-9.186 5.304-1.072 4.001 1.302 8.113 5.304 9.186l11.555 3.096c-.254.752-.397 1.556-.397 2.394v17.16c0 4.142 3.358 7.5 7.5 7.5s7.5-3.358 7.5-7.5v-15.641l6.702 1.796c.65.174 1.303.257 1.946.257 3.311 0 6.342-2.21 7.24-5.561 1.071-4.001-1.303-8.113-5.305-9.186z"/><path d="m369.391 199.754c-1.072-4.001-5.186-6.374-9.186-5.304l-32.859 8.805c-4.001 1.072-6.375 5.185-5.304 9.186.898 3.351 3.928 5.561 7.24 5.561.643 0 1.296-.083 1.946-.257l6.702-1.796v15.642c0 4.142 3.358 7.5 7.5 7.5s7.5-3.358 7.5-7.5v-17.16c0-.838-.143-1.642-.397-2.394l11.554-3.096c4.002-1.073 6.376-5.186 5.304-9.187z"/><path d="m286.025 285.605c-3.122-2.721-7.86-2.396-10.582.727-3.858 4.427-9.428 6.966-15.283 6.966s-11.425-2.539-15.283-6.966c-2.721-3.124-7.459-3.448-10.582-.727s-3.448 7.459-.727 10.582c6.708 7.697 16.4 12.111 26.592 12.111s19.884-4.415 26.591-12.111c2.722-3.123 2.397-7.861-.726-10.582z"/></g><path d="m265.535 3.08c-2.414-4.107-8.335-4.107-10.75 0-7.777 13.231-23.319 36.431-42.147 47.374 0 0 20.288 9.831 35.9 29.481 5.97 7.514 17.273 7.514 23.244 0 15.612-19.649 35.9-29.481 35.9-29.481-18.828-10.943-34.37-34.143-42.147-47.374z" fill="#e8e8e8"/></g></svg>