<svg id="Capa_1" enable-background="new 0 0 497 497" height="512" viewBox="0 0 497 497" width="512" xmlns="http://www.w3.org/2000/svg"><g><path d="m132.025 392.097 14.836 59.549-14.836 45.354h-62.844c0-66.179 48.584-104.903 48.584-104.903z" fill="#ffdcce"/><path d="m132.025 392.097h-14.261s-48.584 38.724-48.584 104.903h30c0-44.097 21.569-75.999 35.964-92.382z" fill="#ffcabd"/><path d="m364.975 392.097-14.836 59.549 14.836 45.354h62.845c0-66.179-48.584-104.903-48.584-104.903z" fill="#ffdcce"/><path d="m132.025 392.097h232.949v104.903h-232.949z" fill="#c6ade3"/><path d="m463.393 322.841c-33.879-5.75-91.734-11.354-137.243 5.9l-64.933 24.618c-2.494.946-5.139 1.43-7.807 1.43h-9.819c-2.667 0-5.313-.485-7.807-1.43l-64.933-24.618c-45.509-17.254-103.364-11.651-137.243-5.9-15.16 2.573-23.156 19.512-15.377 32.777 30.608 52.193 82.082 82.355 104.735 93.71 6.792 3.404 14.861 3.035 21.337-.937l35.556-21.807c7.064-4.333 15.962-4.333 23.026 0l34.103 20.916c7.064 4.333 15.962 4.333 23.026 0l34.103-20.916c7.064-4.333 15.962-4.333 23.026 0l35.556 21.807c6.476 3.972 14.545 4.341 21.337.937 22.652-11.354 74.127-41.516 104.735-93.71 7.778-13.265-.218-30.204-15.378-32.777z" fill="#f9f097"/><path d="m153.53 439.723c-24.535-12.298-80.289-44.967-113.44-101.499-2.999-5.115-3.824-10.731-2.913-15.973-1.215.196-2.409.392-3.569.589-15.16 2.573-23.156 19.513-15.377 32.777 30.608 52.193 82.082 82.355 104.735 93.709 6.792 3.404 14.861 3.035 21.337-.937l12.14-7.446c-.99-.339-1.963-.744-2.913-1.22z" fill="#fccb88"/><circle cx="248.5" cy="208.638" fill="#ffdcce" r="173.744"/><path d="m468.912 0h-36.05c-10.818 0-19.588 8.77-19.588 19.588v123.547l27.605 89.776 30.99-23.678c12.499-9.55 19.831-24.38 19.831-40.109v-146.335c.001-12.586-10.202-22.789-22.788-22.789z" fill="#f9f097"/><path d="m28.088 0h36.05c10.818 0 19.588 8.77 19.588 19.588v123.547l-27.605 89.776-30.99-23.678c-12.499-9.55-19.831-24.38-19.831-40.109v-146.335c-.001-12.586 10.202-22.789 22.788-22.789z" fill="#f9f097"/><path d="m35.299 199.125v-176.336c0-12.586 10.203-22.789 22.789-22.789h-30c-12.586 0-22.789 10.203-22.789 22.789v146.336c0 15.729 7.333 30.56 19.831 40.11l15.044 11.494c-3.158-6.669-4.875-14.029-4.875-21.604z" fill="#fccb88"/><path d="m187.82 24.445c-77.358 25.46-133.203 98.306-133.203 184.194 0 55.11 22.993 104.852 59.914 140.152 7.423 7.09 19.75 1.732 19.75-8.54v-148.593h228.437v148.592c0 10.283 12.347 15.621 19.78 8.51 36.67-35.068 59.592-84.387 59.884-139.064.463-86.432-55.03-159.519-132.619-185.151l-60.972 26.401z" fill="#c6ade3"/><path d="m201.811 30.526s-13.991-6.081-13.991-6.081c-50.766 16.708-92.25 53.832-114.801 101.64-17.54 37.185-22.425 78.574-15.196 117.854 7.523 40.88 27.863 77.273 56.708 104.852 4.175 3.988 9.902 4.038 14.114 1.49 3.485-2.108 5.636-5.923 5.636-10.03v-2.035c-30.876-34.34-49.664-79.765-49.664-129.577.001-79.839 48.261-148.4 117.194-178.113z" fill="#b08bd7"/><path d="m366.914 144.753h-236.827c-16.577 0-29.835 13.937-28.819 30.482.017.282.036.565.056.847 2.919 40.628 36.438 72.869 77.147 74.225 29.359.978 55.307-13.865 70.029-36.643 14.721 22.778 40.67 37.621 70.029 36.643 40.71-1.356 74.228-33.598 77.147-74.225.02-.283.039-.565.056-.847 1.017-16.545-12.242-30.482-28.818-30.482z" fill="#f9f097"/><path d="m131.324 176.083c-.02-.283-.039-.565-.056-.847-1.016-16.545 12.242-30.482 28.819-30.482h-30c-16.577 0-29.835 13.937-28.819 30.482.017.282.036.564.056.847 2.919 40.627 36.437 72.869 77.147 74.226 6.096.203 12.042-.286 17.774-1.376-35.009-6.676-62.3-36.375-64.921-72.85z" fill="#fccb88"/><path d="m309.764 24.545v120.211h-121.944v-120.311c19.176-6.315 39.671-9.719 60.972-9.689 21.331.03 41.826 3.465 60.972 9.789z" fill="#ffa2e7"/><path d="m217.82 24.445c14.551-4.792 29.868-7.911 45.692-9.123-2.4-.2-4.826-.32-7.257-.411-2.486-.093-4.975-.151-7.464-.154-11.982-.017-23.708 1.053-35.089 3.116-8.766 1.591-17.421 3.786-25.883 6.573v12.791c9.557-5.067 19.582-9.363 30.001-12.792z" fill="#ff8ce2"/><g><g><path d="m170.85 207.806c-4.142 0-7.5-3.358-7.5-7.5v-16.936c0-4.142 3.358-7.5 7.5-7.5s7.5 3.358 7.5 7.5v16.935c0 4.143-3.357 7.501-7.5 7.501z" fill="#423e4f"/></g><g><path d="m326.15 207.806c-4.142 0-7.5-3.358-7.5-7.5v-16.936c0-4.142 3.358-7.5 7.5-7.5s7.5 3.358 7.5 7.5v16.935c0 4.143-3.358 7.501-7.5 7.501z" fill="#423e4f"/></g></g><g><path d="m248.5 274.414c-8.858 0-17.282-3.836-23.11-10.525-2.721-3.123-2.396-7.86.727-10.582 3.122-2.721 7.86-2.396 10.582.727 2.979 3.419 7.281 5.38 11.802 5.38s8.823-1.961 11.802-5.38c2.721-3.123 7.459-3.448 10.582-.727s3.448 7.459.727 10.582c-5.83 6.689-14.254 10.525-23.112 10.525z" fill="#423e4f"/></g></g></svg>