<svg id="Capa_1" enable-background="new 0 0 497 497" height="512" viewBox="0 0 497 497" width="512" xmlns="http://www.w3.org/2000/svg"><g><path d="m369.42 426.16c8.96 18.7 15.32 42.1 15.32 70.84h-272.48c0-28.74 6.36-52.14 15.32-70.84z" fill="#ffb78c"/><path d="m452.141 236.267c1.473-9.917 2.246-20.06 2.246-30.38 0-113.527-92.361-205.887-205.887-205.887s-205.887 92.36-205.887 205.887c0 10.321.773 20.463 2.246 30.38z" fill="#c6ade3"/><path d="m268.5.974c-6.583-.638-13.253-.974-20-.974-113.526 0-205.887 92.36-205.887 205.887 0 10.32.773 20.463 2.246 30.38h40c-1.473-9.917-2.246-20.06-2.246-30.38 0-106.779 81.711-194.823 185.887-204.913z" fill="#b08bd7"/><path d="m439.553 254.603s10.622 35.971-10.477 57.396c-13.075 13.277-22.303 29.988-25.256 48.387-3.351 20.882-16.546 44.49-57.59 50.179h-195.46c-41.044-5.689-54.238-29.297-57.59-50.179-2.953-18.399-12.181-35.11-25.256-48.387-21.099-21.425-10.477-57.396-10.477-57.396z" fill="#c6ade3"/><path d="m133.18 360.386c-2.953-18.399-12.181-35.11-25.256-48.387-21.099-21.425-10.477-57.396-10.477-57.396h-40s-10.622 35.971 10.477 57.396c13.076 13.277 22.303 29.988 25.256 48.387 3.351 20.882 16.546 44.49 57.59 50.179h40c-41.044-5.689-54.238-29.296-57.59-50.179z" fill="#b08bd7"/><circle cx="417.931" cy="236.267" fill="#ffcabd" r="42.126"/><path d="m343.04 388.01c-16.1-16.84-30.72-24.14-30.72-24.14h-127.64s-14.62 7.3-30.72 24.14l13.66 28.463 80.88 25.864 77.1-25.864z" fill="#ffb78c"/><path d="m174.214 399.284c3.236-4.153 6.52-7.906 9.746-11.273 16.099-16.839 30.717-24.139 30.72-24.14h-30s-12.007 5.996-26.242 19.653c-.982.942-1.974 1.92-2.974 2.936-.5.507-1.002 1.024-1.505 1.551z" fill="#ff995d"/><path d="m418.943 205.768c-.008-10.659-2.955-21.149-8.524-30.239-12.603-20.572-43.526-50.901-116.405-51.368-41.811-.268-75.394-12.104-100.985-26.711-32.942-18.802-75.078-7.503-93.536 25.632-14.184 25.463-22.03 54.941-21.401 86.301 1.868 93.199 79.162 167.988 172.374 166.935 93.228-1.054 168.478-76.955 168.478-170.432-.001-.039-.001-.079-.001-.118z" fill="#ffdcce"/><path d="m108.092 209.384c-.628-31.36 7.217-60.837 21.401-86.301 9.783-17.562 26.217-28.986 44.408-33.05-28.672-6.421-59.383 6.079-74.408 33.05-11.863 21.297-19.27 45.407-21.016 71.072-22.992.318-41.534 19.044-41.534 42.112 0 23.266 18.861 42.126 42.126 42.126 5.496 0 10.066-1.064 13.857-2.979 27.006 60.044 87.817 101.692 157.539 100.904 4.411-.05 8.782-.269 13.106-.648-85.48-7.51-153.726-78.781-155.479-166.286z" fill="#ffcabd"/><path d="m353.856 168.546c-17.077-1.752-36.545.839-55.836 8.352-20.902 8.14-38.035 20.68-49.52 34.862-11.484-14.182-28.618-26.722-49.52-34.862-19.292-7.513-38.759-10.104-55.836-8.352-24.169 2.479-35.408 31.339-19.283 49.511 11.394 12.84 27.486 24.098 46.778 31.612 23.22 9.043 46.693 4.119 65.947-2.531 7.727-2.669 16.1-2.669 23.827 0 19.255 6.65 42.727 11.574 65.947 2.531 19.292-7.513 35.383-18.771 46.778-31.612 16.126-18.172 4.887-47.031-19.282-49.511z" fill="#ffb78c"/><g><g><path d="m176.558 227.421c-4.143 0-7.5-3.358-7.5-7.5v-13.824c0-4.142 3.357-7.5 7.5-7.5s7.5 3.358 7.5 7.5v13.824c0 4.142-3.357 7.5-7.5 7.5z" fill="#423e4f"/></g><g><path d="m320.442 227.421c-4.143 0-7.5-3.358-7.5-7.5v-13.824c0-4.142 3.357-7.5 7.5-7.5s7.5 3.358 7.5 7.5v13.824c0 4.142-3.358 7.5-7.5 7.5z" fill="#423e4f"/></g></g><g><path d="m248.5 289.322c-9.437 0-18.411-4.087-24.622-11.213-2.721-3.123-2.396-7.86.727-10.582 3.122-2.721 7.86-2.397 10.582.726 3.361 3.857 8.214 6.069 13.313 6.069s9.951-2.212 13.313-6.069c2.722-3.123 7.46-3.448 10.582-.726 3.123 2.722 3.447 7.459.727 10.582-6.211 7.126-15.186 11.213-24.622 11.213z" fill="#423e4f"/></g><path d="m142.26 497c0-28.74 6.36-52.14 15.32-70.84h-30c-6.16 12.856-11.091 27.934-13.571 45.441-1.127 7.958-1.749 16.417-1.749 25.398h30z" fill="#ff995d"/><g><path d="m369.42 426.16-120.92 45.51-120.92-45.51c7.68-16.04 17.26-28.63 26.38-38.15l94.54 35.58 94.54-35.58c9.12 9.52 18.7 22.11 26.38 38.15z" fill="#f9f097"/></g><path d="m157.58 426.16c5.59-11.676 12.188-21.515 18.882-29.682l-22.502-8.468c-5.7 5.95-11.58 13.099-17.063 21.541-3.29 5.064-6.437 10.594-9.317 16.609l25.784 9.704c1.325-3.362 2.731-6.604 4.216-9.704z" fill="#fccb88"/><path d="m437.719 78.467-8.606-12.22c-2.108-2.993-2.608-6.832-1.338-10.266l5.187-14.018c3.2-8.646-4.904-17.209-13.713-14.489l-14.281 4.409c-3.498 1.08-7.304.369-10.177-1.9l-11.728-9.265c-7.234-5.715-17.882-.654-18.018 8.565l-.22 14.945c-.054 3.661-1.906 7.06-4.952 9.091l-12.436 8.291c-7.671 5.114-6.148 16.805 2.578 19.782l14.146 4.827c3.465 1.182 6.126 3.994 7.116 7.519l4.043 14.39c2.494 8.876 14.083 11.04 19.611 3.661l8.962-11.961c2.195-2.93 5.692-4.592 9.35-4.445l14.935.602c9.211.373 14.85-9.98 9.541-17.518z" fill="#f9f097"/></g></svg>