<svg id="Capa_1" enable-background="new 0 0 497 497" height="512" viewBox="0 0 497 497" width="512" xmlns="http://www.w3.org/2000/svg"><g><circle cx="248.5" cy="198.436" fill="#c7c5cb" r="184.429"/><path d="m94.071 198.436c0-96.807 74.588-176.184 169.429-183.819-4.948-.398-9.949-.609-15-.609-101.857 0-184.429 82.571-184.429 184.429 0 101.857 82.571 184.429 184.429 184.429 5.051 0 10.052-.211 15-.61-94.841-7.636-169.429-87.013-169.429-183.82z" fill="#b2b0bc"/><path d="m477.05 110.43-55.74 21.789 6.457-108.59c.478-8.034-9.082-12.549-14.984-7.078l-90.444 83.856-4.823-37.106c-.919-7.068-9.34-10.263-14.716-5.584l-27.119 23.603-18.728-75.267c-2.746-8.07-14.16-8.07-16.906 0l-18.728 75.267-27.118-23.603c-5.376-4.679-13.798-1.484-14.716 5.584l-4.823 37.106-90.445-83.855c-5.902-5.472-15.461-.956-14.984 7.078l6.457 108.59-55.74-21.79c-7.665-2.996-14.959 5.093-11.187 12.408l40.331 78.22c13.729 26.626 41.177 43.356 71.134 43.356h53.128 150.289 53.128c29.957 0 57.406-16.73 71.134-43.356l40.331-78.22c3.771-7.315-3.523-15.404-11.188-12.408z" fill="#f9f097"/><path d="m323.645 244.414c0 41.501-33.643 55.93-75.145 55.93s-75.145-14.428-75.145-55.93 33.643-45.816 75.145-45.816 75.145 4.315 75.145 45.816z" fill="#da9d81"/><g><g><path d="m153.653 200.728c-4.142 0-7.5-3.358-7.5-7.5v-19.237c0-4.142 3.358-7.5 7.5-7.5s7.5 3.358 7.5 7.5v19.237c0 4.142-3.358 7.5-7.5 7.5z" fill="#423e4f"/></g><g><path d="m343.347 200.728c-4.142 0-7.5-3.358-7.5-7.5v-19.237c0-4.142 3.358-7.5 7.5-7.5s7.5 3.358 7.5 7.5v19.237c0 4.142-3.357 7.5-7.5 7.5z" fill="#423e4f"/></g></g><g><path d="m248.5 253.002c-11.197 0-21.846-4.85-29.216-13.307-2.721-3.123-2.396-7.86.727-10.582 3.123-2.721 7.859-2.396 10.582.727 4.52 5.187 11.047 8.162 17.907 8.162s13.388-2.975 17.908-8.162c2.721-3.123 7.459-3.448 10.582-.727s3.448 7.459.727 10.582c-7.371 8.457-18.019 13.307-29.217 13.307z" fill="#423e4f"/></g><path d="m445.076 291.988h-76.182c-14.739 0-28.388 7.427-36.72 19.586-32.494 47.416-83.674 57.471-83.674 57.471s-51.181-10.054-83.674-57.471c-8.332-12.158-21.981-19.586-36.72-19.586h-76.182c-12.963 0-20.025 15.177-11.637 25.06 16.788 19.782 46.472 49.571 94.854 83.101 0 0-45.493 38.175-45.493 96.851h120.949l37.903-13.827 37.903 13.827h120.949c0-58.676-45.493-96.851-45.493-96.851 48.382-33.531 78.066-63.319 94.854-83.101 8.388-9.884 1.326-25.06-11.637-25.06z" fill="#fccb88"/><path d="m143.232 384.294c-35.684-26.995-58.856-50.644-72.945-67.246-8.388-9.883-1.326-25.06 11.637-25.06h-30c-12.967 0-20.023 15.179-11.633 25.065 16.789 19.782 46.472 49.569 94.85 83.097 0 0-45.493 38.175-45.493 96.851h30c0-34.136 15.398-61.333 28.277-78.112 8.312-10.829 6.194-26.36-4.693-34.595z" fill="#fab659"/><g><path d="m140.824 497v-45.951c0-4.142 3.358-7.5 7.5-7.5s7.5 3.358 7.5 7.5v45.951z" fill="#fab659"/></g><g><path d="m341.176 497v-45.951c0-4.142 3.358-7.5 7.5-7.5s7.5 3.358 7.5 7.5v45.951z" fill="#fab659"/></g><path d="m286.403 497 22.888-49.941-43.923 13.452-16.868-42.728-16.868 42.728-43.923-13.452 22.888 49.941z" fill="#f9f097"/></g></svg>