<svg id="Capa_1" enable-background="new 0 0 497 497" height="512" viewBox="0 0 497 497" width="512" xmlns="http://www.w3.org/2000/svg"><g><path d="m125.401 396.019-40.267.119c-7.314.022-11.72 8.114-7.768 14.269l21.765 33.9c12.539 19.53 43.042 20.243 54.651-3.734 9.997-20.654-5.436-44.622-28.381-44.554z" fill="#f9f097"/><path d="m371.599 396.019 40.267.119c7.314.022 11.72 8.114 7.768 14.269l-21.765 33.9c-12.539 19.53-43.042 20.243-54.651-3.734-9.997-20.654 5.436-44.622 28.381-44.554z" fill="#f9f097"/><path d="m332.596 371.096s65.054 31.622 65.054 125.904h-298.3c0-94.281 65.054-125.904 65.054-125.904z" fill="#ff748f"/><path d="m194.404 371.096h-30s-65.054 31.623-65.054 125.904h30c0-94.281 65.054-125.904 65.054-125.904z" fill="#fd5f7e"/><path d="m57.552 174.914-39.487 21.378c-7.173 3.883-7.227 14.158-.096 18.117l39.278 21.805c22.512 12.497 50.797-2.869 51.72-28.6.021-.597.032-1.196.032-1.798 0-.712-.015-1.421-.045-2.126-1.086-25.564-28.9-40.958-51.402-28.776z" fill="#f9f097"/><path d="m439.448 174.914 39.487 21.378c7.173 3.883 7.227 14.158.096 18.117l-39.278 21.805c-22.512 12.497-50.797-2.869-51.72-28.6-.021-.597-.032-1.196-.032-1.798 0-.712.015-1.421.045-2.126 1.086-25.564 28.9-40.958 51.402-28.776z" fill="#f9f097"/><circle cx="248.5" cy="205.801" fill="#a4e6ff" r="185.42"/><path d="m93.08 205.801c0-97.354 75.031-177.177 170.42-184.814-4.948-.396-9.95-.606-15-.606-102.405 0-185.42 83.016-185.42 185.42 0 102.405 83.015 185.42 185.42 185.42 5.05 0 10.052-.209 15-.605-95.389-7.638-170.42-87.461-170.42-184.815z" fill="#5bd6fd"/><path d="m279.387 44.9-21.379-39.488c-3.883-7.173-14.158-7.227-18.117-.096l-21.805 39.278c-12.497 22.512 2.869 50.797 28.6 51.72.597.021 1.196.032 1.798.032.712 0 1.421-.015 2.126-.045 25.565-1.085 40.959-28.9 28.777-51.401z" fill="#f9f097"/><path d="m217.613 366.702 21.378 39.487c3.883 7.173 14.158 7.227 18.117.096l21.805-39.278c12.497-22.512-2.869-50.797-28.6-51.72-.597-.021-1.196-.032-1.798-.032-.712 0-1.421.015-2.126.045-25.564 1.086-40.958 28.901-28.776 51.402z" fill="#f9f097"/><g fill="#fccb88"><path d="m126.519 60.171-43.038-12.805c-7.818-2.326-15.121 4.901-12.878 12.743l12.355 43.191c7.081 24.755 37.947 33.89 56.795 16.348.437-.407.869-.823 1.294-1.249.504-.504.994-1.016 1.471-1.535 17.309-18.844 8.527-49.396-15.999-56.693z"/><path d="m126.519 351.431-43.039 12.805c-7.818 2.326-15.121-4.901-12.878-12.743l12.355-43.192c7.081-24.755 37.947-33.89 56.795-16.348.437.407.869.823 1.294 1.249.504.504.994 1.016 1.471 1.535 17.31 18.844 8.528 49.397-15.998 56.694z"/><path d="m370.481 60.171 43.039-12.805c7.818-2.326 15.121 4.901 12.878 12.743l-12.356 43.191c-7.081 24.755-37.947 33.89-56.795 16.348-.437-.407-.869-.823-1.294-1.249-.504-.504-.994-1.016-1.471-1.535-17.309-18.844-8.527-49.396 15.999-56.693z"/><path d="m370.481 351.431 43.039 12.805c7.818 2.326 15.121-4.901 12.878-12.743l-12.355-43.192c-7.081-24.755-37.947-33.89-56.795-16.348-.437.407-.869.823-1.294 1.249-.504.504-.994 1.016-1.471 1.535-17.31 18.844-8.528 49.397 15.998 56.694z"/></g><path d="m338.164 144.285c30.036 0 54.386 24.349 54.386 54.386 0 .626-.011 1.249-.032 1.87-1.286 38.062-41.419 61.833-76.243 46.418-8.235-3.645-17.501-9.424-25.365-18.551-10.662-12.375-26.09-19.62-42.424-19.62-16.334 0-31.762 7.245-42.424 19.62-7.864 9.127-17.131 14.906-25.365 18.551-34.824 15.414-74.957-8.357-76.243-46.418-.021-.621-.032-1.244-.032-1.87 0-30.036 24.349-54.386 54.386-54.386z" fill="#ff748f"/><g><g><path d="m163.346 210.452c-4.142 0-7.5-3.358-7.5-7.5v-16.363c0-4.142 3.358-7.5 7.5-7.5s7.5 3.358 7.5 7.5v16.363c0 4.142-3.358 7.5-7.5 7.5z" fill="#423e4f"/></g><g><path d="m333.654 210.452c-4.142 0-7.5-3.358-7.5-7.5v-16.363c0-4.142 3.358-7.5 7.5-7.5s7.5 3.358 7.5 7.5v16.363c0 4.142-3.358 7.5-7.5 7.5z" fill="#423e4f"/></g></g><g><path d="m248.5 256.212c-9.024 0-17.606-3.908-23.545-10.723-2.721-3.123-2.396-7.86.727-10.582 3.122-2.721 7.86-2.396 10.582.727 3.089 3.545 7.549 5.578 12.237 5.578s9.147-2.033 12.237-5.578c2.722-3.123 7.459-3.448 10.582-.727s3.448 7.459.727 10.582c-5.94 6.814-14.522 10.723-23.547 10.723z" fill="#423e4f"/></g><g><path d="m153.655 497v-44.792c0-4.142 3.358-7.5 7.5-7.5s7.5 3.358 7.5 7.5v44.792z" fill="#fd5f7e"/></g><g><path d="m328.345 497v-44.792c0-4.142 3.358-7.5 7.5-7.5s7.5 3.358 7.5 7.5v44.792z" fill="#fd5f7e"/></g></g></svg>