<svg id="Capa_1" enable-background="new 0 0 497 497" height="512" viewBox="0 0 497 497" width="512" xmlns="http://www.w3.org/2000/svg"><g><path d="m354.179 485.205 39.91-22.496c19.232-10.84 25.567-35.514 13.937-54.279-2.37-3.824-7.335-5.099-11.255-2.89l-31.915-9.795-45.39 53.368z" fill="#5c586f"/><path d="m142.821 485.205-39.91-22.496c-19.232-10.84-25.567-35.514-13.937-54.279 2.37-3.824 7.335-5.099 11.255-2.89l31.915-9.795 45.39 53.368z" fill="#5c586f"/><path d="m423.039 344.312c-2.37-3.824-7.335-5.099-11.255-2.89l-77.305 43.573-5.592 58.808 80.214-45.213c19.233-10.84 25.568-35.514 13.938-54.278z" fill="#77718c"/><path d="m73.961 344.312c2.37-3.824 7.335-5.099 11.255-2.89l77.305 43.573 5.592 58.808-80.215-45.213c-19.232-10.84-25.567-35.514-13.937-54.278z" fill="#77718c"/><path d="m492.001 195.13-13.449-18.061-35.189-7.458-44.594 62.222-.586 59.071 87.775-59.811c11.873-8.09 14.62-24.438 6.043-35.963z" fill="#f9f097"/><path d="m4.999 195.13 13.449-18.061 35.189-7.458 44.594 62.222.586 59.071-87.775-59.811c-11.873-8.09-14.62-24.438-6.043-35.963z" fill="#f9f097"/><path d="m492.001 136.059-13.454-18.057-41.082-3.366-38.695 58.127-.586 59.071 87.775-59.811c11.872-8.091 14.619-24.438 6.042-35.964z" fill="#fccb88"/><path d="m492.001 76.989-8.439-11.341c-2.686-3.61-7.741-4.459-11.459-1.925l-73.332 49.97-.586 59.071 87.775-59.811c11.871-8.091 14.618-24.439 6.041-35.964z" fill="#f9f097"/><path d="m4.999 136.059 13.454-18.057 41.082-3.366 38.695 58.127.586 59.071-87.775-59.811c-11.872-8.091-14.619-24.438-6.042-35.964z" fill="#fccb88"/><path d="m4.999 76.989 8.439-11.341c2.686-3.61 7.741-4.459 11.459-1.925l73.333 49.97.586 59.071-87.775-59.811c-11.872-8.091-14.619-24.439-6.042-35.964z" fill="#f9f097"/><path d="m321.862 360.141h-146.724s-56.879 33.481-56.879 133.222h103.951l26.289-15.805 26.289 15.805h103.952c0-99.741-56.878-133.222-56.878-133.222z" fill="#f9f097"/><path d="m205.138 360.141h-30s-56.879 33.481-56.879 133.222h30c.001-99.741 56.879-133.222 56.879-133.222z" fill="#fccb88"/><circle cx="248.5" cy="189.418" fill="#77718c" r="185.78"/><path d="m92.72 189.418c0-97.554 75.192-177.538 170.78-185.176-4.949-.396-9.95-.604-15-.604-102.604 0-185.78 83.176-185.78 185.78s83.177 185.78 185.78 185.78c5.05 0 10.051-.209 15-.604-95.588-7.639-170.78-87.623-170.78-185.176z" fill="#5c586f"/><path d="m391.328 141.588c-13.576-23.464-42.94-32.455-67.356-20.675-21.469 10.358-43.721 16.309-58.449 19.459-11.219 2.4-22.827 2.4-34.046 0-14.728-3.15-36.979-9.102-58.449-19.459-24.416-11.779-53.78-2.789-67.356 20.675-15.397 26.61-4.471 60.968 23.726 73.22 12.858 5.587 28.278 9.304 46.05 8.459 6.75-.321 11.599 6.425 9.088 12.698-10.266 25.65-19.712 75.921 63.965 75.921s74.231-50.271 63.965-75.921c-2.511-6.273 2.338-13.019 9.088-12.698 17.772.845 33.192-2.871 46.05-8.459 28.195-12.252 39.121-46.61 23.724-73.22z" fill="#f9f097"/><g><g><path d="m175.138 196.315c-4.142 0-7.5-3.358-7.5-7.5v-15.189c0-4.142 3.358-7.5 7.5-7.5s7.5 3.358 7.5 7.5v15.189c0 4.142-3.357 7.5-7.5 7.5z" fill="#423e4f"/></g><g><path d="m321.862 196.315c-4.142 0-7.5-3.358-7.5-7.5v-15.189c0-4.142 3.358-7.5 7.5-7.5s7.5 3.358 7.5 7.5v15.189c0 4.142-3.358 7.5-7.5 7.5z" fill="#423e4f"/></g></g><g><path d="m248.5 235.444c-11.109 0-21.674-4.812-28.986-13.202-2.721-3.123-2.396-7.86.727-10.582 3.123-2.721 7.86-2.397 10.582.726 4.462 5.12 10.906 8.057 17.678 8.057s13.216-2.937 17.678-8.057c2.722-3.123 7.459-3.448 10.582-.727s3.448 7.459.727 10.582c-7.313 8.391-17.878 13.203-28.988 13.203z" fill="#423e4f"/></g><g><path d="m314.362 493.363v-49.451c0-4.142 3.358-7.5 7.5-7.5s7.5 3.358 7.5 7.5v49.451z" fill="#fccb88"/></g><g><path d="m167.638 493.363v-49.451c0-4.142 3.358-7.5 7.5-7.5s7.5 3.358 7.5 7.5v49.451z" fill="#fccb88"/></g><path d="m256.177 416.203-7.677-7.677-7.677 7.677c-11.917 11.917-18.612 28.079-18.612 44.932v32.228h52.578v-32.228c0-16.853-6.695-33.016-18.612-44.932z" fill="#fccb88"/></g></svg>