<svg id="Capa_1" enable-background="new 0 0 497 497" height="512" viewBox="0 0 497 497" width="512" xmlns="http://www.w3.org/2000/svg"><g><path d="m78.087 158.472-53.969-37.782c-8.123-5.687-19.285.125-19.285 10.04v67.867c0 33.337 18.721 64.122 48.734 78.634 12.609 6.097 27.922 10.966 46.228 12.893z" fill="#ff748f"/><path d="m418.913 158.472 53.969-37.782c8.123-5.687 19.285.125 19.285 10.04v67.867c0 33.337-18.721 64.122-48.734 78.634-12.609 6.097-27.922 10.966-46.228 12.893z" fill="#ff748f"/><path d="m142.363 497h-36.021c0-60.442 19.935-99.468 28.508-113.434 14.624-23.825 30.041-35.784 35.99-39.828h155.32c5.949 4.045 21.365 16.003 35.99 39.828 8.573 13.966 28.508 52.991 28.508 113.434h-36.021l-106.137-23.144z" fill="#e8e8e8"/><path d="m354.637 497h-212.274c0-44.398 12.607-77.352 23.187-94.59 11.568-18.844 23.29-27.345 25.523-28.858h114.854c2.233 1.513 13.955 10.014 25.523 28.858 10.58 17.238 23.187 50.192 23.187 94.59z" fill="#ff748f"/><circle cx="248.5" cy="199.341" fill="#a4e6ff" r="187.293"/><path d="m91.207 199.341c0-98.389 75.868-179.052 172.293-186.694-4.949-.392-9.95-.599-15-.599-103.439 0-187.293 83.854-187.293 187.293s83.854 187.293 187.293 187.293c5.05 0 10.051-.207 15-.599-96.425-7.642-172.293-88.305-172.293-186.694z" fill="#5bd6fd"/><path d="m156.448 192.645c-3.305 9.774-5.097 20.245-5.097 31.135 0 53.654 43.495 97.149 97.149 97.149s97.149-43.495 97.149-97.149c0-6.89-.722-13.611-2.086-20.095z" fill="#fed2a4"/><path d="m426.831 107.382c-6.214-11.998-20.891-16.824-33.054-10.939l-145.277 70.29-145.277-70.29c-12.163-5.885-26.84-1.059-33.054 10.939-12.919 24.943-20.753 52.919-22.127 82.553-.29 6.264 1.765 12.41 5.787 17.221 19.543 23.377 85.613 86.859 180.877 16.042 8.187-6.086 19.4-6.086 27.587 0 95.265 70.816 161.335 7.335 180.877-16.042 4.022-4.811 6.077-10.957 5.787-17.221-1.373-29.633-9.207-57.61-22.126-82.553z" fill="#f9f097"/><path d="m84.639 232.343c-4.418-5.285-6.677-12.037-6.358-18.918 1.509-32.555 10.116-63.289 24.308-90.691 4.875-9.413 14.491-14.803 24.457-14.764l-23.823-11.527c-12.163-5.885-26.84-1.059-33.054 10.939-12.919 24.943-20.753 52.919-22.127 82.553-.29 6.264 1.765 12.41 5.787 17.221 6.775 8.104 19.146 21.025 36.381 31.503-2.126-2.291-3.991-4.425-5.571-6.316z" fill="#fccb88"/><g><g><path d="m147.787 215.767c-4.142 0-7.5-3.358-7.5-7.5v-20.382c0-4.142 3.358-7.5 7.5-7.5s7.5 3.358 7.5 7.5v20.382c0 4.142-3.358 7.5-7.5 7.5z" fill="#423e4f"/></g><g><path d="m349.213 215.767c-4.142 0-7.5-3.358-7.5-7.5v-20.382c0-4.142 3.358-7.5 7.5-7.5s7.5 3.358 7.5 7.5v20.382c0 4.142-3.358 7.5-7.5 7.5z" fill="#423e4f"/></g></g><g><path d="m248.5 274.872c-11.022 0-21.504-4.774-28.759-13.098-2.722-3.123-2.396-7.86.726-10.582 3.122-2.721 7.86-2.396 10.582.726 4.405 5.054 10.766 7.953 17.451 7.953s13.046-2.899 17.451-7.953c2.721-3.123 7.458-3.447 10.582-.726 3.123 2.721 3.448 7.459.726 10.582-7.255 8.324-17.737 13.098-28.759 13.098z" fill="#423e4f"/></g><g fill="#ff748f"><path d="m248.5 0c-12.443 0-22.53 10.087-22.53 22.53v38.524c0 12.443 10.087 22.53 22.53 22.53s22.53-10.087 22.53-22.53v-38.524c0-12.443-10.087-22.53-22.53-22.53z"/><path d="m170.295 24.7c-10.463 0-18.945 8.482-18.945 18.945v32.394c0 10.463 8.482 18.945 18.945 18.945s18.945-8.482 18.945-18.945v-32.394c0-10.463-8.482-18.945-18.945-18.945z"/><path d="m326.705 24.7c10.463 0 18.945 8.482 18.945 18.945v32.394c0 10.463-8.482 18.945-18.945 18.945s-18.945-8.482-18.945-18.945v-32.394c0-10.463 8.482-18.945 18.945-18.945z"/></g></g></svg>