<svg id="Capa_1" enable-background="new 0 0 497 497" height="512" viewBox="0 0 497 497" width="512" xmlns="http://www.w3.org/2000/svg"><g><g fill="#e8e8e8"><path d="m487.66 296.844-9.459-24.992c-2.241-5.922-8.566-9.222-14.705-7.672l-23.332 5.889-13.754 51.036 42.193 24.12 7.435-5.944c12.669-10.127 17.363-27.268 11.622-42.437z"/><path d="m413.837 388.989-47.758 38.169-45.256-24.505v-77.308l32.863-33.464 21.362-5.385 51.362 34.61z"/><path d="m9.34 296.844 9.459-24.992c2.241-5.922 8.566-9.222 14.705-7.672l23.332 5.889 13.754 51.036-42.193 24.12-7.435-5.944c-12.669-10.127-17.363-27.268-11.622-42.437z"/><path d="m83.163 388.989 47.758 38.169 45.256-24.505v-77.308l-32.863-33.464-21.362-5.385-51.362 34.61z"/></g><path d="m468.603 345.225-54.766 43.764-38.789-102.493 65.116-16.427z" fill="#ffb78c"/><path d="m28.397 345.225 54.766 43.764 38.789-102.493-65.116-16.427z" fill="#ffb78c"/><path d="m101.644 497c0-98.024 59.916-148.359 59.916-148.359h173.88s59.916 50.336 59.916 148.359z" fill="#ffb78c"/><path d="m191.56 348.641h-30s-59.916 50.335-59.916 148.359h30c0-98.024 59.916-148.359 59.916-148.359z" fill="#ff995d"/><circle cx="248.5" cy="185.147" fill="#76e6d5" r="185.147"/><path d="m103.353 185.147c0-95.496 72.301-174.095 165.147-184.069-6.571-.706-13.242-1.078-20-1.078-102.254 0-185.147 82.893-185.147 185.147s82.893 185.147 185.147 185.147c6.758 0 13.429-.372 20-1.078-92.846-9.974-165.147-88.573-165.147-184.069z" fill="#00d6bc"/><path d="m85.855 34.386.475 47.664-48.497 4.587-26.67-26.497c-7.391-7.337-7.66-19.215-.615-26.886l16.766-18.244c6.473-7.034 17.111-8.318 25.063-2.999z" fill="#ffb78c"/><path d="m410.67 134.822-120.039 119.272c-23.315 23.164-60.947 23.164-84.262 0l-120.039-119.272v-52.771l56.988-9.245 105.182 70.312 105.182-70.312 56.988 9.256z" fill="#ffb78c"/><path d="m485.837 60.14-26.67 26.498-52.742-2.034 4.72-50.218 33.478-22.376c7.952-5.319 18.59-4.035 25.063 2.999l16.766 18.244c7.046 7.671 6.776 19.55-.615 26.887z" fill="#ffb78c"/><g><g><path d="m167.056 175.614c-4.142 0-7.5-3.358-7.5-7.5v-17.723c0-4.142 3.358-7.5 7.5-7.5s7.5 3.358 7.5 7.5v17.723c0 4.142-3.358 7.5-7.5 7.5z" fill="#423e4f"/></g><g><path d="m329.944 175.614c-4.142 0-7.5-3.358-7.5-7.5v-17.723c0-4.142 3.358-7.5 7.5-7.5s7.5 3.358 7.5 7.5v17.723c0 4.142-3.358 7.5-7.5 7.5z" fill="#423e4f"/></g></g><g><path d="m248.5 200.395c-10.017 0-19.542-4.338-26.134-11.903-2.721-3.123-2.396-7.861.727-10.582s7.86-2.396 10.582.727c3.742 4.294 9.146 6.757 14.826 6.757s11.084-2.463 14.826-6.758c2.721-3.123 7.458-3.448 10.582-.726 3.123 2.721 3.448 7.459.727 10.582-6.594 7.565-16.119 11.903-26.136 11.903z" fill="#423e4f"/></g><g><path d="m326.449 497v-51.181c0-4.142 3.358-7.5 7.5-7.5s7.5 3.358 7.5 7.5v51.181z" fill="#ff995d"/></g><g><path d="m155.551 497v-51.181c0-4.142 3.358-7.5 7.5-7.5s7.5 3.358 7.5 7.5v51.181z" fill="#ff995d"/></g><path d="m303.978 401.735c-2.273-3.73-6.859-5.341-10.965-3.853l-41.385 15.001c-2.021.732-4.235.732-6.255 0l-41.385-15.001c-4.106-1.488-8.692.123-10.965 3.853s-1.602 8.544 1.603 11.511l43.131 39.927c6.005 5.529 15.394 5.641 21.488 0l43.131-39.927c3.204-2.967 3.875-7.781 1.602-11.511z" fill="#e8e8e8"/><path d="m143.318 72.806-56.988 62.016-48.497-48.184 48.022-52.252z" fill="#e8e8e8"/><path d="m459.167 86.638-48.497 48.184-56.988-62.016 57.463-38.42z" fill="#e8e8e8"/></g></svg>