<svg id="Capa_1" enable-background="new 0 0 497 497" height="512" viewBox="0 0 497 497" width="512" xmlns="http://www.w3.org/2000/svg"><g><path d="m371.987 399.738-246.944-.04c-16.109 23.355-31.754 56.524-31.754 97.302h129.945l25.281-14.15 25.25 14.15h129.945c.001-40.758-15.624-73.917-31.723-97.262z" fill="#ff748f"/><path d="m93.289 497h40c0-40.774 15.641-73.94 31.749-97.295l-39.995-.007c-16.109 23.355-31.754 56.523-31.754 97.302z" fill="#fd5f7e"/><path d="m371.987 399.738c-17.13-24.821-34.785-38.565-34.785-38.565h-177.404s-17.645 13.724-34.755 38.525c30.104 17.616 63.554 28.512 98.192 32.086v65.216h50.531v-65.211c35.1-3.616 68.502-14.696 98.221-32.051z" fill="#a4e6ff"/><path d="m155.602 414.798c3.05-5.408 6.235-10.452 9.441-15.1 17.11-24.8 34.755-38.524 34.755-38.524h-40c-.209.207-17.426 13.407-34.755 38.524 9.851 5.765 20.067 10.795 30.559 15.1z" fill="#5bd6fd"/><path d="m75.024 275.829c32.017 63.315 97.677 106.725 173.475 106.725 74.417 0 139.061-41.841 171.691-103.282l-171.69-68.385z" fill="#ffdcce"/><path d="m75.024 275.829c32.017 63.315 97.677 106.725 173.475 106.725 6.756 0 13.431-.35 20.01-1.022-67.234-6.873-124.319-48.025-153.485-105.702h-40z" fill="#ffcabd"/><path d="m75.629 179.096s-23.858 10.292-37.694 40.661c-6.553 14.383-6.837 30.8-.946 45.466 8.061 20.07 25.333 51.151 61.019 79.263 10.809 8.515 26.758 4.141 31.622-8.731 9.632-25.486 34.824-64.655 100.711-95.199z" fill="#a4e6ff"/><path d="m75.629 179.096s-23.858 10.292-37.694 40.661c-6.553 14.383-6.837 30.8-.946 45.466 1.752 4.361 3.94 9.244 6.656 14.501.733-8.844 2.955-17.584 6.712-25.831 18.798-41.26 51.213-55.243 51.213-55.243z" fill="#5bd6fd"/><path d="m421.371 179.096s23.858 10.292 37.694 40.661c6.553 14.383 6.837 30.8.946 45.466-8.061 20.07-25.333 51.151-61.019 79.263-10.809 8.515-26.758 4.141-31.622-8.731-9.632-25.486-34.824-64.655-100.711-95.199z" fill="#a4e6ff"/><path d="m208.075 23.246-38.645-18.549c-19.943-9.572-43.87-4.173-57.715 13.079-17.038 21.232-31.626 56.78-14.893 111.162l121.509 59.342 30.169-82.655z" fill="#a4e6ff"/><path d="m126.822 129.939c-16.733-54.382-2.144-89.93 14.894-111.162 6.245-7.783 14.545-13.144 23.603-15.816-19.033-7.042-40.698-1.266-53.603 14.816-17.038 21.232-31.626 56.78-14.894 111.162z" fill="#5bd6fd"/><path d="m385.284 17.777c-13.844-17.253-37.772-22.652-57.714-13.08l-38.645 18.549-40.425 82.38 30.169 82.655 121.509-59.342c16.733-54.382 2.144-89.93-14.894-111.162z" fill="#a4e6ff"/><path d="m431.612 170.166-17.655-41.481c-3.868-9.088-14.371-13.32-23.459-9.452l-101.573 43.231v-139.218h-80.849v139.218l-101.573-43.231c-9.088-3.868-19.591.364-23.459 9.452l-17.655 41.481c-3.868 9.088.364 19.591 9.452 23.459l116.496 49.582c36.524 15.545 77.803 15.545 114.326 0l116.497-49.582c9.088-3.868 13.32-14.371 9.452-23.459z" fill="#ff748f"/><path d="m94.842 184.449 18.382-43.191c3.212-7.546 10.817-11.86 18.565-11.262l-25.286-10.762c-9.088-3.868-19.591.364-23.459 9.452l-17.654 41.481c-3.868 9.088.364 19.591 9.452 23.459l22.448 9.554c-4.015-5.164-5.191-12.288-2.448-18.731z" fill="#fd5f7e"/><g fill="#423e4f"><path d="m185.653 177.331-31.434-8.423c-3.999-1.071-8.113 1.302-9.186 5.303-1.072 4.001 1.302 8.114 5.303 9.186l12.014 3.219c-.987 1.27-1.581 2.861-1.581 4.594v13.541c0 4.143 3.358 7.5 7.5 7.5s7.5-3.357 7.5-7.5v-13.541c0-.347-.032-.685-.077-1.02l6.079 1.629c.65.174 1.303.257 1.946.257 3.311 0 6.342-2.21 7.24-5.561 1.072-3.999-1.302-8.111-5.304-9.184z"/><path d="m351.966 174.212c-1.072-4.001-5.183-6.375-9.186-5.303l-31.434 8.423c-4.001 1.072-6.375 5.185-5.304 9.186.898 3.351 3.928 5.561 7.24 5.561.643 0 1.296-.083 1.946-.257l6.079-1.629c-.046.334-.077.673-.077 1.02v13.541c0 4.143 3.358 7.5 7.5 7.5s7.5-3.357 7.5-7.5v-13.541c0-1.733-.594-3.324-1.581-4.594l12.014-3.219c4.001-1.075 6.375-5.187 5.303-9.188z"/><path d="m270.067 273.133c-3.123-2.722-7.86-2.396-10.582.727-2.773 3.182-6.777 5.008-10.985 5.008s-8.211-1.826-10.985-5.008c-2.722-3.123-7.459-3.448-10.582-.727s-3.448 7.459-.727 10.582c5.623 6.452 13.749 10.153 22.293 10.153s16.67-3.701 22.293-10.153c2.723-3.123 2.397-7.861-.725-10.582z"/></g></g></svg>