<svg id="Capa_1" enable-background="new 0 0 497 497" height="512" viewBox="0 0 497 497" width="512" xmlns="http://www.w3.org/2000/svg"><g><path d="m335.239 371.72s55.138 43.529 55.138 125.28h-283.754c0-81.751 55.138-125.28 55.138-125.28z" fill="#da9d81"/><path d="m183.761 371.72h-22s-55.138 43.529-55.138 125.28h22c0-81.751 55.138-125.28 55.138-125.28z" fill="#c7856a"/><circle cx="248.5" cy="201.26" fill="#ff748f" r="191.221"/><path d="m97.279 201.26c0-98.854 75.013-180.183 171.221-190.182-6.574-.684-13.245-1.039-20-1.039-105.608 0-191.221 85.612-191.221 191.221s85.613 191.221 191.221 191.221c6.755 0 13.426-.355 20-1.039-96.208-9.999-171.221-91.328-171.221-190.182z" fill="#fd5f7e"/><path d="m226.146 497v-14.552c0-12.326 10.028-22.353 22.354-22.353s22.353 10.027 22.353 22.353v14.552h30.132v-14.552c0-28.941-23.545-52.486-52.486-52.486s-52.486 23.545-52.486 52.486v14.552z" fill="#fccb88"/><g><path d="m248.5 475.161c-8.321 0-15.066-6.745-15.066-15.066v-80.353c0-8.321 6.745-15.066 15.066-15.066s15.066 6.745 15.066 15.066v80.353c0 8.32-6.745 15.066-15.066 15.066z" fill="#f9f097"/></g><path d="m248.5 432.529c5.023 0 10.051-.167 15.066-.492v-52.295c0-8.321-6.745-15.066-15.066-15.066s-15.066 6.746-15.066 15.066v52.295c5.014.325 10.043.492 15.066.492z" fill="#fccb88"/><path d="m446.63 165.762c-2.584-14.455-17.748-22.962-31.386-17.519-21.341 8.518-52.526 16.383-96.375 17.867-9.442.321-18.592-3.274-25.271-9.954-6.408-6.398-9.974-15.096-9.974-24.126 0-.382.01-.753.02-1.135 1.491-43.849 9.356-75.034 17.873-96.372 5.444-13.639-3.063-28.803-17.518-31.388-11.527-2.06-23.39-3.135-35.499-3.135s-23.972 1.075-35.499 3.135c-14.456 2.584-22.962 17.749-17.518 31.388 8.517 21.338 16.382 52.523 17.873 96.372.01.382.02.753.02 1.135 0 9.03-3.566 17.728-9.974 24.126-6.679 6.679-15.829 10.275-25.271 9.954-43.849-1.484-75.034-9.349-96.375-17.867-13.638-5.443-28.802 3.064-31.386 17.519-2.06 11.526-3.135 23.39-3.135 35.503 0 12.107 1.074 23.969 3.134 35.493 2.584 14.455 17.748 22.962 31.386 17.518 21.341-8.518 52.526-16.383 96.375-17.867 9.442-.321 18.592 3.274 25.271 9.954 6.408 6.398 9.974 15.096 9.974 24.126 0 .382-.01.753-.02 1.135-1.491 43.852-9.357 75.042-17.874 96.383-5.443 13.638 3.063 28.803 17.519 31.387 11.528 2.061 23.391 3.135 35.5 3.135s23.972-1.075 35.5-3.135c14.455-2.584 22.962-17.748 17.519-31.387-8.518-21.341-16.384-52.532-17.874-96.383-.311-9.431 3.274-18.592 9.954-25.261 6.408-6.408 15.076-9.974 24.106-9.974.392 0 .773.01 1.165.02 43.849 1.484 75.034 9.349 96.375 17.867 13.638 5.443 28.802-3.063 31.386-17.518 2.06-11.524 3.134-23.386 3.134-35.493-.001-12.114-1.075-23.977-3.135-35.503z" fill="#f9f097"/><g fill="#fccb88"><circle cx="248.5" cy="53.661" r="16.537"/><circle cx="396.1" cy="201.26" r="16.537"/><circle cx="248.5" cy="348.86" r="16.537"/><circle cx="100.9" cy="201.26" r="16.537"/></g><path d="m269.965 216.077c-3.123-2.722-7.86-2.396-10.582.726-2.748 3.153-6.715 4.962-10.883 4.962-4.169 0-8.136-1.809-10.883-4.961-2.721-3.124-7.46-3.448-10.581-.728-3.123 2.721-3.449 7.459-.728 10.582 5.597 6.423 13.685 10.107 22.191 10.107 8.505 0 16.594-3.684 22.191-10.106 2.722-3.122 2.398-7.86-.725-10.582z" fill="#423e4f"/><path d="m353.984 185.45c-1.072-4.001-5.185-6.375-9.186-5.303l-30.432 8.154c-4.001 1.072-6.375 5.185-5.303 9.186.897 3.351 3.928 5.561 7.239 5.561.643 0 1.296-.083 1.946-.257l5.509-1.476v13.764c0 4.142 3.357 7.5 7.5 7.5s7.5-3.358 7.5-7.5v-16.122c0-.554-.064-1.093-.179-1.613l10.101-2.707c4.003-1.073 6.377-5.186 5.305-9.187z" fill="#423e4f"/><path d="m182.633 188.301-30.431-8.154c-4.002-1.072-8.114 1.302-9.186 5.303s1.302 8.114 5.303 9.186l10.101 2.707c-.114.521-.179 1.059-.179 1.613v16.122c0 4.142 3.357 7.5 7.5 7.5s7.5-3.358 7.5-7.5v-13.764l5.508 1.476c.65.175 1.304.258 1.946.258 3.312 0 6.342-2.21 7.239-5.561 1.074-4.001-1.3-8.114-5.301-9.186z" fill="#423e4f"/><path d="m345.662 497v-47.23c0-4.142-3.357-7.5-7.5-7.5s-7.5 3.358-7.5 7.5v47.23z" fill="#c7856a"/><path d="m166.337 497v-47.23c0-4.142-3.357-7.5-7.5-7.5s-7.5 3.358-7.5 7.5v47.23z" fill="#c7856a"/></g></svg>