<svg id="Capa_1" enable-background="new 0 0 496.998 496.998" height="512" viewBox="0 0 496.998 496.998" width="512" xmlns="http://www.w3.org/2000/svg"><g><g><path d="m356.898 395.31c9.059-4.593 20.093-1.9 26.061 6.319 4.22 5.813 8.306 12.179 12.055 19.102 5.543 10.234 1.588 23.028-8.794 28.288l-9.457 4.791h-32.933v-51.875z" fill="#f9f097"/><path d="m140.1 395.31c-9.059-4.593-20.093-1.9-26.061 6.319-4.22 5.813-8.306 12.179-12.055 19.102-5.543 10.234-1.588 23.028 8.794 28.288l9.457 4.791h32.934v-51.875z" fill="#f9f097"/><path d="m384.107 496.995h-271.216c0-16.065 2.847-30.459 7.343-43.184 7.977-22.563 21.175-39.865 32.934-51.875 13.328-13.61 24.826-20.42 24.826-20.42h141.01s65.103 38.607 65.103 115.479z" fill="#c7c5cb"/><path d="m183.168 401.936c13.328-13.61 24.826-20.42 24.826-20.42h-30s-11.498 6.81-24.826 20.42c-11.759 12.011-24.957 29.313-32.934 51.875-4.496 12.725-7.343 27.119-7.343 43.184h30c0-16.065 2.847-30.459 7.343-43.184 7.977-22.563 21.175-39.864 32.934-51.875z" fill="#b2b0bc"/><circle cx="248.499" cy="206.105" fill="#da9d81" r="189.008"/><path d="m89.491 206.105c0-99.337 76.635-180.77 174.008-188.416-4.949-.389-9.951-.592-15-.592-104.386 0-189.008 84.622-189.008 189.008s84.622 189.008 189.008 189.008c5.049 0 10.051-.203 15-.592-97.373-7.646-174.008-89.079-174.008-188.416z" fill="#c7856a"/><g fill="#e8e8e8"><path d="m168.907 170.897h-95.83c-12.276 0-22.386 9.548-23.204 21.797-.296 4.432-.446 8.904-.446 13.41s.15 8.978.446 13.41c.818 12.249 10.928 21.797 23.204 21.797h95.83z"/><path d="m328.09 170.897h95.83c12.276 0 22.386 9.548 23.204 21.797.296 4.432.446 8.904.446 13.41s-.15 8.978-.446 13.41c-.818 12.249-10.928 21.797-23.204 21.797h-95.83z"/><circle cx="248.499" cy="260.19" r="85.057"/></g><circle cx="168.907" cy="203.312" fill="#c7c5cb" r="56.019"/><circle cx="328.09" cy="203.312" fill="#c7c5cb" r="56.019"/><g><path d="m389.611 65.826c8.037 8.081 7.678 21.255-.679 29.005l-116.492 108.044c-6.75 6.257-15.35 9.395-23.941 9.395s-17.191-3.139-23.941-9.395l-116.493-108.044c-8.356-7.75-8.716-20.924-.679-29.005 7.939-7.982 16.548-15.298 25.737-21.855 7.796-5.563 18.442-4.841 25.464 1.672l89.912 83.397 89.912-83.397c7.022-6.513 17.668-7.235 25.464-1.672 9.188 6.557 17.798 13.873 25.736 21.855z" fill="#77718c"/></g><path d="m79.874 219.513c-.296-4.432-.446-8.904-.446-13.41 0-4.505.15-8.978.446-13.41.818-12.249 10.928-21.797 23.204-21.797h-30c-12.276 0-22.386 9.548-23.204 21.797-.296 4.432-.446 8.904-.446 13.41s.15 8.978.446 13.41c.818 12.249 10.928 21.797 23.204 21.797h30c-12.276.001-22.387-9.548-23.204-21.797z" fill="#dadad8"/><path d="m260.105 0h-23.212c-10.792 0-19.541 8.749-19.541 19.541v31.094c0 10.792 8.749 19.541 19.541 19.541h23.212c10.792 0 19.541-8.749 19.541-19.541v-31.094c0-10.792-8.749-19.541-19.541-19.541z" fill="#c7c5cb"/><path d="m289.017 213.568v6.096c0 11.196-4.537 21.325-11.87 28.659-7.323 7.333-17.463 11.87-28.649 11.87-22.382 0-40.518-18.147-40.518-40.528v-6.096c10.844 9.254 25.017 16.98 40.518 16.98s29.675-7.727 40.519-16.981z" fill="#fccb88"/><path d="m289.017 211.415v2.153c-10.844 9.254-25.017 16.98-40.518 16.98s-29.675-7.725-40.518-16.98v-2.153c0-22.372 18.137-40.518 40.518-40.518s40.518 18.146 40.518 40.518z" fill="#f9f097"/><path d="m260.105 376.213h-23.212c-10.792 0-19.541 8.749-19.541 19.541v31.094c0 10.792 8.749 19.541 19.541 19.541h23.212c10.792 0 19.541-8.749 19.541-19.541v-31.094c0-10.792-8.749-19.541-19.541-19.541z" fill="#77718c"/></g><g><g><path d="m168.907 219.568c-4.142 0-7.5-3.358-7.5-7.5v-17.548c0-4.142 3.358-7.5 7.5-7.5s7.5 3.358 7.5 7.5v17.548c0 4.142-3.358 7.5-7.5 7.5z" fill="#423e4f"/></g></g><g><g><path d="m328.091 219.568c-4.142 0-7.5-3.358-7.5-7.5v-17.548c0-4.142 3.358-7.5 7.5-7.5s7.5 3.358 7.5 7.5v17.548c0 4.142-3.358 7.5-7.5 7.5z" fill="#423e4f"/></g></g><g><path d="m170.706 496.998v-50.31c0-4.142 3.358-7.5 7.5-7.5s7.5 3.358 7.5 7.5v50.31z" fill="#b2b0bc"/></g><g><path d="m311.292 496.998v-50.31c0-4.142 3.358-7.5 7.5-7.5s7.5 3.358 7.5 7.5v50.31z" fill="#b2b0bc"/></g></g></svg>